<svg xmlns="http://www.w3.org/2000/svg" width="173" height="38" fill="none" viewBox="0 0 173 38"><path fill="#000" d="M53.2041 14.2146C53.5394 14.4102 53.8469 14.8854 53.8469 15.3046C53.8469 15.9753 53.2879 16.5342 52.6451 16.5342C52.4775 16.5342 52.3377 16.4784 52.198 16.4505C51.4434 15.8916 50.493 15.5282 49.487 15.5282C47.1114 15.5282 45.4905 17.4566 45.4905 19.8601C45.4905 22.2636 47.1393 24.1641 49.487 24.1641C50.6607 24.1641 51.7228 23.6888 52.5053 22.9343C52.701 22.7946 52.9525 22.7107 53.2041 22.7107C53.8469 22.7107 54.35 23.2138 54.35 23.8566C54.35 24.2758 54.0984 24.6391 53.7909 24.8347C52.645 25.8128 51.1079 26.4558 49.5149 26.4558C45.8817 26.4558 42.9193 23.4653 42.9193 19.7762C42.9193 16.0871 45.8817 13.0968 49.5149 13.0968C50.8564 13.0688 52.142 13.4879 53.2041 14.2146Z"/><path fill="#000" d="M59.8556 17.0094C57.2565 17.0094 55.1045 19.1053 55.1045 21.7045C55.1045 24.3037 57.2565 26.4836 59.8556 26.4836C62.315 26.4836 64.4112 24.2757 64.4112 21.7045C64.4112 19.1053 62.343 17.0094 59.8556 17.0094ZM59.8277 24.164C58.6539 24.164 57.6757 23.102 57.6757 21.7325C57.6757 20.3072 58.6539 19.4408 59.8277 19.4408C60.9177 19.4408 61.84 20.3351 61.84 21.7325C61.84 23.1298 60.9177 24.164 59.8277 24.164Z"/><path fill="#000" d="M65.9762 25.0303V18.4348C65.9762 17.7081 66.5351 17.1212 67.2618 17.1212C67.9605 17.1212 68.5474 17.7081 68.5474 18.4348V25.0303C68.5474 25.757 67.9605 26.3439 67.2618 26.3439C66.5631 26.3439 65.9762 25.729 65.9762 25.0303Z"/><path fill="#000" d="M65.7805 14.6338C65.7805 13.7674 66.4513 13.0968 67.2617 13.0968C68.1002 13.0968 68.7708 13.7954 68.7708 14.6338C68.7708 15.4723 68.1002 16.143 67.2617 16.143C66.4233 16.1151 65.7805 15.4443 65.7805 14.6338Z"/><path fill="#000" d="M73.4661 21.4531V25.0304C73.4661 25.7571 72.8793 26.3439 72.1806 26.3439C71.4819 26.3439 70.895 25.7571 70.895 25.0304V18.1273C70.895 17.5684 71.3422 17.1211 71.9011 17.1211C72.46 17.1211 72.8792 17.5964 72.8792 18.1273C73.9133 17.1492 74.8356 17.0094 75.702 17.0094C78.2732 17.0094 79.419 18.9377 79.419 21.1456V25.0304C79.419 25.7571 78.8321 26.3439 78.1334 26.3439C77.4346 26.3439 76.8479 25.7571 76.8479 25.0304V21.4531C76.8479 20.3351 76.7081 19.385 75.0871 19.385C73.9412 19.385 73.4661 20.3351 73.4661 21.4531Z"/><path fill="#000" d="M87.7474 22.8224C87.4399 22.8224 87.2443 22.6827 87.0766 22.4871L84.0862 19.2451V25.0303C84.0862 25.757 83.4993 26.3439 82.8006 26.3439C82.1019 26.3439 81.515 25.757 81.515 25.0303V13.5718C81.5989 13.3761 81.7945 13.2363 81.9902 13.2363C82.2137 13.2363 82.4095 13.4321 82.5492 13.5718L87.3282 18.9378C87.4679 19.1054 87.6357 19.1892 87.7474 19.1892C87.8313 19.1892 88.0269 19.1054 88.1666 18.9378L92.9456 13.5718C93.0853 13.4321 93.2531 13.2363 93.5046 13.2363C93.7282 13.2363 93.9238 13.3761 93.9798 13.5718V25.0303C93.9798 25.757 93.4209 26.3439 92.6942 26.3439C91.9954 26.3439 91.4086 25.757 91.4086 25.0303V19.2451L88.4182 22.4871C88.1946 22.6827 87.9989 22.8224 87.7474 22.8224Z"/><path fill="#000" d="M111.922 19.385H111.643C110.022 19.4689 109.714 20.3911 109.714 21.4531V25.0304C109.714 25.7571 109.127 26.3439 108.429 26.3439C107.73 26.3439 107.143 25.7571 107.143 25.0304V18.1273C107.143 17.5684 107.59 17.1211 108.149 17.1211C108.708 17.1211 109.127 17.5964 109.127 18.1273C110.078 17.233 110.86 17.0374 111.643 17.0094H111.894C112.509 17.0094 113.068 17.5403 113.068 18.2111C113.096 18.8259 112.537 19.385 111.922 19.385Z"/><path fill="#000" d="M121.844 24.4155C121.955 24.6111 122.039 24.8069 122.039 25.0305C122.039 25.7012 121.424 26.3161 120.754 26.3161C120.306 26.3161 119.915 25.9806 119.608 25.5894L116.645 22.1518V25.0025C116.645 25.7292 116.058 26.3161 115.36 26.3161C114.661 26.3161 114.074 25.7292 114.074 25.0025V14.5221C114.074 13.7954 114.633 13.2085 115.36 13.2085C116.086 13.2085 116.645 13.7954 116.645 14.5221V21.0618L119.608 17.792C119.915 17.4567 120.279 17.0933 120.726 17.0933C121.368 17.0933 121.955 17.6801 121.955 18.3509C121.955 18.5465 121.899 18.7701 121.788 18.9378L119.44 21.509L121.844 24.4155Z"/><path fill="#000" d="M137.382 26.4556H136.684C134.727 26.4556 133.581 25.5892 133.581 22.5429V19.3848H132.911C132.296 19.3848 131.765 18.8259 131.765 18.2111C131.765 17.5403 132.324 17.0092 132.911 17.0092H133.581V14.5778C133.581 13.8512 134.14 13.2643 134.867 13.2643C135.566 13.2643 136.153 13.8512 136.153 14.5778V17.0092H137.215C137.829 17.0092 138.361 17.5403 138.361 18.2111C138.361 18.8259 137.802 19.3848 137.215 19.3848H136.153V22.0399C136.153 23.8006 136.237 24.1639 137.019 24.1639H137.382C137.997 24.1639 138.528 24.6669 138.528 25.3097C138.528 25.9245 137.997 26.4556 137.382 26.4556Z"/><path fill="#000" d="M149.819 14.2146C150.154 14.4102 150.462 14.8854 150.462 15.3046C150.462 15.9753 149.903 16.5342 149.26 16.5342C149.093 16.5342 148.953 16.4784 148.813 16.4505C148.058 15.8916 147.108 15.5282 146.102 15.5282C143.727 15.5282 142.106 17.4566 142.106 19.8601C142.106 22.2636 143.755 24.1641 146.102 24.1641C147.276 24.1641 148.338 23.6888 149.12 22.9343C149.316 22.7946 149.568 22.7107 149.819 22.7107C150.462 22.7107 150.965 23.2138 150.965 23.8566C150.965 24.2758 150.713 24.6391 150.406 24.8347C149.26 25.8128 147.723 26.4558 146.13 26.4558C142.497 26.4558 139.534 23.4653 139.534 19.7762C139.534 16.0871 142.497 13.0968 146.13 13.0968C147.471 13.0688 148.785 13.4879 149.819 14.2146Z"/><path fill="#000" d="M103.845 17.0932C103.286 17.0932 102.867 17.5405 102.867 18.0994L102.811 18.4067C101.693 17.0932 100.24 16.9814 99.8208 16.9814C97.3055 16.9814 95.489 19.1055 95.489 21.6767C95.489 24.2758 97.2775 26.4557 99.6811 26.4557C100.687 26.4557 102.28 26.0086 102.783 25.0304L102.839 25.3377C102.839 25.8687 103.258 26.3439 103.845 26.316C104.404 26.316 104.851 25.8687 104.851 25.3098V18.0994C104.851 17.5684 104.404 17.0932 103.845 17.0932ZM100.1 24.164C98.9544 24.164 98.06 23.074 98.06 21.7325C98.06 20.363 98.9823 19.4128 100.1 19.4128C101.218 19.4128 102.224 20.3351 102.224 21.7325C102.224 23.1298 101.246 24.164 100.1 24.164Z"/><path fill="#000" d="M131.234 21.509C131.178 18.6303 129.306 17.0094 126.818 17.0094C123.744 17.0094 122.43 19.2452 122.43 21.8164C122.43 25.0863 124.582 26.4836 127.182 26.4836C128.16 26.4836 129.194 26.3439 129.976 25.7571C130.284 25.5614 130.535 25.226 130.535 24.8347C130.535 24.2479 130.06 23.7727 129.501 23.7727C129.25 23.7727 128.998 23.8566 128.83 23.9683C128.3 24.2199 127.629 24.3038 127.154 24.3038C126.511 24.3038 125.03 24.0522 125.03 22.5151H130.228C130.787 22.5151 131.234 22.0399 131.234 21.509ZM125.03 20.8662C125.03 19.7762 126.175 19.4129 126.874 19.4129C127.545 19.4129 128.719 19.7762 128.747 20.8662H125.03Z"/><path fill="#000" d="M160.076 17.0932C159.517 17.0932 159.098 17.5405 159.098 18.0994L159.042 18.4067C157.924 17.0932 156.471 16.9814 156.051 16.9814C153.536 16.9814 151.72 19.1055 151.72 21.6767C151.72 24.2758 153.508 26.4557 155.912 26.4557C156.918 26.4557 158.511 26.0086 159.014 25.0304L159.07 25.3377C159.07 25.8687 159.489 26.3439 160.076 26.316C160.635 26.316 161.082 25.8687 161.082 25.3098V18.0994C161.082 17.5684 160.635 17.0932 160.076 17.0932ZM156.331 24.164C155.213 24.164 154.291 23.074 154.291 21.7325C154.291 20.363 155.185 19.4128 156.331 19.4128C157.449 19.4128 158.455 20.3351 158.455 21.7325C158.455 23.1298 157.477 24.164 156.331 24.164Z"/><path fill="#000" d="M168.404 17.0094C167.51 17.0094 166.336 17.261 165.386 18.2391C165.386 17.5963 164.967 17.1211 164.408 17.1211C163.849 17.1211 163.402 17.5684 163.402 18.1273V28.9709C163.402 29.6975 163.989 30.2845 164.687 30.2845C165.386 30.2845 165.973 29.6975 165.973 28.9709V25.7011C166.672 26.2321 167.789 26.4557 168.544 26.4836C170.976 26.4836 172.736 24.2758 172.736 21.7046C172.736 19.1055 170.892 17.0094 168.404 17.0094ZM168.097 24.164C166.951 24.164 165.973 23.1298 165.973 21.7325C165.973 20.3351 166.951 19.4128 168.097 19.4128C169.215 19.4128 170.137 20.3351 170.137 21.7325C170.137 23.074 169.243 24.164 168.097 24.164Z"/><mask id="mask0_33_201" style="mask-type:alpha" width="29" height="29" x="5" y="5" maskUnits="userSpaceOnUse"><path stroke="#fff" stroke-linecap="round" stroke-width="2.009" d="M17.0502 29.7866C15.782 25.4646 14.3025 17.847 14.3849 16.975C14.4672 16.1029 15.6916 17.1657 17.3745 18.9083C19.0573 20.6509 20.4113 21.9846 20.9393 22.5313C21.4673 23.078 22.4498 22.5912 21.9182 20.3313C21.3866 18.0713 20.7205 13.8942 20.5331 13.0847C20.3458 12.2752 21.0373 11.1452 22.918 13.0928C24.7988 15.0403 25.2961 15.4185 25.7581 15.8969C26.22 16.3752 28.2621 16.7805 29.5264 15.5596C30.7907 14.3387 30.3956 11.9467 28.8778 10.3749C27.36 8.80321 18.41 1.92843 10.2778 9.78157C2.14566 17.6347 9.00081 27.1266 9.89172 28.0492C15.4021 33.7554 23.9804 33.0653 28.5247 28.6768C32.6592 24.6843 32.3369 19.0855 32.3369 19.0855"/></mask><g mask="url(#mask0_33_201)"><path fill="#000" d="M29.4822 9.2363L29.4628 9.21616L29.4433 9.19602C23.9217 3.51855 14.8415 3.30073 9.22513 8.72438C3.58863 14.1675 3.48942 23.2498 9.02977 28.987C14.5507 34.7041 23.6504 34.942 29.2869 29.4989C31.8837 26.9912 33.3869 23.6332 33.5491 20.0143C33.5816 19.2826 33.0381 18.6793 32.3064 18.6468C31.5949 18.5949 30.9915 19.1384 30.9395 19.85C30.9395 19.85 30.9396 19.8499 30.9389 19.8895C30.8087 22.8164 29.5524 25.6245 27.4387 27.6657C24.9626 30.0568 21.6987 31.1081 18.4969 30.8543L16.1002 19.6306L19.2299 22.8715C20.7268 24.4216 21.8167 24.3417 22.456 23.9965C23.0954 23.6514 23.763 22.8121 23.3248 20.7066L21.9685 14.5082C21.9324 14.3097 21.8763 14.1305 21.879 13.9722L23.784 15.945C25.1837 17.3944 26.8951 17.9981 28.4458 17.5898C29.8572 17.2385 30.9462 16.07 31.3286 14.5726C31.7574 12.6801 31.0985 10.7489 29.4822 9.2363ZM28.7884 13.8356C28.6399 14.407 28.256 14.8554 27.7589 14.9853C27.123 15.1324 26.3566 14.8222 25.6373 14.0774L23.4407 11.8027C22.3909 10.7157 21.2101 10.3389 20.291 10.8373C18.7131 11.6608 19.2451 14.0648 19.4471 14.9589L20.6362 20.5409L16.4956 16.2532C15.5229 15.2862 14.637 15.0135 13.8582 15.4155C13.339 15.6835 12.7933 16.3272 13.0649 17.7766L15.7172 30.2319C13.8872 29.626 12.223 28.5876 10.8817 27.1986C6.35227 22.5083 6.44262 15.0684 11.0525 10.6167C15.6624 6.16497 23.1008 6.33441 27.6302 11.0248L27.6497 11.0449L27.6691 11.065C28.5842 11.932 29.0021 12.9289 28.7884 13.8356Z"/></g></svg>