<?xml version="1.0" encoding="utf-8"?>
<!-- Generator: Adobe Illustrator 24.1.0, SVG Export Plug-In . SVG Version: 6.00 Build 0)  -->
<svg version="1.1" id="Layer_1" xmlns="http://www.w3.org/2000/svg" xmlns:xlink="http://www.w3.org/1999/xlink" x="0px" y="0px"
	 viewBox="0 0 1080 286" style="enable-background:new 0 0 1080 286;" xml:space="preserve">
<style type="text/css">
	.st0{fill:#231F20;}
</style>
<g>
	<g id="XMLID_230_">
		<path class="st0" d="M180.3,84.8c-0.3-0.9-0.7-1.8-1.1-2.6C179.8,83.1,180.1,84,180.3,84.8z"/>
	</g>
	<g id="XMLID_19_">
		<path id="XMLID_78_" class="st0" d="M446.8,113.3c-2.9-11.4-10.3-19.8-24.8-19.8c-21.3,0-30.2,18.8-30.2,37.9s8.9,37.9,30.2,37.9
			c15.5,0,24-11.6,25.4-26.1h17c-1.4,23.8-18.3,40.3-42.4,40.3c-29.8,0-47.7-23.7-47.7-52.1c0-28.4,17.8-52.1,47.7-52.1
			c22.4,0.1,40.1,12.5,42.2,34H446.8z"/>
		<path id="XMLID_75_" class="st0" d="M474.7,145c0-22,13.2-37.9,36.4-37.9c23.1,0,36.4,15.9,36.4,37.9c0,22.2-13.2,38-36.4,38
			C487.9,183.1,474.7,167.2,474.7,145z M531.5,145c0-12.4-6.3-25.4-20.5-25.4c-14.2,0-20.5,13-20.5,25.4c0,12.5,6.3,25.5,20.5,25.5
			C525.3,170.5,531.5,157.6,531.5,145z"/>
		<path id="XMLID_58_" class="st0" d="M561.1,81.6H577v15.1h-15.9V81.6z M561.1,109.1H577v72.1h-15.9V109.1z"/>
		<path id="XMLID_56_" class="st0" d="M594.3,109.1h15.1v10.6l0.3,0.3c4.7-7.9,13-12.8,22.4-12.8c15.6,0,25.5,8.4,25.5,24.5v49.5
			h-15.9v-45.3c-0.3-11.3-4.7-16.2-14.1-16.2c-10.6,0-17.4,8.4-17.4,19v42.5h-15.9V109.1z"/>
		<path id="XMLID_54_" class="st0" d="M763.3,181.1h-11.1l-2.6-11.7c-9.3,10.6-17.8,14.1-30,14.1c-29.8,0-47.7-23.7-47.7-52.1
			c0-28.4,17.8-52.1,47.7-52.1c21.7,0,40,11.6,42.6,34h-17c-1.7-13.1-13.1-19.8-25.6-19.8c-21.3,0-30.2,18.8-30.2,37.9
			s8.9,37.9,30.2,37.9c17.8,0.3,27.6-10.5,27.9-27.3h-26.5v-13.2h42.4V181.1z"/>
		<path id="XMLID_29_" class="st0" d="M792.4,149.2c0,11.3,6.1,21.3,19.4,21.3c9.2,0,14.8-4,17.6-12h15.1
			c-3.5,15.7-16.9,24.5-32.6,24.5c-22.6,0-35.3-15.7-35.3-37.9c0-20.5,13.4-38,34.8-38c22.7,0,36.7,20.5,34,42.1H792.4z
			 M829.5,138.8c-0.6-10-7.4-19.1-18.1-19.1c-11,0-18.5,8.4-19,19.1H829.5z"/>
		<path id="XMLID_27_" class="st0" d="M906.2,133.2c-1.3-8.8-7.7-13.5-16.4-13.5c-8.2,0-19.8,4.3-19.8,26.2c0,12,5.3,24.7,19.1,24.7
			c9.2,0,15.6-6.1,17.1-16.4H922c-2.9,18.7-14.5,29-33,29c-22.6,0-35-16-35-37.2c0-21.7,11.8-38.7,35.5-38.7
			c16.7,0,30.9,8.4,32.5,26.1H906.2z"/>
		<path id="XMLID_25_" class="st0" d="M935.4,81.6h15.9v56.6l28.7-29.1h19.5l-27.6,26.5l30.2,45.6h-19.4l-22-35l-9.5,9.2v25.8h-15.9
			V81.6z"/>
		<path id="XMLID_20_" class="st0" d="M1006.5,145c0-22,13.2-37.9,36.4-37.9c23.1,0,36.4,15.9,36.4,37.9c0,22.2-13.2,38-36.4,38
			C1019.7,183.1,1006.5,167.2,1006.5,145z M1063.4,145c0-12.4-6.3-25.4-20.5-25.4c-14.2,0-20.5,13-20.5,25.4
			c0,12.5,6.3,25.5,20.5,25.5C1057.1,170.5,1063.4,157.6,1063.4,145z"/>
	</g>
	<g id="XMLID_200_">
		<g id="XMLID_202_">
			<g>
				<path class="st0" d="M142.1-0.5C62.9-0.1-1.1,64.4-0.7,143.6c0.4,79.2,64.9,143.2,144.1,142.8c79.2-0.4,143.2-64.9,142.8-144.1
					C285.9,63.1,221.4-0.8,142.1-0.5z M123.9,136c-14.2,0-25.7-11.5-25.7-25.7c0-14.2,11.5-25.7,25.7-25.7
					c14.2,0,25.7,11.5,25.7,25.7C149.6,124.5,138.1,136,123.9,136z M144.4,163.7l0.1-0.2l0.1-0.2c7.3,4.7,15.7,6.4,24,6.6
					c8.4,0.2,16.9-0.4,25.3-2.1c8.4-1.7,16.6-4.3,24.6-7.6c4.5-1.8,8.9-3.8,13.1-6.2c0,0,0.1,0,0.1-0.1c2.6-1.6,5.2-3.3,7.7-5
					c0.5-0.4,1.1-0.8,1.6-1.2l0.1,0.1l0.2,0.3c-6.4,5.9-14.1,10.2-22,14.1c-7.9,3.7-16.1,6.8-24.6,9c-8.5,2.2-17.3,3.8-26.3,3
					C159.6,173.5,150.3,170.4,144.4,163.7z M210.2,136c0-3.1,2.5-5.6,5.5-5.6c3.1,0,5.6,2.5,5.6,5.5c0,3.1-2.5,5.6-5.5,5.6
					C212.8,141.5,210.3,139,210.2,136z M166.3,273.6c-5.5-38.8,28.4-76.9,47.5-96.3c4.3-4.4,11-10.5,17.3-17
					c24.8-23.2,29.8-50.9-21-64.8c-9.6-2.8-19.6-6.7-29.7-10.7c-0.3-0.9-0.7-1.8-1.1-2.6c-1.2-2-3.2-4.3-6.3-6.9
					c-6.6-5.7-19-5.6-29.7-3c-11.8-2.8-23.5-3.8-34.7-1.1c-49.1,13.5-57,37.5-58.9,66.4c-2.6,31.2-4.1,54.4-15.9,81
					c-14.7-21.3-23.4-47-23.5-74.9C9.7,70.3,68.9,10.6,142.2,10.3s133,58.8,133.3,132.1C275.7,207.9,228.6,262.5,166.3,273.6z"/>
			</g>
		</g>
		<path id="XMLID_201_" class="st0" d="M142,110.5c0,10-8.1,18-18,18c-10,0-18.1-8.1-18.1-18s8.1-18,18.1-18
			C133.9,92.5,142,100.6,142,110.5z"/>
	</g>
</g>
</svg>
