<svg xmlns="http://www.w3.org/2000/svg" width="166" height="31" fill="none" viewBox="0 0 166 31"><path fill="#141A21" d="M8 23.3C6.38 23.3 5 23.01 3.86 22.43C2.72 21.83 1.85 20.91 1.25 19.67C0.65 18.43 0.35 16.84 0.35 14.9C0.35 12.9 0.69 11.27 1.37 10.01C2.05 8.75 2.99 7.82 4.19 7.22C5.41 6.62 6.81 6.32 8.39 6.32C9.51 6.32 10.48 6.43 11.3 6.65C12.14 6.87 12.87 7.13 13.49 7.43L12.17 10.88C11.47 10.6 10.81 10.37 10.19 10.19C9.59 10.01 8.99 9.92 8.39 9.92C7.61 9.92 6.96 10.11 6.44 10.49C5.92 10.85 5.53 11.4 5.27 12.14C5.03 12.86 4.91 13.77 4.91 14.87C4.91 15.95 5.04 16.85 5.3 17.57C5.58 18.27 5.98 18.8 6.5 19.16C7.02 19.5 7.65 19.67 8.39 19.67C9.33 19.67 10.16 19.55 10.88 19.31C11.6 19.05 12.3 18.7 12.98 18.26V22.07C12.3 22.51 11.58 22.82 10.82 23C10.08 23.2 9.14 23.3 8 23.3ZM25.9002 6.32C26.1202 6.32 26.3802 6.33 26.6802 6.35C26.9802 6.37 27.2202 6.4 27.4002 6.44L27.0702 10.64C26.9302 10.6 26.7202 10.57 26.4402 10.55C26.1802 10.51 25.9502 10.49 25.7502 10.49C25.1702 10.49 24.6102 10.57 24.0702 10.73C23.5302 10.87 23.0402 11.1 22.6002 11.42C22.1802 11.74 21.8402 12.17 21.5802 12.71C21.3402 13.23 21.2202 13.88 21.2202 14.66V23H16.7502V6.62H20.1402L20.8002 9.38H21.0102C21.3302 8.82 21.7302 8.31 22.2102 7.85C22.6902 7.39 23.2402 7.02 23.8602 6.74C24.5002 6.46 25.1802 6.32 25.9002 6.32ZM28.0332 6.62H32.9232L36.0132 15.83C36.1132 16.13 36.1932 16.43 36.2532 16.73C36.3332 17.03 36.3932 17.34 36.4332 17.66C36.4932 17.98 36.5332 18.32 36.5532 18.68H36.6432C36.7032 18.16 36.7832 17.67 36.8832 17.21C37.0032 16.73 37.1332 16.27 37.2732 15.83L40.3032 6.62H45.1032L38.1732 25.1C37.7532 26.22 37.2032 27.16 36.5232 27.92C35.8632 28.68 35.0932 29.25 34.2132 29.63C33.3332 30.01 32.3732 30.2 31.3332 30.2C30.8332 30.2 30.3932 30.17 30.0132 30.11C29.6532 30.07 29.3332 30.02 29.0532 29.96V26.42C29.2732 26.46 29.5332 26.5 29.8332 26.54C30.1532 26.58 30.4832 26.6 30.8232 26.6C31.4432 26.6 31.9732 26.47 32.4132 26.21C32.8732 25.95 33.2532 25.59 33.5532 25.13C33.8532 24.69 34.0932 24.21 34.2732 23.69L34.5432 22.88L28.0332 6.62ZM56.5733 6.32C58.4133 6.32 59.9033 7.04 61.0433 8.48C62.1833 9.9 62.7533 12 62.7533 14.78C62.7533 16.64 62.4833 18.21 61.9433 19.49C61.4033 20.75 60.6633 21.7 59.7233 22.34C58.7833 22.98 57.6933 23.3 56.4533 23.3C55.6733 23.3 54.9933 23.2 54.4133 23C53.8533 22.8 53.3733 22.54 52.9733 22.22C52.5733 21.9 52.2233 21.56 51.9233 21.2H51.6833C51.7633 21.58 51.8233 21.98 51.8633 22.4C51.9033 22.8 51.9233 23.2 51.9233 23.6V30.2H47.4533V6.62H51.0833L51.7133 8.75H51.9233C52.2233 8.31 52.5833 7.91 53.0033 7.55C53.4233 7.17 53.9233 6.87 54.5033 6.65C55.1033 6.43 55.7933 6.32 56.5733 6.32ZM55.1333 9.89C54.3533 9.89 53.7333 10.05 53.2733 10.37C52.8133 10.69 52.4733 11.18 52.2533 11.84C52.0533 12.48 51.9433 13.29 51.9233 14.27V14.75C51.9233 15.81 52.0233 16.71 52.2233 17.45C52.4233 18.17 52.7633 18.72 53.2433 19.1C53.7233 19.48 54.3733 19.67 55.1933 19.67C55.8733 19.67 56.4333 19.48 56.8733 19.1C57.3133 18.72 57.6433 18.16 57.8633 17.42C58.0833 16.68 58.1933 15.78 58.1933 14.72C58.1933 13.12 57.9433 11.92 57.4433 11.12C56.9633 10.3 56.1933 9.89 55.1333 9.89ZM73.3377 19.73C73.8377 19.73 74.3177 19.68 74.7777 19.58C75.2377 19.48 75.6977 19.36 76.1577 19.22V22.55C75.6777 22.75 75.0777 22.92 74.3577 23.06C73.6577 23.22 72.8877 23.3 72.0477 23.3C71.0677 23.3 70.1877 23.14 69.4077 22.82C68.6477 22.5 68.0377 21.95 67.5777 21.17C67.1377 20.37 66.9177 19.27 66.9177 17.87V9.98H64.7877V8.09L67.2477 6.59L68.5377 3.14H71.3877V6.62H75.9777V9.98H71.3877V17.87C71.3877 18.49 71.5677 18.96 71.9277 19.28C72.2877 19.58 72.7577 19.73 73.3377 19.73ZM94.3255 14.78C94.3255 16.14 94.1355 17.35 93.7555 18.41C93.3955 19.47 92.8655 20.37 92.1655 21.11C91.4855 21.83 90.6555 22.38 89.6755 22.76C88.6955 23.12 87.5855 23.3 86.3455 23.3C85.2055 23.3 84.1455 23.12 83.1655 22.76C82.2055 22.38 81.3755 21.83 80.6755 21.11C79.9755 20.37 79.4255 19.47 79.0255 18.41C78.6455 17.35 78.4555 16.14 78.4555 14.78C78.4555 12.96 78.7755 11.43 79.4155 10.19C80.0555 8.93 80.9755 7.97 82.1755 7.31C83.3755 6.65 84.7955 6.32 86.4355 6.32C87.9755 6.32 89.3355 6.65 90.5155 7.31C91.6955 7.97 92.6255 8.93 93.3055 10.19C93.9855 11.43 94.3255 12.96 94.3255 14.78ZM83.0155 14.78C83.0155 15.86 83.1255 16.77 83.3455 17.51C83.5855 18.23 83.9555 18.78 84.4555 19.16C84.9555 19.52 85.6055 19.7 86.4055 19.7C87.2055 19.7 87.8455 19.52 88.3255 19.16C88.8255 18.78 89.1855 18.23 89.4055 17.51C89.6455 16.77 89.7655 15.86 89.7655 14.78C89.7655 13.7 89.6455 12.8 89.4055 12.08C89.1855 11.36 88.8255 10.82 88.3255 10.46C87.8255 10.1 87.1755 9.92 86.3755 9.92C85.1955 9.92 84.3355 10.33 83.7955 11.15C83.2755 11.95 83.0155 13.16 83.0155 14.78ZM107.17 6.32C107.39 6.32 107.65 6.33 107.95 6.35C108.25 6.37 108.49 6.4 108.67 6.44L108.34 10.64C108.2 10.6 107.99 10.57 107.71 10.55C107.45 10.51 107.22 10.49 107.02 10.49C106.44 10.49 105.88 10.57 105.34 10.73C104.8 10.87 104.31 11.1 103.87 11.42C103.45 11.74 103.11 12.17 102.85 12.71C102.61 13.23 102.49 13.88 102.49 14.66V23H98.0197V6.62H101.41L102.07 9.38H102.28C102.6 8.82 103 8.31 103.48 7.85C103.96 7.39 104.51 7.02 105.13 6.74C105.77 6.46 106.45 6.32 107.17 6.32ZM117.777 6.29C119.977 6.29 121.657 6.77 122.817 7.73C123.997 8.67 124.587 10.12 124.587 12.08V23H121.467L120.597 20.78H120.477C120.017 21.36 119.537 21.84 119.037 22.22C118.557 22.6 117.997 22.87 117.357 23.03C116.737 23.21 115.967 23.3 115.047 23.3C114.087 23.3 113.217 23.12 112.437 22.76C111.677 22.38 111.077 21.81 110.637 21.05C110.197 20.27 109.977 19.29 109.977 18.11C109.977 16.37 110.587 15.09 111.807 14.27C113.027 13.43 114.857 12.97 117.297 12.89L120.147 12.8V12.08C120.147 11.22 119.917 10.59 119.457 10.19C119.017 9.79 118.397 9.59 117.597 9.59C116.797 9.59 116.017 9.71 115.257 9.95C114.497 10.17 113.737 10.45 112.977 10.79L111.507 7.76C112.387 7.3 113.357 6.94 114.417 6.68C115.497 6.42 116.617 6.29 117.777 6.29ZM118.407 15.47C116.967 15.51 115.967 15.77 115.407 16.25C114.847 16.73 114.567 17.36 114.567 18.14C114.567 18.82 114.767 19.31 115.167 19.61C115.567 19.89 116.087 20.03 116.727 20.03C117.687 20.03 118.497 19.75 119.157 19.19C119.817 18.61 120.147 17.8 120.147 16.76V15.41L118.407 15.47ZM138.462 6.32C140.222 6.32 141.632 6.8 142.692 7.76C143.752 8.7 144.282 10.22 144.282 12.32V23H139.812V13.43C139.812 12.25 139.602 11.37 139.182 10.79C138.762 10.19 138.092 9.89 137.172 9.89C135.812 9.89 134.882 10.36 134.382 11.3C133.882 12.22 133.632 13.55 133.632 15.29V23H129.162V6.62H132.582L133.182 8.72H133.422C133.782 8.16 134.222 7.71 134.742 7.37C135.262 7.01 135.842 6.75 136.482 6.59C137.122 6.41 137.782 6.32 138.462 6.32ZM153.349 10.4C153.349 11.02 153.319 11.64 153.259 12.26C153.219 12.86 153.169 13.47 153.109 14.09H153.169C153.369 13.81 153.569 13.53 153.769 13.25C153.989 12.97 154.209 12.69 154.429 12.41C154.649 12.13 154.879 11.86 155.119 11.6L159.709 6.62H164.749L158.239 13.73L165.139 23H159.979L155.269 16.37L153.349 17.9V23H148.879V0.199998H153.349V10.4Z"/></svg>