<svg width="135" height="23" viewBox="0 0 135 23" fill="none" xmlns="http://www.w3.org/2000/svg">
<path d="M0 22.5672V0H4.02297V22.5672H0Z" fill="#2F3343"/>
<path d="M19.6908 20.6505C18.09 22.2168 16.1357 23 13.8279 23C11.5202 23 9.56584 22.2168 7.96497 20.6505C6.38489 19.0636 5.59485 17.1263 5.59485 14.8387C5.59485 12.5511 6.38489 10.6241 7.96497 9.0578C9.56584 7.47088 11.5202 6.67742 13.8279 6.67742C16.1357 6.67742 18.09 7.47088 19.6908 9.0578C21.2917 10.6241 22.0921 12.5511 22.0921 14.8387C22.0921 17.1263 21.2917 19.0636 19.6908 20.6505ZM10.8029 17.8992C11.6137 18.703 12.6221 19.1048 13.8279 19.1048C15.0338 19.1048 16.0421 18.703 16.8529 17.8992C17.6638 17.0954 18.0692 16.0753 18.0692 14.8387C18.0692 13.6021 17.6638 12.582 16.8529 11.7782C16.0421 10.9745 15.0338 10.5726 13.8279 10.5726C12.6221 10.5726 11.6137 10.9745 10.8029 11.7782C10.0128 12.582 9.61782 13.6021 9.61782 14.8387C9.61782 16.0753 10.0128 17.0954 10.8029 17.8992Z" fill="#2F3343"/>
<path d="M31.0451 23C28.6957 23 26.731 22.2168 25.151 20.6505C23.5917 19.0842 22.812 17.147 22.812 14.8387C22.812 12.5305 23.5917 10.5932 25.151 9.02688C26.731 7.46057 28.6957 6.67742 31.0451 6.67742C32.5628 6.67742 33.9454 7.03808 35.1928 7.75941C36.4402 8.48073 37.3862 9.44937 38.0307 10.6653L34.5691 12.6747C34.2572 12.0358 33.779 11.5309 33.1345 11.1599C32.5108 10.789 31.8039 10.6035 31.0139 10.6035C29.808 10.6035 28.8101 11.0054 28.0201 11.8091C27.23 12.5923 26.835 13.6021 26.835 14.8387C26.835 16.0547 27.23 17.0645 28.0201 17.8683C28.8101 18.6514 29.808 19.043 31.0139 19.043C31.8247 19.043 32.542 18.8678 33.1657 18.5175C33.8102 18.1465 34.2884 17.6416 34.6003 17.0027L38.0931 18.9812C37.407 20.1971 36.4402 21.1761 35.1928 21.918C33.9454 22.6393 32.5628 23 31.0451 23Z" fill="#2F3343"/>
<path d="M50.5283 7.11022H54.5513V22.5672H50.5283V20.7433C49.3225 22.2478 47.6281 23 45.445 23C43.366 23 41.578 22.2168 40.0811 20.6505C38.605 19.0636 37.8669 17.1263 37.8669 14.8387C37.8669 12.5511 38.605 10.6241 40.0811 9.0578C41.578 7.47088 43.366 6.67742 45.445 6.67742C47.6281 6.67742 49.3225 7.42966 50.5283 8.93414V7.11022ZM43.1061 17.9919C43.9169 18.7957 44.9461 19.1976 46.1935 19.1976C47.4409 19.1976 48.4701 18.7957 49.2809 17.9919C50.1125 17.1676 50.5283 16.1165 50.5283 14.8387C50.5283 13.5609 50.1125 12.5202 49.2809 11.7164C48.4701 10.892 47.4409 10.4798 46.1935 10.4798C44.9461 10.4798 43.9169 10.892 43.1061 11.7164C42.2953 12.5202 41.8899 13.5609 41.8899 14.8387C41.8899 16.1165 42.2953 17.1676 43.1061 17.9919Z" fill="#2F3343"/>
<path d="M56.8999 22.5672V0H60.9229V22.5672H56.8999Z" fill="#2F3343"/>
<path d="M72.2247 10.9435H68.7007V17.3737C68.7007 17.9095 68.8359 18.3011 69.1062 18.5484C69.3764 18.7957 69.7714 18.94 70.2912 18.9812C70.811 19.0018 71.4555 18.9915 72.2247 18.9503V22.5672C69.4596 22.8763 67.5053 22.6187 66.3618 21.7944C65.2391 20.97 64.6778 19.4964 64.6778 17.3737V10.9435H61.9646V7.11022H64.6778V3.9879L68.7007 2.78226V7.11022H72.2247V10.9435Z" fill="#2F3343"/>
<path d="M78.0284 9.76882C78.4026 8.77957 79.0159 8.03763 79.8683 7.54301C80.7415 7.04839 81.7083 6.80107 82.7686 6.80107V11.2527C81.542 11.1084 80.4401 11.3557 79.4629 11.9946C78.5066 12.6335 78.0284 13.6949 78.0284 15.1788V22.5672H74.0054V7.11022H78.0284V9.76882Z" fill="#2F3343"/>
<path d="M95.094 7.11022H99.117V22.5672H95.094V20.7433C93.8882 22.2478 92.1937 23 90.0107 23C87.9317 23 86.1437 22.2168 84.6468 20.6505C83.1706 19.0636 82.4326 17.1263 82.4326 14.8387C82.4326 12.5511 83.1706 10.6241 84.6468 9.0578C86.1437 7.47088 87.9317 6.67742 90.0107 6.67742C92.1937 6.67742 93.8882 7.42966 95.094 8.93414V7.11022ZM87.6718 17.9919C88.4826 18.7957 89.5117 19.1976 90.7592 19.1976C92.0066 19.1976 93.0358 18.7957 93.8466 17.9919C94.6782 17.1676 95.094 16.1165 95.094 14.8387C95.094 13.5609 94.6782 12.5202 93.8466 11.7164C93.0358 10.892 92.0066 10.4798 90.7592 10.4798C89.5117 10.4798 88.4826 10.892 87.6718 11.7164C86.8609 12.5202 86.4555 13.5609 86.4555 14.8387C86.4555 16.1165 86.8609 17.1676 87.6718 17.9919Z" fill="#2F3343"/>
<path d="M113.285 0.927418H117.308V22.5672H113.285V20.7433C112.1 22.2478 110.416 23 108.233 23C106.133 23 104.335 22.2168 102.838 20.6505C101.362 19.0636 100.624 17.1263 100.624 14.8387C100.624 12.5511 101.362 10.6241 102.838 9.0578C104.335 7.47088 106.133 6.67742 108.233 6.67742C110.416 6.67742 112.1 7.42966 113.285 8.93414V0.927418ZM105.863 17.9919C106.694 18.7957 107.734 19.1976 108.981 19.1976C110.229 19.1976 111.258 18.7957 112.069 17.9919C112.88 17.1676 113.285 16.1165 113.285 14.8387C113.285 13.5609 112.88 12.5202 112.069 11.7164C111.258 10.892 110.229 10.4798 108.981 10.4798C107.734 10.4798 106.694 10.892 105.863 11.7164C105.052 12.5202 104.647 13.5609 104.647 14.8387C104.647 16.1165 105.052 17.1676 105.863 17.9919Z" fill="#2F3343"/>
<path d="M123.087 16.4771C123.628 18.4144 125.093 19.3831 127.484 19.3831C129.023 19.3831 130.187 18.8678 130.977 17.8374L134.22 19.6922C132.682 21.8974 130.416 23 127.422 23C124.844 23 122.775 22.2271 121.216 20.6814C119.657 19.1358 118.877 17.1882 118.877 14.8387C118.877 12.5099 119.646 10.5726 121.185 9.02688C122.723 7.46057 124.698 6.67742 127.11 6.67742C129.397 6.67742 131.278 7.46057 132.755 9.02688C134.252 10.5932 135 12.5305 135 14.8387C135 15.3539 134.948 15.9001 134.844 16.4771H123.087ZM123.025 13.3858H130.977C130.748 12.3347 130.27 11.5515 129.542 11.0363C128.836 10.5211 128.025 10.2634 127.11 10.2634C126.029 10.2634 125.135 10.5417 124.428 11.0981C123.721 11.634 123.253 12.3965 123.025 13.3858Z" fill="#2F3343"/>
</svg>
