<svg width="644" height="165" viewBox="0 0 644 165" fill="none" xmlns="http://www.w3.org/2000/svg">
<path d="M54.8295 49.2102C54.3324 37.669 44.7443 30.7443 28.9773 30.7443C13.3878 30.7443 3.7642 37.1364 3.83523 48.5C3.7642 57.0938 9.33949 62.598 20.4545 64.5511L30.1136 66.2557C34.375 67.0369 36.2926 68.1733 36.3636 70.233C36.2926 72.5057 33.7003 73.7841 30.1136 73.7841C25.6747 73.7841 22.5497 71.8665 22.017 68.3864H2.55682C3.62216 79.5724 13.2812 86.9943 29.9716 86.9943C45.0639 86.9943 56.179 79.6435 56.25 67.9602C56.179 59.8991 50.7812 55.2116 39.6307 53.1875L28.5511 51.1989C24.3963 50.4531 23.2244 48.9616 23.2955 47.3636C23.2244 45.0909 26.0298 43.8125 29.4034 43.8125C33.2741 43.8125 36.5057 45.8722 36.7898 49.2102H54.8295ZM63.7607 86H83.3629V31.4545H63.7607V86ZM73.5618 25.7727C78.8885 25.7727 83.2209 21.7599 83.2209 16.8239C83.2209 11.8878 78.8885 7.875 73.5618 7.875C68.2351 7.875 63.9027 11.8878 63.9027 16.8239C63.9027 21.7599 68.2351 25.7727 73.5618 25.7727ZM125.879 31.4545H116.504V18.3864H96.9016V31.4545H89.9414V45.6591H96.9016V70.304C96.7596 81.7386 103.826 87.527 117.356 86.7812C121.795 86.5327 125.098 85.6094 126.873 85.0767L124.032 71.2983C123.287 71.4759 121.369 71.8665 120.197 71.8665C117.64 71.8665 116.504 70.7301 116.504 68.4574V45.6591H125.879V31.4545ZM159.428 86.9943C174.556 86.9943 184.286 79.75 186.133 68.3864H168.235C167.099 71.4759 163.867 73.2159 159.854 73.2159C154.031 73.2159 150.621 69.3807 150.621 64.125V63.2727H186.133V58.7273C186.133 41.3622 175.479 30.7443 159.002 30.7443C142.099 30.7443 131.303 41.9659 131.303 58.8693C131.303 76.5185 141.957 86.9943 159.428 86.9943ZM150.621 52.4773C150.728 47.7543 154.634 44.5227 159.428 44.5227C164.293 44.5227 167.987 47.7898 168.093 52.4773H150.621ZM243.99 49.2102C243.493 37.669 233.904 30.7443 218.137 30.7443C202.548 30.7443 192.924 37.1364 192.995 48.5C192.924 57.0938 198.5 62.598 209.615 64.5511L219.274 66.2557C223.535 67.0369 225.453 68.1733 225.524 70.233C225.453 72.5057 222.86 73.7841 219.274 73.7841C214.835 73.7841 211.71 71.8665 211.177 68.3864H191.717C192.782 79.5724 202.441 86.9943 219.132 86.9943C234.224 86.9943 245.339 79.6435 245.41 67.9602C245.339 59.8991 239.941 55.2116 228.791 53.1875L217.711 51.1989C213.556 50.4531 212.385 48.9616 212.456 47.3636C212.385 45.0909 215.19 43.8125 218.564 43.8125C222.434 43.8125 225.666 45.8722 225.95 49.2102H243.99Z" fill="white"/>
<path d="M252.921 86H272.523V57.5909C272.523 51.3409 276.82 47.2216 282.608 47.2216C284.632 47.2216 287.9 47.5412 289.853 48.2159V31.4901C288.29 31.0284 286.586 30.7443 284.881 30.7443C279.057 30.7443 274.512 34.1534 272.523 41.8239H271.955V31.4545H252.921V86ZM319.292 86.9943C334.419 86.9943 344.15 79.75 345.996 68.3864H328.098C326.962 71.4759 323.73 73.2159 319.718 73.2159C313.894 73.2159 310.485 69.3807 310.485 64.125V63.2727H345.996V58.7273C345.996 41.3622 335.343 30.7443 318.865 30.7443C301.962 30.7443 291.167 41.9659 291.167 58.8693C291.167 76.5185 301.82 86.9943 319.292 86.9943ZM310.485 52.4773C310.591 47.7543 314.498 44.5227 319.292 44.5227C324.157 44.5227 327.85 47.7898 327.956 52.4773H310.485ZM407.502 31.4545H386.905L378.098 67.5341H377.53L368.723 31.4545H348.127L366.451 86H389.178L407.502 31.4545ZM413.077 86H432.679V31.4545H413.077V86ZM422.878 25.7727C428.205 25.7727 432.537 21.7599 432.537 16.8239C432.537 11.8878 428.205 7.875 422.878 7.875C417.551 7.875 413.219 11.8878 413.219 16.8239C413.219 21.7599 417.551 25.7727 422.878 25.7727ZM468.803 86.9943C483.931 86.9943 493.661 79.75 495.508 68.3864H477.61C476.474 71.4759 473.242 73.2159 469.229 73.2159C463.406 73.2159 459.996 69.3807 459.996 64.125V63.2727H495.508V58.7273C495.508 41.3622 484.854 30.7443 468.377 30.7443C451.474 30.7443 440.678 41.9659 440.678 58.8693C440.678 76.5185 451.332 86.9943 468.803 86.9943ZM459.996 52.4773C460.103 47.7543 464.009 44.5227 468.803 44.5227C473.668 44.5227 477.362 47.7898 477.468 52.4773H459.996ZM512.482 86H533.647L541.317 56.7386H541.886L549.556 86H570.721L584.357 31.4545H564.755L558.789 64.4091H558.363L551.119 31.4545H532.085L525.124 64.6932H524.698L518.448 31.4545H498.846L512.482 86ZM640.181 49.2102C639.684 37.669 630.096 30.7443 614.329 30.7443C598.739 30.7443 589.116 37.1364 589.187 48.5C589.116 57.0938 594.691 62.598 605.806 64.5511L615.465 66.2557C619.727 67.0369 621.644 68.1733 621.715 70.233C621.644 72.5057 619.052 73.7841 615.465 73.7841C611.026 73.7841 607.901 71.8665 607.369 68.3864H587.908C588.974 79.5724 598.633 86.9943 615.323 86.9943C630.415 86.9943 641.531 79.6435 641.602 67.9602C641.531 59.8991 636.133 55.2116 624.982 53.1875L613.903 51.1989C609.748 50.4531 608.576 48.9616 608.647 47.3636C608.576 45.0909 611.381 43.8125 614.755 43.8125C618.626 43.8125 621.857 45.8722 622.141 49.2102H640.181Z" fill="#0066FF"/>
<path d="M21.8977 150.682C30.7614 150.682 36.7273 143.949 36.7273 133.807C36.7273 123.58 30.7614 116.847 21.8977 116.847C13.0341 116.847 7.06818 123.58 7.06818 133.807C7.06818 143.949 13.0341 150.682 21.8977 150.682ZM21.8977 146.165C15.1648 146.165 12.0966 140.369 12.0966 133.807C12.0966 127.244 15.1648 121.364 21.8977 121.364C28.6307 121.364 31.6989 127.244 31.6989 133.807C31.6989 140.369 28.6307 146.165 21.8977 146.165ZM40.1257 121.96H50.9496V150H55.978V121.96H66.7166V117.273H40.1257V121.96ZM72.006 141.648C72.1765 147.017 77.3114 150.682 84.2788 150.682C91.4379 150.682 96.6367 146.847 96.6367 140.881C96.6367 136.79 94.1864 133.466 90.5004 133.21V132.869C93.6112 131.911 95.9549 129.652 95.9549 125.966C95.9549 120.788 91.5231 116.847 84.6197 116.847C77.8015 116.847 72.9435 120.597 72.7731 125.881H78.0572C78.2063 123.175 81.0401 121.278 84.8754 121.278C88.6893 121.278 90.8413 123.217 90.8413 126.136C90.8413 128.864 88.9663 130.909 84.9606 130.909H79.3356V135.426H84.9606C88.9663 135.426 91.5231 137.621 91.5231 140.881C91.5231 144.609 88.2205 146.165 84.1935 146.165C80.2518 146.165 77.6097 144.609 77.3754 141.648H72.006ZM108.728 129.119V117.273H103.7V150H117.422C125.092 150 129.268 145.312 129.268 139.432C129.268 133.466 125.092 129.119 117.422 129.119H108.728ZM134.467 150H139.495V117.273H134.467V150ZM108.728 133.807H117.422C121.406 133.807 124.24 136.236 124.24 139.688C124.24 142.99 121.406 145.312 117.422 145.312H108.728V133.807ZM148.7 150H164.126C170.774 150 174.779 146.25 174.779 141.222C174.779 136.087 170.88 133.317 167.279 132.784C170.966 132.017 173.586 129.95 173.586 125.966C173.586 120.746 169.112 117.273 162.081 117.273H148.7V150ZM153.473 145.398V135.341H164.126C167.578 135.341 169.666 137.408 169.666 140.795C169.666 143.651 167.578 145.398 164.126 145.398H153.473ZM153.473 130.994V121.875H162.081C166.108 121.875 168.558 123.558 168.558 126.307C168.558 129.226 166.108 130.994 162.081 130.994H153.473ZM187.42 129.119V117.273H182.391V150H196.113C203.783 150 207.96 145.312 207.96 139.432C207.96 133.466 203.783 129.119 196.113 129.119H187.42ZM213.158 150H218.187V117.273H213.158V150ZM187.42 133.807H196.113C200.097 133.807 202.931 136.236 202.931 139.688C202.931 142.99 200.097 145.312 196.113 145.312H187.42V133.807ZM257.562 150.682C266.425 150.682 272.391 143.949 272.391 133.807C272.391 123.58 266.425 116.847 257.562 116.847C248.698 116.847 242.732 123.58 242.732 133.807C242.732 143.949 248.698 150.682 257.562 150.682ZM257.562 146.165C250.829 146.165 247.761 140.369 247.761 133.807C247.761 127.244 250.829 121.364 257.562 121.364C264.295 121.364 267.363 127.244 267.363 133.807C267.363 140.369 264.295 146.165 257.562 146.165ZM296.942 150H312.368C319.016 150 323.022 146.25 323.022 141.222C323.022 136.087 319.123 133.317 315.522 132.784C319.208 132.017 321.828 129.95 321.828 125.966C321.828 120.746 317.354 117.273 310.323 117.273H296.942V150ZM301.715 145.398V135.341H312.368C315.82 135.341 317.908 137.408 317.908 140.795C317.908 143.651 315.82 145.398 312.368 145.398H301.715ZM301.715 130.994V121.875H310.323C314.35 121.875 316.8 123.558 316.8 126.307C316.8 129.226 314.35 130.994 310.323 130.994H301.715ZM343.929 150.682C351.173 150.682 355.946 146.25 356.798 140.455H351.77C350.832 144.034 347.849 146.165 343.929 146.165C337.963 146.165 334.128 141.222 334.128 133.636C334.128 126.222 338.048 121.364 343.929 121.364C348.361 121.364 351.003 124.091 351.77 127.074H356.798C355.946 120.938 350.747 116.847 343.844 116.847C334.98 116.847 329.099 123.835 329.099 133.807C329.099 143.608 334.724 150.682 343.929 150.682ZM377.871 150.682C384.518 150.682 389.376 147.358 390.911 142.415L386.053 141.051C384.774 144.46 381.812 146.165 377.871 146.165C371.969 146.165 367.899 142.351 367.665 135.341H391.422V133.21C391.422 121.023 384.178 116.847 377.359 116.847C368.496 116.847 362.615 123.835 362.615 133.892C362.615 143.949 368.411 150.682 377.871 150.682ZM367.665 130.994C368.006 125.902 371.607 121.364 377.359 121.364C382.814 121.364 386.308 125.455 386.308 130.994H367.665ZM401.942 117.273H396.147L406.544 133.636L396.147 150H401.942L409.783 137.301L417.624 150H423.419L412.851 133.636L423.419 117.273H417.624L409.783 130.653L401.942 117.273ZM460.765 150.682C468.009 150.682 472.782 146.25 473.634 140.455H468.606C467.668 144.034 464.685 146.165 460.765 146.165C454.799 146.165 450.964 141.222 450.964 133.636C450.964 126.222 454.884 121.364 460.765 121.364C465.197 121.364 467.839 124.091 468.606 127.074H473.634C472.782 120.938 467.583 116.847 460.68 116.847C451.816 116.847 445.935 123.835 445.935 133.807C445.935 143.608 451.56 150.682 460.765 150.682ZM490.616 150.767C496.326 150.767 499.309 147.699 500.332 145.568H500.587V150H505.616V128.438C505.616 118.04 497.69 116.847 493.513 116.847C488.57 116.847 482.945 118.551 480.388 124.517L485.161 126.222C486.269 123.835 488.89 121.278 493.684 121.278C498.308 121.278 500.587 123.729 500.587 127.926V128.097C500.587 130.526 498.116 130.312 492.15 131.08C486.077 131.868 479.451 133.21 479.451 140.71C479.451 147.102 484.394 150.767 490.616 150.767ZM491.383 146.25C487.377 146.25 484.479 144.46 484.479 140.966C484.479 137.131 487.974 135.938 491.894 135.426C494.025 135.17 499.735 134.574 500.587 133.551V138.153C500.587 142.244 497.349 146.25 491.383 146.25ZM519.822 142.585V117.273H514.794V150H520.674L536.356 124.688V150H541.385V117.273H535.589L519.822 142.585ZM532.265 106.364C532.265 108.58 531.072 110.54 528.089 110.54C525.106 110.54 523.998 108.58 523.998 106.364H519.311C519.311 110.966 522.72 114.205 528.089 114.205C533.544 114.205 536.953 110.966 536.953 106.364H532.265ZM546.141 121.96H556.965V150H561.994V121.96H572.732V117.273H546.141V121.96ZM587.999 150.767C593.709 150.767 596.692 147.699 597.714 145.568H597.97V150H602.999V128.438C602.999 118.04 595.072 116.847 590.896 116.847C585.953 116.847 580.328 118.551 577.771 124.517L582.544 126.222C583.652 123.835 586.273 121.278 591.067 121.278C595.69 121.278 597.97 123.729 597.97 127.926V128.097C597.97 130.526 595.499 130.312 589.533 131.08C583.46 131.868 576.834 133.21 576.834 140.71C576.834 147.102 581.777 150.767 587.999 150.767ZM588.766 146.25C584.76 146.25 581.862 144.46 581.862 140.966C581.862 137.131 585.357 135.938 589.277 135.426C591.408 135.17 597.118 134.574 597.97 133.551V138.153C597.97 142.244 594.732 146.25 588.766 146.25ZM615.926 117.273H610.131L620.529 133.636L610.131 150H615.926L623.767 137.301L631.608 150H637.404L626.836 133.636L637.404 117.273H631.608L623.767 130.653L615.926 117.273Z" fill="white" fill-opacity="0.63"/>
</svg>
