<svg width="187" height="37" viewBox="0 0 187 37" fill="none" xmlns="http://www.w3.org/2000/svg">
<g clip-path="url(#clip0)">
<path d="M9.12756 0.00207693H7.77762C3.48215 0.00207693 0 3.43954 0 7.77969C0 10.847 1.52027 12.5803 2.82572 14.4146C4.03244 16.1102 7.86615 21.07 8.83579 22.3539C9.34814 23.0323 10.7675 25.8446 10.7675 27.8334V28.4927C10.7675 29.7711 9.73112 30.8076 8.45261 30.8076C7.17405 30.8076 6.13763 29.7711 6.13763 28.4927V25.7614C6.13763 25.6307 6.02377 25.5293 5.89405 25.5444L0.193298 26.2052C0.0831257 26.218 0 26.3113 0 26.4222V28.8403C0 33.1358 3.48215 36.6179 7.77762 36.6179H9.12756C13.423 36.6179 16.9051 33.1358 16.9051 28.8403V27.9433C16.9051 24.5831 16.0449 22.343 13.9309 19.5518C12.9532 18.2608 8.93006 13.0519 7.72105 11.3484C7.15217 10.5469 6.13763 9.19825 6.13763 8.01942C6.13763 6.80053 7.12575 5.81241 8.34469 5.81241C9.68278 5.81241 10.7675 6.89717 10.7675 8.23522V10.8587C10.7675 10.9893 10.8814 11.0907 11.0111 11.0756L16.7119 10.4148C16.822 10.402 16.9051 10.3087 16.9051 10.1978V7.77969C16.9051 3.48423 13.423 0.00207693 9.12756 0.00207693V0.00207693ZM59.3058 8.1255C59.3058 6.84802 58.2704 5.81241 56.9932 5.81241C55.7153 5.81241 54.6798 6.84802 54.6798 8.1255V28.4945C54.6798 29.772 55.7153 30.8076 56.9932 30.8076C58.2704 30.8076 59.3058 29.772 59.3058 28.4945V8.1255ZM65.4435 7.77969V28.8403C65.4435 33.1358 61.9613 36.6179 57.6661 36.6179H56.3199C52.0244 36.6179 48.5422 33.1358 48.5422 28.8403V7.77969C48.5422 3.48423 52.0244 0.00207693 56.3199 0.00207693H57.6661C61.9613 0.00207693 65.4435 3.48423 65.4435 7.77969ZM35.7467 0.647599H45.2556C45.376 0.647599 45.474 0.745404 45.474 0.866052V35.75C45.474 35.8706 45.376 35.9684 45.2556 35.9684H39.8209C39.7003 35.9684 39.6025 35.8706 39.6025 35.75V11.4436C39.6025 11.2176 39.2726 11.1938 39.2399 11.4173L35.6963 35.7814C35.6807 35.8887 35.5886 35.9684 35.4801 35.9684H29.5434C29.4349 35.9684 29.3428 35.8887 29.3272 35.7814L25.7834 11.4173C25.7509 11.1938 25.4211 11.2176 25.4211 11.4436V35.75C25.4211 35.8706 25.3233 35.9684 25.2026 35.9684H19.7677C19.6471 35.9684 19.5493 35.8706 19.5493 35.75V0.866052C19.5493 0.745404 19.6471 0.647599 19.7677 0.647599H29.2768C29.3853 0.647599 29.4773 0.727216 29.493 0.834615L32.3315 20.3499C32.3617 20.5578 32.6618 20.5578 32.692 20.3499L35.5305 0.834615C35.5461 0.727216 35.6382 0.647599 35.7467 0.647599Z" fill="#FF9800"/>
<path d="M144.195 35.9684H149.896C150.017 35.9684 150.114 35.8706 150.114 35.75V0.865967C150.114 0.745393 150.017 0.647537 149.896 0.647537H144.195C144.075 0.647537 143.976 0.745393 143.976 0.865967V35.75C143.976 35.8706 144.075 35.9684 144.195 35.9684V35.9684ZM132.538 23.9125L129.294 0.835567C129.279 0.727727 129.187 0.647537 129.078 0.647537H123.611C123.478 0.647537 123.375 0.765013 123.394 0.896371L128.296 35.7803C128.312 35.8882 128.404 35.9684 128.513 35.9684H137.005C137.112 35.9684 137.205 35.8882 137.22 35.7803L142.122 0.896371C142.142 0.765013 142.04 0.647537 141.907 0.647537H136.439C136.33 0.647537 136.237 0.727727 136.222 0.835567L132.979 23.9125C132.943 24.1678 132.574 24.1678 132.538 23.9125ZM122.327 11.2033V9.48511C122.327 4.60422 118.37 0.647537 113.489 0.647537H104.05C103.93 0.647537 103.832 0.745393 103.832 0.865967V35.75C103.832 35.8706 103.93 35.9684 104.05 35.9684H109.751C109.872 35.9684 109.97 35.8706 109.97 35.75V6.45792H112.332C114.462 6.45792 116.189 8.18484 116.189 10.315V10.5994C116.189 13.7596 112.371 14.8275 111.4 15.0478C111.28 15.0752 111.206 15.1976 111.239 15.3172L116.728 35.8065C116.754 35.902 116.841 35.9684 116.94 35.9684H122.451C122.594 35.9684 122.699 35.8321 122.662 35.6934L118.106 18.6913C118.106 18.6913 122.327 16.6795 122.327 11.2033ZM178.904 30.1581V20.0297H184.565C184.686 20.0297 184.784 19.9318 184.784 19.8112V14.4377C184.784 14.3171 184.686 14.2193 184.565 14.2193H178.904V6.45792H185.9C186.007 6.45792 186.098 6.38036 186.116 6.27482L186.996 0.901303C187.018 0.768339 186.916 0.647537 186.782 0.647537H172.985C172.865 0.647537 172.766 0.745393 172.766 0.865967V35.75C172.766 35.8706 172.865 35.9684 172.985 35.9684H186.782C186.916 35.9684 187.018 35.8476 186.996 35.7146L186.116 30.3412C186.098 30.2356 186.007 30.1581 185.9 30.1581H178.904ZM77.2153 3.78471e-05H75.8655C71.5699 3.78471e-05 68.0879 3.43749 68.0879 7.77758C68.0879 10.845 69.6082 12.5783 70.9136 14.4126C72.1204 16.1082 75.9542 21.068 76.9236 22.3519C77.436 23.0302 78.8555 25.8426 78.8555 27.8314V28.4907C78.8555 29.7691 77.8191 30.8056 76.5406 30.8056C75.2618 30.8056 74.2253 29.7691 74.2253 28.4907V25.7593C74.2253 25.6287 74.1117 25.5273 73.9818 25.5423L68.2813 26.2032C68.1711 26.2159 68.0879 26.3092 68.0879 26.4201V28.8383C68.0879 33.1338 71.5699 36.6159 75.8655 36.6159H77.2153C81.511 36.6159 84.993 33.1338 84.993 28.8383V27.9413C84.993 24.5811 84.1326 22.341 82.0188 19.5498C81.0409 18.2588 77.0179 13.0498 75.8089 11.3464C75.2402 10.5448 74.2253 9.19612 74.2253 8.01735C74.2253 6.79841 75.2136 5.8103 76.4323 5.8103C77.7705 5.8103 78.8555 6.89501 78.8555 8.23325V10.8566C78.8555 10.9872 78.9691 11.0887 79.099 11.0736L84.7996 10.4128C84.9097 10.4 84.993 10.3066 84.993 10.1958V7.77758C84.993 3.48211 81.511 3.78471e-05 77.2153 3.78471e-05ZM87.7529 0.981724V35.8656C87.7529 35.9863 87.8504 36.0841 87.9714 36.0841H100.854C100.975 36.0841 101.072 35.9863 101.072 35.8656V30.4922C101.072 30.3716 100.975 30.2738 100.854 30.2738H93.8904V20.1453H99.552C99.6727 20.1453 99.7705 20.0475 99.7705 19.9269V14.5535C99.7705 14.4328 99.6727 14.335 99.552 14.335H93.8904V6.57355H100.854C100.975 6.57355 101.072 6.4757 101.072 6.35512V0.981724C101.072 0.861035 100.975 0.763291 100.854 0.763291H87.9714C87.8504 0.763291 87.7529 0.861035 87.7529 0.981724V0.981724ZM170.084 7.77964V10.1978C170.084 10.3087 170 10.402 169.89 10.4147L164.189 11.0756C164.06 11.0907 163.946 10.9892 163.946 10.8586V8.12541C163.946 6.83776 162.894 5.79573 161.602 5.81248C160.331 5.829 159.319 6.8887 159.319 8.15995V28.4945C159.319 29.7822 160.371 30.8241 161.663 30.8074C162.935 30.7909 163.946 29.7313 163.946 28.46V25.7573C163.946 25.6267 164.06 25.5253 164.189 25.5403L169.89 26.2012C170 26.2139 170.084 26.3072 170.084 26.4181V28.8403C170.084 33.1358 166.602 36.6179 162.306 36.6179H160.96C156.665 36.6179 153.182 33.1358 153.182 28.8403V7.77964C153.182 3.48418 156.665 0.00199004 160.96 0.00199004H162.306C166.602 0.00199004 170.084 3.48418 170.084 7.77964" fill="#535456"/>
</g>
<defs>
<clipPath id="clip0">
<rect width="187" height="36.618" fill="white"/>
</clipPath>
</defs>
</svg>
