<?xml version="1.0" encoding="utf-8"?>
<!-- Generator: Adobe Illustrator 21.1.0, SVG Export Plug-In . SVG Version: 6.00 Build 0)  -->
<svg version="1.1" id="Layer_1" xmlns="http://www.w3.org/2000/svg" xmlns:xlink="http://www.w3.org/1999/xlink" x="0px" y="0px"
	 viewBox="0 0 160 28" style="enable-background:new 0 0 160 28;" xml:space="preserve">
<style type="text/css">
	.st0{fill:#202635;}
	.st1{fill:#3251DF;}
	.st2{fill:#3A1F54;}
	.st3{fill:#B15EE6;}
	.st4{fill:#AB0354;}
	.st5{fill:#FF505D;}
</style>
<g id="XMLID_7801_">
	<g id="XMLID_7809_">
		<g>
			<path id="XMLID_117_" class="st0" d="M56,25.4h-5.2L44.3,5.8h5.1l3.9,13.7h0.1l4-13.7h5.2L56,25.4z"/>
			<path id="XMLID_115_" class="st0" d="M67.7,25.4V5.8h5v19.6H67.7z"/>
			<path id="XMLID_113_" class="st0" d="M90.7,25.4l-7.5-11.9l-0.1,0l0.1,11.9h-4.8V5.8h4.3l7.6,12.3l0.1-0.1L90.2,5.8H95v19.6H90.7
				z"/>
			<path id="XMLID_110_" class="st0" d="M107.3,25.4h-6.9V5.8h6.5c1,0,1.8,0,2.5,0.1c0.8,0.1,1.6,0.3,2.3,0.5c1.5,0.6,2.8,1.5,3.8,3
				c1.2,1.7,1.8,3.7,1.8,6.1C117.4,22.1,114.1,25.4,107.3,25.4z M111.3,11.7c-0.8-1-2-1.6-3.6-1.6h-2.2V21h2.1
				c1.6,0,2.9-0.5,3.7-1.5c0.8-0.9,1.1-2.2,1.1-3.9C112.4,14,112,12.7,111.3,11.7z"/>
			<path id="XMLID_107_" class="st0" d="M132.8,25.4l-1-2.8H125l-1,2.8h-5.4l7.9-19.6h3.9l7.8,19.6H132.8z M128.5,11.9L128.5,11.9
				l-2.1,6.7h4.1L128.5,11.9z"/>
			<path id="XMLID_105_" class="st0" d="M154.3,25.4l-4.2-6.9l-4,6.9h-5.6l6.9-10.4l-6.1-9.2h5.7l3.4,5.6l3.3-5.6h5.6l-6,9.3
				l6.8,10.3H154.3z"/>
		</g>
	</g>
	<g id="XMLID_7802_">
		<path id="XMLID_7807_" class="st1" d="M19.9,10.2l-6.4-8h-11C1.1,2.4,0.4,3.4,0.4,4.5c0,0.2,0.1,0.5,0.2,0.8l11.7,14.6L19.9,10.2z
			"/>
		<path id="XMLID_7806_" class="st2" d="M19.9,10.2l-7.7,9.6l5.3,6.6c0.7,0.5,1.5,0.8,2.4,0.8c0.9,0,1.8-0.4,2.5-0.9l5.2-6.5
			L19.9,10.2z"/>
		<path id="XMLID_7805_" class="st3" d="M23.1,2.2h-9.6l6.4,8L25.7,3C25,2.5,24.1,2.2,23.1,2.2z"/>
		<path id="XMLID_7804_" class="st4" d="M32.2,10.8l-5.1-6.4c-0.5-0.6-0.9-1.1-1.4-1.4l-5.8,7.2l7.7,9.7l5.1-6.4
			C33.2,12.2,32.3,10.9,32.2,10.8z"/>
		<path id="XMLID_7803_" class="st5" d="M39.6,4.3c0-1.3-1.2-1.9-2.2-2.1h-9.3c0.5,0.1,0.9,0.6,1.2,1l4.7,5.9
			c0.3,0.4,0.6,0.9,0.8,1.6l4.7-5.9C39.6,4.7,39.6,4.5,39.6,4.3z"/>
	</g>
</g>
</svg>
