<svg xmlns="http://www.w3.org/2000/svg" xmlns:xlink="http://www.w3.org/1999/xlink" width="150" height="150" version="1.1" viewBox="0 0 54 54"><g id="qr-qrcode" transform="translate(0,0)"><rect width="54" height="54" x="0" y="0" fill="#FFF" class="qr-bg"/><path id="p0" fill="#000" stroke-width="0" d="M 2 2.2857142857142856 C 2 2.2857142857142856 2 2 2.2857142857142856 2 L 15.714285714285714 2 C 15.714285714285714 2 16 2 16 2.2857142857142856 L 16 15.714285714285714 C 16 15.714285714285714 16 16 15.714285714285714 16 L 2.2857142857142856 16 C 2.2857142857142856 16 2 16 2 15.714285714285714 L 2 2.2857142857142856M 4.285714285714286 4 C 4.285714285714286 4 4 4 4 4.285714285714286 L 4 13.714285714285714 C 4 13.714285714285714 4 14 4.285714285714286 14 L 13.714285714285714 14 C 13.714285714285714 14 14 14 14 13.714285714285714 L 14 4.285714285714286 C 14 4.285714285714286 14 4 13.714285714285714 4 L 4.285714285714286 4 z" class="q-sq"/><path id="p1" fill="#000" stroke-width="0" d="M 2 18.285714285714285 C 2 18.285714285714285 2 18 2.2857142857142856 18 L 3.7142857142857144 18 C 3.7142857142857144 18 4 18 4 18.285714285714285 L 4 19.714285714285715 C 4 19.714285714285715 4 20 3.7142857142857144 20 L 2.2857142857142856 20 C 2.2857142857142856 20 2 20 2 19.714285714285715 L 2 18.285714285714285 z" class="q-one"/><path id="p2" fill="#000" stroke-width="0" d="M 2 28.285714285714285 C 2 28.285714285714285 2 28 2.2857142857142856 28 L 3.7142857142857144 28 C 3.7142857142857144 28 4 28 4 28.285714285714285 L 4 35.714285714285715 C 4 35.714285714285715 4 36 3.7142857142857144 36 L 2.2857142857142856 36 C 2.2857142857142856 36 2 36 2 35.714285714285715 L 2 28.285714285714285 z"/><path id="p3" fill="#000" stroke-width="0" d="M 2 38.285714285714285 C 2 38.285714285714285 2 38 2.2857142857142856 38 L 15.714285714285714 38 C 15.714285714285714 38 16 38 16 38.285714285714285 L 16 51.714285714285715 C 16 51.714285714285715 16 52 15.714285714285714 52 L 2.2857142857142856 52 C 2.2857142857142856 52 2 52 2 51.714285714285715 L 2 38.285714285714285M 4.285714285714286 40 C 4.285714285714286 40 4 40 4 40.285714285714285 L 4 49.714285714285715 C 4 49.714285714285715 4 50 4.285714285714286 50 L 13.714285714285714 50 C 13.714285714285714 50 14 50 14 49.714285714285715 L 14 40.285714285714285 C 14 40.285714285714285 14 40 13.714285714285714 40 L 4.285714285714286 40 z" class="q-sq"/><path id="p4" fill="#000" stroke-width="0" d="M 4 20.285714285714285 C 4 20.285714285714285 4 20 4.285714285714286 20 L 5.714285714285714 20 C 5.714285714285714 20 6 20 6 20.285714285714285 L 6 21.714285714285715 C 6 21.714285714285715 6 22 5.714285714285714 22 L 4.285714285714286 22 C 4.285714285714286 22 4 22 4 21.714285714285715 L 4 20.285714285714285 z" class="q-one"/><path id="p5" fill="#000" stroke-width="0" d="M 6 22.285714285714285 C 6 22.285714285714285 6 22 6.285714285714286 22 L 7.714285714285714 22 C 7.714285714285714 22 8 22 8 22.285714285714285 L 8 23.714285714285715 C 8 23.714285714285715 8 24 8.285714285714286 24 L 9.714285714285714 24 C 9.714285714285714 24 10 24 10 24.285714285714285 L 10 25.714285714285715 C 10 25.714285714285715 10 26 10.285714285714286 26 L 11.714285714285714 26 C 11.714285714285714 26 12 26 12 26.285714285714285 L 12 27.714285714285715 C 12 27.714285714285715 12 28 11.714285714285714 28 L 8.285714285714286 28 C 8.285714285714286 28 8 28 8 27.714285714285715 L 8 26.285714285714285 C 8 26.285714285714285 8 26 7.714285714285714 26 L 6.285714285714286 26 C 6.285714285714286 26 6 26 6 26.285714285714285 L 6 27.714285714285715 C 6 27.714285714285715 6 28 5.714285714285714 28 L 4.285714285714286 28 C 4.285714285714286 28 4 28 4 27.714285714285715 L 4 24.285714285714285 C 4 24.285714285714285 4 24 4.285714285714286 24 L 5.714285714285714 24 C 5.714285714285714 24 6 24 6 23.714285714285715 L 6 22.285714285714285 z"/><path id="p6" fill="#000" stroke-width="0" d="M 6 6.285714285714286 C 6 6.285714285714286 6 6 6.285714285714286 6 L 11.714285714285714 6 C 11.714285714285714 6 12 6 12 6.285714285714286 L 12 11.714285714285714 C 12 11.714285714285714 12 12 11.714285714285714 12 L 6.285714285714286 12 C 6.285714285714286 12 6 12 6 11.714285714285714 L 6 6.285714285714286 z" class="q-sqf"/><path id="p7" fill="#000" stroke-width="0" d="M 24 16.285714285714285 C 24 16.285714285714285 24 15.999999999999998 24.285714285714285 15.999999999999998 L 25.714285714285715 16 C 25.714285714285715 16 26 16 26 16.285714285714285 L 26 17.714285714285715 C 26 17.714285714285715 26 18 26.285714285714285 18 L 31.714285714285715 18 C 31.714285714285715 18 32 18 32 18.285714285714285 L 32 19.714285714285715 C 32 19.714285714285715 32 20 31.714285714285715 20 L 26.285714285714285 20 C 26.285714285714285 20 26 20 26 20.285714285714285 L 26 25.714285714285715 C 26 25.714285714285715 26 26 25.714285714285715 26 L 24.285714285714285 26 C 24.285714285714285 26 24 26 24 25.714285714285715 L 24 24.285714285714285 C 24 24.285714285714285 24 24 23.714285714285715 24 L 22.285714285714285 24 C 22.285714285714285 24 22 24 22 24.285714285714285 L 22 25.714285714285715 C 22 25.714285714285715 22 26 21.714285714285715 26 L 20.285714285714285 26 C 20.285714285714285 26 20 26 20 26.285714285714285 L 20 27.714285714285715 C 20 27.714285714285715 20 28 19.714285714285715 28 L 18.285714285714285 28 C 18.285714285714285 28 18 28 18 27.714285714285715 L 18 26.285714285714285 C 18 26.285714285714285 18 26 17.714285714285715 26 L 16.285714285714285 26 C 16.285714285714285 26 15.999999999999998 26 15.999999999999998 25.714285714285715 L 16 24.285714285714285 C 16 24.285714285714285 16 24 15.714285714285714 24 L 10.285714285714286 24 C 10.285714285714286 24 10 24 10 23.714285714285715 L 10 22.285714285714285 C 10 22.285714285714285 10 22 10.285714285714286 22 L 11.714285714285714 22 C 11.714285714285714 22 12 22 12 21.714285714285715 L 12 20.285714285714285 C 12 20.285714285714285 12 20 11.714285714285714 20 L 10.285714285714286 20 C 10.285714285714286 20 10 20 10 20.285714285714285 L 10 21.714285714285715 C 10 21.714285714285715 10 22 9.714285714285714 22 L 8.285714285714286 22 C 8.285714285714286 22 8 22 8 21.714285714285715 L 8 20.285714285714285 C 8 20.285714285714285 8 20 7.714285714285714 20 L 6.285714285714286 20 C 6.285714285714286 20 6 20 6 19.714285714285715 L 6 18.285714285714285 C 6 18.285714285714285 6 18 6.285714285714286 18 L 15.714285714285714 18 C 15.714285714285714 18 16 18 16 18.285714285714285 L 16 19.714285714285715 C 16 19.714285714285715 16 20 15.714285714285714 20 L 14.285714285714286 20 C 14.285714285714286 20 14 20 14 20.285714285714285 L 14 21.714285714285715 C 14 21.714285714285715 14 22 14.285714285714286 22 L 23.714285714285715 22 C 23.714285714285715 22 24 22 24 21.714285714285715 L 24 16.285714285714285 z"/><path id="p8" fill="#000" stroke-width="0" d="M 6 28.285714285714285 C 6 28.285714285714285 6 28 6.285714285714286 28 L 7.714285714285714 28 C 7.714285714285714 28 8 28 8 28.285714285714285 L 8 29.714285714285715 C 8 29.714285714285715 8 30 7.714285714285714 30 L 6.285714285714286 30 C 6.285714285714286 30 6 30 6 29.714285714285715 L 6 28.285714285714285 z" class="q-one"/><path id="p9" fill="#000" stroke-width="0" d="M 12 30.285714285714285 C 12 30.285714285714285 12 30 12.285714285714286 30 L 19.714285714285715 30 C 19.714285714285715 30 20 30 20 30.285714285714285 L 20 37.714285714285715 C 20 37.714285714285715 20 38 19.714285714285715 38 L 18.285714285714285 38 C 18.285714285714285 38 18 38 18 37.714285714285715 L 18 36.285714285714285 C 18 36.285714285714285 18 36 17.714285714285715 36 L 10.285714285714286 36 C 10.285714285714286 36 10 36 10 35.714285714285715 L 10 34.285714285714285 C 10 34.285714285714285 10 34 9.714285714285714 34 L 8.285714285714286 34 C 8.285714285714286 34 8 34 8 34.285714285714285 L 8 35.714285714285715 C 8 35.714285714285715 8 36 7.714285714285714 36 L 6.285714285714286 36 C 6.285714285714286 36 6 36 6 35.714285714285715 L 6 32.285714285714285 C 6 32.285714285714285 6 32 6.285714285714286 32 L 11.714285714285714 32 C 11.714285714285714 32 12 32 12 31.714285714285715 L 12 30.285714285714285M 14.285714285714286 32 C 14.285714285714286 32 14 32 14 32.285714285714285 L 14 33.714285714285715 C 14 33.714285714285715 14 34 14.285714285714286 34 L 15.714285714285714 34 C 15.714285714285714 34 16 34 16 33.714285714285715 L 16 32.285714285714285 C 16 32.285714285714285 16 32 15.714285714285714 32 L 14.285714285714286 32 z"/><path id="p10" fill="#000" stroke-width="0" d="M 6 42.285714285714285 C 6 42.285714285714285 6 42 6.285714285714286 42 L 11.714285714285714 42 C 11.714285714285714 42 12 42 12 42.285714285714285 L 12 47.714285714285715 C 12 47.714285714285715 12 48 11.714285714285714 48 L 6.285714285714286 48 C 6.285714285714286 48 6 48 6 47.714285714285715 L 6 42.285714285714285 z" class="q-sqf"/><path id="p11" fill="#000" stroke-width="0" d="M 14 26.285714285714285 C 14 26.285714285714285 14 26 14.285714285714286 26 L 15.714285714285714 26 C 15.714285714285714 26 16 26 16 26.285714285714285 L 16 27.714285714285715 C 16 27.714285714285715 16 28 15.714285714285714 28 L 14.285714285714286 28 C 14.285714285714286 28 14 28 14 27.714285714285715 L 14 26.285714285714285 z" class="q-one"/><path id="p12" fill="#000" stroke-width="0" d="M 18 6.285714285714286 C 18 6.285714285714286 18 6 18.285714285714285 6 L 21.714285714285715 6 C 21.714285714285715 6 22 6 22 6.285714285714286 L 22 9.714285714285714 C 22 9.714285714285714 22 10 22.285714285714285 10 L 23.714285714285715 10 C 23.714285714285715 10 24 10 24 10.285714285714286 L 24 15.714285714285714 C 24 15.714285714285714 24 16 23.714285714285715 16 L 22.285714285714285 16 C 22.285714285714285 16 22 16 22 15.714285714285714 L 22 12.285714285714286 C 22 12.285714285714286 22 12 21.714285714285715 12 L 20.285714285714285 12 C 20.285714285714285 12 20 12 20 12.285714285714286 L 20 17.714285714285715 C 20 17.714285714285715 20 18 19.714285714285715 18 L 18.285714285714285 18 C 18.285714285714285 18 18 18 18 17.714285714285715 L 18 6.285714285714286 z"/><path id="p13" fill="#000" stroke-width="0" d="M 18 40.285714285714285 C 18 40.285714285714285 18 40 18.285714285714285 40 L 19.714285714285715 40 C 19.714285714285715 40 20 40 20 40.285714285714285 L 20 43.714285714285715 C 20 43.714285714285715 20 44 20.285714285714285 44 L 21.714285714285715 44 C 21.714285714285715 44 22 44 22 44.285714285714285 L 22 45.714285714285715 C 22 45.714285714285715 22 46 21.714285714285715 46 L 20.285714285714285 46 C 20.285714285714285 46 20 46 20 46.285714285714285 L 20 47.714285714285715 C 20 47.714285714285715 20 48 19.714285714285715 48 L 18.285714285714285 48 C 18.285714285714285 48 18 48 18 47.714285714285715 L 18 40.285714285714285 z"/><path id="p14" fill="#000" stroke-width="0" d="M 18 50.285714285714285 C 18 50.285714285714285 18 50 18.285714285714285 50 L 19.714285714285715 50 C 19.714285714285715 50 20 50 20 50.285714285714285 L 20 51.714285714285715 C 20 51.714285714285715 20 52 19.714285714285715 52 L 18.285714285714285 52 C 18.285714285714285 52 18 52 18 51.714285714285715 L 18 50.285714285714285 z" class="q-one"/><path id="p15" fill="#000" stroke-width="0" d="M 20 2.2857142857142856 C 20 2.2857142857142856 20 2 20.285714285714285 2 L 25.714285714285715 2 C 25.714285714285715 2 26 2 26 2.2857142857142856 L 26 3.7142857142857144 C 26 3.7142857142857144 26 4 25.714285714285715 4 L 24.285714285714285 4 C 24.285714285714285 4 24 4 24 4.285714285714286 L 24 5.714285714285714 C 24 5.714285714285714 24 6 23.714285714285715 6 L 22.285714285714285 6 C 22.285714285714285 6 22 6 22 5.714285714285714 L 22 4.285714285714286 C 22 4.285714285714286 22 4 21.714285714285715 4 L 20.285714285714285 4 C 20.285714285714285 4 20 4 20 3.7142857142857144 L 20 2.2857142857142856 z"/><path id="p16" fill="#000" stroke-width="0" d="M 22 36.285714285714285 C 22 36.285714285714285 22 36 22.285714285714285 36 L 23.714285714285715 36 C 23.714285714285715 36 24 36 24 36.285714285714285 L 24 43.714285714285715 C 24 43.714285714285715 24 44 23.714285714285715 44 L 22.285714285714285 44 C 22.285714285714285 44 22 44 22 43.714285714285715 L 22 40.285714285714285 C 22 40.285714285714285 22 40 21.714285714285715 40 L 20.285714285714285 40 C 20.285714285714285 40 20 40 20 39.714285714285715 L 20 38.285714285714285 C 20 38.285714285714285 20 38 20.285714285714285 38 L 21.714285714285715 38 C 21.714285714285715 38 22 38 22 37.714285714285715 L 22 36.285714285714285 z"/><path id="p17" fill="#000" stroke-width="0" d="M 20 48.285714285714285 C 20 48.285714285714285 20 48 20.285714285714285 48 L 21.714285714285715 48 C 21.714285714285715 48 22 48 22 48.285714285714285 L 22 49.714285714285715 C 22 49.714285714285715 22 50 21.714285714285715 50 L 20.285714285714285 50 C 20.285714285714285 50 20 50 20 49.714285714285715 L 20 48.285714285714285 z" class="q-one"/><path id="p18" fill="#000" stroke-width="0" d="M 22 28.285714285714285 C 22 28.285714285714285 22 28 22.285714285714285 28 L 23.714285714285715 28 C 23.714285714285715 28 24 28 24 28.285714285714285 L 24 29.714285714285715 C 24 29.714285714285715 24 30 24.285714285714285 30 L 27.714285714285715 30 C 27.714285714285715 30 28 30 28 30.285714285714285 L 28 31.714285714285715 C 28 31.714285714285715 28 32 27.714285714285715 32 L 26.285714285714285 32 C 26.285714285714285 32 26 32 26 32.285714285714285 L 26 35.714285714285715 C 26 35.714285714285715 26 36 25.714285714285715 36 L 24.285714285714285 36 C 24.285714285714285 36 24 36 24 35.714285714285715 L 24 34.285714285714285 C 24 34.285714285714285 24 34 23.714285714285715 34 L 22.285714285714285 34 C 22.285714285714285 34 22 34 22 33.714285714285715 L 22 28.285714285714285 z"/><path id="p19" fill="#000" stroke-width="0" d="M 24 46.285714285714285 C 24 46.285714285714285 24 46 24.285714285714285 46 L 27.714285714285715 46 C 27.714285714285715 46 28 46 28 46.285714285714285 L 28 47.714285714285715 C 28 47.714285714285715 28 48 27.714285714285715 48 L 26.285714285714285 48 C 26.285714285714285 48 26 48 26 48.285714285714285 L 26 51.714285714285715 C 26 51.714285714285715 26 52 25.714285714285715 52 L 22.285714285714285 52 C 22.285714285714285 52 22 52 22 51.714285714285715 L 22 50.285714285714285 C 22 50.285714285714285 22 50 22.285714285714285 50 L 23.714285714285715 50 C 23.714285714285715 50 24 50 24 49.714285714285715 L 24 46.285714285714285 z"/><path id="p20" fill="#000" stroke-width="0" d="M 24 6.285714285714286 C 24 6.285714285714286 24 6 24.285714285714285 6 L 25.714285714285715 6 C 25.714285714285715 6 26 6 26 6.285714285714286 L 26 9.714285714285714 C 26 9.714285714285714 26 10 25.714285714285715 10 L 24.285714285714285 10 C 24.285714285714285 10 24 10 24 9.714285714285714 L 24 6.285714285714286 z"/><path id="p21" fill="#000" stroke-width="0" d="M 26 14.285714285714286 C 26 14.285714285714286 26 14 26.285714285714285 14 L 27.714285714285715 14 C 27.714285714285715 14 28 14 28 14.285714285714286 L 28 15.714285714285714 C 28 15.714285714285714 28 16 27.714285714285715 16 L 26.285714285714285 16 C 26.285714285714285 16 26 16 26 15.714285714285714 L 26 14.285714285714286 z" class="q-one"/><path id="p22" fill="#000" stroke-width="0" d="M 30 24.285714285714285 C 30 24.285714285714285 30 24 30.285714285714285 24 L 31.714285714285715 24 C 31.714285714285715 24 32 24 32 24.285714285714285 L 32 25.714285714285715 C 32 25.714285714285715 32 26 32.285714285714285 26 L 33.714285714285715 26 C 33.714285714285715 26 34 26 34 26.285714285714285 L 34 27.714285714285715 C 34 27.714285714285715 34 28 33.714285714285715 28 L 26.285714285714285 28 C 26.285714285714285 28 26 28 26 27.714285714285715 L 26 26.285714285714285 C 26 26.285714285714285 26 26 26.285714285714285 26 L 29.714285714285715 26 C 29.714285714285715 26 30 26 30 25.714285714285715 L 30 24.285714285714285 z"/><path id="p23" fill="#000" stroke-width="0" d="M 26 36.285714285714285 C 26 36.285714285714285 26 36 26.285714285714285 36 L 29.714285714285715 36 C 29.714285714285715 36 30 36 30 36.285714285714285 L 30 37.714285714285715 C 30 37.714285714285715 30 38 30.285714285714285 38 L 31.714285714285715 38 C 31.714285714285715 38 32 38 32 38.285714285714285 L 32 39.714285714285715 C 32 39.714285714285715 32 40 31.714285714285715 40 L 30.285714285714285 40 C 30.285714285714285 40 30 40 30 40.285714285714285 L 30 41.714285714285715 C 30 41.714285714285715 30 42 29.714285714285715 42 L 28.285714285714285 42 C 28.285714285714285 42 28 42 28 42.285714285714285 L 28 43.714285714285715 C 28 43.714285714285715 28 44 27.714285714285715 44 L 26.285714285714285 44 C 26.285714285714285 44 26 44 26 43.714285714285715 L 26 40.285714285714285 C 26 40.285714285714285 26 40 26.285714285714285 40 L 27.714285714285715 40 C 27.714285714285715 40 28 40 28 39.714285714285715 L 28 38.285714285714285 C 28 38.285714285714285 28 38 27.714285714285715 38 L 26.285714285714285 38 C 26.285714285714285 38 26 38 26 37.714285714285715 L 26 36.285714285714285 z"/><path id="p24" fill="#000" stroke-width="0" d="M 30 6.285714285714286 C 30 6.285714285714286 30 6 30.285714285714285 6 L 31.714285714285715 6 C 31.714285714285715 6 32 6 32 6.285714285714286 L 32 9.714285714285714 C 32 9.714285714285714 32 10 31.714285714285715 10 L 30.285714285714285 10 C 30.285714285714285 10 30 10 30 10.285714285714286 L 30 11.714285714285714 C 30 11.714285714285714 30 12 30.285714285714285 12 L 33.714285714285715 12 C 33.714285714285715 12 34 12 34 11.714285714285714 L 34 10.285714285714286 C 34 10.285714285714286 34 10 34.285714285714285 10 L 35.714285714285715 10 C 35.714285714285715 10 36 10 36 10.285714285714286 L 36 15.714285714285714 C 36 15.714285714285714 36 16 35.714285714285715 16 L 34.285714285714285 16 C 34.285714285714285 16 34 16 34 15.714285714285714 L 34 14.285714285714286 C 34 14.285714285714286 34 14 33.714285714285715 14 L 32.285714285714285 14 C 32.285714285714285 14 32 14 32 14.285714285714286 L 32 15.714285714285714 C 32 15.714285714285714 32 16 31.714285714285715 16 L 30.285714285714285 16 C 30.285714285714285 16 30 16 30 15.714285714285714 L 30 14.285714285714286 C 30 14.285714285714286 30 14 29.714285714285715 14 L 28.285714285714285 14 C 28.285714285714285 14 28 14 28 13.714285714285714 L 28 8.285714285714286 C 28 8.285714285714286 28 8 28.285714285714285 8 L 29.714285714285715 8 C 29.714285714285715 8 30 8 30 7.714285714285714 L 30 6.285714285714286 z"/><path id="p25" fill="#000" stroke-width="0" d="M 28 22.285714285714285 C 28 22.285714285714285 28 22 28.285714285714285 22 L 29.714285714285715 22 C 29.714285714285715 22 30 22 30 22.285714285714285 L 30 23.714285714285715 C 30 23.714285714285715 30 24 29.714285714285715 24 L 28.285714285714285 24 C 28.285714285714285 24 28 24 28 23.714285714285715 L 28 22.285714285714285 z" class="q-one"/><path id="p26" fill="#000" stroke-width="0" d="M 30 30.285714285714285 C 30 30.285714285714285 30 30 30.285714285714285 30 L 33.714285714285715 30 C 33.714285714285715 30 34 30 34 30.285714285714285 L 34 31.714285714285715 C 34 31.714285714285715 34 32 33.714285714285715 32 L 32.285714285714285 32 C 32.285714285714285 32 32 32 32 32.285714285714285 L 32 33.714285714285715 C 32 33.714285714285715 32 34 31.714285714285715 34 L 30.285714285714285 34 C 30.285714285714285 34 30 34 30 33.714285714285715 L 30 30.285714285714285 z"/><path id="p27" fill="#000" stroke-width="0" d="M 36 22.285714285714285 C 36 22.285714285714285 36 22 36.285714285714285 22 L 39.714285714285715 22 C 39.714285714285715 22 40 22 40 22.285714285714285 L 40 23.714285714285715 C 40 23.714285714285715 40 24 40.285714285714285 24 L 41.714285714285715 24 C 41.714285714285715 24 42 24 42 24.285714285714285 L 42 25.714285714285715 C 42 25.714285714285715 42 26 42.285714285714285 26 L 43.714285714285715 26 C 43.714285714285715 26 44 26 44 26.285714285714285 L 44 27.714285714285715 C 44 27.714285714285715 44 28 43.714285714285715 28 L 42.285714285714285 28 C 42.285714285714285 28 42 28 42 28.285714285714285 L 42 29.714285714285715 C 42 29.714285714285715 42 30 42.285714285714285 30 L 43.714285714285715 30 C 43.714285714285715 30 44 30 44 29.714285714285715 L 44 28.285714285714285 C 44 28.285714285714285 44 28 44.285714285714285 28 L 45.714285714285715 28 C 45.714285714285715 28 46 28 46 28.285714285714285 L 46 31.714285714285715 C 46 31.714285714285715 46 32 45.714285714285715 32 L 44.285714285714285 32 C 44.285714285714285 32 44 32 44 32.285714285714285 L 44 35.714285714285715 C 44 35.714285714285715 44 36 44.285714285714285 36 L 45.714285714285715 36 C 45.714285714285715 36 46 36 46 36.285714285714285 L 46 37.714285714285715 C 46 37.714285714285715 46 38 45.714285714285715 38 L 44.285714285714285 38 C 44.285714285714285 38 44 38 44 38.285714285714285 L 44 39.714285714285715 C 44 39.714285714285715 44 40 44.285714285714285 40 L 45.714285714285715 40 C 45.714285714285715 40 46 40 46 40.285714285714285 L 46 41.714285714285715 C 46 41.714285714285715 46 42 45.714285714285715 42 L 44.285714285714285 42 C 44.285714285714285 42 44 42 44 42.285714285714285 L 44 43.714285714285715 C 44 43.714285714285715 44 44 44.285714285714285 44 L 45.714285714285715 44 C 45.714285714285715 44 46 44 46 43.714285714285715 L 46 42.285714285714285 C 46 42.285714285714285 46 42 46.285714285714285 42 L 47.714285714285715 42 C 47.714285714285715 42 48 42 48 41.714285714285715 L 48 40.285714285714285 C 48 40.285714285714285 48 40 47.714285714285715 40 L 46.285714285714285 40 C 46.285714285714285 40 46 40 46 39.714285714285715 L 46 38.285714285714285 C 46 38.285714285714285 46 38 46.285714285714285 38 L 51.714285714285715 38 C 51.714285714285715 38 52 38 52 38.285714285714285 L 52 51.714285714285715 C 52 51.714285714285715 52 52 51.714285714285715 52 L 40.285714285714285 52 C 40.285714285714285 52 40 52 40 51.714285714285715 L 40 50.285714285714285 C 40 50.285714285714285 40 50 39.714285714285715 50 L 38.285714285714285 50 C 38.285714285714285 50 38 50 38 49.714285714285715 L 38 48.285714285714285 C 38 48.285714285714285 38 48 38.285714285714285 48 L 43.714285714285715 48 C 43.714285714285715 48 44 48 44 47.714285714285715 L 44 46.285714285714285 C 44 46.285714285714285 44 46 43.714285714285715 46 L 42.285714285714285 46 C 42.285714285714285 46 42 46 42 45.714285714285715 L 42 44.285714285714285 C 42 44.285714285714285 42 44 41.714285714285715 44 L 40.285714285714285 44 C 40.285714285714285 44 40 44 40 44.285714285714285 L 40 45.714285714285715 C 40 45.714285714285715 40 46 39.714285714285715 46 L 38.285714285714285 46 C 38.285714285714285 46 38 46 38 46.285714285714285 L 38 47.714285714285715 C 38 47.714285714285715 38 48 37.714285714285715 48 L 36.285714285714285 48 C 36.285714285714285 48 36 48 36 48.285714285714285 L 36 49.714285714285715 C 36 49.714285714285715 36 50 35.714285714285715 50 L 30.285714285714285 50 C 30.285714285714285 50 30 50 30 49.714285714285715 L 30 48.285714285714285 C 30 48.285714285714285 30 48 30.285714285714285 48 L 33.714285714285715 48 C 33.714285714285715 48 34 48 34 47.714285714285715 L 34 44.285714285714285 C 34 44.285714285714285 34 44 33.714285714285715 44 L 30.285714285714285 44 C 30.285714285714285 44 30 44 30 43.714285714285715 L 30 42.285714285714285 C 30 42.285714285714285 30 42 30.285714285714285 42 L 31.714285714285715 42 C 31.714285714285715 42 32 42 32 41.714285714285715 L 32 40.285714285714285 C 32 40.285714285714285 32 40 32.285714285714285 40 L 33.714285714285715 40 C 33.714285714285715 40 34 40 34 39.714285714285715 L 34 38.285714285714285 C 34 38.285714285714285 34 38 33.714285714285715 38 L 32.285714285714285 38 C 32.285714285714285 38 32 38 32 37.714285714285715 L 32 36.285714285714285 C 32 36.285714285714285 32 36 32.285714285714285 36 L 33.714285714285715 36 C 33.714285714285715 36 34 36 34 35.714285714285715 L 34 32.285714285714285 C 34 32.285714285714285 34 32 34.285714285714285 32 L 35.714285714285715 32 C 35.714285714285715 32 36 32 36 31.714285714285715 L 36 30.285714285714285 C 36 30.285714285714285 36 30 36.285714285714285 30 L 39.714285714285715 30 C 39.714285714285715 30 40 30 40 29.714285714285715 L 40 28.285714285714285 C 40 28.285714285714285 40 28 39.714285714285715 28 L 36.285714285714285 28 C 36.285714285714285 28 36 28 36 27.714285714285715 L 36 26.285714285714285 C 36 26.285714285714285 36 26 35.714285714285715 26 L 34.285714285714285 26 C 34.285714285714285 26 34 26 34 25.714285714285715 L 34 24.285714285714285 C 34 24.285714285714285 34 24 34.285714285714285 24 L 35.714285714285715 24 C 35.714285714285715 24 36 24 36 23.714285714285715 L 36 22.285714285714285M 38.285714285714285 32 C 38.285714285714285 32 38 32 38 32.285714285714285 L 38 33.714285714285715 C 38 33.714285714285715 38 34 38.285714285714285 34 L 39.714285714285715 34 C 39.714285714285715 34 40 34 40 33.714285714285715 L 40 32.285714285714285 C 40 32.285714285714285 40 32 39.714285714285715 32 L 38.285714285714285 32M 36.285714285714285 36 C 36.285714285714285 36 36 36 36 36.285714285714285 L 36 41.714285714285715 C 36 41.714285714285715 36 42 36.285714285714285 42 L 41.714285714285715 42 C 41.714285714285715 42 42 42 42 41.714285714285715 L 42 36.285714285714285 C 42 36.285714285714285 42 36 41.714285714285715 36 L 36.285714285714285 36M 48.285714285714285 46 C 48.285714285714285 46 48 46 48 46.285714285714285 L 48 47.714285714285715 C 48 47.714285714285715 48 48 47.714285714285715 48 L 46.285714285714285 48 C 46.285714285714285 48 46 48 46 48.285714285714285 L 46 49.714285714285715 C 46 49.714285714285715 46 50 46.285714285714285 50 L 49.714285714285715 50 C 49.714285714285715 50 50 50 50 49.714285714285715 L 50 46.285714285714285 C 50 46.285714285714285 50 46 49.714285714285715 46 L 48.285714285714285 46 z"/><path id="p28" fill="#000" stroke-width="0" d="M 32 4.285714285714286 C 32 4.285714285714286 32 4 32.285714285714285 4 L 33.714285714285715 4 C 33.714285714285715 4 34 4 34 4.285714285714286 L 34 5.714285714285714 C 34 5.714285714285714 34 6 33.714285714285715 6 L 32.285714285714285 6 C 32.285714285714285 6 32 6 32 5.714285714285714 L 32 4.285714285714286 z" class="q-one"/><path id="p29" fill="#000" stroke-width="0" d="M 32 16.285714285714285 C 32 16.285714285714285 32 15.999999999999998 32.285714285714285 15.999999999999998 L 33.714285714285715 16 C 33.714285714285715 16 34 16 34 16.285714285714285 L 34 17.714285714285715 C 34 17.714285714285715 34 18 33.714285714285715 18 L 32.285714285714285 18 C 32.285714285714285 18 32 18 32 17.714285714285715 L 32 16.285714285714285 z" class="q-one"/><path id="p30" fill="#000" stroke-width="0" d="M 32 22.285714285714285 C 32 22.285714285714285 32 22 32.285714285714285 22 L 33.714285714285715 22 C 33.714285714285715 22 34 22 34 22.285714285714285 L 34 23.714285714285715 C 34 23.714285714285715 34 24 33.714285714285715 24 L 32.285714285714285 24 C 32.285714285714285 24 32 24 32 23.714285714285715 L 32 22.285714285714285 z" class="q-one"/><path id="p31" fill="#000" stroke-width="0" d="M 34 2.2857142857142856 C 34 2.2857142857142856 34 2 34.285714285714285 2 L 35.714285714285715 2 C 35.714285714285715 2 36 2 36 2.2857142857142856 L 36 3.7142857142857144 C 36 3.7142857142857144 36 4 35.714285714285715 4 L 34.285714285714285 4 C 34.285714285714285 4 34 4 34 3.7142857142857144 L 34 2.2857142857142856 z" class="q-one"/><path id="p32" fill="#000" stroke-width="0" d="M 34 6.285714285714286 C 34 6.285714285714286 34 6 34.285714285714285 6 L 35.714285714285715 6 C 35.714285714285715 6 36 6 36 6.285714285714286 L 36 7.714285714285714 C 36 7.714285714285714 36 8 35.714285714285715 8 L 34.285714285714285 8 C 34.285714285714285 8 34 8 34 7.714285714285714 L 34 6.285714285714286 z" class="q-one"/><path id="p33" fill="#000" stroke-width="0" d="M 34 20.285714285714285 C 34 20.285714285714285 34 20 34.285714285714285 20 L 35.714285714285715 20 C 35.714285714285715 20 36 20 36 20.285714285714285 L 36 21.714285714285715 C 36 21.714285714285715 36 22 35.714285714285715 22 L 34.285714285714285 22 C 34.285714285714285 22 34 22 34 21.714285714285715 L 34 20.285714285714285 z" class="q-one"/><path id="p34" fill="#000" stroke-width="0" d="M 34 28.285714285714285 C 34 28.285714285714285 34 28 34.285714285714285 28 L 35.714285714285715 28 C 35.714285714285715 28 36 28 36 28.285714285714285 L 36 29.714285714285715 C 36 29.714285714285715 36 30 35.714285714285715 30 L 34.285714285714285 30 C 34.285714285714285 30 34 30 34 29.714285714285715 L 34 28.285714285714285 z" class="q-one"/><path id="p35" fill="#000" stroke-width="0" d="M 38 2.2857142857142856 C 38 2.2857142857142856 38 2 38.285714285714285 2 L 51.714285714285715 2 C 51.714285714285715 2 52 2 52 2.2857142857142856 L 52 15.714285714285714 C 52 15.714285714285714 52 16 51.714285714285715 16 L 38.285714285714285 16 C 38.285714285714285 16 38 16 38 15.714285714285714 L 38 2.2857142857142856M 40.285714285714285 4 C 40.285714285714285 4 40 4 40 4.285714285714286 L 40 13.714285714285714 C 40 13.714285714285714 40 14 40.285714285714285 14 L 49.714285714285715 14 C 49.714285714285715 14 50 14 50 13.714285714285714 L 50 4.285714285714286 C 50 4.285714285714286 50 4 49.714285714285715 4 L 40.285714285714285 4 z" class="q-sq"/><path id="p36" fill="#000" stroke-width="0" d="M 38 18.285714285714285 C 38 18.285714285714285 38 18 38.285714285714285 18 L 47.714285714285715 18 C 47.714285714285715 18 48 18 48 18.285714285714285 L 48 19.714285714285715 C 48 19.714285714285715 48 20 47.714285714285715 20 L 42.285714285714285 20 C 42.285714285714285 20 42 20 42 20.285714285714285 L 42 21.714285714285715 C 42 21.714285714285715 42 22 41.714285714285715 22 L 40.285714285714285 22 C 40.285714285714285 22 40 22 40 21.714285714285715 L 40 20.285714285714285 C 40 20.285714285714285 40 20 39.714285714285715 20 L 38.285714285714285 20 C 38.285714285714285 20 38 20 38 19.714285714285715 L 38 18.285714285714285 z"/><path id="p37" fill="#000" stroke-width="0" d="M 38 38.285714285714285 C 38 38.285714285714285 38 38 38.285714285714285 38 L 39.714285714285715 38 C 39.714285714285715 38 40 38 40 38.285714285714285 L 40 39.714285714285715 C 40 39.714285714285715 40 40 39.714285714285715 40 L 38.285714285714285 40 C 38.285714285714285 40 38 40 38 39.714285714285715 L 38 38.285714285714285 z" class="q-one"/><path id="p38" fill="#000" stroke-width="0" d="M 42 6.285714285714286 C 42 6.285714285714286 42 6 42.285714285714285 6 L 47.714285714285715 6 C 47.714285714285715 6 48 6 48 6.285714285714286 L 48 11.714285714285714 C 48 11.714285714285714 48 12 47.714285714285715 12 L 42.285714285714285 12 C 42.285714285714285 12 42 12 42 11.714285714285714 L 42 6.285714285714286 z" class="q-sqf"/><path id="p39" fill="#000" stroke-width="0" d="M 44 22.285714285714285 C 44 22.285714285714285 44 22 44.285714285714285 22 L 45.714285714285715 22 C 45.714285714285715 22 46 22 46 22.285714285714285 L 46 23.714285714285715 C 46 23.714285714285715 46 24 45.714285714285715 24 L 44.285714285714285 24 C 44.285714285714285 24 44 24 44 23.714285714285715 L 44 22.285714285714285 z" class="q-one"/><path id="p40" fill="#000" stroke-width="0" d="M 48 20.285714285714285 C 48 20.285714285714285 48 20 48.285714285714285 20 L 49.714285714285715 20 C 49.714285714285715 20 50 20 50 20.285714285714285 L 50 21.714285714285715 C 50 21.714285714285715 50 22 50.285714285714285 22 L 51.714285714285715 22 C 51.714285714285715 22 52 22 52 22.285714285714285 L 52 27.714285714285715 C 52 27.714285714285715 52 28 51.714285714285715 28 L 50.285714285714285 28 C 50.285714285714285 28 50 28 50 28.285714285714285 L 50 29.714285714285715 C 50 29.714285714285715 50 30 50.285714285714285 30 L 51.714285714285715 30 C 51.714285714285715 30 52 30 52 30.285714285714285 L 52 33.714285714285715 C 52 33.714285714285715 52 34 51.714285714285715 34 L 50.285714285714285 34 C 50.285714285714285 34 50 34 50 33.714285714285715 L 50 32.285714285714285 C 50 32.285714285714285 50 32 49.714285714285715 32 L 48.285714285714285 32 C 48.285714285714285 32 48 32 48 31.714285714285715 L 48 28.285714285714285 C 48 28.285714285714285 48 28 47.714285714285715 28 L 46.285714285714285 28 C 46.285714285714285 28 46 28 46 27.714285714285715 L 46 26.285714285714285 C 46 26.285714285714285 46 26 46.285714285714285 26 L 49.714285714285715 26 C 49.714285714285715 26 50 26 50 25.714285714285715 L 50 24.285714285714285 C 50 24.285714285714285 50 24 49.714285714285715 24 L 48.285714285714285 24 C 48.285714285714285 24 48 24 48 23.714285714285715 L 48 20.285714285714285 z"/><path id="p41" fill="#000" stroke-width="0" d="M 46 34.285714285714285 C 46 34.285714285714285 46 34 46.285714285714285 34 L 47.714285714285715 34 C 47.714285714285715 34 48 34 48 34.285714285714285 L 48 35.714285714285715 C 48 35.714285714285715 48 36 47.714285714285715 36 L 46.285714285714285 36 C 46.285714285714285 36 46 36 46 35.714285714285715 L 46 34.285714285714285 z" class="q-one"/></g></svg>