<svg xmlns="http://www.w3.org/2000/svg" width="120" height="220" fill="none" viewBox="0 0 120 220"><path fill="#1A4CFF" d="M50.3533 218.015L15.4481 218.537L15.2149 203.47C15.1748 200.88 15.651 198.605 16.6436 196.647C17.6361 194.689 19.0501 193.156 20.8854 192.049C22.7208 190.942 24.8769 190.37 27.3539 190.333C29.8537 190.296 32.0268 190.82 33.8734 191.906C35.7198 192.981 37.1527 194.511 38.1722 196.496C39.1915 198.47 39.7217 200.786 39.7629 203.445L39.9022 212.444L32.5394 212.554L32.4296 205.464C32.4124 204.35 32.2046 203.404 31.8061 202.626C31.3961 201.837 30.8243 201.237 30.0906 200.828C29.3567 200.407 28.4955 200.204 27.507 200.218C26.5071 200.233 25.6582 200.462 24.9604 200.904C24.2511 201.335 23.7151 201.951 23.3525 202.752C22.9783 203.542 22.7998 204.494 22.8171 205.607L22.8688 208.948L50.2066 208.539L50.3533 218.015ZM50.1544 174.326C50.1983 177.167 49.6735 179.607 48.58 181.646C47.4751 183.685 45.9197 185.26 43.9139 186.369C41.8967 187.479 39.5474 188.054 36.8659 188.094C34.1844 188.134 31.824 187.63 29.7848 186.581C27.7342 185.532 26.1308 184.004 24.9747 181.998C23.8071 179.993 23.2014 177.57 23.1574 174.729C23.1134 171.889 23.6439 169.449 24.7488 167.409C25.8424 165.37 27.3978 163.795 29.4149 162.686C31.4207 161.576 33.7644 161.001 36.4459 160.961C39.1274 160.921 41.4935 161.426 43.544 162.475C45.5832 163.524 47.1866 165.051 48.3542 167.057C49.5103 169.062 50.1104 171.486 50.1544 174.326ZM43.1996 174.362C43.1872 173.566 42.9096 172.883 42.3666 172.311C41.8236 171.74 41.0554 171.303 40.0619 170.999C39.0685 170.696 37.89 170.554 36.5265 170.575C35.1517 170.595 33.9781 170.772 33.0059 171.105C32.0223 171.437 31.2679 171.898 30.7429 172.485C30.2178 173.073 29.9614 173.764 29.9738 174.559C29.9868 175.4 30.265 176.118 30.8083 176.712C31.3517 177.306 32.1201 177.755 33.1135 178.058C34.0956 178.362 35.2741 178.503 36.6489 178.483C38.0124 178.462 39.1859 178.286 40.1695 177.953C41.1531 177.62 41.9073 177.148 42.432 176.538C42.9567 175.928 43.2126 175.203 43.1996 174.362ZM49.3436 152.782L23.266 159.718L23.1203 150.31L39.0267 147.072L39.0235 146.867L23.019 143.765L22.8776 134.63L38.6402 130.917L38.6371 130.712L22.7763 128.085L22.6307 118.677L48.9109 124.831L49.0681 134.988L35.0812 138.88L35.0855 139.152L49.1863 142.624L49.3436 152.782ZM49.0556 103.34C49.0988 106.135 48.6021 108.552 47.5653 110.591C46.5171 112.618 44.9958 114.192 43.0015 115.313C40.9957 116.422 38.5839 116.998 35.766 117.04C33.0618 117.081 30.69 116.571 28.6506 115.51C26.6112 114.449 25.0137 112.933 23.858 110.962C22.7024 108.99 22.1036 106.652 22.0618 103.948C22.0312 101.971 22.3102 100.177 22.899 98.5656C23.4878 96.9544 24.3585 95.5719 25.5113 94.4182C26.6526 93.2646 28.048 92.3687 29.6974 91.7304C31.3468 91.092 33.2112 90.7573 35.2905 90.7263L37.4721 90.6937L37.8341 114.077L32.6528 114.155L32.4249 99.4291C31.6751 99.4517 31.0191 99.6547 30.4568 100.038C29.8829 100.41 29.4418 100.911 29.1333 101.541C28.8133 102.16 28.6594 102.861 28.6715 103.645C28.6833 104.406 28.8588 105.102 29.1982 105.734C29.5262 106.365 29.9772 106.87 30.5513 107.248C31.1253 107.614 31.793 107.803 32.5547 107.814L38.145 107.731C38.9858 107.718 39.733 107.531 40.3865 107.169C41.0401 106.807 41.5493 106.294 41.914 105.629C42.2788 104.964 42.4539 104.166 42.4395 103.235C42.4295 102.587 42.3294 101.997 42.1394 101.466C41.9491 100.923 41.6806 100.461 41.3337 100.08C40.9755 99.6992 40.5507 99.4214 40.0593 99.2469L39.9264 90.657C41.7489 90.9253 43.3391 91.6005 44.6969 92.6826C46.0434 93.7649 47.1 95.2095 47.8667 97.0164C48.6218 98.8122 49.0181 100.92 49.0556 103.34ZM48.3205 86.6917L22.1416 87.0828L22.0002 77.9475L26.977 77.8731L26.9727 77.6005C25.1246 77.1507 23.7665 76.4153 22.8983 75.394C22.03 74.3614 21.585 73.1463 21.5633 71.7488C21.557 71.3397 21.5849 70.9359 21.6469 70.5372C21.6974 70.1273 21.7765 69.734 21.8843 69.3573L29.9118 69.2374C29.76 69.7057 29.6495 70.2812 29.5806 70.9642C29.5116 71.6471 29.4809 72.2328 29.4884 72.7214C29.5027 73.6418 29.7257 74.4681 30.1576 75.2003C30.5779 75.9214 31.1662 76.4866 31.9226 76.8958C32.6677 77.3051 33.5402 77.5024 34.5401 77.4874L48.1749 77.2838L48.3205 86.6917ZM48.3047 54.8305C48.348 57.6256 47.8512 60.0424 46.8145 62.0808C45.7662 64.108 44.2449 65.6821 42.2506 66.8029C40.2448 67.9125 37.833 68.4884 35.0151 68.5305C32.3109 68.5709 29.9391 68.0608 27.8997 67.0002C25.8603 65.9396 24.2628 64.4235 23.1071 62.452C21.9515 60.4804 21.3527 58.1424 21.3109 55.4382C21.2803 53.4612 21.5593 51.667 22.1481 50.0558C22.7369 48.4446 23.6076 47.0621 24.7604 45.9084C25.9017 44.7548 27.2971 43.8589 28.9465 43.2206C30.596 42.5822 32.4603 42.2475 34.5396 42.2165L36.7212 42.1839L37.0832 65.5674L31.9019 65.6448L31.674 50.9193C30.9242 50.9419 30.2682 51.1449 29.7059 51.5283C29.132 51.9006 28.6909 52.4015 28.3824 53.0312C28.0624 53.6497 27.9085 54.3509 27.9206 55.1349C27.9324 55.8962 28.108 56.5925 28.4473 57.2239C28.7753 57.8554 29.2264 58.3601 29.8005 58.7379C30.3744 59.1044 31.0422 59.2933 31.8038 59.3047L37.3941 59.2212C38.2349 59.2086 38.9821 59.0213 39.6356 58.6592C40.2892 58.2971 40.7984 57.7838 41.1631 57.1192C41.5279 56.4546 41.703 55.6564 41.6886 54.7247C41.6786 54.0771 41.5786 53.4876 41.3885 52.9563C41.1983 52.4136 40.9297 51.9516 40.5829 51.5704C40.2246 51.1894 39.7998 50.9116 39.3084 50.7371L39.1755 42.1472C40.998 42.4155 42.5882 43.0907 43.946 44.1728C45.2925 45.2551 46.3491 46.6997 47.1158 48.5066C47.8709 50.3023 48.2672 52.4103 48.3047 54.8305ZM47.7638 28.7007C47.7927 30.5641 47.3307 32.2871 46.3778 33.8697C45.4247 35.4409 43.9613 36.7129 41.9874 37.6857C40.0135 38.6471 37.5153 39.1504 34.4929 39.1955C31.3341 39.2427 28.7587 38.7925 26.7665 37.8448C24.7741 36.8859 23.3057 35.6349 22.3613 34.092C21.4167 32.5378 20.931 30.8971 20.9043 29.1701C20.8842 27.8748 21.0939 26.7351 21.5332 25.7512C21.9612 24.7674 22.5451 23.9404 23.2848 23.2702C24.0132 22.6002 24.8178 22.0881 25.6988 21.734L25.6967 21.5976L12.4027 21.7962L12.2571 12.3883L47.1623 11.8669L47.3069 21.2067L43.0119 21.2708L43.0151 21.4753C43.907 21.8257 44.7104 22.3365 45.4255 23.0077C46.1289 23.6677 46.6927 24.4776 47.1167 25.4373C47.5291 26.3857 47.7448 27.4735 47.7638 28.7007ZM40.4836 25.3318C40.4702 24.4682 40.2088 23.7334 39.6993 23.1273C39.1784 22.51 38.4551 22.0435 37.5297 21.7277C36.5927 21.4008 35.4879 21.2468 34.2153 21.2658C32.92 21.2852 31.8148 21.4722 30.8998 21.8268C29.9731 22.1702 29.2704 22.658 28.7915 23.2902C28.301 23.9113 28.0625 24.6536 28.0759 25.5171C28.0892 26.3806 28.3506 27.1154 28.8601 27.7215C29.358 28.3164 30.0753 28.7717 31.0121 29.0873C31.9374 29.3917 33.0477 29.5342 34.343 29.5148C35.6383 29.4955 36.7494 29.3198 37.6762 28.9877C38.5914 28.6445 39.2944 28.168 39.785 27.5584C40.2641 26.9375 40.4969 26.1953 40.4836 25.3318ZM108.21 208.314L73.3049 208.836L73.0706 193.701C73.0295 191.042 73.3528 188.804 74.0407 186.987C74.7284 185.158 75.7184 183.774 77.0109 182.834C78.3031 181.883 79.8355 181.394 81.608 181.368C82.892 181.349 84.0667 181.615 85.1322 182.167C86.1975 182.708 87.0959 183.479 87.8274 184.48C88.5475 185.48 89.0544 186.655 89.348 188.003L89.6889 187.998C89.7225 186.497 90.082 185.128 90.7675 183.89C91.4416 182.653 92.3866 181.661 93.6025 180.916C94.807 180.17 96.233 179.786 97.8806 179.761C99.7894 179.732 101.496 180.207 103 181.185C104.504 182.151 105.696 183.542 106.576 185.359C107.457 187.176 107.917 189.351 107.956 191.885L108.21 208.314ZM100.496 198.951L100.427 194.52C100.403 192.929 100.089 191.741 99.4858 190.954C98.8713 190.168 97.9789 189.783 96.8086 189.801C95.9905 189.813 95.3003 190.011 94.738 190.394C94.1756 190.778 93.7521 191.318 93.4674 192.016C93.1826 192.702 93.0476 193.528 93.0626 194.494L93.1333 199.061L100.496 198.951ZM87.2703 199.149L87.2101 195.263C87.1973 194.433 87.0553 193.703 86.7841 193.07C86.5129 192.438 86.1303 191.949 85.6363 191.604C85.1307 191.248 84.52 191.075 83.8042 191.086C82.7247 191.102 81.9069 191.501 81.3508 192.282C80.7833 193.063 80.5087 194.045 80.5269 195.226L80.5892 199.249L87.2703 199.149ZM117.44 170.246C117.457 171.326 117.388 172.355 117.232 173.335C117.088 174.314 116.88 175.175 116.607 175.918L109.895 173.973C110.155 173.196 110.321 172.489 110.39 171.852C110.46 171.203 110.406 170.652 110.228 170.2C110.051 169.737 109.722 169.407 109.241 169.209L108.761 169.012L81.5656 178.624L81.4136 168.807L99.4825 164.309L99.4783 164.036L81.2775 160.012L81.1245 150.127L109.633 159.248C111.083 159.704 112.389 160.377 113.551 161.269C114.724 162.149 115.657 163.317 116.35 164.773C117.043 166.229 117.406 168.053 117.44 170.246ZM79.8611 138.997L72.2256 139.111L71.756 108.774L79.3915 108.66L79.5541 119.159L106.824 118.751L106.968 128.091L79.6986 128.498L79.8611 138.997ZM106.946 95.7951C106.989 98.5903 106.492 101.007 105.455 103.045C104.407 105.073 102.886 106.647 100.892 107.768C98.8859 108.877 96.474 109.453 93.6562 109.495C90.9519 109.536 88.5801 109.025 86.5407 107.965C84.5013 106.904 82.9038 105.388 81.7482 103.417C80.5925 101.445 79.9938 99.1071 79.9519 96.4029C79.9213 94.4259 80.2004 92.6317 80.7892 91.0205C81.3779 89.4092 82.2487 88.0268 83.4014 86.8731C84.5428 85.7195 85.9382 84.8236 87.5876 84.1852C89.237 83.5469 91.1014 83.2122 93.1807 83.1811L95.3622 83.1485L95.7242 106.532L90.543 106.61L90.315 91.884C89.5653 91.9066 88.9093 92.1096 88.3469 92.493C87.7731 92.8652 87.3319 93.3662 87.0235 93.9959C86.7034 94.6144 86.5495 95.3156 86.5616 96.0996C86.5734 96.8609 86.749 97.5572 87.0884 98.1886C87.4163 98.8201 87.8674 99.3248 88.4415 99.7026C89.0154 100.069 89.6832 100.258 90.4448 100.269L96.0351 100.186C96.8759 100.173 97.6231 99.986 98.2767 99.6239C98.9302 99.2618 99.4394 98.7485 99.8042 98.0839C100.169 97.4193 100.344 96.6211 100.33 95.6894C100.32 95.0417 100.22 94.4523 100.03 93.9209C99.8393 93.3783 99.5707 92.9163 99.2239 92.5351C98.8657 92.154 98.4409 91.8763 97.9495 91.7018L97.8165 83.1119C99.6391 83.3802 101.229 84.0553 102.587 85.1375C103.934 86.2197 104.99 87.6643 105.757 89.4713C106.512 91.267 106.908 93.375 106.946 95.7951ZM106.507 71.8459C106.533 73.5162 106.283 74.9973 105.757 76.2894C105.22 77.5703 104.395 78.5827 103.281 79.3267C102.168 80.0707 100.742 80.4557 99.0032 80.4817C97.5716 80.503 96.3463 80.277 95.3275 79.8035C94.2973 79.3302 93.4517 78.661 92.7905 77.7957C92.1293 76.9305 91.6193 75.921 91.2604 74.7671C90.9015 73.6019 90.6604 72.344 90.5372 70.9934C90.4009 69.5294 90.2463 68.3554 90.0735 67.4715C89.8892 66.5765 89.6462 65.9323 89.3447 65.539C89.0317 65.1459 88.6253 64.9531 88.1253 64.9606L88.0572 64.9616C87.3754 64.9718 86.8568 65.2409 86.5013 65.769C86.1458 66.2971 85.9744 66.9702 85.987 67.7883C86.0009 68.6859 86.2111 69.4158 86.6176 69.978C87.0125 70.5289 87.6142 70.8552 88.4227 70.9568L88.5567 79.6149C86.9642 79.525 85.4907 79.0413 84.136 78.1637C82.7698 77.2749 81.6699 75.9673 80.8363 74.2409C79.9913 72.5147 79.5486 70.3506 79.5084 67.7487C79.4793 65.8739 79.6749 64.189 80.095 62.6939C80.5037 61.199 81.092 59.923 81.8598 58.866C82.6163 57.8091 83.5129 57.0002 84.5498 56.4392C85.5752 55.867 86.6958 55.5718 87.9115 55.5536L105.841 55.2858L105.977 64.0802L102.296 64.1352L102.299 64.3397C103.284 64.8478 104.084 65.4723 104.698 66.2132C105.311 66.9427 105.762 67.7827 106.05 68.7331C106.337 69.6721 106.489 70.7097 106.507 71.8459ZM100.528 68.8667C100.517 68.1509 100.359 67.4827 100.054 66.8622C99.7486 66.2303 99.3146 65.7197 98.7516 65.3303C98.1887 64.941 97.5096 64.7522 96.7142 64.7641L94.5327 64.7967C94.6388 65.0451 94.7395 65.3107 94.8348 65.5934C94.9299 65.8647 95.0197 66.1589 95.1042 66.4758C95.1885 66.7814 95.2674 67.1098 95.341 67.461C95.4145 67.8009 95.4825 68.1579 95.5451 68.532C95.67 69.2575 95.8667 69.8512 96.1353 70.3131C96.3923 70.7639 96.71 71.1001 97.0885 71.3217C97.4554 71.5322 97.8661 71.634 98.3206 71.6272C99.0478 71.6164 99.6006 71.3524 99.979 70.8353C100.357 70.3183 100.54 69.662 100.528 68.8667ZM105.772 50.7906L79.5929 51.1816L79.4546 42.2509L84.4313 42.1766L84.4271 41.9039C82.7825 41.3829 81.4728 40.4706 80.4979 39.1668C79.5231 37.863 79.0216 36.3022 78.9935 34.4842C78.965 32.6435 79.429 31.0512 80.3856 29.7072C81.3308 28.3634 82.6024 27.5431 84.2002 27.2465L84.196 26.9738C82.5871 26.5546 81.2885 25.6307 80.3004 24.2022C79.3009 22.7737 78.7861 21.0881 78.756 19.1451C78.7172 16.6341 79.4924 14.5882 81.0818 13.0074C82.6709 11.4153 84.8063 10.5993 87.4878 10.5592L105.145 10.2955L105.291 19.7034L90.0195 19.9315C88.8719 19.9487 87.9788 20.2518 87.3401 20.841C86.6901 21.4303 86.3726 22.2135 86.3877 23.1907C86.4027 24.1565 86.7441 24.9185 87.4119 25.4768C88.0681 26.0238 88.9701 26.2888 90.1177 26.2717L105.389 26.0436L105.528 35.0425L90.257 35.2706C89.1094 35.2877 88.2162 35.5909 87.5775 36.18C86.9275 36.7694 86.61 37.5526 86.6252 38.5297C86.6352 39.1774 86.7915 39.7319 87.0942 40.1934C87.3968 40.6548 87.8285 41.0121 88.3893 41.2651C88.9386 41.5069 89.5938 41.6221 90.3551 41.6107L105.626 41.3826L105.772 50.7906Z"/><path fill="#FF1221" d="M47.4917 217.732L12.5846 217.36L12.751 202.293C12.7796 199.702 13.316 197.441 14.3602 195.508C15.4043 193.576 16.8584 192.08 18.7225 191.021C20.5866 189.961 22.7572 189.444 25.2343 189.471C27.7342 189.497 29.8927 190.077 31.7098 191.21C33.5271 192.332 34.919 193.898 35.8855 195.908C36.8521 197.907 37.3207 200.236 37.2913 202.895L37.1919 211.895L29.8287 211.816L29.907 204.726C29.9193 203.612 29.7366 202.661 29.3589 201.873C28.97 201.074 28.4143 200.46 27.6917 200.031C26.9692 199.592 26.1137 199.367 25.1251 199.356C24.1252 199.346 23.2706 199.552 22.5613 199.977C21.8408 200.39 21.2886 200.992 20.9049 201.783C20.5099 202.563 20.3062 203.51 20.2939 204.623L20.257 207.964L47.5964 208.256L47.4917 217.732ZM48.4516 174.052C48.4202 176.893 47.8308 179.319 46.6836 181.329C45.5249 183.34 43.9283 184.874 41.8938 185.932C39.8479 186.99 37.4841 187.504 34.8024 187.476C32.1208 187.447 29.7746 186.882 27.7639 185.781C25.7418 184.68 24.1795 183.112 23.0769 181.078C21.963 179.043 21.4217 176.605 21.4531 173.765C21.4845 170.924 22.0795 168.498 23.2381 166.488C24.3854 164.477 25.982 162.943 28.0279 161.885C30.0625 160.827 32.4206 160.313 35.1022 160.341C37.7839 160.37 40.1357 160.935 42.1578 162.036C44.1685 163.137 45.7308 164.705 46.8448 166.739C47.9473 168.774 48.4829 171.212 48.4516 174.052ZM41.4982 173.91C41.5069 173.115 41.2475 172.424 40.7199 171.839C40.1922 171.254 39.4358 170.797 38.4508 170.468C37.4657 170.14 36.2914 169.968 34.9278 169.954C33.5529 169.939 32.3751 170.085 31.3944 170.393C30.4023 170.701 29.636 171.141 29.0955 171.715C28.5551 172.289 28.2804 172.974 28.2716 173.769C28.2623 174.61 28.5214 175.334 29.0488 175.942C29.5762 176.55 30.3325 177.019 31.3175 177.347C32.2912 177.676 33.4655 177.847 34.8405 177.862C36.204 177.877 37.3818 177.73 38.3739 177.422C39.366 177.115 40.1324 176.663 40.6732 176.066C41.2139 175.47 41.4889 174.751 41.4982 173.91ZM48.2124 152.495L21.9598 158.761L22.0637 149.352L38.0505 146.522L38.0528 146.318L22.1361 142.807L22.237 133.671L38.0927 130.363L38.0949 130.158L22.3093 127.126L22.4132 117.718L48.5213 124.542L48.409 134.7L34.3237 138.232L34.3207 138.505L48.3247 142.336L48.2124 152.495ZM49.2359 103.062C49.205 105.858 48.6443 108.261 47.5539 110.272C46.4522 112.272 44.8896 113.807 42.8663 114.876C40.8318 115.934 38.4055 116.448 35.5875 116.418C32.8831 116.389 30.5256 115.818 28.5151 114.706C26.5045 113.593 24.9478 112.037 23.8448 110.036C22.7418 108.036 22.2053 105.684 22.2352 102.979C22.257 101.002 22.5836 99.2156 23.2149 97.62C23.8462 96.0243 24.7533 94.6646 25.9362 93.5408C27.1078 92.4169 28.5265 91.5569 30.1923 90.961C31.8581 90.3651 33.7307 90.0783 35.8101 90.1004L37.9918 90.1237L37.7334 113.509L32.5519 113.453L32.7146 98.727C31.9645 98.7304 31.3033 98.9165 30.731 99.2854C30.1475 99.6429 29.6932 100.132 29.3681 100.754C29.0318 101.364 28.8593 102.061 28.8507 102.845C28.8423 103.606 28.9993 104.307 29.3218 104.947C29.6329 105.587 30.0704 106.103 30.6343 106.495C31.1983 106.876 31.8609 107.082 32.6219 107.113L38.2125 107.172C39.0534 107.181 39.8053 107.013 40.4682 106.668C41.1312 106.323 41.6538 105.823 42.0361 105.168C42.4183 104.513 42.6146 103.719 42.6249 102.787C42.632 102.14 42.5477 101.548 42.3718 101.012C42.196 100.465 41.9398 99.9959 41.6032 99.6059C41.2552 99.2158 40.8379 98.9273 40.3513 98.7402L40.4462 90.1498C42.261 90.4647 43.8327 91.1803 45.1614 92.2968C46.4787 93.4132 47.4966 94.8844 48.2151 96.7103C48.9224 98.5248 49.2626 100.642 49.2359 103.062ZM48.9427 86.4007L22.7623 86.1216L22.8633 76.9858L27.8403 77.0389L27.8433 76.7662C26.0077 76.2693 24.6696 75.4993 23.8288 74.4562C22.9881 73.4017 22.5755 72.1756 22.5909 70.778C22.5954 70.3689 22.634 69.9659 22.7066 69.5689C22.7679 69.1605 22.8575 68.7694 22.9752 68.3956L31.0032 68.4812C30.839 68.9454 30.7133 69.5179 30.6262 70.1989C30.5392 70.8798 30.4929 71.4646 30.4875 71.9532C30.4773 72.8736 30.6784 73.7053 31.0907 74.4484C31.4917 75.18 32.0649 75.76 32.8102 76.1884C33.5441 76.6167 34.4111 76.8362 35.411 76.8468L49.0466 76.9922L48.9427 86.4007ZM49.7719 54.5498C49.741 57.3451 49.1803 59.7483 48.0898 61.7596C46.9881 63.7593 45.4256 65.2939 43.4023 66.3633C41.3678 67.4212 38.9415 67.9351 36.1235 67.9051C33.4191 67.8762 31.0616 67.3056 29.0511 66.1932C27.0405 65.0808 25.4837 63.5243 24.3808 61.5238C23.2778 59.5233 22.7413 57.1709 22.7711 54.4665C22.793 52.4893 23.1196 50.703 23.7509 49.1073C24.3822 47.5117 25.2893 46.152 26.4722 45.0281C27.6438 43.9042 29.0625 43.0443 30.7283 42.4484C32.394 41.8525 34.2666 41.5656 36.3461 41.5878L38.5278 41.611L38.2694 64.996L33.0879 64.9407L33.2506 50.2143C32.5005 50.2177 31.8393 50.4038 31.267 50.7728C30.6835 51.1302 30.2292 51.6197 29.9041 52.2413C29.5678 52.8514 29.3953 53.5484 29.3867 54.3325C29.3783 55.0938 29.5353 55.7944 29.8578 56.4342C30.1689 57.0739 30.6064 57.59 31.1703 57.9824C31.7343 58.3634 32.3969 58.5693 33.1579 58.6002L38.7485 58.6598C39.5894 58.6688 40.3413 58.5006 41.0042 58.1554C41.6672 57.8102 42.1898 57.31 42.572 56.655C42.9543 55.9999 43.1506 55.2065 43.1609 54.2748C43.168 53.6271 43.0837 53.0352 42.9077 52.4992C42.732 51.9519 42.4758 51.4832 42.1391 51.0932C41.7912 50.7031 41.3739 50.4146 40.8873 50.2276L40.9822 41.6372C42.797 41.952 44.3687 42.6677 45.6974 43.7842C47.0147 44.9005 48.0326 46.3717 48.7511 48.1977C49.4583 50.0121 49.7986 52.1295 49.7719 54.5498ZM49.9242 28.415C49.9037 30.2785 49.3961 31.9891 48.4016 33.5468C47.4071 35.0931 45.9105 36.3272 43.9115 37.2491C41.9127 38.1597 39.402 38.5989 36.3795 38.5666C33.2205 38.533 30.6579 38.017 28.6915 37.0187C26.7253 36.009 25.2906 34.7209 24.3874 33.1544C23.4843 31.5765 23.0423 29.924 23.0614 28.1968C23.0757 26.9014 23.3155 25.7675 23.7808 24.7952C24.2348 23.8227 24.8404 23.0109 25.5976 22.3599C26.3435 21.7087 27.1615 21.2174 28.0515 20.8859L28.0531 20.7496L14.7584 20.6078L14.8623 11.1993L49.7694 11.5715L49.6662 20.9118L45.371 20.866L45.3687 21.0706C46.251 21.4436 47.0407 21.9748 47.7376 22.6641C48.4234 23.3419 48.9655 24.1659 49.3638 25.1361C49.751 26.0948 49.9378 27.1878 49.9242 28.415ZM42.7358 24.8609C42.7453 23.9973 42.5035 23.2561 42.0103 22.6371C41.5059 22.0067 40.7953 21.5218 39.8785 21.1825C38.9505 20.8317 37.8502 20.6495 36.5776 20.6359C35.2822 20.6221 34.1724 20.7807 33.2482 21.1118C32.3128 21.4314 31.5974 21.9011 31.1019 22.5208C30.5951 23.1291 30.337 23.865 30.3274 24.7286C30.3179 25.5922 30.5597 26.3334 31.0529 26.9524C31.5348 27.5598 32.2399 28.0333 33.168 28.3727C34.0849 28.7007 35.191 28.8716 36.4864 28.8854C37.7818 28.8992 38.8971 28.752 39.8324 28.4438C40.7564 28.1241 41.4718 27.6658 41.9784 27.0689C42.4738 26.4605 42.7263 25.7245 42.7358 24.8609ZM105.586 209.515L70.6789 209.143L70.8461 194.008C70.8755 191.349 71.2581 189.12 71.9939 187.321C72.7299 185.51 73.7563 184.152 75.0732 183.245C76.3902 182.327 77.9351 181.878 79.7077 181.897C80.9917 181.91 82.159 182.207 83.2095 182.786C84.2601 183.354 85.1377 184.148 85.8424 185.167C86.5357 186.186 87.0113 187.373 87.2691 188.728L87.61 188.731C87.6833 187.232 88.0791 185.873 88.7971 184.653C89.5038 183.433 90.4748 182.466 91.71 181.752C92.9339 181.038 94.3697 180.689 96.0173 180.707C97.9263 180.727 99.6195 181.245 101.097 182.261C102.575 183.266 103.729 184.687 104.561 186.526C105.394 188.364 105.796 190.55 105.768 193.084L105.586 209.515ZM98.1229 199.958L98.1719 195.526C98.1895 193.935 97.9072 192.739 97.3251 191.937C96.7317 191.136 95.8498 190.728 94.6794 190.716C93.8612 190.707 93.166 190.887 92.5937 191.256C92.0214 191.625 91.5837 192.155 91.2806 192.845C90.9777 193.523 90.8209 194.345 90.8102 195.311L90.7597 199.879L98.1229 199.958ZM84.8964 199.817L84.9393 195.931C84.9485 195.101 84.8259 194.367 84.5716 193.728C84.3173 193.089 83.9478 192.59 83.4631 192.233C82.9671 191.864 82.3612 191.676 81.6453 191.668C80.5658 191.656 79.7378 192.034 79.1611 192.801C78.573 193.567 78.2725 194.541 78.2594 195.723L78.215 199.746L84.8964 199.817ZM115.823 171.696C115.811 172.775 115.714 173.803 115.533 174.778C115.363 175.754 115.132 176.609 114.84 177.345L108.181 175.228C108.462 174.459 108.646 173.756 108.733 173.12C108.819 172.474 108.78 171.922 108.614 171.466C108.449 170.998 108.129 170.659 107.654 170.45L107.179 170.24L79.738 179.153L79.8465 169.335L98.0285 165.301L98.0315 165.029L79.9437 160.54L80.0529 150.654L108.309 160.502C109.747 160.994 111.035 161.701 112.173 162.622C113.322 163.532 114.223 164.724 114.878 166.197C115.532 167.67 115.847 169.503 115.823 171.696ZM79.0852 139.496L71.4493 139.414L71.7845 109.075L79.4204 109.157L79.3044 119.656L106.576 119.947L106.472 129.287L79.2012 128.996L79.0852 139.496ZM107.306 97.0015C107.276 99.7968 106.715 102.2 105.624 104.211C104.523 106.211 102.96 107.746 100.937 108.815C98.9023 109.873 96.476 110.387 93.658 110.357C90.9536 110.328 88.5961 109.757 86.5856 108.645C84.575 107.533 83.0183 105.976 81.9153 103.976C80.8123 101.975 80.2758 99.6226 80.3057 96.9182C80.3275 94.9411 80.6541 93.1547 81.2854 91.559C81.9167 89.9634 82.8238 88.6037 84.0067 87.4799C85.1783 86.3559 86.597 85.496 88.2628 84.9001C89.9286 84.3042 91.8012 84.0173 93.8806 84.0395L96.0623 84.0627L95.8039 107.448L90.6224 107.392L90.7851 92.666C90.035 92.6694 89.3738 92.8556 88.8015 93.2245C88.218 93.5819 87.7637 94.0714 87.4386 94.693C87.1023 95.3031 86.9298 96.0001 86.9212 96.7842C86.9128 97.5455 87.0698 98.2461 87.3923 98.8859C87.7034 99.5256 88.1409 100.042 88.7048 100.434C89.2688 100.815 89.9314 101.021 90.6924 101.052L96.283 101.112C97.1239 101.12 97.8758 100.952 98.5387 100.607C99.2017 100.262 99.7243 99.7617 100.107 99.1067C100.489 98.4516 100.685 97.6582 100.695 96.7265C100.703 96.0788 100.618 95.4869 100.442 94.9509C100.266 94.4036 100.01 93.9349 99.6737 93.5449C99.3257 93.1549 98.9084 92.8663 98.4218 92.6793L98.5167 84.0889C100.331 84.4037 101.903 85.1194 103.232 86.2359C104.549 87.3523 105.567 88.8234 106.286 90.6494C106.993 92.4638 107.333 94.5812 107.306 97.0015ZM107.503 73.0491C107.484 74.7195 107.195 76.1938 106.636 77.472C106.065 78.7387 105.213 79.7296 104.08 80.4449C102.947 81.1601 101.511 81.5085 99.7727 81.4899C98.341 81.4747 97.1222 81.2173 96.1163 80.7179C95.099 80.2184 94.2714 79.5278 93.6333 78.6459C92.9953 77.764 92.5123 76.7418 92.1842 75.5791C91.8562 74.4051 91.6486 73.1415 91.5612 71.7882C91.4638 70.3212 91.3404 69.1436 91.1912 68.2556C91.0306 67.3561 90.8048 66.706 90.5138 66.3051C90.2114 65.9042 89.8102 65.701 89.3102 65.6957L89.2421 65.6949C88.5603 65.6877 88.0347 65.9434 87.6653 66.4623C87.2959 66.9811 87.1067 67.6496 87.0977 68.4677C87.0877 69.3654 87.2785 70.1004 87.6699 70.6728C88.0501 71.2337 88.643 71.5753 89.4485 71.6975L89.3528 80.356C87.7633 80.2255 86.303 79.7042 84.9721 78.7922C83.63 77.8688 82.5651 76.5335 81.7775 74.7863C80.9786 73.0391 80.5935 70.8644 80.6223 68.2623C80.643 66.3874 80.8831 64.708 81.3427 63.2242C81.791 61.7403 82.4129 60.4798 83.2085 59.4428C83.9927 58.4056 84.9106 57.6199 85.962 57.0856C87.0022 56.5399 88.1302 56.2735 89.346 56.2864L107.277 56.4776L107.18 65.2725L103.498 65.2333L103.496 65.4378C104.467 65.9709 105.25 66.6157 105.844 67.372C106.438 68.117 106.866 68.9682 107.128 69.9256C107.391 70.8717 107.515 71.9128 107.503 73.0491ZM101.605 69.9179C101.613 69.202 101.473 68.53 101.184 67.9019C100.896 67.2625 100.476 66.7409 99.9231 66.3373C99.3707 65.9336 98.6968 65.7276 97.9014 65.7191L95.7197 65.6958C95.8192 65.9469 95.9129 66.215 96.0006 66.5C96.0885 66.7737 96.1705 67.07 96.2465 67.389C96.3226 67.6967 96.3929 68.027 96.4572 68.38C96.5216 68.7216 96.5801 69.0802 96.6328 69.4558C96.7384 70.1842 96.9193 70.7828 97.1755 71.2514C97.4204 71.7086 97.7292 72.0528 98.1016 72.2841C98.4629 72.5039 98.8707 72.6162 99.3252 72.621C100.052 72.6288 100.612 72.379 101.004 71.8718C101.396 71.3646 101.596 70.7133 101.605 69.9179ZM107.326 51.9821L81.1461 51.703L81.2448 42.7717L86.2218 42.8248L86.2248 42.5521C84.5946 41.9892 83.3095 41.0437 82.3696 39.7154C81.4296 38.3871 80.9697 36.8139 80.9898 34.9959C81.0101 33.1551 81.5163 31.5751 82.5082 30.2561C83.4887 28.9369 84.7816 28.1495 86.3868 27.8939L86.3898 27.6212C84.7925 27.1609 83.5189 26.2041 82.569 24.7507C81.6077 23.2972 81.1378 21.5989 81.1593 19.6559C81.187 17.1447 82.0163 15.1193 83.647 13.5798C85.2779 12.0289 87.4342 11.2678 90.1158 11.2963L107.774 11.4846L107.67 20.8931L92.3981 20.7303C91.2504 20.7181 90.3496 20.9982 89.6955 21.5709C89.03 22.1433 88.6919 22.9182 88.6811 23.8954C88.6704 24.8612 88.9915 25.6318 89.6442 26.2069C90.2858 26.7706 91.1804 27.0586 92.328 27.0708L107.6 27.2336L107.5 36.2331L92.2286 36.0703C91.081 36.058 90.1801 36.3382 89.526 36.9108C88.8605 37.4833 88.5224 38.2582 88.5116 39.2354C88.5044 39.8831 88.646 40.4414 88.9363 40.9104C89.2266 41.3795 89.6487 41.7476 90.2026 42.0149C90.7453 42.2707 91.3972 42.4027 92.1586 42.4108L107.43 42.5736L107.326 51.9821Z"/><path fill="#020E21" d="M48.6825 217.859H13.7734L13.7734 202.791C13.7734 200.2 14.2848 197.933 15.3075 195.99C16.3302 194.047 17.7677 192.536 19.62 191.456C21.4723 190.377 23.637 189.837 26.1143 189.837C28.6143 189.837 30.7791 190.394 32.6086 191.507C34.4382 192.609 35.8473 194.161 36.8359 196.161C37.8245 198.149 38.3189 200.473 38.3189 203.132L38.3189 212.132H30.9552V205.041C30.9552 203.928 30.762 202.979 30.3757 202.195C29.9779 201.399 29.4154 200.791 28.6882 200.371C27.9609 199.939 27.1029 199.723 26.1143 199.723C25.1143 199.723 24.262 199.939 23.5575 200.371C22.8416 200.791 22.2961 201.399 21.9211 202.195C21.5348 202.979 21.3416 203.928 21.3416 205.041V208.382H48.6825V217.859ZM49.1598 174.172C49.1598 177.013 48.5973 179.445 47.4723 181.467C46.3359 183.49 44.7564 185.041 42.7336 186.121C40.6995 187.2 38.3416 187.74 35.6598 187.74C32.9779 187.74 30.6257 187.2 28.6029 186.121C26.5689 185.041 24.9893 183.49 23.8643 181.467C22.7279 179.445 22.1598 177.013 22.1598 174.172C22.1598 171.331 22.7279 168.899 23.8643 166.877C24.9893 164.854 26.5689 163.303 28.6029 162.223C30.6257 161.144 32.9779 160.604 35.6598 160.604C38.3416 160.604 40.6995 161.144 42.7336 162.223C44.7564 163.303 46.3359 164.854 47.4723 166.877C48.5973 168.899 49.1598 171.331 49.1598 174.172ZM42.2052 174.104C42.2052 173.308 41.9382 172.621 41.4041 172.041C40.87 171.462 40.1086 171.013 39.12 170.695C38.1314 170.377 36.9552 170.217 35.5916 170.217C34.2166 170.217 33.0404 170.377 32.0632 170.695C31.0745 171.013 30.3132 171.462 29.7791 172.041C29.245 172.621 28.9779 173.308 28.9779 174.104C28.9779 174.945 29.245 175.666 29.7791 176.269C30.3132 176.871 31.0745 177.331 32.0632 177.649C33.0404 177.967 34.2166 178.127 35.5916 178.127C36.9552 178.127 38.1314 177.967 39.12 177.649C40.1086 177.331 40.87 176.871 41.4041 176.269C41.9382 175.666 42.2052 174.945 42.2052 174.104ZM48.6825 152.618L22.5007 159.163L22.5007 149.754L38.4552 146.754V146.55L22.5007 143.209V134.073L38.3189 130.595V130.391L22.5007 127.527V118.118L48.6825 124.663V134.823L34.637 138.504V138.777L48.6825 142.459L48.6825 152.618ZM49.1598 103.178C49.1598 105.973 48.6257 108.382 47.5575 110.405C46.4779 112.416 44.9325 113.967 42.9211 115.058C40.8984 116.138 38.4779 116.678 35.6598 116.678C32.9552 116.678 30.5916 116.132 28.5689 115.041C26.5461 113.95 24.9723 112.411 23.8473 110.422C22.7223 108.433 22.1598 106.087 22.1598 103.382C22.1598 101.405 22.4666 99.6151 23.0802 98.0129C23.6939 96.4106 24.5859 95.0413 25.7564 93.9049C26.9154 92.7686 28.3245 91.8936 29.9836 91.2799C31.6427 90.6663 33.512 90.3595 35.5916 90.3595H37.7734L37.7734 113.746H32.5916V99.0186C31.8416 99.0299 31.1825 99.2231 30.6143 99.5981C30.0348 99.9617 29.5859 100.456 29.2677 101.081C28.9382 101.695 28.7734 102.394 28.7734 103.178C28.7734 103.939 28.9382 104.638 29.2677 105.274C29.5859 105.911 30.0291 106.422 30.5973 106.808C31.1654 107.183 31.8302 107.382 32.5916 107.405H38.1825C39.0234 107.405 39.7734 107.229 40.4325 106.877C41.0916 106.524 41.6086 106.019 41.9836 105.359C42.3586 104.7 42.5461 103.905 42.5461 102.973C42.5461 102.325 42.4552 101.734 42.2734 101.2C42.0916 100.655 41.8302 100.189 41.4893 99.8026C41.137 99.4163 40.7166 99.1322 40.2279 98.9504L40.2279 90.3595C42.0461 90.6549 43.6257 91.3538 44.9666 92.4561C46.2961 93.5583 47.3302 95.0186 48.0689 96.8367C48.7961 98.6436 49.1598 100.757 49.1598 103.178ZM48.6825 86.52H22.5007V77.3836H27.4779V77.1109C25.637 76.6336 24.2904 75.8779 23.4382 74.8438C22.5859 73.7984 22.1598 72.5768 22.1598 71.1791C22.1598 70.77 22.1939 70.3666 22.262 69.9688C22.3189 69.5598 22.4041 69.1677 22.5177 68.7927H30.5461C30.387 69.2586 30.2677 69.8325 30.1882 70.5143C30.1086 71.1961 30.0689 71.7813 30.0689 72.27C30.0689 73.1904 30.2791 74.02 30.6995 74.7586C31.1086 75.4859 31.6882 76.0598 32.4382 76.4802C33.1768 76.9007 34.0461 77.1109 35.0461 77.1109H48.6825V86.52ZM49.1598 54.662C49.1598 57.4575 48.6257 59.8666 47.5575 61.8893C46.4779 63.9007 44.9325 65.4518 42.9211 66.5427C40.8984 67.6223 38.4779 68.162 35.6598 68.162C32.9552 68.162 30.5916 67.6166 28.5689 66.5257C26.5461 65.4348 24.9723 63.895 23.8473 61.9063C22.7223 59.9177 22.1598 57.5711 22.1598 54.8666C22.1598 52.8893 22.4666 51.0995 23.0802 49.4972C23.6939 47.895 24.5859 46.5257 25.7564 45.3893C26.9154 44.2529 28.3245 43.3779 29.9836 42.7643C31.6427 42.1507 33.512 41.8438 35.5916 41.8438H37.7734V65.2302H32.5916V50.5029C31.8416 50.5143 31.1825 50.7075 30.6143 51.0825C30.0348 51.4461 29.5859 51.9404 29.2677 52.5654C28.9382 53.1791 28.7734 53.8779 28.7734 54.662C28.7734 55.4234 28.9382 56.1223 29.2677 56.7586C29.5859 57.395 30.0291 57.9063 30.5973 58.2927C31.1654 58.6677 31.8302 58.8666 32.5916 58.8893H38.1825C39.0234 58.8893 39.7734 58.7132 40.4325 58.3609C41.0916 58.0086 41.6086 57.5029 41.9836 56.8438C42.3586 56.1848 42.5461 55.3893 42.5461 54.4575C42.5461 53.8098 42.4552 53.2188 42.2734 52.6847C42.0916 52.1393 41.8302 51.6734 41.4893 51.287C41.137 50.9007 40.7166 50.6166 40.2279 50.4347V41.8438C42.0461 42.1393 43.6257 42.8382 44.9666 43.9404C46.2961 45.0427 47.3302 46.5029 48.0689 48.3211C48.7961 50.1279 49.1598 52.2416 49.1598 54.662ZM49.0234 28.5271C49.0234 30.3907 48.5348 32.1066 47.5575 33.6748C46.5802 35.2316 45.0973 36.4816 43.1086 37.4248C41.12 38.3566 38.6143 38.8225 35.5916 38.8225C32.4325 38.8225 29.8643 38.3339 27.887 37.3566C25.9098 36.368 24.4609 35.0953 23.5404 33.5384C22.62 31.9703 22.1598 30.3225 22.1598 28.5953C22.1598 27.2998 22.387 26.1634 22.8416 25.1862C23.2848 24.2089 23.8814 23.3907 24.6314 22.7316C25.37 22.0725 26.1825 21.5725 27.0689 21.2316L27.0689 21.0953H13.7734L13.7734 11.6862H48.6825L48.6825 21.0271H44.387V21.2316C45.2734 21.5953 46.0689 22.118 46.7734 22.7998C47.4666 23.4703 48.0177 24.2884 48.4268 25.2544C48.8245 26.2089 49.0234 27.2998 49.0234 28.5271ZM41.7961 25.0498C41.7961 24.1862 41.5461 23.4475 41.0461 22.8339C40.5348 22.2089 39.8189 21.7316 38.8984 21.4021C37.9666 21.0612 36.8643 20.8907 35.5916 20.8907C34.2961 20.8907 33.1882 21.0612 32.2677 21.4021C31.3359 21.7316 30.6257 22.2089 30.137 22.8339C29.637 23.4475 29.387 24.1862 29.387 25.0498C29.387 25.9134 29.637 26.6521 30.137 27.2657C30.6257 27.868 31.3359 28.3339 32.2677 28.6634C33.1882 28.9816 34.2961 29.1407 35.5916 29.1407C36.887 29.1407 38.0007 28.9816 38.9325 28.6634C39.8529 28.3339 40.5632 27.868 41.0632 27.2657C41.5518 26.6521 41.7961 25.9134 41.7961 25.0498ZM106.682 209.024H71.7734V193.887C71.7734 191.228 72.1314 188.995 72.8473 187.188C73.5632 185.37 74.5745 184.001 75.8814 183.08C77.1882 182.149 78.7279 181.683 80.5007 181.683C81.7848 181.683 82.9552 181.967 84.012 182.535C85.0689 183.092 85.9552 183.876 86.6711 184.887C87.3757 185.899 87.8643 187.08 88.137 188.433H88.4779C88.5348 186.933 88.9154 185.569 89.62 184.342C90.3132 183.114 91.2734 182.137 92.5007 181.41C93.7166 180.683 95.1484 180.319 96.7961 180.319C98.7052 180.319 100.404 180.819 101.893 181.819C103.381 182.808 104.552 184.217 105.404 186.046C106.256 187.876 106.682 190.058 106.682 192.592V209.024ZM99.1143 199.546V195.114C99.1143 193.524 98.8189 192.33 98.2279 191.535C97.6257 190.739 96.7393 190.342 95.5689 190.342C94.7507 190.342 94.0575 190.529 93.4893 190.904C92.9211 191.279 92.4893 191.813 92.1939 192.506C91.8984 193.188 91.7507 194.012 91.7507 194.978V199.546H99.1143ZM85.887 199.546V195.66C85.887 194.83 85.7564 194.097 85.495 193.461C85.2336 192.825 84.8586 192.33 84.37 191.978C83.87 191.614 83.262 191.433 82.5461 191.433C81.4666 191.433 80.6427 191.819 80.0745 192.592C79.495 193.364 79.2052 194.342 79.2052 195.524V199.546H85.887ZM116.501 171.097C116.501 172.177 116.415 173.205 116.245 174.183C116.086 175.16 115.864 176.018 115.58 176.756L108.898 174.711C109.171 173.938 109.347 173.234 109.427 172.597C109.506 171.95 109.461 171.399 109.29 170.944C109.12 170.478 108.796 170.143 108.319 169.938L107.842 169.734L80.5007 178.938V169.12L98.637 164.893V164.62L80.5007 160.325V150.438L108.864 159.984C110.307 160.461 111.603 161.154 112.751 162.063C113.91 162.961 114.825 164.143 115.495 165.609C116.165 167.075 116.501 168.904 116.501 171.097ZM79.4098 139.291H71.7734L71.7734 108.95H79.4098V119.45L106.682 119.45V128.791L79.4098 128.791L79.4098 139.291ZM107.16 96.498C107.16 99.2934 106.626 101.703 105.557 103.725C104.478 105.737 102.932 107.288 100.921 108.379C98.8984 109.458 96.4779 109.998 93.6598 109.998C90.9552 109.998 88.5916 109.453 86.5689 108.362C84.5461 107.271 82.9723 105.731 81.8473 103.742C80.7223 101.754 80.1598 99.4071 80.1598 96.7025C80.1598 94.7252 80.4666 92.9355 81.0802 91.3332C81.6939 89.7309 82.5859 88.3616 83.7564 87.2252C84.9154 86.0889 86.3245 85.2139 87.9836 84.6002C89.6427 83.9866 91.512 83.6798 93.5916 83.6798H95.7734V107.066H90.5916V92.3389C89.8416 92.3502 89.1825 92.5434 88.6143 92.9184C88.0348 93.2821 87.5859 93.7764 87.2677 94.4014C86.9382 95.015 86.7734 95.7139 86.7734 96.498C86.7734 97.2593 86.9382 97.9582 87.2677 98.5946C87.5859 99.2309 88.0291 99.7423 88.5973 100.129C89.1654 100.504 89.8302 100.703 90.5916 100.725H96.1825C97.0234 100.725 97.7734 100.549 98.4325 100.197C99.0916 99.8446 99.6086 99.3389 99.9836 98.6798C100.359 98.0207 100.546 97.2252 100.546 96.2934C100.546 95.6457 100.455 95.0548 100.273 94.5207C100.092 93.9752 99.8302 93.5093 99.4893 93.123C99.137 92.7366 98.7166 92.4525 98.2279 92.2707V83.6798C100.046 83.9752 101.626 84.6741 102.967 85.7764C104.296 86.8786 105.33 88.3389 106.069 90.1571C106.796 91.9639 107.16 94.0775 107.16 96.498ZM107.092 72.5448C107.092 74.2153 106.819 75.6926 106.273 76.9767C105.717 78.2494 104.876 79.2494 103.751 79.9767C102.626 80.7039 101.194 81.0676 99.4552 81.0676C98.0234 81.0676 96.8018 80.8232 95.7904 80.3346C94.7677 79.846 93.9325 79.1642 93.2848 78.2892C92.637 77.4142 92.1427 76.3971 91.8018 75.238C91.4609 74.0676 91.2393 72.8062 91.137 71.4539C91.0234 69.988 90.887 68.8119 90.7279 67.9255C90.5575 67.0278 90.3245 66.3801 90.0291 65.9823C89.7223 65.5846 89.3189 65.3857 88.8189 65.3857H88.7507C88.0689 65.3857 87.5461 65.6471 87.1825 66.1698C86.8189 66.6926 86.637 67.363 86.637 68.1812C86.637 69.0789 86.8359 69.8119 87.2336 70.3801C87.62 70.9369 88.2166 71.2721 89.0234 71.3857V80.0448C87.4325 79.9312 85.9666 79.4255 84.6257 78.5278C83.2734 77.6187 82.1939 76.2948 81.387 74.5562C80.5689 72.8176 80.1598 70.6471 80.1598 68.0448C80.1598 66.1698 80.3814 64.488 80.8245 62.9994C81.2564 61.5107 81.8643 60.2437 82.6484 59.1982C83.4211 58.1528 84.3302 57.3573 85.3757 56.8119C86.4098 56.2551 87.5348 55.9767 88.7507 55.9767H106.682V64.7721H103.001V64.9767C103.978 65.4994 104.768 66.1357 105.37 66.8857C105.972 67.6244 106.41 68.471 106.682 69.4255C106.955 70.3687 107.092 71.4085 107.092 72.5448ZM101.16 69.4767C101.16 68.7607 101.012 68.0903 100.717 67.4653C100.421 66.8289 99.995 66.3119 99.4382 65.9142C98.8814 65.5164 98.2052 65.3176 97.4098 65.3176H95.2279C95.3302 65.5676 95.4268 65.8346 95.5177 66.1187C95.6086 66.3914 95.6939 66.6869 95.7734 67.0051C95.8529 67.3119 95.9268 67.6414 95.995 67.9937C96.0632 68.3346 96.1257 68.6926 96.1825 69.0676C96.2961 69.7948 96.4836 70.3914 96.745 70.8573C96.995 71.3119 97.3075 71.6528 97.6825 71.8801C98.0461 72.096 98.4552 72.2039 98.9098 72.2039C99.637 72.2039 100.194 71.9482 100.58 71.4369C100.967 70.9255 101.16 70.2721 101.16 69.4767ZM106.682 51.4809H80.5007V42.5491H85.4779V42.2764C83.8416 41.7309 82.5461 40.7991 81.5916 39.4809C80.637 38.1627 80.1598 36.5946 80.1598 34.7764C80.1598 32.9355 80.6484 31.3502 81.6257 30.0207C82.5916 28.6911 83.8757 27.89 85.4779 27.6173V27.3446C83.8757 26.9014 82.5916 25.9582 81.6257 24.515C80.6484 23.0718 80.1598 21.3786 80.1598 19.4355C80.1598 16.9241 80.9666 14.89 82.5802 13.3332C84.1939 11.765 86.3416 10.9809 89.0234 10.9809H106.682V20.39H91.4098C90.262 20.39 89.3643 20.6798 88.7166 21.2593C88.0575 21.8389 87.7279 22.6173 87.7279 23.5946C87.7279 24.5605 88.0575 25.3275 88.7166 25.8957C89.3643 26.4525 90.262 26.7309 91.4098 26.7309H106.682L106.682 35.7309H91.4098C90.262 35.7309 89.3643 36.0207 88.7166 36.6002C88.0575 37.1798 87.7279 37.9582 87.7279 38.9355C87.7279 39.5832 87.8757 40.14 88.1711 40.6059C88.4666 41.0718 88.8927 41.4355 89.4495 41.6968C89.995 41.9468 90.6484 42.0718 91.4098 42.0718H106.682V51.4809Z"/></svg>