<svg width="50" height="50" viewBox="0 0 50 50" fill="none" xmlns="http://www.w3.org/2000/svg">
<path d="M32.2916 5.20842L24.9999 9.37508L17.7083 5.20842L24.9999 1.04175L32.2916 5.20842Z" fill="#8AD3FE"/>
<path d="M32.2917 5.2085V13.5418L25 17.7085V9.37516L32.2917 5.2085Z" fill="url(#paint0_linear_98_690)"/>
<path d="M24.9999 9.37516V17.7085L17.7083 13.5418V5.2085L24.9999 9.37516Z" fill="#54A5FF"/>
<path d="M15.625 35.4167L8.33329 39.5833L1.04163 35.4167L8.33329 31.25L15.625 35.4167Z" fill="#8AD3FE"/>
<path d="M15.6249 35.4167V43.7501L8.33325 47.9167V39.5834L15.6249 35.4167Z" fill="url(#paint1_linear_98_690)"/>
<path d="M8.3333 39.5834V47.9167L1.04163 43.7501V35.4167L8.3333 39.5834Z" fill="#54A5FF"/>
<path d="M48.9583 35.4167L41.6667 39.5833L34.375 35.4167L41.6667 31.25L48.9583 35.4167Z" fill="#8AD3FE"/>
<path d="M48.9583 35.4167V43.7501L41.6666 47.9167V39.5834L48.9583 35.4167Z" fill="url(#paint2_linear_98_690)"/>
<path d="M41.6667 39.5834V47.9167L34.375 43.7501V35.4167L41.6667 39.5834Z" fill="#54A5FF"/>
<path d="M3.36459 28.2709C2.74004 24.1379 3.3127 19.9125 5.01478 16.0948C6.71686 12.2771 9.47709 9.02704 12.9688 6.72923C13.2008 6.57728 13.4838 6.52375 13.7553 6.5804C14.0268 6.63705 14.2647 6.79925 14.4167 7.03131C14.5686 7.26338 14.6222 7.5463 14.5655 7.81784C14.5089 8.08937 14.3467 8.32728 14.1146 8.47923C10.9541 10.5592 8.45607 13.5015 6.91636 16.9575C5.37666 20.4136 4.85982 24.2385 5.4271 27.9792C5.46065 28.2503 5.38639 28.5237 5.22031 28.7406C5.05424 28.9574 4.80963 29.1004 4.53917 29.1386C4.26872 29.1768 3.99407 29.1073 3.77437 28.945C3.55468 28.7827 3.40752 28.5406 3.36459 28.2709Z" fill="#FFB369"/>
<path d="M19.5312 46.1876C19.3956 46.1571 19.2675 46.0997 19.1544 46.0189C19.0412 45.938 18.9455 45.8354 18.8727 45.7169C18.7998 45.5985 18.7515 45.4667 18.7304 45.3293C18.7093 45.1919 18.716 45.0516 18.75 44.9168C19.3021 42.7606 22.2187 46.146 29.9166 44.1668C30.1846 44.0977 30.4691 44.138 30.7074 44.2786C30.9457 44.4193 31.1184 44.6488 31.1875 44.9168C31.2565 45.1848 31.2163 45.4692 31.0757 45.7075C30.935 45.9459 30.7055 46.1186 30.4375 46.1876C26.8592 47.099 23.1095 47.099 19.5312 46.1876Z" fill="#FFB369"/>
<path d="M44.5729 27.9792C45.1402 24.2385 44.6234 20.4136 43.0837 16.9575C41.544 13.5015 39.0459 10.5592 35.8854 8.47923C35.6534 8.32728 35.4912 8.08937 35.4345 7.81784C35.3779 7.5463 35.4314 7.26338 35.5834 7.03131C35.7353 6.79925 35.9732 6.63705 36.2448 6.5804C36.5163 6.52375 36.7992 6.57728 37.0313 6.72923C40.5229 9.02704 43.2832 12.2771 44.9853 16.0948C46.6873 19.9125 47.26 24.1379 46.6354 28.2709C46.5925 28.5406 46.4454 28.7827 46.2257 28.945C46.006 29.1073 45.7313 29.1768 45.4609 29.1386C45.1904 29.1004 44.9458 28.9574 44.7797 28.7406C44.6136 28.5237 44.5394 28.2503 44.5729 27.9792Z" fill="#FFB369"/>
<defs>
<linearGradient id="paint0_linear_98_690" x1="25" y1="11.4585" x2="32.2917" y2="11.4585" gradientUnits="userSpaceOnUse">
<stop stop-color="#54A5FF"/>
<stop offset="1" stop-color="#8AD3FE"/>
</linearGradient>
<linearGradient id="paint1_linear_98_690" x1="8.33325" y1="41.6667" x2="15.6249" y2="41.6667" gradientUnits="userSpaceOnUse">
<stop stop-color="#54A5FF"/>
<stop offset="1" stop-color="#8AD3FE"/>
</linearGradient>
<linearGradient id="paint2_linear_98_690" x1="41.6666" y1="41.6667" x2="48.9583" y2="41.6667" gradientUnits="userSpaceOnUse">
<stop stop-color="#54A5FF"/>
<stop offset="1" stop-color="#8AD3FE"/>
</linearGradient>
</defs>
</svg>
