<svg width="50" height="50" viewBox="0 0 50 50" fill="none" xmlns="http://www.w3.org/2000/svg">
<path d="M35.6355 25C28.6129 26.3855 21.3873 26.3855 14.3647 25C0.541746 21.875 8.46883 15.625 25.0001 15.625C41.7188 15.625 49.323 21.9375 35.6355 25Z" fill="url(#paint0_linear_98_689)"/>
<path d="M42.7084 20.8335V29.1668C42.7084 30.3439 41.3855 31.4272 39.1563 32.2918C29.0834 36.2606 7.29175 34.1564 7.29175 29.1668V20.8335C7.29175 22.5314 10.073 24.0418 14.3647 25.0002C25.8126 27.5418 42.7084 25.1668 42.7084 20.8335Z" fill="url(#paint1_linear_98_689)"/>
<path d="M35.6355 39.5834C19.3542 43.198 -1.26036 36.9897 10.8438 32.2917C17.9063 35.073 32.1042 35.0626 39.1563 32.2917C45.5522 34.7709 42.7084 38.0001 35.6355 39.5834Z" fill="#D7E9F7"/>
<path d="M42.7084 35.4167V43.7501C42.7084 46.6251 34.7813 48.9584 25.0001 48.9584C15.2188 48.9584 7.29175 46.6251 7.29175 43.7501V35.4167C7.29175 37.1147 10.073 38.6251 14.3647 39.5834C21.3873 40.9689 28.6129 40.9689 35.6355 39.5834C39.9272 38.6251 42.7084 37.1147 42.7084 35.4167Z" fill="url(#paint2_linear_98_689)"/>
<path d="M23.9584 21.8751V5.20841C23.9584 4.93215 24.0681 4.6672 24.2635 4.47185C24.4588 4.27649 24.7238 4.16675 25 4.16675C25.2763 4.16675 25.5413 4.27649 25.7366 4.47185C25.932 4.6672 26.0417 4.93215 26.0417 5.20841V21.8751C26.0417 22.1514 25.932 22.4163 25.7366 22.6117C25.5413 22.807 25.2763 22.9168 25 22.9168C24.7238 22.9168 24.4588 22.807 24.2635 22.6117C24.0681 22.4163 23.9584 22.1514 23.9584 21.8751Z" fill="#FFB369"/>
<path d="M29.1667 18.7502V8.3335C29.1667 7.50469 29.496 6.70984 30.082 6.12379C30.6681 5.53774 31.4629 5.2085 32.2917 5.2085H37.5001C37.7763 5.2085 38.0413 5.31824 38.2367 5.51359C38.432 5.70894 38.5417 5.9739 38.5417 6.25016C38.5417 6.52643 38.432 6.79138 38.2367 6.98673C38.0413 7.18208 37.7763 7.29183 37.5001 7.29183H32.2917C32.0155 7.29183 31.7505 7.40158 31.5552 7.59693C31.3598 7.79228 31.2501 8.05723 31.2501 8.3335V18.7502C31.2501 19.0264 31.1403 19.2914 30.945 19.4867C30.7496 19.6821 30.4847 19.7918 30.2084 19.7918C29.9321 19.7918 29.6672 19.6821 29.4718 19.4867C29.2765 19.2914 29.1667 19.0264 29.1667 18.7502Z" fill="#FFB369"/>
<path d="M34.375 20.8333V15.625C34.375 14.7962 34.7042 14.0013 35.2903 13.4153C35.8763 12.8292 36.6712 12.5 37.5 12.5H43.75C44.0262 12.5 44.2912 12.6097 44.4866 12.8051C44.6819 13.0004 44.7916 13.2654 44.7916 13.5417C44.7916 13.8179 44.6819 14.0829 44.4866 14.2782C44.2912 14.4736 44.0262 14.5833 43.75 14.5833H37.5C37.2237 14.5833 36.9588 14.6931 36.7634 14.8884C36.5681 15.0838 36.4583 15.3487 36.4583 15.625V20.8333C36.4583 21.1096 36.3486 21.3746 36.1532 21.5699C35.9579 21.7653 35.6929 21.875 35.4167 21.875C35.1404 21.875 34.8754 21.7653 34.6801 21.5699C34.4847 21.3746 34.375 21.1096 34.375 20.8333Z" fill="#FFB369"/>
<path d="M18.75 18.7502V8.3335C18.75 8.05723 18.6403 7.79228 18.4449 7.59693C18.2496 7.40158 17.9846 7.29183 17.7084 7.29183H12.5C12.2238 7.29183 11.9588 7.18208 11.7635 6.98673C11.5681 6.79138 11.4584 6.52643 11.4584 6.25016C11.4584 5.9739 11.5681 5.70894 11.7635 5.51359C11.9588 5.31824 12.2238 5.2085 12.5 5.2085H17.7084C18.5372 5.2085 19.332 5.53774 19.9181 6.12379C20.5041 6.70984 20.8334 7.50469 20.8334 8.3335V18.7502C20.8334 19.0264 20.7236 19.2914 20.5283 19.4867C20.3329 19.6821 20.068 19.7918 19.7917 19.7918C19.5154 19.7918 19.2505 19.6821 19.0551 19.4867C18.8598 19.2914 18.75 19.0264 18.75 18.7502Z" fill="#FFB369"/>
<path d="M13.5417 20.8333V15.625C13.5417 15.3487 13.432 15.0838 13.2366 14.8884C13.0413 14.6931 12.7763 14.5833 12.5 14.5833H6.25004C5.97377 14.5833 5.70882 14.4736 5.51347 14.2782C5.31812 14.0829 5.20837 13.8179 5.20837 13.5417C5.20837 13.2654 5.31812 13.0004 5.51347 12.8051C5.70882 12.6097 5.97377 12.5 6.25004 12.5H12.5C13.3288 12.5 14.1237 12.8292 14.7098 13.4153C15.2958 14.0013 15.625 14.7962 15.625 15.625V20.8333C15.625 21.1096 15.5153 21.3746 15.3199 21.5699C15.1246 21.7653 14.8596 21.875 14.5834 21.875C14.3071 21.875 14.0422 21.7653 13.8468 21.5699C13.6515 21.3746 13.5417 21.1096 13.5417 20.8333Z" fill="#FFB369"/>
<path d="M25.0001 5.20841C26.1507 5.20841 27.0834 4.27567 27.0834 3.12508C27.0834 1.97449 26.1507 1.04175 25.0001 1.04175C23.8495 1.04175 22.9167 1.97449 22.9167 3.12508C22.9167 4.27567 23.8495 5.20841 25.0001 5.20841Z" fill="url(#paint3_linear_98_689)"/>
<path d="M39.5833 8.33342C40.7339 8.33342 41.6666 7.40067 41.6666 6.25008C41.6666 5.09949 40.7339 4.16675 39.5833 4.16675C38.4327 4.16675 37.5 5.09949 37.5 6.25008C37.5 7.40067 38.4327 8.33342 39.5833 8.33342Z" fill="url(#paint4_linear_98_689)"/>
<path d="M45.8333 15.6252C46.9839 15.6252 47.9166 14.6924 47.9166 13.5418C47.9166 12.3912 46.9839 11.4585 45.8333 11.4585C44.6827 11.4585 43.75 12.3912 43.75 13.5418C43.75 14.6924 44.6827 15.6252 45.8333 15.6252Z" fill="url(#paint5_linear_98_689)"/>
<path d="M10.4167 8.33342C11.5673 8.33342 12.5 7.40067 12.5 6.25008C12.5 5.09949 11.5673 4.16675 10.4167 4.16675C9.26611 4.16675 8.33337 5.09949 8.33337 6.25008C8.33337 7.40067 9.26611 8.33342 10.4167 8.33342Z" fill="url(#paint6_linear_98_689)"/>
<path d="M4.16671 15.6252C5.3173 15.6252 6.25004 14.6924 6.25004 13.5418C6.25004 12.3912 5.3173 11.4585 4.16671 11.4585C3.01611 11.4585 2.08337 12.3912 2.08337 13.5418C2.08337 14.6924 3.01611 15.6252 4.16671 15.6252Z" fill="url(#paint7_linear_98_689)"/>
<defs>
<linearGradient id="paint0_linear_98_689" x1="7.28133" y1="20.8333" x2="42.7084" y2="20.8333" gradientUnits="userSpaceOnUse">
<stop stop-color="#D3E6F5"/>
<stop offset="1" stop-color="#F0F7FC"/>
</linearGradient>
<linearGradient id="paint1_linear_98_689" x1="7.29175" y1="27.6043" x2="42.7084" y2="27.6043" gradientUnits="userSpaceOnUse">
<stop stop-color="#54A5FF"/>
<stop offset="1" stop-color="#8AD3FE"/>
</linearGradient>
<linearGradient id="paint2_linear_98_689" x1="7.87623e-05" y1="42.1876" x2="1.04175" y2="42.1876" gradientUnits="userSpaceOnUse">
<stop stop-color="#54A5FF"/>
<stop offset="1" stop-color="#8AD3FE"/>
</linearGradient>
<linearGradient id="paint3_linear_98_689" x1="22.9167" y1="3.12508" x2="27.0834" y2="3.12508" gradientUnits="userSpaceOnUse">
<stop stop-color="#54A5FF"/>
<stop offset="1" stop-color="#8AD3FE"/>
</linearGradient>
<linearGradient id="paint4_linear_98_689" x1="37.5" y1="6.25008" x2="41.6666" y2="6.25008" gradientUnits="userSpaceOnUse">
<stop stop-color="#54A5FF"/>
<stop offset="1" stop-color="#8AD3FE"/>
</linearGradient>
<linearGradient id="paint5_linear_98_689" x1="43.75" y1="13.5418" x2="47.9166" y2="13.5418" gradientUnits="userSpaceOnUse">
<stop stop-color="#54A5FF"/>
<stop offset="1" stop-color="#8AD3FE"/>
</linearGradient>
<linearGradient id="paint6_linear_98_689" x1="8.33337" y1="6.25008" x2="12.5" y2="6.25008" gradientUnits="userSpaceOnUse">
<stop stop-color="#54A5FF"/>
<stop offset="1" stop-color="#8AD3FE"/>
</linearGradient>
<linearGradient id="paint7_linear_98_689" x1="2.08337" y1="13.5418" x2="6.25004" y2="13.5418" gradientUnits="userSpaceOnUse">
<stop stop-color="#54A5FF"/>
<stop offset="1" stop-color="#8AD3FE"/>
</linearGradient>
</defs>
</svg>
