<svg xmlns="http://www.w3.org/2000/svg" width="50" height="50" fill="none" viewBox="0 0 50 50"><path fill="#D7E9F7" d="M23.9583 22.9167V17.7084C23.9583 17.4321 24.068 17.1672 24.2633 16.9718C24.4587 16.7765 24.7237 16.6667 24.9999 16.6667C25.2762 16.6667 25.5411 16.7765 25.7365 16.9718C25.9318 17.1672 26.0416 17.4321 26.0416 17.7084V22.9167C26.0416 23.193 25.9318 23.458 25.7365 23.6533C25.5411 23.8487 25.2762 23.9584 24.9999 23.9584C24.7237 23.9584 24.4587 23.8487 24.2633 23.6533C24.068 23.458 23.9583 23.193 23.9583 22.9167Z"/><path fill="#D7E9F7" d="M22.9167 26.0418H10.4167C10.1404 26.0418 9.87545 25.9321 9.6801 25.7367C9.48475 25.5414 9.375 25.2764 9.375 25.0002C9.375 24.7239 9.48475 24.4589 9.6801 24.2636C9.87545 24.0682 10.1404 23.9585 10.4167 23.9585H22.9167C23.1929 23.9585 23.4579 24.0682 23.6532 24.2636C23.8486 24.4589 23.9583 24.7239 23.9583 25.0002C23.9583 25.2764 23.8486 25.5414 23.6532 25.7367C23.4579 25.9321 23.1929 26.0418 22.9167 26.0418Z"/><path fill="#D7E9F7" d="M39.5833 26.0418H27.0833C26.807 26.0418 26.5421 25.9321 26.3467 25.7367C26.1514 25.5414 26.0416 25.2764 26.0416 25.0002C26.0416 24.7239 26.1514 24.4589 26.3467 24.2636C26.5421 24.0682 26.807 23.9585 27.0833 23.9585H39.5833C39.8596 23.9585 40.1245 24.0682 40.3199 24.2636C40.5152 24.4589 40.625 24.7239 40.625 25.0002C40.625 25.2764 40.5152 25.5414 40.3199 25.7367C40.1245 25.9321 39.8596 26.0418 39.5833 26.0418Z"/><path fill="#D7E9F7" d="M6.24996 26.0418H2.08329C1.80703 26.0418 1.54207 25.9321 1.34672 25.7367C1.15137 25.5414 1.04163 25.2764 1.04163 25.0002C1.04163 24.7239 1.15137 24.4589 1.34672 24.2636C1.54207 24.0682 1.80703 23.9585 2.08329 23.9585H6.24996C6.52623 23.9585 6.79118 24.0682 6.98653 24.2636C7.18188 24.4589 7.29163 24.7239 7.29163 25.0002C7.29163 25.2764 7.18188 25.5414 6.98653 25.7367C6.79118 25.9321 6.52623 26.0418 6.24996 26.0418Z"/><path fill="#D7E9F7" d="M47.9166 26.0418H43.7499C43.4737 26.0418 43.2087 25.9321 43.0133 25.7367C42.818 25.5414 42.7083 25.2764 42.7083 25.0002C42.7083 24.7239 42.818 24.4589 43.0133 24.2636C43.2087 24.0682 43.4737 23.9585 43.7499 23.9585H47.9166C48.1929 23.9585 48.4578 24.0682 48.6532 24.2636C48.8485 24.4589 48.9583 24.7239 48.9583 25.0002C48.9583 25.2764 48.8485 25.5414 48.6532 25.7367C48.4578 25.9321 48.1929 26.0418 47.9166 26.0418Z"/><path fill="#D7E9F7" d="M7.29163 32.2917V27.0834C7.29163 26.8071 7.40137 26.5422 7.59672 26.3468C7.79207 26.1515 8.05702 26.0417 8.33329 26.0417C8.60956 26.0417 8.87451 26.1515 9.06986 26.3468C9.26521 26.5422 9.37496 26.8071 9.37496 27.0834V32.2917C9.37496 32.568 9.26521 32.833 9.06986 33.0283C8.87451 33.2237 8.60956 33.3334 8.33329 33.3334C8.05702 33.3334 7.79207 33.2237 7.59672 33.0283C7.40137 32.833 7.29163 32.568 7.29163 32.2917Z"/><path fill="#D7E9F7" d="M40.625 35.4167V27.0834C40.625 26.8071 40.7347 26.5422 40.9301 26.3468C41.1254 26.1515 41.3904 26.0417 41.6667 26.0417C41.9429 26.0417 42.2079 26.1515 42.4032 26.3468C42.5986 26.5422 42.7083 26.8071 42.7083 27.0834V35.4167C42.7083 35.693 42.5986 35.958 42.4032 36.1533C42.2079 36.3487 41.9429 36.4584 41.6667 36.4584C41.3904 36.4584 41.1254 36.3487 40.9301 36.1533C40.7347 35.958 40.625 35.693 40.625 35.4167Z"/><path fill="url(#paint0_linear_98_791)" d="M35.4166 4.16675V17.7084H14.5833V1.04175H22.9166L26.0416 4.16675H35.4166Z"/><path fill="url(#paint1_linear_98_791)" d="M25 27.0834C26.1505 27.0834 27.0833 26.1507 27.0833 25.0001C27.0833 23.8495 26.1505 22.9167 25 22.9167C23.8494 22.9167 22.9166 23.8495 22.9166 25.0001C22.9166 26.1507 23.8494 27.0834 25 27.0834Z"/><path fill="url(#paint2_linear_98_791)" d="M8.33334 27.0834C9.48393 27.0834 10.4167 26.1507 10.4167 25.0001C10.4167 23.8495 9.48393 22.9167 8.33334 22.9167C7.18274 22.9167 6.25 23.8495 6.25 25.0001C6.25 26.1507 7.18274 27.0834 8.33334 27.0834Z"/><path fill="url(#paint3_linear_98_791)" d="M41.6666 27.0834C42.8172 27.0834 43.7499 26.1507 43.7499 25.0001C43.7499 23.8495 42.8172 22.9167 41.6666 22.9167C40.516 22.9167 39.5833 23.8495 39.5833 25.0001C39.5833 26.1507 40.516 27.0834 41.6666 27.0834Z"/><path fill="url(#paint4_linear_98_791)" d="M21.875 35.4167V48.9584H1.04163V32.2917H9.37496L12.5 35.4167H21.875Z"/><path fill="url(#paint5_linear_98_791)" d="M48.9583 35.4167V48.9584H28.125V32.2917H36.4583L39.5833 35.4167H48.9583Z"/><defs><linearGradient id="paint0_linear_98_791" x1="14.583" x2="35.417" y1="9.375" y2="9.375" gradientUnits="userSpaceOnUse"><stop stop-color="#54A5FF"/><stop offset="1" stop-color="#8AD3FE"/></linearGradient><linearGradient id="paint1_linear_98_791" x1="22.917" x2="27.083" y1="25" y2="25" gradientUnits="userSpaceOnUse"><stop stop-color="#54A5FF"/><stop offset="1" stop-color="#8AD3FE"/></linearGradient><linearGradient id="paint2_linear_98_791" x1="6.25" x2="10.417" y1="25" y2="25" gradientUnits="userSpaceOnUse"><stop stop-color="#54A5FF"/><stop offset="1" stop-color="#8AD3FE"/></linearGradient><linearGradient id="paint3_linear_98_791" x1="39.583" x2="43.75" y1="25" y2="25" gradientUnits="userSpaceOnUse"><stop stop-color="#54A5FF"/><stop offset="1" stop-color="#8AD3FE"/></linearGradient><linearGradient id="paint4_linear_98_791" x1="1.042" x2="21.875" y1="40.625" y2="40.625" gradientUnits="userSpaceOnUse"><stop stop-color="#54A5FF"/><stop offset="1" stop-color="#8AD3FE"/></linearGradient><linearGradient id="paint5_linear_98_791" x1="28.125" x2="48.958" y1="40.625" y2="40.625" gradientUnits="userSpaceOnUse"><stop stop-color="#54A5FF"/><stop offset="1" stop-color="#8AD3FE"/></linearGradient></defs></svg>