<svg width="50" height="50" viewBox="0 0 50 50" fill="none" xmlns="http://www.w3.org/2000/svg">
<path d="M23.9583 10.4168V5.20842C23.9583 4.93215 24.068 4.6672 24.2633 4.47185C24.4587 4.2765 24.7237 4.16675 24.9999 4.16675C25.2762 4.16675 25.5411 4.2765 25.7365 4.47185C25.9318 4.6672 26.0416 4.93215 26.0416 5.20842V10.4168C26.0416 10.693 25.9318 10.958 25.7365 11.1533C25.5411 11.3487 25.2762 11.4584 24.9999 11.4584C24.7237 11.4584 24.4587 11.3487 24.2633 11.1533C24.068 10.958 23.9583 10.693 23.9583 10.4168Z" fill="#D7E9F7"/>
<path d="M10.4166 26.0418H5.20829C4.93203 26.0418 4.66707 25.9321 4.47172 25.7367C4.27637 25.5414 4.16663 25.2764 4.16663 25.0002C4.16663 24.7239 4.27637 24.4589 4.47172 24.2636C4.66707 24.0682 4.93203 23.9585 5.20829 23.9585H10.4166C10.6929 23.9585 10.9578 24.0682 11.1532 24.2636C11.3485 24.4589 11.4583 24.7239 11.4583 25.0002C11.4583 25.2764 11.3485 25.5414 11.1532 25.7367C10.9578 25.9321 10.6929 26.0418 10.4166 26.0418Z" fill="#D7E9F7"/>
<path d="M14.5833 15.6251C14 15.6251 14.2708 15.7501 9.67707 11.1564C9.48092 10.9602 9.37073 10.6942 9.37073 10.4168C9.37073 10.1394 9.48092 9.87334 9.67707 9.67719C9.87322 9.48104 10.1393 9.37085 10.4167 9.37085C10.6941 9.37085 10.9601 9.48104 11.1562 9.67719L15.3229 13.8439C15.4698 13.9896 15.57 14.1757 15.6107 14.3786C15.6514 14.5814 15.6308 14.7918 15.5514 14.9829C15.4721 15.174 15.3376 15.3371 15.1652 15.4515C14.9928 15.5659 14.7902 15.6263 14.5833 15.6251Z" fill="#D7E9F7"/>
<path d="M35.4166 15.6251C35.2097 15.6263 35.0071 15.5659 34.8347 15.4515C34.6623 15.3371 34.5279 15.174 34.4485 14.9829C34.3692 14.7918 34.3485 14.5814 34.3892 14.3786C34.4299 14.1757 34.5301 13.9896 34.677 13.8439L38.8437 9.6772C39.0399 9.48105 39.3059 9.37085 39.5833 9.37085C39.8607 9.37085 40.1267 9.48105 40.3229 9.6772C40.519 9.87334 40.6292 10.1394 40.6292 10.4168C40.6292 10.6942 40.519 10.9602 40.3229 11.1564C35.7708 15.7085 36 15.6251 35.4166 15.6251Z" fill="#D7E9F7"/>
<path d="M39.5833 40.6251C39 40.6251 39.2708 40.7501 34.6771 36.1564C34.4809 35.9602 34.3707 35.6942 34.3707 35.4168C34.3707 35.1394 34.4809 34.8733 34.6771 34.6772C34.8732 34.481 35.1393 34.3708 35.4167 34.3708C35.6941 34.3708 35.9601 34.481 36.1562 34.6772L40.3229 38.8439C40.4698 38.9896 40.57 39.1757 40.6107 39.3786C40.6514 39.5814 40.6308 39.7918 40.5514 39.9829C40.4721 40.174 40.3376 40.3371 40.1652 40.4515C39.9928 40.5659 39.7902 40.6263 39.5833 40.6251Z" fill="#D7E9F7"/>
<path d="M10.4166 40.6251C10.2097 40.6263 10.0071 40.5659 9.83473 40.4515C9.66232 40.3371 9.52787 40.174 9.44853 39.9829C9.36919 39.7918 9.34855 39.5814 9.38925 39.3786C9.42994 39.1757 9.53013 38.9896 9.67704 38.8439L13.8437 34.6772C14.0399 34.481 14.3059 34.3708 14.5833 34.3708C14.8607 34.3708 15.1267 34.481 15.3229 34.6772C15.519 34.8733 15.6292 35.1394 15.6292 35.4168C15.6292 35.6942 15.519 35.9602 15.3229 36.1564C10.7708 40.7084 11 40.6251 10.4166 40.6251Z" fill="#D7E9F7"/>
<path d="M23.9583 44.7917V39.5834C23.9583 39.3071 24.068 39.0422 24.2633 38.8468C24.4587 38.6515 24.7237 38.5417 24.9999 38.5417C25.2762 38.5417 25.5411 38.6515 25.7365 38.8468C25.9318 39.0422 26.0416 39.3071 26.0416 39.5834V44.7917C26.0416 45.068 25.9318 45.333 25.7365 45.5283C25.5411 45.7237 25.2762 45.8334 24.9999 45.8334C24.7237 45.8334 24.4587 45.7237 24.2633 45.5283C24.068 45.333 23.9583 45.068 23.9583 44.7917Z" fill="#D7E9F7"/>
<path d="M44.7916 26.0418H39.5833C39.307 26.0418 39.0421 25.9321 38.8467 25.7367C38.6514 25.5414 38.5416 25.2764 38.5416 25.0002C38.5416 24.7239 38.6514 24.4589 38.8467 24.2636C39.0421 24.0682 39.307 23.9585 39.5833 23.9585H44.7916C45.0679 23.9585 45.3328 24.0682 45.5282 24.2636C45.7235 24.4589 45.8333 24.7239 45.8333 25.0002C45.8333 25.2764 45.7235 25.5414 45.5282 25.7367C45.3328 25.9321 45.0679 26.0418 44.7916 26.0418Z" fill="#D7E9F7"/>
<path d="M25 39.5834C33.0541 39.5834 39.5833 33.0542 39.5833 25.0001C39.5833 16.9459 33.0541 10.4167 25 10.4167C16.9458 10.4167 10.4166 16.9459 10.4166 25.0001C10.4166 33.0542 16.9458 39.5834 25 39.5834Z" fill="url(#paint0_linear_98_792)"/>
<path d="M34.7708 35.8126C32.0968 38.2421 28.6128 39.5867 25 39.5834L15.0833 29.6668C14.3958 28.9793 14.5833 29.5001 14.5833 14.8022C16.3773 12.9628 18.6276 11.6327 21.1041 10.948C21.2291 11.8334 21.0253 12.7339 20.5312 13.4792C20.2549 13.8094 20.1211 14.2358 20.1592 14.6645C20.1973 15.0933 20.4042 15.4894 20.7343 15.7657C21.0645 16.042 21.4908 16.1758 21.9196 16.1377C22.3484 16.0996 22.7445 15.8927 23.0208 15.5626L24.2708 14.3126C24.7021 13.8887 25.2719 13.6347 25.8754 13.5974C26.479 13.56 27.0758 13.7418 27.556 14.1093C28.0363 14.4768 28.3677 15.0053 28.4895 15.5976C28.6112 16.1899 28.5151 16.8063 28.2187 17.3334C25.625 21.8751 25.4062 22.8543 23.7708 23.2709C22.3125 23.6251 20.8958 23.8022 20.3125 25.5522C20.1611 26.0259 20.1294 26.5298 20.2203 27.0188C20.3112 27.5077 20.5218 27.9666 20.8333 28.3543C22.7812 30.698 24.4479 33.4272 28.2708 32.7813C31.4791 32.2918 33.1145 34.1563 34.7708 35.8126Z" fill="url(#paint1_linear_98_792)"/>
<path d="M25 5.20841C26.1505 5.20841 27.0833 4.27567 27.0833 3.12508C27.0833 1.97449 26.1505 1.04175 25 1.04175C23.8494 1.04175 22.9166 1.97449 22.9166 3.12508C22.9166 4.27567 23.8494 5.20841 25 5.20841Z" fill="url(#paint2_linear_98_792)"/>
<path d="M40.625 11.4584C41.7756 11.4584 42.7083 10.5257 42.7083 9.37508C42.7083 8.22449 41.7756 7.29175 40.625 7.29175C39.4744 7.29175 38.5416 8.22449 38.5416 9.37508C38.5416 10.5257 39.4744 11.4584 40.625 11.4584Z" fill="url(#paint3_linear_98_792)"/>
<path d="M40.625 42.7084C41.7756 42.7084 42.7083 41.7757 42.7083 40.6251C42.7083 39.4745 41.7756 38.5417 40.625 38.5417C39.4744 38.5417 38.5416 39.4745 38.5416 40.6251C38.5416 41.7757 39.4744 42.7084 40.625 42.7084Z" fill="url(#paint4_linear_98_792)"/>
<path d="M9.37496 11.4584C10.5256 11.4584 11.4583 10.5257 11.4583 9.37508C11.4583 8.22449 10.5256 7.29175 9.37496 7.29175C8.22437 7.29175 7.29163 8.22449 7.29163 9.37508C7.29163 10.5257 8.22437 11.4584 9.37496 11.4584Z" fill="url(#paint5_linear_98_792)"/>
<path d="M9.37496 42.7084C10.5256 42.7084 11.4583 41.7757 11.4583 40.6251C11.4583 39.4745 10.5256 38.5417 9.37496 38.5417C8.22437 38.5417 7.29163 39.4745 7.29163 40.6251C7.29163 41.7757 8.22437 42.7084 9.37496 42.7084Z" fill="url(#paint6_linear_98_792)"/>
<path d="M46.875 27.0834C48.0256 27.0834 48.9583 26.1507 48.9583 25.0001C48.9583 23.8495 48.0256 22.9167 46.875 22.9167C45.7244 22.9167 44.7916 23.8495 44.7916 25.0001C44.7916 26.1507 45.7244 27.0834 46.875 27.0834Z" fill="url(#paint7_linear_98_792)"/>
<path d="M25 48.9584C26.1505 48.9584 27.0833 48.0257 27.0833 46.8751C27.0833 45.7245 26.1505 44.7917 25 44.7917C23.8494 44.7917 22.9166 45.7245 22.9166 46.8751C22.9166 48.0257 23.8494 48.9584 25 48.9584Z" fill="url(#paint8_linear_98_792)"/>
<path d="M3.12496 27.0834C4.27555 27.0834 5.20829 26.1507 5.20829 25.0001C5.20829 23.8495 4.27555 22.9167 3.12496 22.9167C1.97437 22.9167 1.04163 23.8495 1.04163 25.0001C1.04163 26.1507 1.97437 27.0834 3.12496 27.0834Z" fill="url(#paint9_linear_98_792)"/>
<path d="M39.4375 27.0835H33.8542C33.1635 27.0835 32.5011 26.8091 32.0127 26.3207C31.5244 25.8324 31.25 25.17 31.25 24.4793C31.25 23.7887 31.5244 23.1263 32.0127 22.6379C32.5011 22.1495 33.1635 21.8752 33.8542 21.8752H34.375V20.3127C34.375 19.622 34.6494 18.9596 35.1377 18.4712C35.6261 17.9829 36.2885 17.7085 36.9792 17.7085H37.625C39.2703 20.5392 39.9091 23.8435 39.4375 27.0835Z" fill="url(#paint10_linear_98_792)"/>
<path d="M43.2707 34.9897C43.992 33.6886 44.5684 32.3123 44.9895 30.8855C45.0278 30.7542 45.0916 30.6317 45.1772 30.525C45.2629 30.4183 45.3687 30.3296 45.4886 30.2638C45.6086 30.198 45.7403 30.1565 45.8763 30.1417C46.0123 30.1268 46.1498 30.1389 46.2812 30.1772C46.4125 30.2155 46.535 30.2793 46.6416 30.3649C46.7483 30.4505 46.8371 30.5564 46.9028 30.6763C46.9686 30.7962 47.0101 30.928 47.025 31.0639C47.0399 31.1999 47.0278 31.3375 46.9895 31.4688C46.5304 33.0426 45.8944 34.5592 45.0937 35.9897C44.9519 36.2134 44.7302 36.3747 44.4736 36.4408C44.2171 36.5069 43.945 36.4728 43.7128 36.3454C43.4805 36.218 43.3056 36.0068 43.2234 35.755C43.1413 35.5032 43.1582 35.2295 43.2707 34.9897Z" fill="#D7E9F7"/>
<path d="M31.177 47.0209C30.9008 47.0595 30.6204 46.9869 30.3977 46.8189C30.175 46.6509 30.0282 46.4013 29.9895 46.125C29.9509 45.8488 30.0235 45.5684 30.1915 45.3457C30.3595 45.123 30.6091 44.9762 30.8854 44.9375C32.3339 44.526 33.7315 43.953 35.052 43.2292C35.2951 43.0911 35.5832 43.0552 35.8527 43.1294C36.1223 43.2036 36.3514 43.3819 36.4895 43.625C36.6276 43.8681 36.6636 44.1562 36.5893 44.4258C36.5151 44.6953 36.3368 44.9244 36.0937 45.0625C34.5488 45.9302 32.8954 46.5888 31.177 47.0209Z" fill="#D7E9F7"/>
<path d="M18.8229 47.0313C17.1397 46.6022 15.5213 45.9506 14.0104 45.0938C13.7687 44.9557 13.5917 44.7272 13.5184 44.4586C13.4452 44.1899 13.4816 43.9032 13.6198 43.6615C13.7579 43.4198 13.9864 43.2428 14.255 43.1696C14.5236 43.0963 14.8103 43.1328 15.0521 43.2709C16.3532 43.9921 17.7294 44.5685 19.1562 44.9896C19.4012 45.0602 19.6118 45.2181 19.7481 45.4335C19.8844 45.6489 19.937 45.9069 19.896 46.1585C19.8549 46.41 19.723 46.6378 19.5252 46.7987C19.3275 46.9596 19.0776 47.0423 18.8229 47.0313Z" fill="#D7E9F7"/>
<path d="M14.5104 6.85417C14.2815 6.85121 14.06 6.77296 13.8801 6.63151C13.7001 6.49005 13.5718 6.29327 13.5149 6.07157C13.458 5.84987 13.4757 5.61561 13.5652 5.40497C13.6548 5.19434 13.8113 5.01907 14.0104 4.90625C15.4427 4.10918 16.9589 3.47335 18.5312 3.01042C18.7965 2.93306 19.0815 2.96423 19.3238 3.09707C19.566 3.22991 19.7455 3.45354 19.8229 3.71875C19.9003 3.98397 19.8691 4.26905 19.7362 4.51129C19.6034 4.75352 19.3798 4.93306 19.1146 5.01042C15.7604 6 15.2083 6.85417 14.5104 6.85417Z" fill="#D7E9F7"/>
<path d="M4.01034 19.8646C3.84514 19.8712 3.68073 19.8385 3.53071 19.769C3.38068 19.6995 3.24935 19.5953 3.14757 19.4651C3.04578 19.3348 2.97647 19.1821 2.94536 19.0198C2.91426 18.8574 2.92224 18.6899 2.96867 18.5313C3.43257 16.9559 4.06834 15.4363 4.8645 14C5.00264 13.7597 5.23059 13.584 5.49822 13.5117C5.76585 13.4395 6.05123 13.4765 6.29159 13.6146C6.53194 13.7527 6.70757 13.9807 6.77985 14.2483C6.85213 14.5159 6.81514 14.8013 6.677 15.0417C4.77075 18.4896 5.34367 19.8646 4.01034 19.8646Z" fill="#D7E9F7"/>
<path d="M4.8958 36.0001C4.10928 34.5617 3.48063 33.0424 3.02079 31.4688C2.94344 31.2036 2.97461 30.9185 3.10745 30.6763C3.24029 30.4341 3.46391 30.2545 3.72913 30.1772C3.99435 30.0998 4.27943 30.131 4.52166 30.2638C4.7639 30.3967 4.94344 30.6203 5.0208 30.8855C5.43232 32.334 6.00536 33.7317 6.72913 35.0522C6.81317 35.2894 6.80849 35.549 6.71594 35.7831C6.62339 36.0171 6.44924 36.2097 6.22568 36.3253C6.00212 36.4409 5.74427 36.4716 5.4998 36.4118C5.25534 36.3521 5.04078 36.2058 4.8958 36.0001Z" fill="#D7E9F7"/>
<path d="M45.9791 19.8648C44.6771 19.8648 45.2604 18.6148 43.2708 15.0002C43.1327 14.7571 43.0968 14.469 43.171 14.1995C43.2452 13.9299 43.4235 13.7008 43.6666 13.5627C43.9098 13.4245 44.1978 13.3887 44.4674 13.4629C44.737 13.5371 44.966 13.7154 45.1041 13.9585C45.8907 15.3969 46.5193 16.9162 46.9791 18.4898C47.0324 18.6475 47.0471 18.8158 47.022 18.9804C46.9969 19.145 46.9327 19.3012 46.8347 19.4359C46.7368 19.5705 46.608 19.6798 46.4591 19.7544C46.3102 19.829 46.1457 19.8669 45.9791 19.8648Z" fill="#D7E9F7"/>
<path d="M35.4895 6.85417C34.7916 6.85417 34.1666 5.98958 30.8854 5.01042C30.6202 4.93306 30.3965 4.75352 30.2637 4.51129C30.1309 4.26905 30.0997 3.98397 30.177 3.71875C30.2544 3.45354 30.4339 3.22991 30.6762 3.09707C30.9184 2.96423 31.2035 2.93306 31.4687 3.01042C33.0411 3.47335 34.5573 4.10918 35.9895 4.90625C36.1887 5.01907 36.3451 5.19434 36.4347 5.40497C36.5243 5.61561 36.542 5.84987 36.4851 6.07157C36.4282 6.29327 36.2998 6.49005 36.1199 6.63151C35.9399 6.77296 35.7184 6.85121 35.4895 6.85417Z" fill="#D7E9F7"/>
<defs>
<linearGradient id="paint0_linear_98_792" x1="10.4166" y1="25.0001" x2="39.5833" y2="25.0001" gradientUnits="userSpaceOnUse">
<stop stop-color="#54A5FF"/>
<stop offset="1" stop-color="#8AD3FE"/>
</linearGradient>
<linearGradient id="paint1_linear_98_792" x1="14.5625" y1="25.2709" x2="34.7708" y2="25.2709" gradientUnits="userSpaceOnUse">
<stop stop-color="#D3E6F5"/>
<stop offset="1" stop-color="#F0F7FC"/>
</linearGradient>
<linearGradient id="paint2_linear_98_792" x1="22.9166" y1="3.12508" x2="27.0833" y2="3.12508" gradientUnits="userSpaceOnUse">
<stop stop-color="#54A5FF"/>
<stop offset="1" stop-color="#8AD3FE"/>
</linearGradient>
<linearGradient id="paint3_linear_98_792" x1="38.5416" y1="9.37508" x2="42.7083" y2="9.37508" gradientUnits="userSpaceOnUse">
<stop stop-color="#54A5FF"/>
<stop offset="1" stop-color="#8AD3FE"/>
</linearGradient>
<linearGradient id="paint4_linear_98_792" x1="38.5416" y1="40.6251" x2="42.7083" y2="40.6251" gradientUnits="userSpaceOnUse">
<stop stop-color="#54A5FF"/>
<stop offset="1" stop-color="#8AD3FE"/>
</linearGradient>
<linearGradient id="paint5_linear_98_792" x1="7.29163" y1="9.37508" x2="11.4583" y2="9.37508" gradientUnits="userSpaceOnUse">
<stop stop-color="#54A5FF"/>
<stop offset="1" stop-color="#8AD3FE"/>
</linearGradient>
<linearGradient id="paint6_linear_98_792" x1="7.29163" y1="40.6251" x2="11.4583" y2="40.6251" gradientUnits="userSpaceOnUse">
<stop stop-color="#54A5FF"/>
<stop offset="1" stop-color="#8AD3FE"/>
</linearGradient>
<linearGradient id="paint7_linear_98_792" x1="44.7916" y1="0.000116348" x2="48.9583" y2="0.000116348" gradientUnits="userSpaceOnUse">
<stop stop-color="#54A5FF"/>
<stop offset="1" stop-color="#8AD3FE"/>
</linearGradient>
<linearGradient id="paint8_linear_98_792" x1="22.9166" y1="46.8751" x2="27.0833" y2="46.8751" gradientUnits="userSpaceOnUse">
<stop stop-color="#54A5FF"/>
<stop offset="1" stop-color="#8AD3FE"/>
</linearGradient>
<linearGradient id="paint9_linear_98_792" x1="1.04163" y1="0.000116348" x2="5.20829" y2="0.000116348" gradientUnits="userSpaceOnUse">
<stop stop-color="#54A5FF"/>
<stop offset="1" stop-color="#8AD3FE"/>
</linearGradient>
<linearGradient id="paint10_linear_98_792" x1="31.25" y1="22.396" x2="39.5833" y2="22.396" gradientUnits="userSpaceOnUse">
<stop stop-color="#D3E6F5"/>
<stop offset="1" stop-color="#F0F7FC"/>
</linearGradient>
</defs>
</svg>
