<svg xmlns="http://www.w3.org/2000/svg" width="50" height="50" fill="none" viewBox="0 0 50 50"><path fill="url(#paint0_linear_98_790)" d="M39.5833 11.4584V34.5834C33.9466 33.4328 28.4443 37.0695 27.2937 42.7062C27.1536 43.3925 27.0831 44.0912 27.0833 44.7917V48.9584H4.16668C3.01609 48.9584 2.08337 48.0256 2.08337 46.8751V3.12505C2.08337 1.97446 3.01609 1.04175 4.16668 1.04175H29.1667V11.4584H39.5833V11.4584Z"/><path fill="url(#paint1_linear_98_790)" d="M39.5834 11.4583H29.1667V1.04175L39.5834 11.4583Z"/><path fill="#B4CDE1" d="M7.29163 21.875V15.625C7.29163 15.0497 7.75803 14.5833 8.33333 14.5833C8.90852 14.5833 9.37493 15.0497 9.37493 15.625V21.875C9.37493 22.4502 8.90852 22.9167 8.33323 22.9167C7.75793 22.9167 7.29163 22.4502 7.29163 21.875Z"/><path fill="#B4CDE1" d="M28.1249 21.875V15.625C28.1249 15.0497 28.5913 14.5833 29.1666 14.5833C29.7419 14.5833 30.2083 15.0497 30.2083 15.625V21.875C30.2083 22.4502 29.7419 22.9167 29.1666 22.9167C28.5913 22.9167 28.1249 22.4502 28.1249 21.875Z"/><path fill="#B4CDE1" d="M32.2916 21.875V15.625C32.2916 15.0497 32.758 14.5833 33.3333 14.5833C33.9086 14.5833 34.3749 15.0497 34.3749 15.625V21.875C34.3749 22.4502 33.9085 22.9167 33.3332 22.9167C32.7579 22.9167 32.2916 22.4502 32.2916 21.875Z"/><path fill="#B4CDE1" d="M14.5833 22.9166C12.8574 22.9166 11.4583 21.5174 11.4583 19.7916V17.7083C11.4583 15.9824 12.8574 14.5833 14.5833 14.5833C16.3091 14.5833 17.7083 15.9824 17.7083 17.7083V19.7916C17.7083 21.5174 16.3091 22.9166 14.5833 22.9166ZM13.5417 17.7082V19.7915C13.5417 20.3667 14.0081 20.8332 14.5833 20.8332C15.1586 20.8332 15.625 20.3667 15.625 19.7915V17.7082C15.625 17.1329 15.1586 16.6665 14.5833 16.6665C14.008 16.6666 13.5417 17.1329 13.5417 17.7082Z"/><path fill="#B4CDE1" d="M22.9166 22.9166C21.1907 22.9166 19.7916 21.5174 19.7916 19.7916V17.7083C19.7916 15.9824 21.1907 14.5833 22.9166 14.5833C24.6425 14.5833 26.0416 15.9824 26.0416 17.7083V19.7916C26.0416 21.5174 24.6425 22.9166 22.9166 22.9166ZM21.8749 17.7082V19.7915C21.8749 20.3667 22.3413 20.8332 22.9166 20.8332C23.4919 20.8332 23.9583 20.3667 23.9583 19.7915V17.7082C23.9583 17.1329 23.4919 16.6665 22.9166 16.6665C22.3413 16.6665 21.8749 17.1329 21.8749 17.7082Z"/><path fill="#B4CDE1" d="M7.29163 32.2917V26.0417C7.29163 25.4664 7.75803 25 8.33333 25C8.90852 25 9.37493 25.4664 9.37493 26.0417V32.2917C9.37493 32.867 8.90852 33.3334 8.33323 33.3334C7.75793 33.3333 7.29163 32.867 7.29163 32.2917Z"/><path fill="#B4CDE1" d="M11.4583 32.2917V26.0417C11.4583 25.4664 11.9247 25 12.5 25C13.0752 25 13.5417 25.4664 13.5417 26.0417V32.2917C13.5417 32.867 13.0752 33.3334 12.5 33.3334C11.9247 33.3333 11.4583 32.867 11.4583 32.2917Z"/><path fill="#B4CDE1" d="M23.9583 32.2917V26.0417C23.9583 25.4664 24.4247 25 24.9999 25C25.5752 25 26.0416 25.4664 26.0416 26.0417V32.2917C26.0416 32.867 25.5752 33.3334 24.9999 33.3334C24.4247 33.3333 23.9583 32.867 23.9583 32.2917Z"/><path fill="#B4CDE1" d="M31.2499 33.3333C29.524 33.3333 28.1249 31.9342 28.1249 30.2083V28.125C28.1249 26.3991 29.524 25 31.2499 25C32.9758 25 34.3749 26.3991 34.3749 28.125V30.2083C34.3749 31.9342 32.9758 33.3333 31.2499 33.3333ZM30.2082 28.125V30.2083C30.2082 30.7836 30.6746 31.25 31.2499 31.25C31.8252 31.25 32.2916 30.7836 32.2916 30.2083V28.125C32.2916 27.5497 31.8252 27.0833 31.2499 27.0833C30.6746 27.0833 30.2082 27.5497 30.2082 28.125Z"/><path fill="#B4CDE1" d="M18.7499 33.3333C17.024 33.3333 15.6249 31.9342 15.6249 30.2083V28.125C15.6249 26.3991 17.024 25 18.7499 25C20.4758 25 21.8749 26.3991 21.8749 28.125V30.2083C21.8749 31.9342 20.4758 33.3333 18.7499 33.3333ZM17.7082 28.125V30.2083C17.7082 30.7836 18.1746 31.25 18.7499 31.25C19.3252 31.25 19.7916 30.7836 19.7916 30.2083V28.125C19.7916 27.5497 19.3252 27.0833 18.7499 27.0833C18.1746 27.0833 17.7082 27.5497 17.7082 28.125Z"/><path fill="url(#paint2_linear_98_790)" d="M47.9167 44.7917V48.9584H27.0833C27.0833 44.9272 27.0833 44.6042 27.1353 43.7501C27.423 37.9972 32.3199 33.5666 38.0728 33.8543C43.8257 34.1419 48.2563 39.0389 47.9686 44.7918H47.9167V44.7917Z"/><path fill="url(#paint3_linear_98_790)" d="M38.9688 45.2187C39.7917 44.4062 41.1875 40.0625 41.1875 40.0625C41.1875 40.0625 36.8438 41.4583 36.0313 42.2812C35.2828 43.1552 35.3846 44.4703 36.2585 45.2187C37.0385 45.8867 38.1888 45.8867 38.9688 45.2187Z"/><path fill="#EB7F58" d="M38.5416 33.8958V35.9791C38.5416 36.5544 38.0752 37.0208 37.5 37.0208C36.9247 37.0208 36.4583 36.5544 36.4583 35.9791V33.8958C37.1508 33.8228 37.8491 33.8228 38.5416 33.8958Z"/><path fill="#EB7F58" d="M29.1667 45.8333H27.0834C27.065 45.1384 27.0824 44.4431 27.1354 43.75H29.1667C29.742 43.75 30.2084 44.2164 30.2084 44.7917C30.2083 45.367 29.742 45.8333 29.1667 45.8333Z"/><path fill="#EB7F58" d="M47.9167 45.8334H45.8334C45.2582 45.8334 44.7917 45.367 44.7917 44.7917C44.7917 44.2164 45.2582 43.75 45.8334 43.75H47.9167C47.953 44.444 47.953 45.1395 47.9167 45.8334Z"/><defs><linearGradient id="paint0_linear_98_790" x1="2.082" x2="39.583" y1="24.98" y2="24.98" gradientUnits="userSpaceOnUse"><stop stop-color="#D3E6F5"/><stop offset="1" stop-color="#F0F7FC"/></linearGradient><linearGradient id="paint1_linear_98_790" x1="29.166" x2="39.584" y1="6.229" y2="6.229" gradientUnits="userSpaceOnUse"><stop stop-color="#54A5FF"/><stop offset="1" stop-color="#8AD3FE"/></linearGradient><linearGradient id="paint2_linear_98_790" x1="27.083" x2="47.917" y1="41.38" y2="41.38" gradientUnits="userSpaceOnUse"><stop stop-color="#FE9661"/><stop offset="1" stop-color="#FFB369"/></linearGradient><linearGradient id="paint3_linear_98_790" x1="35.417" x2="41.188" y1="42.872" y2="42.872" gradientUnits="userSpaceOnUse"><stop stop-color="#D3E6F5"/><stop offset="1" stop-color="#F0F7FC"/></linearGradient></defs></svg>