<svg xmlns="http://www.w3.org/2000/svg" width="29" height="29" fill="none" viewBox="0 0 29 29"><path fill="#14A38B" d="M27.2681 2.31547C27.1875 2.03317 26.9669 1.81256 26.6846 1.7319C22.7563 0.609566 18.7994 0 14.5 0C10.1992 0 6.24134 0.610246 2.31541 1.7319C2.03317 1.81256 1.8125 2.03323 1.7319 2.31547C0.57932 6.34964 0 10.302 0 14.5C0 18.5414 0.556494 22.5707 1.66784 26.4603C1.72879 26.6737 1.80706 27.1228 2.31541 27.2681C6.32398 28.4136 10.261 28.9979 14.4856 28.9993C14.4904 28.9993 14.4951 29 14.5 29C14.5049 29 14.5095 28.9994 14.5144 28.9993C18.5868 28.9979 22.6112 28.4319 26.4603 27.3322C26.9771 27.1845 27.1413 27.1284 27.3322 26.4603C28.4509 22.5448 29 18.5079 29 14.5C29 10.1643 28.382 6.2154 27.2681 2.31547Z" opacity=".15"/></svg>