<svg xmlns="http://www.w3.org/2000/svg" width="51" height="51" fill="none" viewBox="0 0 51 51"><path fill="#fff" d="M47.9542 4.07203C47.8125 3.57558 47.4245 3.1876 46.9281 3.04576C40.0197 1.072 33.061 0 25.5 0C17.9365 0 10.9762 1.07319 4.07193 3.04576C3.57558 3.1876 3.1875 3.57568 3.04576 4.07203C1.0188 11.1666 0 18.1174 0 25.5C0 32.6073 0.978662 39.6932 2.9331 46.5336C3.04028 46.9088 3.17794 47.6987 4.07193 47.9542C11.1215 49.9687 18.0452 50.9963 25.4747 50.9987C25.4832 50.9988 25.4914 51 25.5 51C25.5086 51 25.5167 50.9989 25.5253 50.9987C32.6872 50.9963 39.7646 50.0009 46.5337 48.0669C47.4425 47.8072 47.7312 47.7085 48.0669 46.5337C50.0343 39.6477 51 32.5485 51 25.5C51 17.8751 49.9132 10.9305 47.9542 4.07203Z"/><path fill="#728191" d="M37.7728 36.6943L31.5762 30.5969C33.1989 28.834 34.1959 26.5024 34.1959 23.9368C34.1951 18.4485 29.6745 14 24.0976 14C18.5206 14 14 18.4485 14 23.9368C14 29.4251 18.5206 33.8737 24.0976 33.8737C26.5072 33.8737 28.7172 33.0402 30.4532 31.6546L36.6738 37.7761C36.9769 38.0746 37.469 38.0746 37.7721 37.7761C38.0759 37.4775 38.0759 36.9929 37.7728 36.6943ZM24.0976 32.3448C19.3789 32.3448 15.5537 28.5804 15.5537 23.9368C15.5537 19.2932 19.3789 15.5288 24.0976 15.5288C28.8163 15.5288 32.6415 19.2932 32.6415 23.9368C32.6415 28.5804 28.8163 32.3448 24.0976 32.3448Z"/></svg>