<svg xmlns="http://www.w3.org/2000/svg" width="405" height="79" fill="none" viewBox="0 0 405 79"><path fill="url(#paint0_linear)" fill-rule="evenodd" d="M0 42.5493V5.57201C16.5 -14.4084 31.7439 24.9988 51.5 35.1241C70.1585 45.2493 96.5854 37.8241 115.244 35.1241C135 32.424 154.756 51.581 173.415 47.5309C193.171 44.1558 211.829 36.4741 231.585 42.5492C250.244 49.2994 270 56.7245 289.756 51.3244C308.415 46.5993 328.171 29.049 346.829 31.749C366.585 33.7741 385.244 56.7245 395.122 67.5248L405 79H395.122C385.244 79 366.585 79 346.829 79C328.171 79 308.415 79 289.756 79C270 79 250.244 79 231.585 79C211.829 79 193.171 79 173.415 79C154.756 79 135 79 115.244 79C96.5854 79 76.8293 79 58.1707 79C38.4146 79 19.7561 79 9.87805 79H0V42.5493Z" clip-rule="evenodd" opacity=".11"/><path fill="#1E8EFE" fill-rule="evenodd" d="M0 60.9811V32.4512C4.27907 26.644 11.3442 55.5464 22.5 52.9727C33.6558 50.399 46.0581 11.4851 57.5 16.4345C69 11.4293 89.5326 52.7301 100.688 48.9686C111.844 45.009 123 16.8639 134.156 19.4376C145.312 22.0113 156.467 58.6084 167.623 57.2225C178.779 56.0347 190.221 33.0694 201.377 27.9221C212.533 22.7747 223.688 35.6431 234.844 34.2573C246 33.0694 257.156 17.6273 268.312 21.5868C279.467 25.3484 290.623 48.3136 301.779 53.461C313.221 58.6084 324.377 45.7399 335.533 47.1258C346.688 48.3136 357.844 63.7558 363.279 71.2789L369 79H363.279C357.844 79 346.688 79 335.533 79C324.377 79 313.221 79 301.779 79C290.623 79 279.467 79 268.312 79C257.156 79 246 79 234.844 79C223.688 79 212.533 79 201.377 79C190.221 79 178.779 79 167.623 79C156.467 79 145.312 79 134.156 79C123 79 111.844 79 100.688 79C89.5326 79 68.6558 79 57.5 79C46.0581 79 44.6233 79 33.4674 79C22.3116 79 11.1558 79 5.72093 79H0V60.9811Z" clip-rule="evenodd" opacity=".06"/><defs><linearGradient id="paint0_linear" x1="405" x2="405" y1=".077" y2="79" gradientUnits="userSpaceOnUse"><stop stop-color="#1E8EFE"/><stop offset="1" stop-color="#1E8EFE" stop-opacity="0"/></linearGradient></defs></svg>