<svg xmlns="http://www.w3.org/2000/svg" width="21" height="19" fill="none" viewBox="0 0 21 19"><path fill="#D6CF6E" d="M0.329186 10.7494C0.091572 11.0337 -0.0240485 11.3956 0.00417383 11.7697C0.0323961 12.1438 0.199909 12.4842 0.477581 12.7274L7.21725 18.6624C7.46761 18.8822 7.77806 19 8.10398 19C8.14404 19 8.18501 18.9981 8.22597 18.9944C8.59468 18.9607 8.92698 18.7802 9.16186 18.4875L20.6893 4.07463C20.9206 3.78471 21.0289 3.41997 20.9934 3.04681C20.957 2.67365 20.7831 2.33697 20.5009 2.09849L18.3906 0.317804C17.8088 -0.172257 16.9476 -0.0862158 16.4687 0.511397L7.59689 11.6042L4.03177 8.46648C3.46004 7.9652 2.59699 8.0316 2.10628 8.61892L0.329186 10.7494Z" opacity=".75"/></svg>