<svg xmlns="http://www.w3.org/2000/svg"><metadata>Generated by IcoMoon</metadata><defs><font id="father-icons" horiz-adv-x="1024"><font-face ascent="960" descent="-64" units-per-em="1024"/><glyph horiz-adv-x="512"/><glyph d="M1019.302 647.462l-205.226 205.228c-3.006 3.008-7.084 4.696-11.336 4.696h-581.48c-4.252 0-8.33-1.688-11.336-4.696l-205.228-205.228c-5.914-5.914-6.29-15.38-0.862-21.742l495.966-581.478c3.046-3.572 7.504-5.628 12.198-5.628s9.152 2.056 12.198 5.628l495.966 581.478c5.43 6.364 5.054 15.83-0.86 21.742zM779.718 825.32l-17.304-46.82c-3.070-8.306 1.176-17.528 9.482-20.598 1.834-0.676 3.708-0.998 5.556-0.998 6.52 0 12.65 4.006 15.042 10.48l16.606 44.932 160.158-160.156h-219.344l17.302 46.814c3.070 8.306-1.176 17.528-9.482 20.598-8.31 3.070-17.528-1.176-20.598-9.482l-17.088-46.236-168.196 161.466h227.866zM472.146 825.32l-168.194-161.468-59.672 161.468h227.866zM214.898 812.316l59.186-160.156h-219.344l160.158 160.156zM512 100.9l-149.296 403.982c-3.070 8.306-12.294 12.55-20.598 9.482-8.308-3.070-12.552-12.29-9.484-20.598l133.102-360.16-414.944 486.486h235.156l21.41-57.93c2.392-6.474 8.522-10.48 15.042-10.48 1.844 0 3.724 0.32 5.556 0.998 8.306 3.070 12.55 12.292 9.482 20.598l-17.302 46.814h311.59c8.854 0 16.034 7.178 16.034 16.034s-7.178 16.034-16.034 16.034h-293.64l173.926 166.968 195.922-188.084-195.922-530.144zM558.274 133.606l179.788 486.486h235.156l-414.944-486.486z" glyph-name="diamond" unicode=""/><glyph d="M623.531 872.277c-9.338-2.594-16.942-8.696-21.455-16.761l-0.091-0.177c-3.157-5.931-3.797-9.856-3.797-23.339 0-14.123 0.555-17.195 4.267-23.808 4.693-8.405 12.544-14.507 21.973-17.109 3.797-1.067 41.899-1.749 98.475-1.749 105.6 0 104.448 0.128 117.504-12.928 13.952-13.995 12.928 12.544 12.928-328.448 0-251.989-0.384-304.512-2.347-310.997-3.329-10.637-10.321-19.306-19.468-24.721l-0.202-0.111-7.851-4.608-198.059-1.707-8.491-4.352c-14.507-7.467-20.523-20.651-19.2-41.899 1.28-19.797 10.411-32.085 27.264-36.608 4.395-1.195 41.088-1.621 108.544-1.237 101.376 0.555 101.931 0.555 113.835 4.523 41.409 13.508 73.312 45.678 86.186 86.313l0.257 0.94 4.011 12.8v643.413l-4.011 12.8c-13.027 41.547-44.966 73.669-85.469 86.696l-0.931 0.259-13.696 4.267-101.547 0.384c-80.555 0.341-102.997-0.043-108.629-1.835zM410.709 702.080c-8.789-4.651-20.48-16.555-25.088-25.557-2.294-4.439-3.639-9.69-3.639-15.255 0-5.631 1.377-10.94 3.813-15.609l-0.089 0.187c2.56-5.12 27.264-31.104 77.355-81.365l73.6-73.813h-208.341c-223.275 0-217.045 0.213-229.248-8.491-9.472-6.741-12.885-15.744-12.885-34.176 0-14.123 0.555-17.195 4.267-23.808 4.693-8.405 12.544-14.507 21.973-17.109 4.011-1.109 80.427-1.749 215.211-1.749h209.024l-73.6-73.813c-50.091-50.261-74.795-76.245-77.355-81.365-7.552-15.019-3.755-30.592 11.051-45.397s30.336-18.603 45.397-11.051c5.248 2.603 40.533 36.565 115.115 110.677 59.179 58.795 109.781 108.373 112.427 110.165 6.571 4.352 15.061 23.253 15.061 33.451 0 10.923-8.448 28.971-15.915 34.091-3.2 2.176-53.803 51.755-112.469 110.208-70.869 70.571-109.099 107.435-113.835 109.824-4.653 2.21-10.11 3.501-15.869 3.501-5.794 0-11.283-1.307-16.189-3.641l0.228 0.098z" glyph-name="log-in" unicode=""/><glyph d="M459.947 872.747c-53.675-7.893-90.325-18.901-133.12-39.936-59.111-29.415-108.679-69.665-147.902-118.569l-0.663-0.855c-68.139-85.717-101.888-204.032-88.661-310.869 6.154-53.354 21.256-101.936 43.827-146.065l-1.118 2.407c21.163-42.709 44.459-74.837 80.085-110.464 36.395-36.395 68.267-59.349 112.725-81.067 40.149-19.669 75.776-31.061 122.027-39.125 30.805-5.376 83.328-6.613 114.347-2.645 81.067 10.325 155.989 41.045 215.168 88.149 88.96 70.784 146.261 171.904 160.341 283.008 3.157 25.003 0.64 35.371-11.733 48.427-10.837 11.392-22.229 15.531-35.243 12.757-4.864-1.024-14.72-6.229-25.984-13.653-27.46-18.887-59.745-33.089-94.521-40.596l-1.778-0.322c-23.253-5.163-70.571-5.589-94.464-0.896-101.12 19.968-178.901 93.099-202.837 190.635-4.833 18.406-7.608 39.537-7.608 61.316 0 28.832 4.864 56.528 13.815 82.312l-0.532-1.761c7.493 23.026 17.395 43.035 29.727 61.267l-0.543-0.851c5.504 8.491 11.136 18.219 12.587 21.717 6.101 14.549 0.981 39.083-10.197 48.853-9.685 8.533-23.168 10.453-47.744 6.827zM397.653 769.963c0-0.299-1.579-5.12-3.456-10.667-18.091-52.395-21.76-116.651-9.941-173.056 25.728-122.329 114.185-219.161 229.434-256.392l2.416-0.675c66.261-21.12 142.379-21.035 204.971 0.256 6.784 2.304 12.672 3.925 13.013 3.541 1.152-1.152-15.744-37.76-24.533-53.163-18.048-31.701-51.541-71.339-79.957-94.592-48.768-39.979-113.579-67.115-179.456-75.221-22.699-2.773-70.4-1.152-94.507 3.285-73.941 13.525-134.613 45.653-186.112 98.645-27.179 27.947-42.752 49.536-59.477 82.432-22.069 41.896-35.625 91.33-37.109 143.785l-0.011 0.471c-2.901 74.069 19.371 147.541 63.915 210.773 13.781 19.584 51.883 58.325 72.064 73.216 19.033 14.138 40.617 27.009 63.464 37.618l2.285 0.952c19.115 8.789 22.997 10.283 22.997 8.789z" glyph-name="moon" unicode=""/><glyph d="M495.531 957.568c-9.351-2.542-16.968-8.642-21.456-16.719l-0.090-0.177c-3.669-6.869-3.797-9.045-4.309-62.080-0.341-34.645 0.128-57.429 1.28-61.611 4.523-16.853 16.811-25.984 36.608-27.264 20.693-1.323 34.261 4.651 41.984 18.475l4.267 7.595v58.88c0 57.6-0.085 59.051-3.797 66.005-2.391 4.254-5.427 7.848-9.021 10.784l-0.067 0.053c-11.264 8.064-30.763 10.624-45.397 6.059zM169.813 823.168c-18.688-6.997-35.029-27.392-34.944-43.605 0.085-13.227 5.205-20.053 44.843-59.605 24.149-24.064 40.619-39.168 45.44-41.557 15.019-7.552 30.592-3.755 45.397 11.051s18.603 30.379 11.051 45.397c-5.077 10.112-76.8 81.792-86.101 86.016-8.448 3.883-18.987 4.821-25.685 2.304zM833.707 823.168c-9.941-3.712-19.115-11.691-53.12-46.037-21.035-21.291-35.797-37.675-38.144-42.283-7.595-15.019-3.797-30.592 11.008-45.397s30.379-18.603 45.397-11.008c9.216 4.651 76.203 70.485 83.84 82.432 10.539 16.384 7.595 32.64-8.789 48.981-12.672 12.629-28.245 17.792-40.192 13.312zM485.547 702.165c-110.763-10.923-200.704-92.843-224.64-204.672-5.589-26.027-5.589-73.301-0.043-98.987 22.4-103.595 98.261-179.413 201.643-201.6 25.856-5.547 73.131-5.547 98.987 0 52.779 11.307 96.085 34.859 132.651 72.107 35.84 36.48 57.899 77.909 68.949 129.493 5.547 25.856 5.547 73.131 0 98.987-11.051 51.584-33.109 93.013-68.949 129.493-55.083 56.107-129.664 82.987-208.597 75.179zM537.813 616.192c62.677-9.472 115.413-54.016 136.192-115.072 4.267-12.587 8.661-39.467 8.661-53.12 0-13.739-4.395-40.576-8.704-53.12-20.267-59.179-68.309-101.675-128.981-114.005-94.293-19.243-186.752 45.739-201.173 141.312-1.466 7.761-2.304 16.689-2.304 25.813s0.838 18.052 2.442 26.712l-0.138-0.898c10.923 72.405 68.992 131.029 140.8 142.251 8.112 1.466 17.448 2.305 26.98 2.305 9.263 0 18.341-0.792 27.17-2.311l-0.945 0.135zM26.197 488.235c-9.351-2.542-16.968-8.642-21.456-16.719l-0.090-0.177c-3.157-5.931-3.797-9.856-3.797-23.339 0-14.123 0.555-17.195 4.267-23.808 4.693-8.405 12.544-14.507 21.973-17.109 8.149-2.261 108.331-2.261 116.48 0 9.493 2.619 17.237 8.778 21.88 16.932l0.093 0.177c3.712 6.656 4.267 9.643 4.224 23.808-0.043 13.355-0.725 17.451-3.797 23.339-4.437 8.405-11.392 13.739-22.144 16.981-10.837 3.243-107.179 3.157-117.632-0.085zM879.531 488.235c-9.351-2.542-16.968-8.642-21.456-16.719l-0.090-0.177c-3.157-5.931-3.797-9.856-3.797-23.339 0-14.123 0.555-17.195 4.267-23.808 4.693-8.405 12.544-14.507 21.973-17.109 8.149-2.261 108.331-2.261 116.48 0 9.493 2.619 17.237 8.778 21.88 16.932l0.093 0.177c3.712 6.656 4.267 9.643 4.224 23.808-0.043 13.355-0.725 17.451-3.797 23.339-4.437 8.405-11.392 13.739-22.144 16.981-10.837 3.243-107.179 3.157-117.632-0.085zM224.427 217.344c-10.453-5.419-81.792-77.355-86.059-86.784-7.040-15.573-3.072-29.952 12.544-45.141 16.299-15.957 31.957-18.56 48.299-8.064 11.861 7.637 77.696 74.624 82.347 83.797 7.595 15.019 3.797 30.592-11.008 45.397-14.507 14.507-31.317 18.432-46.123 10.795zM767.403 217.387c-15.744-8.277-28.8-26.795-28.8-40.747 0-13.824 4.949-20.437 46.208-61.611 42.453-42.411 46.976-45.525 62.72-43.776 10.88 1.237 25.259 11.392 33.963 24.064 6.144 9.003 6.827 11.008 6.827 20.523 0 8.917-0.811 11.819-5.461 19.029-7.552 11.733-74.667 77.995-83.627 82.517-4.661 2.243-10.135 3.553-15.915 3.553s-11.253-1.31-16.14-3.65l0.225 0.097zM495.531 104.235c-9.351-2.542-16.968-8.642-21.456-16.719l-0.090-0.177c-3.669-6.869-3.797-9.045-4.309-62.080-0.341-34.645 0.128-57.429 1.28-61.611 4.523-16.853 16.811-25.984 36.608-27.264 20.693-1.323 34.261 4.651 41.984 18.475l4.267 7.595v58.88c0 57.6-0.085 59.051-3.797 66.005-2.391 4.254-5.427 7.848-9.021 10.784l-0.067 0.053c-11.264 8.064-30.763 10.624-45.397 6.059z" glyph-name="sun" unicode=""/><glyph d="M367.531 957.568c-9.351-2.542-16.968-8.642-21.456-16.719l-0.090-0.177c-3.627-6.827-3.797-9.173-4.309-57.771l-0.512-50.603-54.101-0.683c-51.627-0.683-54.741-0.896-67.797-4.907-41.153-13.22-72.956-44.925-86.051-85.081l-0.264-0.935c-3.627-11.221-3.925-15.275-4.565-66.987l-0.683-55.040h-46.507c-49.451 0-56.875-0.939-67.456-8.491-9.472-6.741-12.885-15.744-12.885-34.176 0-14.123 0.555-17.195 4.267-23.808 4.693-8.405 12.544-14.507 21.973-17.109 3.456-0.981 27.093-1.749 53.547-1.749h47.36v-128h-46.677c-49.579 0-57.003-0.939-67.584-8.491-9.472-6.741-12.885-15.744-12.885-34.176 0-14.123 0.555-17.195 4.267-23.808 4.693-8.405 12.544-14.507 21.973-17.109 3.456-0.981 27.051-1.749 53.419-1.749h47.275l0.597-76.373c0.597-74.368 0.725-76.672 4.565-88.32 13.466-41.127 45.23-72.891 85.414-86.089l0.944-0.268c11.221-3.627 15.275-3.925 66.987-4.565l55.040-0.683v-47.189c0-26.368 0.768-49.963 1.749-53.419 4.565-16.427 16.896-25.472 36.48-26.709 20.693-1.323 34.261 4.651 41.984 18.475 4.224 7.552 4.267 7.851 4.821 58.368l0.512 50.773h170.453v-47.36c0-26.453 0.768-50.091 1.749-53.547 4.565-16.427 16.896-25.472 36.48-26.709 20.693-1.323 34.261 4.651 41.984 18.475 4.224 7.552 4.267 7.851 4.821 58.24l0.512 50.603 54.955 0.683c51.584 0.64 55.637 0.939 66.859 4.565 41.127 13.466 72.891 45.23 86.089 85.414l0.268 0.944c3.84 11.648 3.968 13.952 4.565 88.32l0.597 76.373h47.275c26.368 0 49.963 0.768 53.419 1.749 9.493 2.619 17.237 8.778 21.88 16.932l0.093 0.177c3.712 6.656 4.267 9.643 4.224 23.808-0.043 18.475-3.456 27.52-12.843 34.176-10.581 7.552-18.005 8.491-67.584 8.491h-46.677v128h47.36c26.453 0 50.091 0.768 53.547 1.749 9.493 2.619 17.237 8.778 21.88 16.932l0.093 0.177c3.712 6.656 4.267 9.643 4.224 23.808-0.043 18.475-3.456 27.52-12.843 34.176-10.581 7.552-18.005 8.491-67.456 8.491h-46.507l-0.683 55.040c-0.64 51.712-0.939 55.765-4.565 66.987-13.359 41.092-45.162 72.796-85.379 85.756l-0.935 0.26c-13.056 4.011-16.171 4.224-67.755 4.907l-54.101 0.683-0.512 50.603c-0.555 48.853-0.683 50.901-4.437 57.899-7.040 13.227-23.893 20.48-43.307 18.731-18.56-1.707-31.275-11.221-35.541-26.624-0.981-3.456-1.749-27.093-1.749-53.547v-47.36h-170.453l-0.512 50.773c-0.512 48.683-0.725 51.072-4.352 57.899-2.391 4.254-5.427 7.848-9.021 10.784l-0.067 0.053c-11.264 8.064-30.763 10.624-45.397 6.059zM781.227 744.064c11.904-3.541 23.296-14.933 26.837-26.837 2.261-7.637 2.603-41.003 2.603-269.269 0-215.808-0.384-261.888-2.347-268.331-3.329-10.637-10.321-19.306-19.468-24.721l-0.202-0.111-7.851-4.608h-537.6l-7.851 4.608c-9.034 5.384-15.9 13.602-19.443 23.41l-0.099 0.312c-3.84 10.923-3.712 525.781 0.128 538.709 3.371 11.477 14.976 23.339 26.112 26.752 12.373 3.797 526.379 3.883 539.179 0.085zM367.531 616.235c-9.351-2.542-16.968-8.642-21.456-16.719l-0.090-0.177-3.797-7.125v-288.427l4.267-7.595c4.693-8.405 12.544-14.507 21.973-17.109 8.405-2.347 278.741-2.347 287.147 0 9.493 2.619 17.237 8.778 21.88 16.932l0.093 0.177 4.267 7.595v288.427l-3.797 7.125c-4.523 8.405-11.477 13.739-22.187 16.981-11.179 3.328-277.547 3.243-288.299-0.085zM597.333 448v-85.333h-170.667v170.667h170.667v-85.333z" glyph-name="cpu" unicode=""/><glyph d="M744.533 877.995c-22.829-4.211-42.907-13.848-59.531-27.529l0.225 0.179c-5.632-4.48-132.096-130.133-281.003-279.211-253.269-253.611-270.891-271.616-273.408-279.595-5.888-18.688-45.483-180.395-45.483-185.728 0-15.019 9.131-32.128 20.608-38.571 12.075-6.784 18.688-5.717 112.512 17.707 47.403 11.861 90.027 22.741 94.72 24.235 7.979 2.517 26.027 20.181 280.405 274.261 149.547 149.376 275.413 276.224 279.68 281.856 9.728 12.843 17.792 28.715 22.912 45.227 5.803 18.603 5.845 53.291 0.085 71.595-14.464 46.208-47.957 79.616-92.459 92.203-14.677 4.181-45.227 5.888-59.264 3.371zM788.523 789.376c10.325-5.163 16.469-11.179 21.845-21.376 6.4-12.117 6.315-30.379-0.128-42.667-3.371-6.485-68.011-72.021-269.525-273.28l-265.088-264.747-43.136-10.667c-23.765-5.888-43.648-10.24-44.203-9.685s3.797 20.437 9.685 44.203l10.667 43.136 263.893 264.235c145.152 145.365 266.709 266.069 270.123 268.288s8.789 4.821 11.947 5.76c8.789 2.731 25.216 1.152 33.92-3.2zM495.531 146.901c-9.351-2.542-16.968-8.642-21.456-16.719l-0.090-0.177c-3.157-5.931-3.797-9.856-3.797-23.339 0-14.123 0.555-17.195 4.267-23.808 4.693-8.405 12.544-14.507 21.973-17.109 8.491-2.347 406.656-2.347 415.147 0 9.493 2.619 17.237 8.778 21.88 16.932l0.093 0.177c3.712 6.656 4.267 9.643 4.224 23.808-0.043 18.475-3.456 27.52-12.843 34.176-12.203 8.704-6.485 8.491-221.611 8.363-159.744-0.085-202.155-0.555-207.787-2.304z" glyph-name="edit" unicode=""/><glyph d="M149.291 872.832c-47.744-8.064-86.955-42.88-101.76-90.325l-4.011-12.8v-161.28c0-158.72 0.085-161.664 3.84-185.173 12.885-80.768 42.624-151.723 90.453-215.765 19.371-25.984 65.024-71.637 91.008-91.008 60.322-45.673 133.455-77.676 213.084-90.026l2.681-0.342c34.517-5.376 100.309-5.376 134.827 0 82.311 12.692 155.443 44.695 216.965 91.238l-1.2-0.87c25.984 19.371 71.637 65.024 91.008 91.008 47.829 64.043 77.568 134.997 90.453 215.765 3.755 23.509 3.84 26.453 3.84 185.173v161.28l-4.011 12.8c-13.049 41.546-44.977 73.67-85.467 86.737l-0.933 0.26-13.696 4.309-359.253 0.256c-197.589 0.128-363.136-0.427-367.829-1.237zM866.56 786.731c6.542-2.064 12.108-5.646 16.491-10.346l0.021-0.022c13.781-13.739 13.184-5.632 12.501-175.104-0.725-163.584-0.555-160.853-11.691-205.141-28.876-110.928-103.273-200.547-201.54-249.28l-2.236-1.003c-49.045-24.685-106.888-39.139-168.107-39.139s-119.061 14.454-170.302 40.136l2.195-0.997c-100.503 49.737-174.9 139.355-203.184 247.614l-0.592 2.668c-11.136 44.288-10.965 41.557-11.691 205.141-0.683 169.515-1.28 161.365 12.501 175.147 4.278 4.507 9.567 8.011 15.507 10.152l0.28 0.088c6.827 2.091 57.899 2.475 354.56 2.56 305.536 0.128 347.605-0.171 355.285-2.475zM325.376 574.080c-8.789-4.651-20.48-16.555-25.088-25.557-2.298-4.452-3.645-9.717-3.645-15.297 0-5.613 1.363-10.907 3.777-15.57l-0.089 0.189c5.333-10.624 185.557-190.848 196.181-196.181 4.509-2.32 9.84-3.68 15.488-3.68s10.979 1.36 15.682 3.77l-0.194-0.090c10.624 5.333 190.848 185.557 196.181 196.181 7.509 15.061 3.712 30.635-11.093 45.397-14.507 14.507-30.763 18.389-45.781 10.88-4.651-2.347-33.067-29.44-80.981-77.184l-73.813-73.6-73.813 73.6c-47.915 47.744-76.331 74.837-80.981 77.184-4.653 2.21-10.11 3.501-15.869 3.501-5.794 0-11.283-1.307-16.189-3.641l0.228 0.098z" glyph-name="pocket" unicode=""/><glyph d="M490.624 958.293c-23.219-4.095-43.633-13.978-60.348-28.101l0.188 0.155c-28.544-24.491-43.861-54.571-45.781-89.813-1.621-29.781-5.675-37.035-23.211-41.6-13.355-3.499-19.072-1.579-35.072 11.904-13.458 11.888-29.407 21.32-46.925 27.392l-0.99 0.298c-11.733 3.925-15.787 4.395-38.699 4.437-23.637 0.043-26.667-0.341-39.253-4.693-53.888-18.731-88.149-66.219-88.021-122.112 0.043-30.123 9.856-57.259 29.312-80.981 15.573-19.072 16.896-21.376 16.896-30.677-0.081-10.244-4.661-19.401-11.86-25.605l-0.044-0.037c-5.632-4.736-8.96-5.547-29.568-7.125-52.139-3.968-96.384-39.936-112.384-91.307-5.76-18.517-5.76-53.163 0-71.68 5.291-17.024 13.781-32.811 24.107-44.843 25.429-29.696 54.827-44.757 91.349-46.72 9.387-0.469 19.755-1.707 23.040-2.688 11.819-3.456 18.773-13.269 18.773-26.411 0-9.301-1.28-11.605-16.896-30.677-18.395-21.923-29.569-50.446-29.569-81.577 0-44.573 22.905-83.796 57.586-106.541l0.484-0.298c21.205-13.995 43.52-20.523 70.101-20.48 0.181-0.001 0.394-0.001 0.608-0.001 30.702 0 58.815 11.083 80.557 29.465l-0.184-0.152c19.072 15.573 21.376 16.896 30.677 16.896 15.445 0 29.227-10.837 30.891-24.32 0.469-4.011 1.365-12.928 1.92-19.84 4.139-49.792 40.96-94.037 91.264-109.696 18.517-5.76 53.163-5.76 71.68 0 17.263 5.31 32.217 13.561 45.047 24.272l-0.204-0.166c29.696 25.429 44.757 54.827 46.72 91.349 0.469 9.387 1.707 19.755 2.688 23.040 3.456 11.819 13.269 18.773 26.411 18.773 9.301 0 11.605-1.28 30.677-16.896 21.923-18.395 50.446-29.569 81.577-29.569 44.573 0 83.796 22.905 106.541 57.586l0.298 0.484c13.995 21.205 20.523 43.52 20.48 70.101 0.001 0.181 0.001 0.394 0.001 0.608 0 30.702-11.083 58.815-29.465 80.557l0.152-0.184c-15.616 19.072-16.896 21.376-16.896 30.677 0 13.141 6.955 22.955 18.773 26.411 3.285 0.981 12.928 2.219 21.461 2.731 52.395 3.285 97.451 39.595 113.621 91.52 3.328 10.752 3.968 16.512 3.968 35.84s-0.64 25.088-3.968 35.84c-5.321 17.276-13.571 32.242-24.275 45.093l0.169-0.208c-25.515 29.781-55.083 44.587-93.056 46.677-8.064 0.26-15.742 1.165-23.204 2.667l0.889-0.149c-10.752 3.243-17.792 15.275-17.792 30.336 0 8.917 1.408 11.435 16.896 30.336 43.136 52.608 38.528 128.341-10.581 174.080-13.393 12.535-29.436 22.423-47.18 28.72l-0.948 0.293c-12.587 4.352-15.616 4.736-39.253 4.693-22.912-0.043-26.965-0.512-38.699-4.437-18.508-6.371-34.457-15.802-48.066-27.822l0.152 0.131c-14.165-11.904-21.675-15.104-30.677-13.056-17.195 3.84-22.443 12.587-24.149 40.32-4.012 53.557-40.53 97.616-89.72 112.742l-0.904 0.239c-15.403 4.523-43.904 6.357-58.112 3.797zM525.141 872.107c10.069-2.987 21.632-13.269 25.6-22.741 1.451-3.456 3.285-14.549 4.096-24.704 1.707-21.035 7.211-39.552 16.085-54.187 19.888-33.135 55.626-54.966 96.464-54.966 0.572 0 1.143 0.004 1.713 0.013l-0.086-0.001c28.373 0.171 53.845 10.283 76.8 30.464 14.080 12.416 21.888 15.957 34.987 15.957 0.361 0.012 0.786 0.018 1.213 0.018 22.386 0 40.533-18.147 40.533-40.533 0-0.427-0.007-0.851-0.020-1.275l0.002 0.062c0-13.099-3.541-20.907-15.957-34.987-27.947-31.787-36.949-69.504-26.069-109.611 5.035-18.645 8.917-27.136 18.304-39.851 19.925-26.965 49.963-42.24 88.363-44.971 10.965-0.768 22.741-2.56 26.197-4.011 13.611-5.76 25.301-23.68 25.301-38.827 0-7.467-4.395-19.669-9.429-26.325-8.32-10.88-17.067-14.677-37.931-16.469-32.085-2.773-50.901-9.813-71.339-26.667-49.621-40.917-54.4-113.749-10.709-163.413 13.099-14.933 16.683-22.613 16.683-35.883 0.012-0.361 0.018-0.786 0.018-1.213 0-22.386-18.147-40.533-40.533-40.533-0.427 0-0.851 0.007-1.275 0.020l0.062-0.002c-13.099 0-20.907 3.541-34.987 15.957-13.445 12.065-29.717 21.269-47.684 26.493l-0.87 0.217c-19.115 5.163-47.275 4.224-65.493-2.261-46.037-16.256-73.259-53.376-76.971-104.875-0.811-11.051-2.304-22.272-3.371-24.917-3.157-8.107-10.539-16.469-18.773-21.291-6.656-3.883-9.813-4.608-20.651-4.608s-13.995 0.725-20.651 4.608c-14.080 8.277-22.016 22.741-22.016 40.064 0 5.077-1.237 15.147-2.688 22.4-7.513 34.36-29.848 62.369-59.809 77.443l-0.65 0.296c-20.267 9.771-33.877 13.013-54.827 13.013-28.629 0.043-53.461-9.685-76.587-29.995-14.080-12.416-21.888-15.957-34.987-15.957-0.361-0.012-0.786-0.018-1.213-0.018-22.386 0-40.533 18.147-40.533 40.533 0 0.427 0.007 0.851 0.020 1.275l-0.002-0.062c0 13.099 3.541 20.907 15.957 34.987 44.331 50.389 39.893 123.179-9.984 164.309-20.907 17.237-39.936 24.192-73.131 26.667-16.597 1.237-21.077 2.219-27.307 5.845-12.844 7.387-21.353 21.032-21.353 36.665 0 11.769 4.823 22.412 12.601 30.060l0.006 0.006c8.661 8.661 19.755 12.928 33.536 12.928 4.565 0 14.208 1.237 21.461 2.688 52.053 10.709 91.349 59.819 91.349 114.219 0 28.203-10.197 54.4-29.867 76.757-13.099 14.933-16.683 22.613-16.683 35.883-0.012 0.361-0.018 0.786-0.018 1.213 0 22.386 18.147 40.533 40.533 40.533 0.427 0 0.851-0.007 1.275-0.020l-0.062 0.002c13.099 0 20.907-3.541 34.987-15.957 31.787-27.947 69.504-36.949 109.611-26.069 18.645 5.035 27.136 8.917 39.851 18.304 26.965 19.925 42.24 49.963 44.971 88.363 1.621 23.125 3.968 29.824 13.867 39.424 11.349 11.051 25.856 14.336 42.069 9.515zM484.608 616.064c-48.128-7.509-94.507-38.955-118.997-80.725-15.115-24.93-24.060-55.058-24.060-87.276 0-71.241 43.737-132.266 105.825-157.688l1.136-0.412c18.816-7.796 40.667-12.323 63.576-12.323 71.177 0 132.146 43.702 157.538 105.738l0.411 1.135c7.818 18.775 12.358 40.585 12.358 63.455 0 22.831-4.525 44.604-12.726 64.473l0.411-1.124c-22.511 55.302-71.795 95.49-131.313 104.752l-0.954 0.122c-7.884 1.385-16.962 2.177-26.225 2.177-9.532 0-18.868-0.838-27.939-2.446l0.959 0.141zM534.315 530.219c32.053-9.17 56.102-35.688 61.542-68.492l0.068-0.5c4.267-27.861-4.011-53.035-24.064-73.131-17.109-17.195-36.523-25.429-59.861-25.429-21.973 0-41.045 7.595-57.472 22.827-56.747 52.736-19.797 147.627 57.472 147.627 6.101 0 16.128-1.323 22.315-2.901z" glyph-name="settings" unicode=""/><glyph d="M481.28 915.627c-6.101-0.853-18.389-3.2-27.307-5.248-64.777-15.567-118.781-53.877-154.308-105.823l-0.572-0.886c-11.254-17.367-21.101-37.326-28.53-58.424l-0.611-1.992c-13.099-40.448-13.867-48.299-13.909-135.893l-0.043-73.643-32.853-0.811c-28.288-0.725-34.731-1.408-46.549-4.949-41.461-13.147-73.432-45.245-86.15-85.857l-0.25-0.927-4.011-12.8v-344.747l4.011-12.8c13.117-41.864 45.432-74.179 86.363-87.043l0.933-0.253 12.8-4.011h643.413l12.8 4.011c41.864 13.117 74.179 45.432 87.043 86.363l0.253 0.933 4.011 12.8v344.747l-4.011 12.8c-13.049 41.546-44.977 73.67-85.467 86.737l-0.933 0.26-13.696 4.309-492.373 0.939v70.485c0 57.003 0.512 73.557 2.731 86.571 14.763 86.187 90.624 146.048 178.859 141.013 48.623-2.952 91.329-26.035 120.265-60.946l0.226-0.281c17.621-20.949 25.472-37.589 37.504-79.488 3.968-13.739 11.051-23.381 20.011-27.136 14.72-6.144 41.899-0.469 53.675 11.221 10.411 10.368 12.032 21.248 6.528 44.501-14.848 62.549-50.645 115.029-104.619 153.387-12.288 8.704-49.963 27.221-66.091 32.469-29.141 9.472-80.384 14.336-109.141 10.411zM823.893 445.397c11.904-3.541 23.296-14.933 26.837-26.837 2.261-7.509 2.603-29.824 2.603-162.603 0-166.997 0.213-162.987-9.429-175.659-2.603-3.413-8.277-8.32-12.587-10.837l-7.851-4.608h-622.933l-7.851 4.608c-9.034 5.384-15.9 13.602-19.443 23.41l-0.099 0.312c-3.797 10.837-3.712 312.533 0.128 325.376 3.371 11.477 14.976 23.339 26.112 26.752 12.416 3.797 611.669 3.925 624.512 0.085z" glyph-name="unlock" unicode=""/><glyph d="M623.787 744.704c-10.112-5.163-275.883-271.36-280.789-281.216-2.224-4.524-3.592-9.828-3.753-15.433l-0.001-0.055c0-4.736 1.493-10.923 3.755-15.488 5.333-10.667 270.848-276.181 281.515-281.515 15.061-7.509 30.635-3.669 45.397 11.093 14.805 14.805 18.603 30.336 11.093 45.397-2.688 5.291-38.528 42.368-120.064 124.032l-116.309 116.48 116.309 116.48c81.536 81.664 117.376 118.741 120.064 124.032 7.509 15.061 3.712 30.592-11.093 45.397-14.507 14.507-31.275 18.432-46.123 10.795z" glyph-name="angle-left" unicode=""/><glyph d="M949.961 856.415c-12.147 10.106-26.807 16.73-42.423 19.166-15.612 2.436-31.595 0.593-46.242-5.333l-764.627-308.708c-16.352-6.728-30.271-18.269-39.91-33.091-9.639-14.827-14.542-32.23-14.059-49.903 0.484-17.677 6.332-34.786 16.767-49.062 10.435-14.272 24.965-25.037 41.661-30.861l154.667-53.79 86.208-285.086c1.172-3.806 2.872-7.433 5.051-10.765 0.331-0.512 0.797-0.896 1.149-1.391 2.517-3.516 5.56-6.618 9.021-9.207 0.984-0.751 1.927-1.455 2.979-2.121 4.050-2.688 8.536-4.651 13.258-5.807l0.505-0.043 0.286-0.124c2.839-0.576 5.728-0.87 8.625-0.875 0.279 0 0.526 0.137 0.802 0.141 4.372 0.077 8.705 0.828 12.847 2.231 0.963 0.329 1.789 0.875 2.724 1.271 3.088 1.28 6.014 2.923 8.716 4.89 2.164 1.822 4.329 3.648 6.495 5.47l115.29 127.287 171.959-133.205c15.138-11.789 33.775-18.193 52.958-18.21 20.105 0.026 39.59 6.963 55.185 19.648 15.599 12.685 26.359 30.345 30.485 50.018l139.204 683.375c3.157 15.38 2.069 31.329-3.14 46.14s-14.349 27.927-26.441 37.943zM399.793 331.247c-5.916-5.892-9.96-13.402-11.625-21.581l-13.206-64.171-33.453 110.635 173.452 90.325-115.168-115.209zM754.001 104.956l-203.209 157.419c-8.499 6.571-19.166 9.694-29.867 8.751-10.705-0.939-20.659-5.879-27.883-13.833l-36.924-40.755 13.047 63.42 302.208 302.208c7.215 7.204 11.61 16.753 12.39 26.918s-2.108 20.273-8.137 28.493c-6.029 8.221-14.801 14.010-24.73 16.319-9.933 2.31-20.361 0.986-29.397-3.729l-433.719-225.82-158.906 58.15 767.081 306.878-141.956-684.418z" glyph-name="telegram" unicode=""/><glyph d="M272.213 915.499c-110.805-10.923-199.936-92.117-224.725-204.672l-3.968-17.92v-489.813l3.968-17.92c22.912-104.064 97.621-178.773 201.685-201.685l17.92-3.968h489.813l17.92 3.968c52.224 11.477 93.099 33.28 129.493 69.035 37.163 36.48 60.459 79.275 72.192 132.651l3.968 17.92v489.813l-3.968 17.92c-11.477 52.224-33.28 93.099-69.035 129.493-40.601 41.97-95.652 69.742-157.115 75.279l-0.965 0.070c-19.797 1.92-457.557 1.792-477.184-0.171zM751.147 829.525c62.677-9.472 115.413-54.016 136.192-115.072 8.576-25.259 8.661-27.52 8.661-266.453 0-239.019-0.085-241.323-8.704-266.453-20.267-59.179-68.309-101.675-128.981-114.005-16.981-3.456-21.632-3.541-246.315-3.541s-229.333 0.085-246.315 3.541c-70.212 14.22-124.108 70.173-135.087 140.353l-0.123 0.959c-3.669 24.405-3.669 453.888 0 478.293 10.923 72.405 68.992 131.029 140.8 142.251 22.528 3.499 456.661 3.627 479.872 0.128zM727.125 722.261c-8.363-2.688-18.304-13.227-20.693-22.016-1.067-4.053-1.963-11.947-1.963-17.579 0-15.061 2.987-23.936 10.624-31.573s16.512-10.624 31.573-10.624c14.933 0 24.491 3.115 31.744 10.411 20.437 20.437 12.416 64.64-13.013 71.68-8.491 2.389-30.464 2.176-38.272-0.299zM492.373 661.888c-28.8-3.499-45.44-8.405-71.68-21.077-52.089-25.092-91.479-69.612-109.235-123.918l-0.418-1.479c-7.936-23.979-9.813-36.608-9.771-65.707 0.085-28.331 2.475-43.733 10.581-68.181 17.109-51.584 57.728-98.347 106.155-122.197 27.917-14.22 60.884-22.552 95.797-22.552 49.527 0 95.138 16.767 131.466 44.933l-0.49-0.365c13.227 10.197 35.669 33.877 44.672 47.104 14.549 21.461 27.307 50.987 33.536 77.739 4.48 19.115 4.48 65.579 0 86.187-9.557 43.776-27.008 75.691-58.923 107.733-34.048 34.133-71.637 53.248-118.827 60.331-9.927 1.44-21.39 2.262-33.045 2.262-6.976 0-13.883-0.295-20.71-0.872l0.891 0.061zM549.504 572.544c93.141-26.368 123.136-145.707 53.803-213.931-23.061-22.547-54.647-36.458-89.482-36.458-16.040 0-31.391 2.949-45.541 8.335l0.879-0.294c-51.797 18.859-86.229 71.851-82.773 127.189 1.195 18.603 4.011 29.611 11.904 46.251 14.507 30.464 35.328 50.517 66.773 64.256 23.979 10.453 57.515 12.288 84.437 4.651z" glyph-name="instagram" unicode=""/><glyph d="M675.84 873.643c-36.437-6.656-51.072-11.051-74.24-22.101-48.989-24.039-87.529-63.075-110.323-111.043l-0.61-1.426c-12.16-26.667-21.291-65.237-21.333-90.069v-9.771l-8.107 0.939c-39.424 4.651-79.189 14.165-109.653 26.24-74.155 29.44-134.997 75.733-181.717 138.283-17.152 22.997-25.387 29.013-39.808 29.013-10.667 0-27.349-8.107-34.475-16.768-12.331-14.933-31.317-77.525-40.747-134.272-9.685-58.539-9.131-125.739 1.536-177.835 9.899-48.469 32.043-102.272 57.856-140.501 31.488-46.677 74.624-89.003 124.288-121.941 6.784-4.523 12.373-8.491 12.373-8.832 0-2.56-53.845-22.059-77.653-28.117-34.219-8.747-72.619-13.397-110.933-13.44-15.957 0-31.787-0.811-35.2-1.749-9.683-2.571-17.506-9.068-21.799-17.639l-0.089-0.196c-5.931-11.563-6.187-32.299-0.512-42.965 5.461-10.325 12.373-15.232 43.392-30.805 74.795-37.589 144.171-59.008 225.835-69.76 28.331-3.712 100.352-5.12 130.901-2.56 106.212 8.922 202.557 44.773 284.124 100.629l-2.012-1.301c159.616 108.672 251.648 295.765 251.733 511.616v24.533l7.381 8.747c26.651 31.478 48.387 68.178 63.377 108.175l0.836 2.545c14.208 38.955 17.195 61.227 9.771 73.429-6.016 9.941-17.963 16.981-32.512 19.157-13.013 1.963-20.267-0.427-40.704-13.483-10.581-6.784-26.539-16.256-35.456-21.035-16.171-8.704-47.701-22.699-51.115-22.699-0.981 0-8.832 5.333-17.408 11.861-25.429 19.285-58.283 34.005-93.653 41.899-12.373 2.731-63.616 4.992-73.344 3.243zM730.453 786.859c31.829-6.144 55.168-18.731 80.128-43.136 7.083-6.955 15.872-14.165 19.499-16.043 9.6-5.035 22.528-4.437 41.088 1.835 8.363 2.859 15.531 5.205 15.872 5.205 1.451 0-6.784-10.197-18.773-23.211-18.005-19.541-19.584-24.277-16.725-50.517 2.219-20.992 1.707-47.659-1.792-86.699-16.299-182.229-112.299-331.947-261.803-408.192-28.971-14.763-39.68-19.371-66.944-28.843-36.48-12.629-77.952-21.632-117.376-25.429-25.515-2.475-82.133-2.048-109.227 0.811-28.288 2.987-65.579 9.515-79.232 13.867-1.323 0.427 7.595 4.181 19.883 8.363 45.843 15.611 85.552 35.214 122.138 59.19l-2.031-1.249c18.048 11.819 22.272 16.597 27.221 30.976 4.139 12.032 4.181 19.968 0.128 28.885-4.565 9.984-10.752 14.379-41.643 29.568-93.013 45.611-153.899 107.008-185.557 187.008-22.187 56.107-27.691 129.323-15.36 204.075 5.035 30.592 3.584 29.568 20.523 14.037 38.229-34.987 72.832-59.008 116.864-81.067 49.835-24.96 94.037-38.912 153.429-48.469 20.693-3.328 86.571-5.077 95.915-2.517 9.886 2.463 17.984 8.763 22.776 17.188l0.093 0.178c4.139 7.381 4.309 8.917 5.333 50.261 0.896 35.755 1.664 44.843 4.693 56.107 10.027 37.376 36.821 72.405 69.376 90.709 21.499 12.257 47.241 19.483 74.671 19.483 9.484 0 18.765-0.864 27.771-2.517l-0.938 0.143z" glyph-name="twitter" unicode=""/><glyph d="M671.731 382.75c-12.463 13.478-26.462 25.451-41.707 35.674 61.517 47.561 104.623 114.99 121.975 190.785 1.28 5.478 1.468 11.154 0.546 16.703s-2.931 10.862-5.914 15.631c-2.982 4.77-6.878 8.902-11.465 12.16s-9.771 5.578-15.258 6.825c-5.483 1.247-11.162 1.397-16.704 0.442s-10.842-2.998-15.595-6.010c-4.753-3.011-8.862-6.933-12.092-11.538s-5.517-9.804-6.729-15.297c-8.081-35.455-23.799-68.72-46.059-97.475-22.255-28.757-50.517-52.309-82.816-69.022v156.954c-0.265 3.14-0.887 6.238-1.865 9.234-0.282 2.467-0.777 4.905-1.472 7.289-1.822 3.881-4.22 7.461-7.117 10.62-0.764 0.906-1.148 2.101-1.98 2.94-3.127 2.886-6.665 5.288-10.5 7.128-1.088 0.581-1.899 1.562-3.042 2.048-3.268 1.089-6.656 1.786-10.091 2.076-2.116 0.62-4.284 1.065-6.477 1.331l-28.041 0.087c-9.98 0.048-19.661-3.422-27.337-9.801-7.68-6.379-12.864-15.258-14.647-25.079s-0.047-19.956 4.898-28.626c4.945-8.67 12.787-15.32 22.148-18.784v-208.668c-67.613 70.187-112.383 159.202-128.416 255.33-0.936 5.524-2.95 10.809-5.929 15.554s-6.862 8.857-11.43 12.102c-4.567 3.244-9.729 5.557-15.191 6.807s-11.116 1.411-16.639 0.475c-5.524-0.936-10.809-2.95-15.554-5.929s-8.857-6.862-12.102-11.43c-3.244-4.567-5.557-9.729-6.807-15.191s-1.411-11.116-0.475-16.639c24.934-148.591 107.793-281.22 230.397-368.789 1.745-1.050 3.571-1.967 5.453-2.752 1.476-0.866 3.008-1.638 4.582-2.313 4.766-1.903 9.835-2.927 14.963-3.021 6.276 0.077 12.454 1.562 18.082 4.348 0.427 0.201 0.913 0.107 1.335 0.32 3.772 1.963 7.223 4.484 10.244 7.479 0.606 0.589 1.011 1.314 1.587 1.941 2.752 3.025 5.047 6.434 6.822 10.121 0.593 1.225 1.135 2.394 1.609 3.678 1.877 4.706 2.889 9.715 2.987 14.78l0.021 90.709c26.436-7.761 50.257-22.583 68.894-42.876l70.315-76.663c3.78-4.143 8.346-7.501 13.427-9.877s10.581-3.729 16.183-3.977c5.606-0.252 11.204 0.61 16.478 2.526 5.269 1.92 10.112 4.86 14.246 8.653 4.134 3.789 7.479 8.358 9.847 13.449 2.364 5.086 3.703 10.59 3.938 16.192 0.239 5.606-0.636 11.204-2.564 16.469-1.933 5.269-4.881 10.103-8.683 14.229l-70.289 76.668zM643.106 917.333h-261.773c-262.708 0-338.667-75.875-338.667-338.208v-261.792c0-262.707 75.854-338.667 338.229-338.667h261.771c262.707 0 338.667 75.874 338.667 338.21v261.79c0 262.708-75.853 338.667-338.227 338.667zM896 316.877c0-215.044-37.875-252.877-253.333-252.877h-261.771c-215.084 0-252.896 37.875-252.896 253.333v261.792c0 215.042 37.875 252.875 253.333 252.875h261.773c215.083 0 252.894-37.875 252.894-253.333v-261.79z" glyph-name="vk" unicode=""/><glyph d="M725.333 277.333h-323.84l354.133 353.707c8.034 8.034 12.548 18.931 12.548 30.293s-4.514 22.259-12.548 30.293c-8.034 8.034-18.931 12.548-30.293 12.548s-22.259-4.514-30.293-12.548l-353.707-354.133v323.84c0 11.316-4.495 22.168-12.497 30.17s-18.854 12.497-30.17 12.497c-11.316 0-22.168-4.495-30.17-12.497s-12.497-18.854-12.497-30.17v-426.667c0.067-5.577 1.227-11.085 3.413-16.213 4.329-10.423 12.614-18.709 23.040-23.040 5.129-2.185 10.638-3.345 16.213-3.413h426.667c11.315 0 22.17 4.497 30.17 12.497s12.497 18.854 12.497 30.17c0 11.315-4.497 22.17-12.497 30.17s-18.854 12.497-30.17 12.497z" glyph-name="arrow-down-left" unicode=""/><glyph d="M935.253 677.547c-4.331 10.426-12.617 18.711-23.040 23.040-5.129 2.186-10.637 3.346-16.213 3.413h-213.333c-11.315 0-22.17-4.495-30.17-12.497s-12.497-18.854-12.497-30.17c0-11.316 4.497-22.168 12.497-30.17s18.854-12.497 30.17-12.497h110.507l-238.507-238.507-140.373 140.8c-3.966 3.998-8.685 7.172-13.885 9.34s-10.776 3.281-16.409 3.281c-5.632 0-11.209-1.114-16.409-3.281s-9.918-5.342-13.885-9.34l-256-256c-3.999-3.968-7.173-8.687-9.339-13.884-2.166-5.201-3.281-10.778-3.281-16.41s1.115-11.209 3.281-16.41c2.166-5.197 5.34-9.916 9.339-13.884 3.966-3.998 8.685-7.172 13.885-9.34s10.776-3.281 16.409-3.281c5.632 0 11.209 1.114 16.409 3.281s9.918 5.342 13.885 9.34l225.707 226.133 140.373-140.8c3.968-3.998 8.687-7.172 13.884-9.34 5.201-2.167 10.778-3.281 16.41-3.281s11.209 1.114 16.41 3.281c5.197 2.167 9.916 5.342 13.884 9.34l268.373 268.8v-110.507c0-11.315 4.497-22.17 12.497-30.17s18.854-12.497 30.17-12.497c11.315 0 22.17 4.497 30.17 12.497s12.497 18.854 12.497 30.17v213.333c-0.068 5.576-1.229 11.084-3.413 16.213z" glyph-name="arrow-growth" unicode=""/><glyph d="M588.373 524.373c3.968-3.998 8.687-7.172 13.884-9.34 5.201-2.167 10.778-3.281 16.41-3.281s11.209 1.114 16.41 3.281c5.197 2.167 9.916 5.342 13.884 9.34 3.998 3.968 7.172 8.687 9.34 13.885s3.281 10.776 3.281 16.409-1.114 11.209-3.281 16.409c-2.167 5.199-5.342 9.918-9.34 13.885l-106.667 106.667c-4.058 3.884-8.841 6.929-14.080 8.96-10.389 4.268-22.037 4.268-32.427 0-5.239-2.031-10.022-5.076-14.080-8.96l-106.667-106.667c-8.034-8.034-12.548-18.931-12.548-30.293s4.514-22.259 12.548-30.293c8.034-8.034 18.931-12.548 30.293-12.548s22.259 4.514 30.293 12.548l33.707 34.133v-221.013l-33.707 34.133c-8.034 8.034-18.931 12.548-30.293 12.548s-22.259-4.514-30.293-12.548c-8.034-8.034-12.548-18.931-12.548-30.293s4.514-22.259 12.548-30.293l106.667-106.667c4.058-3.883 8.841-6.929 14.080-8.96 5.107-2.257 10.628-3.422 16.213-3.422s11.106 1.165 16.213 3.422c5.239 2.031 10.022 5.077 14.080 8.96l106.667 106.667c8.034 8.034 12.548 18.931 12.548 30.293s-4.514 22.259-12.548 30.293c-8.034 8.034-18.931 12.548-30.293 12.548s-22.259-4.514-30.293-12.548l-33.707-34.133v221.013l33.707-34.133zM298.667 789.333h426.667c11.315 0 22.17 4.495 30.17 12.497s12.497 18.854 12.497 30.17c0 11.316-4.497 22.168-12.497 30.17s-18.854 12.497-30.17 12.497h-426.667c-11.316 0-22.168-4.495-30.17-12.497s-12.497-18.854-12.497-30.17c0-11.316 4.495-22.168 12.497-30.17s18.854-12.497 30.17-12.497zM725.333 106.667h-426.667c-11.316 0-22.168-4.497-30.17-12.497s-12.497-18.854-12.497-30.17c0-11.315 4.495-22.17 12.497-30.17s18.854-12.497 30.17-12.497h426.667c11.315 0 22.17 4.497 30.17 12.497s12.497 18.854 12.497 30.17c0 11.315-4.497 22.17-12.497 30.17s-18.854 12.497-30.17 12.497z" glyph-name="arrows-shrink" unicode=""/><glyph d="M764.587 677.547c-4.331 10.426-12.617 18.711-23.040 23.040-5.129 2.186-10.637 3.346-16.213 3.413h-426.667c-11.316 0-22.168-4.495-30.17-12.497s-12.497-18.854-12.497-30.17c0-11.316 4.495-22.168 12.497-30.17s18.854-12.497 30.17-12.497h323.84l-354.133-353.707c-3.999-3.968-7.173-8.687-9.339-13.884-2.166-5.201-3.281-10.778-3.281-16.41s1.115-11.209 3.281-16.41c2.166-5.197 5.34-9.916 9.339-13.884 3.966-3.998 8.685-7.172 13.885-9.34s10.776-3.281 16.409-3.281c5.632 0 11.209 1.114 16.409 3.281s9.918 5.342 13.885 9.34l353.707 354.133v-323.84c0-11.315 4.497-22.17 12.497-30.17s18.854-12.497 30.17-12.497c11.315 0 22.17 4.497 30.17 12.497s12.497 18.854 12.497 30.17v426.667c-0.068 5.576-1.229 11.084-3.413 16.213z" glyph-name="arrow-up-right" unicode=""/><glyph d="M341.335 64h-170.668c-11.316 0-22.168 4.495-30.17 12.498-8.002 8-12.497 18.854-12.497 30.17v170.665c0 11.318-4.495 22.17-12.497 30.172-8.002 8-18.854 12.495-30.17 12.495s-22.168-4.495-30.17-12.495c-8.002-8.003-12.497-18.854-12.497-30.172v-170.665c0-33.948 13.486-66.506 37.49-90.511 24.005-24.003 56.562-37.489 90.51-37.489h170.668c11.315 0 22.167 4.495 30.17 12.495 8 8.003 12.495 18.854 12.495 30.17 0 11.318-4.495 22.17-12.495 30.172-8.003 8-18.854 12.495-30.17 12.495zM938.668 320c-11.315 0-22.17-4.495-30.17-12.495-8.003-8.003-12.498-18.854-12.498-30.172v-170.665c0-11.315-4.495-22.17-12.495-30.17-8.003-8.003-18.854-12.498-30.17-12.498h-170.668c-11.315 0-22.17-4.495-30.17-12.495-8.003-8.003-12.498-18.854-12.498-30.172 0-11.315 4.495-22.167 12.498-30.17 8-8 18.854-12.495 30.17-12.495h170.668c33.946 0 66.504 13.486 90.509 37.489 24.005 24.005 37.491 56.563 37.491 90.511v170.665c0 11.318-4.495 22.17-12.498 30.172-8.003 8-18.854 12.495-30.17 12.495zM853.335 917.334h-170.668c-11.315 0-22.17-4.495-30.17-12.497-8.003-8.002-12.498-18.854-12.498-30.17s4.495-22.168 12.498-30.17c8-8.002 18.854-12.497 30.17-12.497h170.668c11.315 0 22.167-4.495 30.17-12.497 8-8.002 12.495-18.854 12.495-30.17v-170.666c0-11.315 4.495-22.17 12.498-30.17 8-8.003 18.854-12.498 30.17-12.498s22.167 4.495 30.17 12.498c8.003 8 12.498 18.854 12.498 30.17v170.666c0 33.948-13.486 66.505-37.491 90.51s-56.563 37.49-90.509 37.49zM85.334 576c11.316 0 22.168 4.495 30.17 12.498 8.002 8 12.497 18.854 12.497 30.17v170.666c0 11.316 4.495 22.168 12.497 30.17s18.854 12.497 30.17 12.497h170.668c11.315 0 22.167 4.495 30.17 12.497 8 8.002 12.495 18.854 12.495 30.17s-4.495 22.168-12.495 30.17c-8.003 8.002-18.854 12.497-30.17 12.497h-170.668c-33.948 0-66.505-13.486-90.51-37.49s-37.49-56.562-37.49-90.51v-170.666c0-11.315 4.495-22.17 12.497-30.17 8.002-8.003 18.854-12.498 30.17-12.498zM426.668 746.667h-170.668c-11.315 0-22.168-4.495-30.169-12.497s-12.497-18.854-12.497-30.17v-170.668c0-11.315 4.495-22.167 12.497-30.17 8.002-8 18.854-12.495 30.169-12.495h170.668c11.315 0 22.167 4.495 30.17 12.495 8.003 8.003 12.498 18.854 12.498 30.17v170.668c0 11.316-4.495 22.168-12.498 30.17s-18.854 12.497-30.17 12.497zM384 576h-85.332v85.332h85.332v-85.332zM597.335 490.668h170.665c11.315 0 22.17 4.495 30.17 12.495 8.003 8.003 12.498 18.854 12.498 30.17v170.668c0 11.316-4.495 22.168-12.498 30.17-8 8.002-18.854 12.497-30.17 12.497h-170.665c-11.318 0-22.17-4.495-30.172-12.497-8-8.002-12.495-18.854-12.495-30.17v-170.668c0-11.315 4.495-22.167 12.495-30.17 8.003-8 18.854-12.495 30.172-12.495zM640 661.332h85.335v-85.332h-85.335v85.332zM426.668 405.332h-170.668c-11.315 0-22.168-4.493-30.169-12.495s-12.497-18.854-12.497-30.17v-170.668c0-11.315 4.495-22.167 12.497-30.17s18.854-12.498 30.169-12.498h170.668c11.315 0 22.167 4.495 30.17 12.498s12.498 18.854 12.498 30.17v170.668c0 11.315-4.495 22.167-12.498 30.17s-18.854 12.495-30.17 12.495zM384 234.668h-85.332v85.332h85.332v-85.332zM597.335 277.332c11.315 0 22.167 4.495 30.17 12.498 8 8.003 12.495 18.854 12.495 30.17 11.315 0 22.17 4.495 30.17 12.498 8.003 8 12.498 18.854 12.498 30.17s-4.495 22.167-12.498 30.17c-8 8.003-18.854 12.495-30.17 12.495h-42.665c-11.318 0-22.17-4.493-30.172-12.495-8-8.003-12.495-18.854-12.495-30.17v-42.668c0-11.315 4.495-22.167 12.495-30.17 8.003-8.003 18.854-12.498 30.172-12.498zM768 405.332c-11.315 0-22.167-4.493-30.17-12.495s-12.495-18.854-12.495-30.17v-128c-11.318 0-22.17-4.495-30.172-12.498-8-8-12.495-18.854-12.495-30.17s4.495-22.167 12.495-30.17c8.003-8.003 18.854-12.498 30.172-12.498h42.665c11.315 0 22.17 4.495 30.17 12.498 8.003 8.003 12.498 18.854 12.498 30.17v170.668c0 11.315-4.495 22.167-12.498 30.17-8 8.003-18.854 12.495-30.17 12.495zM597.335 234.668c-8.44 0-16.689-2.504-23.706-7.191s-12.485-11.351-15.713-19.149c-3.231-7.795-4.076-16.374-2.429-24.65s5.711-15.88 11.676-21.847c5.967-5.967 13.571-10.030 21.847-11.676s16.855-0.801 24.653 2.427c7.795 3.231 14.459 8.699 19.146 15.716 4.69 7.014 7.191 15.265 7.191 23.703 0 11.315-4.495 22.17-12.495 30.17-8.003 8.003-18.854 12.498-30.17 12.498z" glyph-name="qrcode" unicode=""/><glyph d="M750.592 171.008c-74.139-74.219-176.604-120.13-289.792-120.13-226.216 0-409.6 183.384-409.6 409.6s183.384 409.6 409.6 409.6c226.103 0 409.417-183.201 409.6-409.261v-0.017h-102.4c0 0.080 0 0.175 0 0.27 0 169.662-137.538 307.2-307.2 307.2s-307.2-137.538-307.2-307.2c0-169.662 137.538-307.2 307.2-307.2 84.764 0 161.509 34.33 217.091 89.845l-0.003-0.003 72.704-72.704zM614.4 460.8h409.6l-204.8-204.8-204.8 204.8z" glyph-name="reload" unicode=""/><glyph d="M678 212.667h138l-70 186zM790 512.667l192-512h-86l-48 128h-202l-48-128h-86l192 512h86zM550 296.667l-34-88-132 132-214-212-60 60 218 214q-80 88-128 194h86q42-80 98-142 92 102 136 228h-478v86h300v84h84v-84h300v-86h-126q-20-64-66-145t-92-133l-2-2z" glyph-name="translate" unicode=""/><glyph d="M149.291 915.499c-47.787-8.107-86.955-42.88-101.76-90.325l-4.011-12.8v-430.080l4.011-12.8c13.087-41.568 45.014-73.72 85.507-86.863l0.936-0.263c10.496-3.371 16.555-3.925 49.493-4.608 24.448-0.512 40.021-0.128 44.544 1.109 9.878 2.458 17.972 8.741 22.776 17.146l0.093 0.177c3.712 6.656 4.267 9.643 4.224 23.808-0.043 18.261-3.456 27.52-12.501 33.963-9.557 6.784-14.208 7.595-49.749 8.576-34.091 0.939-35.2 1.109-42.837 5.589-4.793 2.951-8.888 6.476-12.356 10.551l-0.060 0.073c-10.069 13.184-9.6 2.603-9.6 217.643 0 222.848-0.811 208.939 12.928 222.677s-0.085 12.928 221.739 12.928 208 0.811 221.739-12.928c11.093-11.093 12.928-18.688 12.928-53.504 0-15.573 0.811-31.061 1.749-34.475 4.565-16.427 16.896-25.472 36.48-26.709 20.693-1.323 34.261 4.651 41.984 18.475 4.224 7.509 4.267 8.021 4.267 48.555 0 38.187-0.256 41.813-4.011 53.76-13.049 41.546-44.977 73.67-85.467 86.737l-0.933 0.26-13.696 4.309-209.92 0.256c-115.456 0.128-213.803-0.427-218.496-1.237zM447.957 616.832c-47.787-8.107-86.955-42.88-101.76-90.325l-4.011-12.8v-430.080l4.011-12.8c13.117-41.864 45.432-74.179 86.363-87.043l0.933-0.253 12.8-4.011h430.080l12.8 4.011c41.864 13.117 74.179 45.432 87.043 86.363l0.253 0.933 4.011 12.8v430.080l-4.011 12.8c-13.049 41.546-44.977 73.67-85.467 86.737l-0.933 0.26-13.696 4.309-209.92 0.256c-115.456 0.128-213.803-0.427-218.496-1.237zM866.56 530.731c11.904-3.541 23.296-14.933 26.837-26.837 2.261-7.595 2.603-34.304 2.603-205.269 0-213.333 0.341-205.525-9.429-218.325-2.603-3.413-8.277-8.32-12.587-10.837l-7.851-4.608h-409.6l-7.851 4.608c-9.034 5.384-15.9 13.602-19.443 23.41l-0.099 0.312c-3.797 10.88-3.712 397.824 0.128 410.709 3.371 11.477 14.976 23.339 26.112 26.752 12.331 3.797 398.421 3.883 411.179 0.085z" glyph-name="copy" unicode=""/><glyph d="M740.608 914.731c-48.128-7.509-94.507-38.955-118.997-80.725-21.248-36.267-29.056-79.915-21.12-118.656 3.072-15.061 3.072-15.061-0.469-17.323-10.027-6.272-221.013-128.853-221.867-128.853-0.555 0-7.339 4.992-15.061 11.136-22.453 18.211-50.060 30.944-80.306 35.755l-0.974 0.128c-7.761 1.466-16.689 2.304-25.813 2.304s-18.052-0.838-26.712-2.442l0.898 0.138c-95.573-14.421-160.555-106.88-141.312-201.173 11.454-57.317 50.552-103.496 102.504-124.648l1.134-0.408c18.786-7.813 40.607-12.351 63.488-12.351s44.702 4.538 64.613 12.763l-1.125-0.411c17.963 7.253 29.397 14.080 45.184 26.923 6.699 5.461 12.715 9.941 13.355 9.941 0.939 0 210.987-121.941 221.995-128.853 3.541-2.261 3.541-2.261 0.469-17.323-13.867-67.84 19.157-141.099 80.299-177.92 25.069-14.876 55.262-23.668 87.509-23.668 11.316 0 22.379 1.083 33.091 3.15l-1.091-0.175c69.419 14.165 120.832 65.579 134.997 134.997 1.997 9.725 3.141 20.903 3.141 32.348 0 22.806-4.54 44.552-12.766 64.383l0.41-1.115c-22.511 55.302-71.795 95.49-131.313 104.752l-0.954 0.122c-7.761 1.466-16.689 2.304-25.813 2.304s-18.052-0.838-26.712-2.442l0.898 0.138c-31.22-4.938-58.827-17.671-81.599-36.133l0.319 0.251c-4.372-3.665-9.225-7.325-14.262-10.735l-0.629-0.401c-0.768 0-213.333 123.392-222.037 128.853-3.541 2.261-3.541 2.261-0.469 17.323 1.886 9.443 2.966 20.3 2.966 31.408 0 11.028-1.064 21.808-3.094 32.242l0.172-1.058-3.115 15.019 19.755 11.605c71.125 41.813 205.056 119.595 205.909 119.595 0.555 0 6.528-4.48 13.227-9.941 15.787-12.843 27.221-19.669 45.184-26.923 18.816-7.796 40.667-12.323 63.576-12.323 71.177 0 132.146 43.702 157.538 105.738l0.411 1.135c7.818 18.775 12.358 40.585 12.358 63.455 0 22.831-4.525 44.604-12.726 64.473l0.411-1.124c-22.511 55.302-71.795 95.49-131.313 104.752l-0.954 0.122c-7.884 1.385-16.962 2.177-26.225 2.177-9.532 0-18.868-0.838-27.939-2.446l0.959 0.141zM790.315 828.885c32.053-9.17 56.102-35.688 61.542-68.492l0.068-0.5c4.267-27.861-4.011-53.035-24.064-73.131-17.109-17.195-36.523-25.429-59.861-25.429-31.196 0.092-58.432 16.96-73.17 42.054l-0.217 0.4c-38.571 65.067 22.059 144.299 95.701 125.099zM278.315 530.219c50.731-13.269 77.483-72.533 54.101-119.765-6.784-13.611-24.32-31.915-36.736-38.187-11.397-6.13-24.939-9.732-39.323-9.732-22.406 0-42.77 8.74-57.87 22.997l0.041-0.038c-56.747 52.736-19.797 147.627 57.472 147.627 6.101 0 16.128-1.323 22.315-2.901zM790.315 231.552c32.053-9.17 56.102-35.688 61.542-68.492l0.068-0.5c4.267-27.861-4.011-53.035-24.064-73.131-17.109-17.195-36.523-25.429-59.861-25.429-21.973 0-41.045 7.595-57.472 22.827-29.781 27.691-36.352 70.912-16 105.216 14.985 25.561 42.322 42.453 73.605 42.453 7.89 0 15.529-1.075 22.779-3.085l-0.598 0.141z" glyph-name="share" unicode=""/><glyph d="M481.28 916.352l-23.893-2.56c-80.64-8.576-159.872-40.405-228.651-91.904-23.893-17.877-58.112-50.731-79.659-76.416-6.013-7.408-11.803-13.982-17.837-20.32l0.131 0.138c-1.969-2.076-3.591-4.505-4.759-7.178l-0.063-0.161c-1.749-3.456-8.405-14.72-14.805-25.045-67.797-109.355-86.955-248.491-51.285-372.48 23.168-80.469 60.672-143.915 120.363-203.648 70.827-70.869 149.589-112.043 251.691-131.499 47.531-9.045 110.848-8.619 164.096 1.152 71.467 13.099 138.667 42.667 198.571 87.381 25.984 19.371 71.637 65.024 91.008 91.008 95.829 128.384 120.96 291.84 67.755 440.491-0.67 0.679-4.164 10.605-7.543 20.585l-2.74 9.324c-1.877 5.845-4.139 11.093-5.077 11.648-0.939 0.597-4.693 6.955-8.32 14.165-14.203 26.907-28.82 49.855-45.060 71.517l0.985-1.373c-19.371 25.941-64.981 71.552-90.88 90.795-68.053 50.603-139.733 80-222.592 91.264-18.048 2.475-78.891 4.523-91.435 3.115zM568.32 827.691c106.387-16.475 196.828-74.318 255.943-156.258l0.782-1.139 6.443-8.96h-163.243c-167.595 0-184.277-0.555-209.152-6.912-58.496-14.933-113.92-59.691-137.685-111.189-2.517-5.461-4.992-9.899-5.547-9.856-0.768 0-93.611 159.445-95.317 163.755-0.853 2.133 34.261 36.523 50.816 49.792 55.381 44.373 122.795 73.131 191.147 81.536 25.216 3.115 27.52 3.243 58.027 2.56 16.427-0.341 37.931-1.835 47.787-3.328zM247.253 479.573c42.24-73.216 80.896-139.563 85.888-147.413 18.517-29.269 49.237-56.96 81.28-73.301 33.536-17.109 59.221-23.296 96.853-23.339h25.728l-5.504-9.387-46.72-81.067c-23.481-42.047-37.647-65.95-52.071-89.679l9.319 16.506c-2.048-2.091-24.021 3.072-52.053 12.203-34.275 12.151-63.859 26.813-91.33 44.476l1.73-1.041c-80.341 53.845-138.624 136.491-160.981 228.309-7.936 32.555-10.411 54.272-10.411 92.16 0 37.845 2.475 59.605 10.368 92.16 7.979 32.768 26.667 80.171 29.568 75.093l78.336-135.68zM548.736 570.496c41.158-12.908 72.943-44.637 85.679-84.841l0.251-0.919c5.931-19.584 6.101-51.883 0.384-72.235-11.435-40.491-45.397-74.624-87.211-87.637-18.517-5.76-53.163-5.76-71.68 0-41.856 13.013-75.819 47.232-87.296 87.936-5.632 20.053-5.419 52.48 0.469 71.936 14.554 46.192 53.008 80.736 100.495 89.436l0.796 0.121c14.208 2.56 42.709 0.725 58.112-3.797zM877.44 566.016c11.861-34.816 17.579-73.301 17.579-118.016 0-63.701-10.965-111.829-38.272-168.107-30.080-62.037-75.477-113.792-134.528-153.259-35.627-23.808-89.984-46.080-133.803-54.827-18.56-3.712-50.816-7.936-50.816-6.656 0 0.256 35.797 62.464 79.531 138.24 3.286 2.052 31.789 51.29 59.884 100.789l26.047 49.867c15.403 30.72 21.419 57.173 21.419 93.952 0 28.587-2.475 44.501-10.581 68.267-6.894 19.092-15.198 35.568-25.186 50.844l0.567-0.924-6.656 9.856 191.701-0.896 3.115-9.131z" glyph-name="chrome" unicode=""/><glyph d="M874.854 288.273c-26.108 11.166-48.341 29.773-63.936 53.504-15.59 23.727-23.842 51.524-23.731 79.915 0.337 25.344 7.125 50.185 19.721 72.179 12.599 21.99 30.592 40.415 52.279 53.529 4.907 3.032 9.148 7.028 12.467 11.747s5.645 10.060 6.844 15.704c1.195 5.644 1.233 11.471 0.111 17.129-1.118 5.659-3.375 11.031-6.63 15.793-19.499 28.353-44.915 52.138-74.5 69.712s-62.63 28.519-96.853 32.079c31.855 50.554 46.31 110.136 41.165 169.667-1.003 10.81-6.157 20.811-14.374 27.903-8.222 7.093-18.867 10.727-29.709 10.138-73.259-6.53-141.175-41.083-189.581-96.458-30.69-35.558-52.343-77.995-63.125-123.708-22.281 7.54-45.607 11.533-69.126 11.833-43.542-1.234-86.026-13.698-123.334-36.182s-68.173-54.227-89.603-92.15c-80.542-139.831-31.271-349.376 55.979-475.499 35-50.543 87.521-126.417 166.75-126.417 1.562 0 3.146 0 4.729 0.085 26.546 1.506 52.537 8.23 76.481 19.789 19.123 9.698 40.226 14.857 61.666 15.087 20.16-0.247 39.991-5.184 57.916-14.417 26.193-12.395 54.737-19.029 83.708-19.46 81.626 1.545 129.835 71.957 165.043 123.418 27.78 40.875 49.519 85.542 64.542 132.625 3.2 10.27 2.419 21.372-2.197 31.095-4.612 9.719-12.719 17.344-22.699 21.359zM572.727 765.106c22.409 25.067 50.492 44.41 81.899 56.416-6.874-33.802-22.076-65.353-44.233-91.791-15.036-18.043-33.335-33.097-53.935-44.377l-0.124-0.043c-1.212-0.5-2.419-0.958-3.627-1.458-7.962-3.125-17.792-7-25.378-9.5 7.326 33.565 22.929 64.763 45.397 90.752zM764.791 151.356c-34.291-50.082-61.269-85.623-96.188-86.251-16.879 0.055-33.476 4.339-48.273 12.459-28.599 13.939-59.972 21.257-91.789 21.419-32.922-0.166-65.399-7.637-95.083-21.875-14.434-7.369-30.18-11.814-46.335-13.082h-1.271c-34.688 0-72 53.875-96.771 89.668-61.979 89.583-119.146 268.083-52.187 384.332 14.041 25.156 34.346 46.255 58.945 61.25s52.657 23.376 81.45 24.331l1.437 0.043c24.289-2.064 48.007-8.486 70.023-18.959 5.602-2.208 11.123-4.416 16.602-6.458 1.395-0.584 2.833-1.125 4.292-1.583 15.185-6.107 31.313-9.533 47.667-10.125 23.155 1.84 45.777 7.928 66.731 17.958 29.534 14.335 62.003 21.596 94.831 21.208 35.119-1.374 68.826-14.159 96.021-36.417-23.241-21.413-41.745-47.451-54.323-76.442-12.578-28.992-18.957-60.292-18.718-91.891v-0.043c-0.239-38.255 9.229-75.947 27.516-109.551 18.291-33.6 44.809-62.012 77.069-82.573-11.234-27.149-25.186-53.086-41.647-77.419z" glyph-name="apple" unicode=""/><glyph d="M892.535 505.472c-13.414 7.249-128.457 74-171.622 99.124l-0.128 0.085-522.874 301.873c-8.908 5.438-18.896 8.864-29.267 10.038s-20.872 0.068-30.77-3.241c-1.117-0.401-2.167-0.805-3.252-1.302-2.521-0.822-4.986-1.808-7.377-2.953-9.997-5.975-18.199-14.535-23.742-24.779s-8.223-21.792-7.758-33.43v-810.043c-0.317-10.842 2.251-21.572 7.441-31.095 5.19-9.527 12.817-17.502 22.1-23.113 2.141-1.045 4.347-1.954 6.604-2.718 1.234-0.572 2.411-1.067 3.685-1.515 6.11-2.214 12.546-3.405 19.044-3.516 12.48 0.132 24.706 3.537 35.459 9.873 16.583 9.626 530.707 306.462 530.707 306.462l171.541 99.038c10.607 5.316 19.558 13.427 25.89 23.458s9.796 21.602 10.027 33.459c-0.521 11.426-4.113 22.498-10.398 32.051s-15.027 17.237-25.31 22.242zM181.078 113.536v671.451l338.777-335.319-338.777-336.132zM395.179 205.769l185.322 183.872 49.050-48.546c-53.961-31.155-145.122-83.797-234.372-135.33v0.004zM580.429 509.769l-187.642 185.726 236.956-136.802-49.314-48.924zM706.159 385.323l-65.084 64.418 65.182 64.674c30.733-17.847 78.63-45.628 111.612-64.61l-111.71-64.482z" glyph-name="google-play" unicode=""/><glyph d="M810.667 661.333h-42.667v42.667c0 33.948-13.487 66.505-37.491 90.51s-56.563 37.49-90.509 37.49h-426.667c-33.948 0-66.505-13.486-90.51-37.49s-37.49-56.562-37.49-90.51v-512c0-33.946 13.486-66.505 37.49-90.509s56.562-37.491 90.51-37.491h597.333c33.946 0 66.505 13.487 90.509 37.491s37.491 56.563 37.491 90.509v341.333c0 33.948-13.487 66.505-37.491 90.51s-56.563 37.49-90.509 37.49zM213.333 746.667h426.667c11.315 0 22.17-4.495 30.17-12.497s12.497-18.854 12.497-30.17v-42.667h-469.333c-11.316 0-22.168 4.495-30.17 12.497s-12.497 18.854-12.497 30.17c0 11.316 4.495 22.168 12.497 30.17s18.854 12.497 30.17 12.497zM853.333 320h-42.667c-11.315 0-22.17 4.497-30.17 12.497s-12.497 18.854-12.497 30.17c0 11.315 4.497 22.17 12.497 30.17s18.854 12.497 30.17 12.497h42.667v-85.333zM853.333 490.667h-42.667c-33.946 0-66.505-13.487-90.509-37.491s-37.491-56.563-37.491-90.509c0-33.946 13.487-66.505 37.491-90.509s56.563-37.491 90.509-37.491h42.667v-42.667c0-11.315-4.497-22.17-12.497-30.17s-18.854-12.497-30.17-12.497h-597.333c-11.316 0-22.168 4.497-30.17 12.497s-12.497 18.854-12.497 30.17v391.253c13.708-4.822 28.136-7.275 42.667-7.253h597.333c11.315 0 22.17-4.495 30.17-12.497s12.497-18.854 12.497-30.17v-42.667z" glyph-name="wallet" unicode=""/><glyph d="M233.882 923.904c-58.261-10.507-103.342-56.349-112.587-114.155l-0.104-0.789c-1.28-8.294-1.69-121.6-1.331-368.64l0.461-356.71 3.942-12.8c14.746-48.026 49.152-82.074 96.973-95.949l13.414-3.891h554.701l13.414 3.891c47.872 13.875 82.022 47.718 96.973 96.102l3.891 12.646 0.512 272.23c0.461 268.339 0.41 272.384-2.97 283.494-2.816 9.37-4.762 12.39-11.315 17.92-10.291 8.653-245.248 243.61-253.901 253.901-5.478 6.502-8.602 8.499-17.715 11.315-10.752 3.328-15.565 3.379-193.024 3.174-100.096-0.102-186.214-0.87-191.334-1.741zM546.509 712.96c0.563-123.546 0.102-119.245 12.8-132.198 12.39-12.698 8.55-12.339 132.352-12.902l110.541-0.512-0.922-471.757-4.045-6.554c-3.016-4.343-6.649-8.009-10.82-10.967l-0.137-0.092-6.912-4.608h-535.040l-7.27 5.12c-4.53 3.451-8.277 7.672-11.104 12.496l-0.109 0.201-3.994 7.526 0.41 351.13 0.461 351.13 5.12 7.27c3.448 4.533 7.648 8.293 12.447 11.154l0.199 0.11 7.526 3.942h297.984l0.512-110.49zM689.51 709.99l40.038-40.141h-80.998v40.141c0 22.067 0.205 40.090 0.41 40.090 0.256 0 18.483-18.022 40.55-40.090zM323.43 624.64c-2.396-0.772-5.713-1.638-9.081-2.364l-0.801-0.145c-3.369-2.030-6.277-4.352-8.847-7.003l-0.011-0.011c-10.24-9.421-13.773-19.866-13.568-39.987 0.205-18.33 3.379-28.058 12.186-37.069 11.469-11.725 15.923-12.39 80.691-12.39s69.222 0.666 80.691 12.39c8.806 9.011 11.981 18.739 12.186 37.069 0.154 19.046-3.328 30.157-12.288 38.861-11.93 11.674-15.002 12.186-77.158 12.646-43.776 0.358-57.293-0.051-64-1.997zM323.43 453.939c-2.298-0.721-5.617-1.57-8.981-2.295l-0.901-0.163c-3.36-2.053-6.265-4.372-8.851-7.007l-0.007-0.007c-10.24-9.421-13.773-19.866-13.568-39.987 0.205-18.381 3.379-28.058 12.186-37.069 12.8-13.107 0.922-12.442 208.691-12.442s195.891-0.666 208.691 12.442c8.806 9.011 11.981 18.688 12.186 37.069 0.154 18.995-3.328 30.157-12.288 38.861-13.466 13.158 0.256 12.288-205.158 12.646-152.781 0.307-184.934-0.051-192-2.048zM323.43 283.29c-2.46-0.784-5.779-1.634-9.154-2.332l-0.728-0.126c-3.355-2.080-6.259-4.414-8.85-7.058l-0.008-0.008c-10.24-9.421-13.773-19.814-13.568-39.936 0.205-18.381 3.379-28.109 12.186-37.12 12.8-13.107 0.922-12.39 208.691-12.39s195.891-0.717 208.691 12.39c8.806 9.011 11.981 18.739 12.186 37.12 0.154 18.995-3.328 30.106-12.288 38.861-13.466 13.107 0.256 12.288-205.158 12.646-152.781 0.256-184.934-0.051-192-2.048z" glyph-name="file-text" unicode=""/><glyph d="M479.59 924.877c-97.536-8.448-180.582-39.526-255.898-95.898-26.010-19.456-73.216-66.662-92.672-92.672-50.227-67.123-80.333-140.442-92.826-225.997-4.198-28.672-4.198-95.949 0-124.621 12.493-85.555 42.598-158.874 92.826-225.997 19.456-26.010 66.662-73.216 92.672-92.672 65.056-49.354 144.651-82.916 231.334-93.564l2.343-0.235c23.091-2.816 86.17-2.816 109.261 0 89.026 10.883 168.621 44.444 234.883 94.675l-1.206-0.876c26.010 19.456 73.216 66.662 92.672 92.672 49.354 65.056 82.916 144.651 93.564 231.334l0.235 2.343c2.816 23.091 2.816 86.17 0 109.261-10.883 89.026-44.444 168.621-94.675 234.883l0.876-1.206c-19.456 26.010-66.662 73.216-92.672 92.672-62.783 47.757-139.298 80.726-222.651 92.333l-2.527 0.288c-18.637 2.611-79.104 4.659-95.539 3.277zM554.701 820.89c29.030-3.482 49.152-7.936 76.595-17.101 96.291-33.054 173.208-101.246 216.923-188.898l0.985-2.181c24.075-48.076 38.168-104.747 38.168-164.71s-14.093-116.634-39.148-166.881l0.98 2.171c-62.553-125.602-189.935-210.444-337.163-210.739h-0.040c-39.68 0-77.619 6.144-116.787 18.944-97.461 32.56-175.385 101.171-219.434 189.616l-0.982 2.179c-24.083 48.030-38.181 104.654-38.181 164.571 0 60.689 14.464 118 40.134 168.672l-0.98-2.133c56.137 111.683 163.281 190.535 290.005 206.303l1.835 0.186c13.063 1.467 28.207 2.304 43.546 2.304s30.483-0.837 45.387-2.467l-1.842 0.164zM323.43 496.64c-2.396-0.772-5.713-1.638-9.081-2.364l-0.801-0.145c-3.369-2.030-6.277-4.352-8.847-7.003l-0.011-0.011c-10.24-9.421-13.773-19.866-13.568-39.987 0.205-18.33 3.379-28.058 12.186-37.069 12.8-13.107 0.922-12.39 208.691-12.39s195.891-0.717 208.691 12.39c8.806 9.011 11.981 18.739 12.186 37.069 0.154 19.046-3.328 30.157-12.288 38.861-13.466 13.158 0.256 12.339-205.158 12.698-152.781 0.256-184.934-0.102-192-2.048z" glyph-name="minus-circle" unicode=""/><glyph d="M149.453 744.858c-43.418-7.322-82.995-39.731-98.15-80.333-8.704-23.245-8.55-20.122-8.602-216.166-0.051-200.653-0.307-195.072 10.138-220.365 6.554-15.872 14.694-27.853 27.648-40.858 18.534-18.534 39.629-29.85 65.485-35.226 18.739-3.84 713.779-3.84 732.109 0 50.853 10.47 90.241 49.892 100.517 99.933l0.142 0.829c3.891 18.893 3.891 371.763 0 390.656-8.024 40.118-34.161 72.831-69.335 89.733l-0.758 0.328c-28.262 13.568 10.086 12.339-391.526 12.646-197.581 0.154-363.059-0.358-367.667-1.178zM867.84 658.483c6.005-2.314 11.137-5.669 15.417-9.887l-0.005 0.005c13.517-13.517 12.749-1.741 12.749-199.731 0-198.502 0.666-188.058-12.595-201.318-14.080-14.029 19.098-12.902-371.405-12.902-390.144 0-357.376-1.126-371.251 12.749-13.517 13.517-12.749 1.638-12.749 200.602 0 199.014-0.768 187.085 12.8 200.602 13.517 13.568-18.842 12.442 370.483 12.595 319.898 0.102 348.928-0.102 356.557-2.714zM487.27 573.44c-50.595-10.567-89.81-49.662-100.406-99.354l-0.151-0.845c-1.583-7.554-2.49-16.235-2.49-25.128 0-44.094 22.287-82.983 56.212-106.016l0.448-0.287c20.001-13.463 44.635-21.488 71.143-21.488 26.443 0 51.021 7.986 71.452 21.679l-0.464-0.293c66.662 45.312 76.288 139.878 19.968 195.533-15.956 15.969-35.86 27.99-58.124 34.474l-0.961 0.24c-13.363 3.686-42.445 4.403-56.627 1.485zM240.794 487.731c-17.050-6.042-28.877-25.446-26.931-44.288 3.635-35.328 46.899-50.534 72.038-25.344 32.102 32.102-2.048 84.838-45.107 69.632zM531.302 485.734c13.697-7.254 22.87-21.418 22.87-37.724 0-3.344-0.386-6.598-1.115-9.719l0.057 0.288c-4.402-18.959-21.15-32.873-41.147-32.873-11.719 0-22.321 4.778-29.966 12.492l-0.003 0.003c-7.408 7.791-12.129 18.198-12.643 29.7l-0.004 0.099c0 16.333 12.39 34.355 27.443 39.834 4.343 1.428 9.342 2.252 14.534 2.252 7.243 0 14.112-1.603 20.27-4.475l-0.295 0.124zM752.794 487.731c-15.053-5.325-27.443-23.245-27.443-39.731 0-22.477 20.173-42.65 42.65-42.65 11.672 0.398 22.154 5.188 29.91 12.758l-0.009-0.009c32.102 32.102-2.048 84.838-45.107 69.632z" glyph-name="money" unicode=""/><glyph d="M495.531 872.235c-9.351-2.542-16.968-8.642-21.456-16.719l-0.090-0.177-3.797-7.125-0.469-212.395-0.427-212.437-73.813 73.557c-47.872 47.744-76.288 74.837-80.939 77.184-15.019 7.509-31.275 3.627-45.781-10.88-14.805-14.805-18.603-30.336-11.051-45.397 2.603-5.248 36.565-40.533 110.677-115.115 58.795-59.179 108.373-109.781 110.165-112.427 4.352-6.571 23.253-15.061 33.451-15.061s29.099 8.491 33.451 15.061c1.792 2.645 51.371 53.248 110.165 112.427 74.112 74.581 108.075 109.867 110.677 115.115 7.552 15.061 3.755 30.592-11.051 45.397-14.507 14.507-30.763 18.389-45.781 10.88-4.651-2.347-33.067-29.44-80.939-77.184l-73.771-73.515-0.939 424.789-3.797 7.125c-2.391 4.254-5.427 7.848-9.021 10.784l-0.067 0.053c-11.264 8.064-30.763 10.624-45.397 6.059zM111.531 360.235c-9.351-2.542-16.968-8.642-21.456-16.719l-0.090-0.177-3.797-7.125v-209.92l4.011-12.8c7.851-25.173 21.12-44.928 42.453-63.189 12.032-10.325 27.776-18.816 44.843-24.107l12.8-4.011h643.413l12.8 4.011c41.864 13.117 74.179 45.432 87.043 86.363l0.253 0.933 4.011 12.8v209.92l-3.883 7.253c-7.040 13.227-23.893 20.48-43.307 18.731-18.56-1.707-31.275-11.221-35.541-26.624-1.067-3.797-1.749-41.941-1.749-98.517 0-100.181-0.128-101.888-9.429-114.091-2.603-3.413-8.277-8.32-12.587-10.837l-7.851-4.608h-622.933l-7.851 4.608c-8.3 5.091-14.83 12.349-18.903 20.992l-0.126 0.298c-1.579 3.584-2.347 29.867-2.987 103.808-0.853 98.304-0.896 99.029-4.651 106.112-2.391 4.254-5.427 7.848-9.021 10.784l-0.067 0.053c-11.264 8.064-30.763 10.624-45.397 6.059z" glyph-name="download" unicode="􏿿"/></font>
</defs>
</svg>
