<svg xmlns="http://www.w3.org/2000/svg" width="116" height="116" fill="none" viewBox="0 0 116 116"><path fill="#fff" d="M116 0H0V116H116V0Z"/><path fill="#020E21" d="M10.7027 8V8C9.21004 8 8 9.21004 8 10.7027V10.7027H10.7027V8Z"/><path fill="#020E21" d="M13.4054 8H10.7027V10.7027H13.4054V8Z"/><path fill="#020E21" d="M16.1081 8H13.4054V10.7027H16.1081V8Z"/><path fill="#020E21" d="M18.8108 8H16.1081V10.7027H18.8108V8Z"/><path fill="#020E21" d="M21.5135 8H18.8108V10.7027H21.5135V8Z"/><path fill="#020E21" d="M24.2162 8H21.5135V10.7027H24.2162V8Z"/><path fill="#020E21" d="M26.9189 10.7027C26.9189 9.21004 25.7089 8 24.2162 8V8V10.7027H26.9189V10.7027Z"/><path fill="#020E21" d="M32.3243 9.35135C32.3243 8.60502 31.7193 8 30.973 8V8C30.2266 8 29.6216 8.60502 29.6216 9.35135V9.35135C29.6216 10.0977 30.2266 10.7027 30.973 10.7027V10.7027C31.7193 10.7027 32.3243 10.0977 32.3243 9.35135V9.35135Z"/><path fill="#020E21" d="M37.7297 8V8C36.2371 8 35.027 9.21004 35.027 10.7027V10.7027H37.7297V8Z"/><path fill="#020E21" d="M40.4324 10.7027C40.4324 9.21004 39.2224 8 37.7297 8V8V10.7027H40.4324V10.7027Z"/><path fill="#020E21" d="M48.5405 9.35135C48.5405 8.60502 47.9355 8 47.1892 8V8C46.4429 8 45.8378 8.60502 45.8378 9.35135V10.7027H47.1892C47.9355 10.7027 48.5405 10.0977 48.5405 9.35135V9.35135Z"/><path fill="#020E21" d="M53.9459 8H52.5946C51.8483 8 51.2432 8.60502 51.2432 9.35135V9.35135C51.2432 10.0977 51.8483 10.7027 52.5946 10.7027H53.9459V8Z"/><path fill="#020E21" d="M56.6487 9.35135C56.6487 8.60502 56.0436 8 55.2973 8H53.9459V10.7027H55.2973C56.0436 10.7027 56.6487 10.0977 56.6487 9.35135V9.35135Z"/><path fill="#020E21" d="M62.0541 9.35135C62.0541 8.60502 61.449 8 60.7027 8V8C59.9564 8 59.3514 8.60502 59.3514 9.35135V9.35135C59.3514 10.0977 59.9564 10.7027 60.7027 10.7027H62.0541V9.35135Z"/><path fill="#020E21" d="M67.4595 9.35135C67.4595 8.60502 66.8544 8 66.1081 8V8C65.3618 8 64.7568 8.60502 64.7568 9.35135V10.7027H67.4595V9.35135Z"/><path fill="#020E21" d="M72.8649 9.35135C72.8649 8.60502 72.2598 8 71.5135 8V8C70.7672 8 70.1622 8.60502 70.1622 9.35135V10.7027H72.8649V9.35135Z"/><path fill="#020E21" d="M78.2703 9.35135C78.2703 8.60502 77.6653 8 76.9189 8V8C76.1726 8 75.5676 8.60502 75.5676 9.35135V10.7027H78.2703V9.35135Z"/><path fill="#020E21" d="M86.3784 9.35135C86.3784 8.60502 85.7734 8 85.027 8V8C84.2807 8 83.6757 8.60502 83.6757 9.35135V10.7027H86.3784V9.35135Z"/><path fill="#020E21" d="M91.7838 8V8C90.2911 8 89.0811 9.21004 89.0811 10.7027V10.7027H91.7838V8Z"/><path fill="#020E21" d="M94.4865 8H91.7838V10.7027H94.4865V8Z"/><path fill="#020E21" d="M97.1892 8H94.4865V10.7027H97.1892V8Z"/><path fill="#020E21" d="M99.8919 8H97.1892V10.7027H99.8919V8Z"/><path fill="#020E21" d="M102.595 8H99.8919V10.7027H102.595V8Z"/><path fill="#020E21" d="M105.297 8H102.595V10.7027H105.297V8Z"/><path fill="#020E21" d="M108 10.7027C108 9.21004 106.79 8 105.297 8V8V10.7027H108V10.7027Z"/><path fill="#020E21" d="M10.7027 10.7027H8V13.4054H10.7027V10.7027Z"/><path fill="#020E21" d="M26.9189 10.7027H24.2162V13.4054H26.9189V10.7027Z"/><path fill="#020E21" d="M37.7297 10.7027H35.027V13.4054H37.7297V10.7027Z"/><path fill="#020E21" d="M40.4324 10.7027H37.7297V13.4054H40.4324V10.7027Z"/><path fill="#020E21" d="M45.8378 10.7027V10.7027C44.3452 10.7027 43.1351 11.9127 43.1351 13.4054V13.4054H45.8378V10.7027Z"/><path fill="#020E21" d="M64.7568 10.7027H62.0541V13.4054H64.7568V10.7027Z"/><path fill="#020E21" d="M67.4595 10.7027H64.7568V13.4054H67.4595V10.7027Z"/><path fill="#020E21" d="M70.1622 10.7027H67.4595V13.4054H70.1622V10.7027Z"/><path fill="#020E21" d="M72.8649 10.7027H70.1622V13.4054H72.8649V10.7027Z"/><path fill="#020E21" d="M78.2703 10.7027H75.5676V13.4054H78.2703V10.7027Z"/><path fill="#020E21" d="M86.3784 10.7027H83.6757V13.4054H86.3784V10.7027Z"/><path fill="#020E21" d="M91.7838 10.7027H89.0811V13.4054H91.7838V10.7027Z"/><path fill="#020E21" d="M108 10.7027H105.297V13.4054H108V10.7027Z"/><path fill="#020E21" d="M10.7027 13.4054H8V16.1081H10.7027V13.4054Z"/><path fill="#020E21" d="M16.1081 13.4054V13.4054C14.6154 13.4054 13.4054 14.6154 13.4054 16.1081V16.1081H16.1081V13.4054Z"/><path fill="#020E21" d="M18.8108 13.4054H16.1081V16.1081H18.8108V13.4054Z"/><path fill="#020E21" d="M21.5135 16.1081C21.5135 14.6154 20.3035 13.4054 18.8108 13.4054V13.4054V16.1081H21.5135V16.1081Z"/><path fill="#020E21" d="M26.9189 13.4054H24.2162V16.1081H26.9189V13.4054Z"/><path fill="#020E21" d="M35.027 13.4054V13.4054C33.5344 13.4054 32.3243 14.6154 32.3243 16.1081V16.1081H35.027V13.4054Z"/><path fill="#020E21" d="M40.4324 13.4054H37.7297V13.4054C37.7297 14.8981 38.9398 16.1081 40.4324 16.1081V16.1081V13.4054Z"/><path fill="#020E21" d="M43.1351 13.4054H40.4324V16.1081H43.1351L43.1351 13.4054Z"/><path fill="#020E21" d="M45.8378 13.4054H43.1351L43.1351 16.1081H45.8378V13.4054Z"/><path fill="#020E21" d="M48.5405 16.1081C48.5405 14.6154 47.3305 13.4054 45.8378 13.4054V13.4054V16.1081H48.5405V16.1081Z"/><path fill="#020E21" d="M56.6487 14.7568C56.6487 14.0104 56.0436 13.4054 55.2973 13.4054V13.4054C54.551 13.4054 53.9459 14.0104 53.9459 14.7568V16.1081H56.6487V14.7568Z"/><path fill="#020E21" d="M64.7568 13.4054H62.0541V16.1081H64.7568V13.4054Z"/><path fill="#020E21" d="M70.1622 13.4054H67.4595V16.1081H70.1622V13.4054Z"/><path fill="#020E21" d="M75.5676 13.4054H72.8649V16.1081H75.5676V13.4054Z"/><path fill="#020E21" d="M78.2703 13.4054H75.5676V16.1081H78.2703V13.4054Z"/><path fill="#020E21" d="M83.6757 13.4054H82.3243C81.578 13.4054 80.973 14.0104 80.973 14.7568V14.7568C80.973 15.5031 81.578 16.1081 82.3243 16.1081H83.6757V13.4054Z"/><path fill="#020E21" d="M86.3784 13.4054H83.6757V16.1081H86.3784V13.4054Z"/><path fill="#020E21" d="M91.7838 13.4054H89.0811V16.1081H91.7838V13.4054Z"/><path fill="#020E21" d="M97.1892 13.4054V13.4054C95.6965 13.4054 94.4865 14.6154 94.4865 16.1081V16.1081H97.1892V13.4054Z"/><path fill="#020E21" d="M99.8919 13.4054H97.1892V16.1081H99.8919V13.4054Z"/><path fill="#020E21" d="M102.595 16.1081C102.595 14.6154 101.385 13.4054 99.8919 13.4054V13.4054V16.1081H102.595V16.1081Z"/><path fill="#020E21" d="M108 13.4054H105.297V16.1081H108V13.4054Z"/><path fill="#020E21" d="M10.7027 16.1081H8V18.8108H10.7027V16.1081Z"/><path fill="#020E21" d="M16.1081 16.1081H13.4054V18.8108H16.1081V16.1081Z"/><path fill="#020E21" d="M18.8108 16.1081H16.1081V18.8108H18.8108V16.1081Z"/><path fill="#020E21" d="M21.5135 16.1081H18.8108V18.8108H21.5135V16.1081Z"/><path fill="#020E21" d="M26.9189 16.1081H24.2162V18.8108H26.9189V16.1081Z"/><path fill="#020E21" d="M35.027 16.1081H32.3243V18.8108H35.027V16.1081Z"/><path fill="#020E21" d="M48.5405 16.1081H45.8378V16.1081C45.8378 17.6008 47.0479 18.8108 48.5405 18.8108V18.8108V16.1081Z"/><path fill="#020E21" d="M56.6487 16.1081H53.9459V18.8108H56.6487V16.1081Z"/><path fill="#020E21" d="M59.3514 16.1081H56.6487V18.8108H59.3514V16.1081Z"/><path fill="#020E21" d="M62.0541 16.1081H59.3514V18.8108H62.0541V16.1081Z"/><path fill="#020E21" d="M64.7568 16.1081H62.0541V18.8108H64.7568V16.1081Z"/><path fill="#020E21" d="M67.4595 16.1081H64.7568V18.8108H67.4595V16.1081Z"/><path fill="#020E21" d="M72.8649 16.1081H70.1622V18.8108H72.8649V16.1081Z"/><path fill="#020E21" d="M75.5676 16.1081H72.8649V18.8108H75.5676V16.1081Z"/><path fill="#020E21" d="M78.2703 16.1081H75.5676V18.8108H78.2703V16.1081Z"/><path fill="#020E21" d="M86.3784 16.1081H83.6757V18.8108H86.3784V16.1081Z"/><path fill="#020E21" d="M91.7838 16.1081H89.0811V18.8108H91.7838V16.1081Z"/><path fill="#020E21" d="M97.1892 16.1081H94.4865V18.8108H97.1892V16.1081Z"/><path fill="#020E21" d="M99.8919 16.1081H97.1892V18.8108H99.8919V16.1081Z"/><path fill="#020E21" d="M102.595 16.1081H99.8919V18.8108H102.595V16.1081Z"/><path fill="#020E21" d="M108 16.1081H105.297V18.8108H108V16.1081Z"/><path fill="#020E21" d="M10.7027 18.8108H8V21.5135H10.7027V18.8108Z"/><path fill="#020E21" d="M16.1081 18.8108H13.4054V18.8108C13.4054 20.3035 14.6154 21.5135 16.1081 21.5135V21.5135V18.8108Z"/><path fill="#020E21" d="M18.8108 18.8108H16.1081V21.5135H18.8108V18.8108Z"/><path fill="#020E21" d="M21.5135 18.8108H18.8108V21.5135V21.5135C20.3035 21.5135 21.5135 20.3035 21.5135 18.8108V18.8108Z"/><path fill="#020E21" d="M26.9189 18.8108H24.2162V21.5135H26.9189V18.8108Z"/><path fill="#020E21" d="M32.3243 18.8108H30.973C30.2266 18.8108 29.6216 19.4158 29.6216 20.1622V20.1622C29.6216 20.9085 30.2266 21.5135 30.973 21.5135V21.5135C31.7193 21.5135 32.3243 20.9085 32.3243 20.1622V18.8108Z"/><path fill="#020E21" d="M37.7297 20.1622C37.7297 19.4158 37.1247 18.8108 36.3784 18.8108H35.027V20.1622C35.027 20.9085 35.632 21.5135 36.3784 21.5135V21.5135C37.1247 21.5135 37.7297 20.9085 37.7297 20.1622V20.1622Z"/><path fill="#020E21" d="M51.2432 20.1622C51.2432 19.4158 50.6382 18.8108 49.8919 18.8108H48.5405L48.5405 20.1622C48.5405 20.9085 49.1456 21.5135 49.8919 21.5135V21.5135C50.6382 21.5135 51.2432 20.9085 51.2432 20.1622V20.1622Z"/><path fill="#020E21" d="M56.6487 18.8108H53.9459V21.5135H56.6487V18.8108Z"/><path fill="#020E21" d="M62.0541 18.8108H59.3514V18.8108C59.3514 20.3035 60.5614 21.5135 62.0541 21.5135V21.5135V18.8108Z"/><path fill="#020E21" d="M64.7568 18.8108H62.0541V21.5135H64.7568V18.8108Z"/><path fill="#020E21" d="M70.1622 18.8108H67.4595V21.5135H70.1622V18.8108Z"/><path fill="#020E21" d="M80.973 20.1622C80.973 19.4158 80.3679 18.8108 79.6216 18.8108H78.2703V21.5135H79.6216C80.368 21.5135 80.973 20.9085 80.973 20.1622V20.1622Z"/><path fill="#020E21" d="M86.3784 18.8108H83.6757V20.1622C83.6757 20.9085 84.2807 21.5135 85.027 21.5135V21.5135C85.7734 21.5135 86.3784 20.9085 86.3784 20.1622V18.8108Z"/><path fill="#020E21" d="M91.7838 18.8108H89.0811V21.5135H91.7838V18.8108Z"/><path fill="#020E21" d="M97.1892 18.8108H94.4865V18.8108C94.4865 20.3035 95.6965 21.5135 97.1892 21.5135V21.5135V18.8108Z"/><path fill="#020E21" d="M99.8919 18.8108H97.1892V21.5135H99.8919V18.8108Z"/><path fill="#020E21" d="M102.595 18.8108H99.8919V21.5135V21.5135C101.385 21.5135 102.595 20.3035 102.595 18.8108V18.8108Z"/><path fill="#020E21" d="M108 18.8108H105.297V21.5135H108V18.8108Z"/><path fill="#020E21" d="M10.7027 21.5135H8V24.2162H10.7027V21.5135Z"/><path fill="#020E21" d="M26.9189 21.5135H24.2162V24.2162H26.9189V21.5135Z"/><path fill="#020E21" d="M43.1351 21.5135V21.5135C41.6425 21.5135 40.4324 22.7236 40.4324 24.2162V24.2162H43.1351V21.5135Z"/><path fill="#020E21" d="M45.8378 24.2162C45.8378 22.7236 44.6278 21.5135 43.1351 21.5135V21.5135V24.2162H45.8378V24.2162Z"/><path fill="#020E21" d="M56.6487 21.5135H53.9459V24.2162H56.6487V21.5135Z"/><path fill="#020E21" d="M64.7568 21.5135H62.0541V24.2162H64.7568V21.5135Z"/><path fill="#020E21" d="M67.4595 21.5135H64.7568V24.2162H67.4595V21.5135Z"/><path fill="#020E21" d="M70.1622 21.5135H67.4595V24.2162H70.1622V21.5135Z"/><path fill="#020E21" d="M72.8649 21.5135H70.1622V24.2162H72.8649V21.5135Z"/><path fill="#020E21" d="M75.5676 21.5135H72.8649V24.2162H75.5676V21.5135Z"/><path fill="#020E21" d="M78.2703 21.5135H75.5676V24.2162H78.2703V21.5135Z"/><path fill="#020E21" d="M91.7838 21.5135H89.0811V24.2162H91.7838V21.5135Z"/><path fill="#020E21" d="M108 21.5135H105.297V24.2162H108V21.5135Z"/><path fill="#020E21" d="M10.7027 24.2162H8V24.2162C8 25.7089 9.21004 26.9189 10.7027 26.9189V26.9189V24.2162Z"/><path fill="#020E21" d="M13.4054 24.2162H10.7027V26.9189H13.4054V24.2162Z"/><path fill="#020E21" d="M16.1081 24.2162H13.4054V26.9189H16.1081V24.2162Z"/><path fill="#020E21" d="M18.8108 24.2162H16.1081V26.9189H18.8108V24.2162Z"/><path fill="#020E21" d="M21.5135 24.2162H18.8108V26.9189H21.5135V24.2162Z"/><path fill="#020E21" d="M24.2162 24.2162H21.5135V26.9189H24.2162V24.2162Z"/><path fill="#020E21" d="M26.9189 24.2162H24.2162V26.9189V26.9189C25.7089 26.9189 26.9189 25.7089 26.9189 24.2162V24.2162Z"/><path fill="#020E21" d="M32.3243 25.5676C32.3243 24.8212 31.7193 24.2162 30.973 24.2162V24.2162C30.2266 24.2162 29.6216 24.8212 29.6216 25.5676V26.9189H32.3243V25.5676Z"/><path fill="#020E21" d="M37.7297 25.5676C37.7297 24.8212 37.1247 24.2162 36.3784 24.2162V24.2162C35.632 24.2162 35.027 24.8212 35.027 25.5676V25.5676C35.027 26.3139 35.632 26.9189 36.3784 26.9189V26.9189C37.1247 26.9189 37.7297 26.3139 37.7297 25.5676V25.5676Z"/><path fill="#020E21" d="M43.1351 24.2162H40.4324V24.2162C40.4324 25.7089 41.6425 26.9189 43.1351 26.9189V26.9189V24.2162Z"/><path fill="#020E21" d="M48.5405 26.9189C48.5405 25.4263 47.3305 24.2162 45.8378 24.2162V24.2162V26.9189H48.5405V26.9189Z"/><path fill="#020E21" d="M53.9459 24.2162V24.2162C52.4533 24.2162 51.2432 25.4263 51.2432 26.9189V26.9189H53.9459L53.9459 24.2162Z"/><path fill="#020E21" d="M59.3514 26.9189C59.3514 25.4263 58.1413 24.2162 56.6487 24.2162V24.2162L56.6486 26.9189H59.3514V26.9189Z"/><path fill="#020E21" d="M64.7568 24.2162H62.0541V26.9189H64.7568V24.2162Z"/><path fill="#020E21" d="M70.1622 24.2162H67.4595V26.9189H70.1622V24.2162Z"/><path fill="#020E21" d="M75.5676 24.2162H72.8649V26.9189V26.9189C74.3575 26.9189 75.5676 25.7089 75.5676 24.2162V24.2162Z"/><path fill="#020E21" d="M80.973 26.9189C80.973 25.4263 79.7629 24.2162 78.2703 24.2162V24.2162V24.2162C78.2703 25.7089 79.4803 26.9189 80.973 26.9189V26.9189V26.9189Z"/><path fill="#020E21" d="M86.3784 25.5676C86.3784 24.8212 85.7734 24.2162 85.027 24.2162V24.2162C84.2807 24.2162 83.6757 24.8212 83.6757 25.5676V26.9189H86.3784V25.5676Z"/><path fill="#020E21" d="M91.7838 24.2162H89.0811V24.2162C89.0811 25.7089 90.2911 26.9189 91.7838 26.9189V26.9189V24.2162Z"/><path fill="#020E21" d="M94.4865 24.2162H91.7838V26.9189H94.4865V24.2162Z"/><path fill="#020E21" d="M97.1892 24.2162H94.4865V26.9189H97.1892V24.2162Z"/><path fill="#020E21" d="M99.8919 24.2162H97.1892V26.9189H99.8919V24.2162Z"/><path fill="#020E21" d="M102.595 24.2162H99.8919V26.9189H102.595V24.2162Z"/><path fill="#020E21" d="M105.297 24.2162H102.595V26.9189H105.297V24.2162Z"/><path fill="#020E21" d="M108 24.2162H105.297V26.9189V26.9189C106.79 26.9189 108 25.7089 108 24.2162V24.2162Z"/><path fill="#020E21" d="M32.3243 26.9189H29.6216V29.6216H32.3243V26.9189Z"/><path fill="#020E21" d="M45.8378 26.9189H43.1351L43.1351 29.6216H45.8378V26.9189Z"/><path fill="#020E21" d="M48.5405 26.9189H45.8378V29.6216H48.5405V26.9189Z"/><path fill="#020E21" d="M51.2432 26.9189H48.5405V29.6216V29.6216C50.0332 29.6216 51.2432 28.4116 51.2432 26.9189V26.9189Z"/><path fill="#020E21" d="M56.6486 26.9189H53.9459L53.9459 29.6216H56.6487L56.6486 26.9189Z"/><path fill="#020E21" d="M59.3514 26.9189H56.6486L56.6487 29.6216V29.6216C58.1413 29.6216 59.3514 28.4116 59.3514 26.9189V26.9189Z"/><path fill="#020E21" d="M64.7568 26.9189H62.0541V29.6216H64.7568V26.9189Z"/><path fill="#020E21" d="M67.4595 26.9189H64.7568V29.6216H67.4595V26.9189Z"/><path fill="#020E21" d="M70.1622 26.9189H67.4595V29.6216H70.1622V26.9189Z"/><path fill="#020E21" d="M72.8649 26.9189H70.1622V29.6216V29.6216C71.6548 29.6216 72.8649 28.4116 72.8649 26.9189V26.9189Z"/><path fill="#020E21" d="M83.6757 26.9189H80.973V29.6216H83.6757V26.9189Z"/><path fill="#020E21" d="M86.3784 26.9189H83.6757V29.6216H86.3784V26.9189Z"/><path fill="#020E21" d="M10.7027 30.973C10.7027 30.2266 10.0977 29.6216 9.35135 29.6216V29.6216C8.60502 29.6216 8 30.2266 8 30.973V30.973C8 31.7193 8.60502 32.3243 9.35135 32.3243H10.7027V30.973Z"/><path fill="#020E21" d="M18.8108 29.6216V29.6216C17.3181 29.6216 16.1081 30.8317 16.1081 32.3243V32.3243H18.8108V29.6216Z"/><path fill="#020E21" d="M21.5135 29.6216H18.8108V32.3243H21.5135V29.6216Z"/><path fill="#020E21" d="M24.2162 29.6216H21.5135V32.3243H24.2162V29.6216Z"/><path fill="#020E21" d="M26.9189 29.6216H24.2162V32.3243H26.9189V29.6216Z"/><path fill="#020E21" d="M29.6216 29.6216H26.9189V32.3243H29.6216V29.6216Z"/><path fill="#020E21" d="M32.3243 29.6216H29.6216V32.3243H32.3243V29.6216Z"/><path fill="#020E21" d="M35.027 29.6216H32.3243V32.3243H35.027V29.6216Z"/><path fill="#020E21" d="M37.7297 29.6216H35.027V32.3243H37.7297V29.6216Z"/><path fill="#020E21" d="M40.4324 29.6216H37.7297V32.3243H40.4324V29.6216Z"/><path fill="#020E21" d="M43.1351 29.6216H40.4324V32.3243H43.1351L43.1351 29.6216Z"/><path fill="#020E21" d="M45.8378 29.6216H43.1351L43.1351 32.3243H45.8378V29.6216Z"/><path fill="#020E21" d="M56.6487 29.6216H53.9459V32.3243H56.6487V29.6216Z"/><path fill="#020E21" d="M64.7568 29.6216H62.0541V32.3243H64.7568V29.6216Z"/><path fill="#020E21" d="M70.1622 29.6216H67.4595V32.3243H70.1622V29.6216Z"/><path fill="#020E21" d="M83.6757 29.6216H80.973V32.3243H83.6757V29.6216Z"/><path fill="#020E21" d="M86.3784 29.6216H83.6757V32.3243H86.3784V29.6216Z"/><path fill="#020E21" d="M89.0811 29.6216H86.3784V32.3243H89.0811V29.6216Z"/><path fill="#020E21" d="M91.7838 32.3243C91.7838 30.8317 90.5737 29.6216 89.0811 29.6216V29.6216V32.3243H91.7838V32.3243Z"/><path fill="#020E21" d="M97.1892 30.973C97.1892 30.2266 96.5842 29.6216 95.8378 29.6216V29.6216C95.0915 29.6216 94.4865 30.2266 94.4865 30.973V32.3243H97.1892V30.973Z"/><path fill="#020E21" d="M108 30.973C108 30.2266 107.395 29.6216 106.649 29.6216V29.6216C105.902 29.6216 105.297 30.2266 105.297 30.973V32.3243H108V30.973Z"/><path fill="#020E21" d="M13.4054 33.6757C13.4054 32.9293 12.8004 32.3243 12.0541 32.3243H10.7027V35.027H12.0541C12.8004 35.027 13.4054 34.422 13.4054 33.6757V33.6757Z"/><path fill="#020E21" d="M18.8108 32.3243H16.1081V32.3243C16.1081 33.817 17.3182 35.027 18.8108 35.027V35.027V32.3243Z"/><path fill="#020E21" d="M21.5135 32.3243H18.8108V35.027H21.5135V32.3243Z"/><path fill="#020E21" d="M24.2162 32.3243H21.5135V35.027H24.2162V32.3243Z"/><path fill="#020E21" d="M32.3243 32.3243H29.6216V35.027H32.3243V32.3243Z"/><path fill="#020E21" d="M37.7297 32.3243H35.027V35.027H37.7297V32.3243Z"/><path fill="#020E21" d="M40.4324 32.3243H37.7297V35.027H40.4324V32.3243Z"/><path fill="#020E21" d="M45.8378 32.3243H43.1351L43.1351 35.027H45.8378V32.3243Z"/><path fill="#020E21" d="M53.9459 32.3243V32.3243C52.4533 32.3243 51.2432 33.5344 51.2432 35.027V35.027V35.027C52.7359 35.027 53.9459 33.817 53.9459 32.3243V32.3243Z"/><path fill="#020E21" d="M59.3514 32.3243H56.6487V32.3243C56.6487 33.817 57.8587 35.027 59.3514 35.027V35.027V32.3243Z"/><path fill="#020E21" d="M62.0541 32.3243H59.3514V35.027H62.0541V32.3243Z"/><path fill="#020E21" d="M64.7568 32.3243H62.0541V35.027H64.7568V32.3243Z"/><path fill="#020E21" d="M70.1622 32.3243H67.4595V35.027H70.1622V32.3243Z"/><path fill="#020E21" d="M80.973 32.3243V32.3243C79.4803 32.3243 78.2703 33.5344 78.2703 35.027V35.027V35.027C79.7629 35.027 80.973 33.817 80.973 32.3243V32.3243Z"/><path fill="#020E21" d="M86.3784 32.3243H83.6757V35.027H86.3784V32.3243Z"/><path fill="#020E21" d="M89.0811 32.3243H86.3784V35.027V35.027C87.871 35.027 89.0811 33.817 89.0811 32.3243V32.3243Z"/><path fill="#020E21" d="M94.4865 32.3243H91.7838V32.3243C91.7838 33.817 92.9938 35.027 94.4865 35.027V35.027V32.3243Z"/><path fill="#020E21" d="M97.1892 32.3243H94.4865V35.027H97.1892V32.3243Z"/><path fill="#020E21" d="M105.297 32.3243V32.3243C103.805 32.3243 102.595 33.5344 102.595 35.027V35.027H105.297V32.3243Z"/><path fill="#020E21" d="M108 32.3243H105.297V35.027V35.027C106.79 35.027 108 33.817 108 32.3243V32.3243Z"/><path fill="#020E21" d="M10.7027 35.027V35.027C9.21004 35.027 8 36.2371 8 37.7297V37.7297H10.7027V35.027Z"/><path fill="#020E21" d="M21.5135 35.027H18.8108V37.7297H21.5135V35.027Z"/><path fill="#020E21" d="M26.9189 35.027H24.2162V37.7297H26.9189V35.027Z"/><path fill="#020E21" d="M29.6216 35.027H26.9189V37.7297H29.6216V35.027Z"/><path fill="#020E21" d="M32.3243 35.027H29.6216V37.7297H32.3243V35.027Z"/><path fill="#020E21" d="M35.027 35.027H32.3243V37.7297H35.027V35.027Z"/><path fill="#020E21" d="M37.7297 35.027H35.027V37.7297H37.7297V35.027Z"/><path fill="#020E21" d="M43.1351 35.027H40.4324L40.4324 37.7297H43.1351L43.1351 35.027Z"/><path fill="#020E21" d="M45.8378 35.027H43.1351L43.1351 37.7297H45.8378V35.027Z"/><path fill="#020E21" d="M48.5405 35.027H45.8378V37.7297H48.5405V35.027Z"/><path fill="#020E21" d="M51.2432 35.027H48.5405V37.7297H51.2432L51.2432 35.027Z"/><path fill="#020E21" d="M64.7568 35.027H62.0541V37.7297H64.7568V35.027Z"/><path fill="#020E21" d="M67.4595 35.027H64.7568V37.7297H67.4595V35.027Z"/><path fill="#020E21" d="M70.1622 35.027H67.4595V37.7297H70.1622V35.027Z"/><path fill="#020E21" d="M72.8649 36.3784C72.8649 35.632 72.2598 35.027 71.5135 35.027H70.1622V37.7297H71.5135C72.2598 37.7297 72.8649 37.1247 72.8649 36.3784V36.3784Z"/><path fill="#020E21" d="M78.2703 35.027V35.027C76.7776 35.027 75.5676 36.2371 75.5676 37.7297V37.7297H78.2703V35.027Z"/><path fill="#020E21" d="M86.3784 35.027H83.6757V37.7297H86.3784V35.027Z"/><path fill="#020E21" d="M97.1892 35.027H94.4865V37.7297H97.1892V35.027Z"/><path fill="#020E21" d="M99.8919 37.7297C99.8919 36.2371 98.6819 35.027 97.1892 35.027V35.027V37.7297H99.8919V37.7297Z"/><path fill="#020E21" d="M105.297 35.027H102.595V37.7297V37.7297C104.087 37.7297 105.297 36.5197 105.297 35.027V35.027Z"/><path fill="#020E21" d="M10.7027 37.7297H8V37.7297C8 39.2224 9.21004 40.4324 10.7027 40.4324V40.4324V37.7297Z"/><path fill="#020E21" d="M18.8108 37.7297V37.7297C17.3181 37.7297 16.1081 38.9398 16.1081 40.4324V40.4324H18.8108V37.7297Z"/><path fill="#020E21" d="M21.5135 37.7297H18.8108V40.4324H21.5135V37.7297Z"/><path fill="#020E21" d="M24.2162 37.7297H21.5135V40.4324H24.2162V37.7297Z"/><path fill="#020E21" d="M32.3243 37.7297H29.6216V40.4324H32.3243V37.7297Z"/><path fill="#020E21" d="M35.027 37.7297H32.3243V40.4324H35.027V37.7297Z"/><path fill="#020E21" d="M40.4324 37.7297H37.7297V39.0811C37.7297 39.8274 38.3347 40.4324 39.0811 40.4324V40.4324C39.8274 40.4324 40.4324 39.8274 40.4324 39.0811L40.4324 37.7297Z"/><path fill="#020E21" d="M51.2432 37.7297H48.5405L48.5405 40.4324H51.2432V37.7297Z"/><path fill="#020E21" d="M56.6487 37.7297V37.7297C55.156 37.7297 53.9459 38.9398 53.9459 40.4324V40.4324H56.6487V37.7297Z"/><path fill="#020E21" d="M59.3514 37.7297H56.6487V40.4324H59.3514V37.7297Z"/><path fill="#020E21" d="M62.0541 37.7297H59.3514V40.4324H62.0541V37.7297Z"/><path fill="#020E21" d="M67.4595 37.7297H64.7568V40.4324H67.4595V37.7297Z"/><path fill="#020E21" d="M70.1622 37.7297H67.4595V40.4324H70.1622V37.7297Z"/><path fill="#020E21" d="M78.2703 37.7297H75.5676V40.4324H78.2703V37.7297Z"/><path fill="#020E21" d="M80.973 37.7297H78.2703V40.4324H80.973V37.7297Z"/><path fill="#020E21" d="M83.6757 37.7297H80.973V40.4324V40.4324C82.4656 40.4324 83.6757 39.2224 83.6757 37.7297V37.7297Z"/><path fill="#020E21" d="M89.0811 37.7297H86.3784V40.4324H89.0811V37.7297Z"/><path fill="#020E21" d="M91.7838 37.7297H89.0811V40.4324H91.7838V37.7297Z"/><path fill="#020E21" d="M94.4865 37.7297H91.7838V40.4324H94.4865V37.7297Z"/><path fill="#020E21" d="M97.1892 37.7297H94.4865V40.4324H97.1892V37.7297Z"/><path fill="#020E21" d="M102.595 37.7297H99.8919V39.0811C99.8919 39.8274 100.497 40.4324 101.243 40.4324V40.4324C101.99 40.4324 102.595 39.8274 102.595 39.0811V37.7297Z"/><path fill="#020E21" d="M13.4054 40.4324L10.7027 40.4324V43.1351H13.4054V40.4324Z"/><path fill="#020E21" d="M16.1081 40.4324L13.4054 40.4324V43.1351H16.1081V40.4324Z"/><path fill="#020E21" d="M26.9189 40.4324L24.2162 40.4324V43.1351H26.9189V40.4324Z"/><path fill="#020E21" d="M29.6216 40.4324L26.9189 40.4324V43.1351V43.1351C28.4116 43.1351 29.6216 41.9251 29.6216 40.4324V40.4324Z"/><path fill="#020E21" d="M35.027 40.4324H32.3243V41.7838C32.3243 42.5301 32.9293 43.1351 33.6757 43.1351V43.1351C34.422 43.1351 35.027 42.5301 35.027 41.7838V40.4324Z"/><path fill="#020E21" d="M48.5405 40.4324V40.4324C47.0479 40.4324 45.8378 41.6425 45.8378 43.1351V43.1351V43.1351C47.3305 43.1351 48.5405 41.9251 48.5405 40.4324V40.4324Z"/><path fill="#020E21" d="M53.9459 40.4324H51.2432L51.2432 41.7838C51.2432 42.5301 51.8483 43.1351 52.5946 43.1351V43.1351C53.3409 43.1351 53.9459 42.5301 53.9459 41.7838L53.9459 40.4324Z"/><path fill="#020E21" d="M64.7568 40.4324H62.0541V43.1351H64.7568V40.4324Z"/><path fill="#020E21" d="M70.1622 40.4324H67.4595V43.1351H70.1622V40.4324Z"/><path fill="#020E21" d="M75.5676 40.4324V40.4324C74.0749 40.4324 72.8649 41.6425 72.8649 43.1351V43.1351H75.5676V40.4324Z"/><path fill="#020E21" d="M78.2703 40.4324H75.5676V43.1351H78.2703V40.4324Z"/><path fill="#020E21" d="M80.973 40.4324H78.2703V43.1351H80.973V40.4324Z"/><path fill="#020E21" d="M89.0811 40.4324H86.3784V41.7838C86.3784 42.5301 86.9834 43.1351 87.7297 43.1351V43.1351C88.4761 43.1351 89.0811 42.5301 89.0811 41.7838V40.4324Z"/><path fill="#020E21" d="M94.4865 40.4324H91.7838V40.4324C91.7838 41.9251 92.9938 43.1351 94.4865 43.1351V43.1351V40.4324Z"/><path fill="#020E21" d="M97.1892 40.4324H94.4865V43.1351H97.1892V40.4324Z"/><path fill="#020E21" d="M13.4054 43.1351H10.7027V43.1351C10.7027 44.6278 11.9127 45.8378 13.4054 45.8378V45.8378V43.1351Z"/><path fill="#020E21" d="M16.1081 43.1351H13.4054V45.8378H16.1081V43.1351Z"/><path fill="#020E21" d="M18.8108 45.8378C18.8108 44.3452 17.6008 43.1351 16.1081 43.1351V43.1351V45.8378H18.8108V45.8378Z"/><path fill="#020E21" d="M24.2162 43.1351V43.1351C22.7236 43.1351 21.5135 44.3452 21.5135 45.8378V45.8378H24.2162V43.1351Z"/><path fill="#020E21" d="M40.4324 44.4865C40.4324 43.7402 39.8274 43.1351 39.0811 43.1351V43.1351C38.3347 43.1351 37.7297 43.7402 37.7297 44.4865V45.8378H40.4324V44.4865Z"/><path fill="#020E21" d="M45.8378 43.1351V43.1351C44.3452 43.1351 43.1351 44.3452 43.1351 45.8378V45.8378H45.8378V43.1351Z"/><path fill="#020E21" d="M59.3514 43.1351V43.1351C57.8587 43.1351 56.6486 44.3452 56.6486 45.8378V45.8378H59.3514V43.1351Z"/><path fill="#020E21" d="M62.0541 43.1351L59.3514 43.1351V45.8378V45.8378C60.844 45.8378 62.0541 44.6278 62.0541 43.1351V43.1351Z"/><path fill="#020E21" d="M67.4595 43.1351H64.7568V45.8378H67.4595V43.1351Z"/><path fill="#020E21" d="M72.8649 43.1351H70.1622V43.1351C70.1622 44.6278 71.3722 45.8378 72.8649 45.8378V45.8378V43.1351Z"/><path fill="#020E21" d="M75.5676 43.1351H72.8649V45.8378H75.5676V43.1351Z"/><path fill="#020E21" d="M78.2703 43.1351H75.5676V45.8378H78.2703V43.1351Z"/><path fill="#020E21" d="M83.6757 44.4865C83.6757 43.7402 83.0707 43.1351 82.3243 43.1351L80.973 43.1351V45.8378H82.3243C83.0707 45.8378 83.6757 45.2328 83.6757 44.4865V44.4865Z"/><path fill="#020E21" d="M97.1892 43.1351H94.4865V43.1351C94.4865 44.6278 95.6965 45.8378 97.1892 45.8378V45.8378V43.1351Z"/><path fill="#020E21" d="M99.8919 45.8378C99.8919 44.3452 98.6819 43.1351 97.1892 43.1351V43.1351V45.8378H99.8919V45.8378Z"/><path fill="#020E21" d="M108 44.4865C108 43.7402 107.395 43.1351 106.649 43.1351V43.1351C105.902 43.1351 105.297 43.7402 105.297 44.4865V45.8378H108V44.4865Z"/><path fill="#020E21" d="M16.1081 45.8378H13.4054V48.5405H16.1081V45.8378Z"/><path fill="#020E21" d="M18.8108 45.8378H16.1081V48.5405H18.8108V45.8378Z"/><path fill="#020E21" d="M21.5135 45.8378H18.8108V48.5405H21.5135V45.8378Z"/><path fill="#020E21" d="M26.9189 45.8378H24.2162V45.8378C24.2162 47.3305 25.4263 48.5405 26.9189 48.5405V48.5405V45.8378Z"/><path fill="#020E21" d="M29.6216 45.8378H26.9189V48.5405H29.6216V45.8378Z"/><path fill="#020E21" d="M32.3243 48.5405C32.3243 47.0479 31.1143 45.8378 29.6216 45.8378V45.8378V48.5405H32.3243V48.5405Z"/><path fill="#020E21" d="M40.4324 45.8378H37.7297V45.8378C37.7297 47.3305 38.9398 48.5405 40.4324 48.5405V48.5405V45.8378Z"/><path fill="#020E21" d="M43.1351 45.8378H40.4324V48.5405H43.1351L43.1351 45.8378Z"/><path fill="#020E21" d="M45.8378 45.8378H43.1351L43.1351 48.5405H45.8378V45.8378Z"/><path fill="#020E21" d="M51.2432 47.1892C51.2432 46.4429 50.6382 45.8378 49.8919 45.8378V45.8378C49.1456 45.8378 48.5405 46.4429 48.5405 47.1892V48.5405H51.2432V47.1892Z"/><path fill="#020E21" d="M59.3514 45.8378H56.6486V48.5405H59.3514V45.8378Z"/><path fill="#020E21" d="M67.4595 45.8378H64.7568V45.8378C64.7568 47.3305 65.9668 48.5405 67.4595 48.5405V48.5405V45.8378Z"/><path fill="#020E21" d="M80.973 45.8378H78.2703V47.1892C78.2703 47.9355 78.8753 48.5405 79.6216 48.5405V48.5405C80.368 48.5405 80.973 47.9355 80.973 47.1892V45.8378Z"/><path fill="#020E21" d="M91.7838 47.1892C91.7838 46.4429 91.1788 45.8378 90.4324 45.8378V45.8378C89.6861 45.8378 89.0811 46.4429 89.0811 47.1892V48.5405H91.7838V47.1892Z"/><path fill="#020E21" d="M102.595 45.8378H99.8919V48.5405H102.595V45.8378Z"/><path fill="#020E21" d="M105.297 45.8378H102.595V48.5405H105.297V45.8378Z"/><path fill="#020E21" d="M108 45.8378H105.297V48.5405V48.5405C106.79 48.5405 108 47.3305 108 45.8378V45.8378Z"/><path fill="#020E21" d="M13.4054 48.5405L12.0541 48.5405C11.3077 48.5405 10.7027 49.1456 10.7027 49.8919V49.8919C10.7027 50.6382 11.3077 51.2432 12.0541 51.2432H13.4054V48.5405Z"/><path fill="#020E21" d="M18.8108 48.5405H16.1081V51.2432H18.8108V48.5405Z"/><path fill="#020E21" d="M21.5135 48.5405H18.8108V51.2432H21.5135V48.5405Z"/><path fill="#020E21" d="M32.3243 48.5405H29.6216V48.5405C29.6216 50.0332 30.8317 51.2432 32.3243 51.2432V51.2432V48.5405Z"/><path fill="#020E21" d="M43.1351 48.5405H40.4324V48.5405C40.4324 50.0332 41.6425 51.2432 43.1351 51.2432V51.2432V48.5405Z"/><path fill="#020E21" d="M48.5405 48.5405H45.8378V51.2432H48.5405L48.5405 48.5405Z"/><path fill="#020E21" d="M53.9459 51.2432C53.9459 49.7506 52.7359 48.5405 51.2432 48.5405V48.5405L51.2432 51.2432H53.9459V51.2432Z"/><path fill="#020E21" d="M59.3514 48.5405H56.6486V48.5405C56.6486 50.0332 57.8587 51.2432 59.3514 51.2432V51.2432V48.5405Z"/><path fill="#020E21" d="M62.0541 51.2432C62.0541 49.7506 60.844 48.5405 59.3514 48.5405V48.5405V51.2432H62.0541V51.2432Z"/><path fill="#020E21" d="M70.1622 51.2432C70.1622 49.7506 68.9521 48.5405 67.4595 48.5405V48.5405V51.2432H70.1622V51.2432Z"/><path fill="#020E21" d="M86.3784 48.5405V48.5405C84.8857 48.5405 83.6757 49.7506 83.6757 51.2432V51.2432H86.3784V48.5405Z"/><path fill="#020E21" d="M89.0811 48.5405L86.3784 48.5405V51.2432H89.0811V48.5405Z"/><path fill="#020E21" d="M91.7838 48.5405H89.0811V51.2432H91.7838V48.5405Z"/><path fill="#020E21" d="M94.4865 51.2432C94.4865 49.7506 93.2764 48.5405 91.7838 48.5405V48.5405V51.2432H94.4865V51.2432Z"/><path fill="#020E21" d="M102.595 48.5405H99.8919V48.5405C99.8919 50.0332 101.102 51.2432 102.595 51.2432V51.2432V48.5405Z"/><path fill="#020E21" d="M105.297 48.5405H102.595V51.2432H105.297V48.5405Z"/><path fill="#020E21" d="M16.1081 51.2432H13.4054V53.9459H16.1081V51.2432Z"/><path fill="#020E21" d="M21.5135 51.2432H18.8108V53.9459V53.9459C20.3035 53.9459 21.5135 52.7359 21.5135 51.2432V51.2432Z"/><path fill="#020E21" d="M26.9189 52.5946C26.9189 51.8483 26.3139 51.2432 25.5676 51.2432V51.2432C24.8212 51.2432 24.2162 51.8483 24.2162 52.5946V52.5946C24.2162 53.3409 24.8212 53.9459 25.5676 53.9459H26.9189V52.5946Z"/><path fill="#020E21" d="M35.027 51.2432L32.3243 51.2432V53.9459H35.027V51.2432Z"/><path fill="#020E21" d="M37.7297 53.9459C37.7297 52.4533 36.5197 51.2432 35.027 51.2432V51.2432V53.9459H37.7297V53.9459Z"/><path fill="#020E21" d="M45.8378 51.2432H43.1351L43.1351 53.9459H45.8378V51.2432Z"/><path fill="#020E21" d="M51.2432 51.2432H48.5405V51.2432C48.5405 52.7359 49.7506 53.9459 51.2432 53.9459V53.9459L51.2432 51.2432Z"/><path fill="#020E21" d="M53.9459 51.2432H51.2432L51.2432 53.9459V53.9459C52.7359 53.9459 53.9459 52.7359 53.9459 51.2432V51.2432Z"/><path fill="#020E21" d="M62.0541 51.2432H59.3514V53.9459H62.0541V51.2432Z"/><path fill="#020E21" d="M67.4595 51.2432L66.1081 51.2432C65.3618 51.2432 64.7568 51.8483 64.7568 52.5946V52.5946C64.7568 53.3409 65.3618 53.9459 66.1081 53.9459H67.4595V51.2432Z"/><path fill="#020E21" d="M70.1622 51.2432H67.4595V53.9459H70.1622V51.2432Z"/><path fill="#020E21" d="M72.8649 53.9459C72.8649 52.4533 71.6548 51.2432 70.1622 51.2432V51.2432V53.9459H72.8649V53.9459Z"/><path fill="#020E21" d="M78.2703 51.2432H76.9189C76.1726 51.2432 75.5676 51.8483 75.5676 52.5946V52.5946C75.5676 53.3409 76.1726 53.9459 76.9189 53.9459H78.2703V51.2432Z"/><path fill="#020E21" d="M80.973 53.9459C80.973 52.4533 79.7629 51.2432 78.2703 51.2432V51.2432V53.9459H80.973V53.9459Z"/><path fill="#020E21" d="M86.3784 51.2432H83.6757V53.9459H86.3784V51.2432Z"/><path fill="#020E21" d="M89.0811 51.2432H86.3784V53.9459H89.0811V51.2432Z"/><path fill="#020E21" d="M94.4865 51.2432H91.7838V51.2432C91.7838 52.7359 92.9938 53.9459 94.4865 53.9459V53.9459V51.2432Z"/><path fill="#020E21" d="M97.1892 53.9459C97.1892 52.4533 95.9791 51.2432 94.4865 51.2432V51.2432V53.9459H97.1892V53.9459Z"/><path fill="#020E21" d="M105.297 51.2432H102.595V53.9459H105.297V51.2432Z"/><path fill="#020E21" d="M108 53.9459C108 52.4533 106.79 51.2432 105.297 51.2432V51.2432V53.9459H108V53.9459Z"/><path fill="#020E21" d="M16.1081 53.9459H13.4054V53.9459C13.4054 55.4386 14.6154 56.6487 16.1081 56.6487V56.6487V53.9459Z"/><path fill="#020E21" d="M18.8108 53.9459H16.1081V56.6487H18.8108V53.9459Z"/><path fill="#020E21" d="M29.6216 56.6487C29.6216 55.156 28.4116 53.9459 26.9189 53.9459V53.9459V56.6487H29.6216V56.6487Z"/><path fill="#020E21" d="M35.027 53.9459H32.3243V56.6487H35.027V53.9459Z"/><path fill="#020E21" d="M40.4324 55.2973C40.4324 54.551 39.8274 53.9459 39.0811 53.9459L37.7297 53.9459V56.6487H39.0811C39.8274 56.6487 40.4324 56.0436 40.4324 55.2973V55.2973Z"/><path fill="#020E21" d="M45.8378 53.9459H43.1351V56.6487H45.8378V53.9459Z"/><path fill="#020E21" d="M62.0541 53.9459H59.3514V55.2973C59.3514 56.0436 59.9564 56.6487 60.7027 56.6487V56.6487C61.449 56.6487 62.0541 56.0436 62.0541 55.2973V53.9459Z"/><path fill="#020E21" d="M70.1622 53.9459H67.4595V56.6487H70.1622V53.9459Z"/><path fill="#020E21" d="M72.8649 53.9459H70.1622V56.6487H72.8649V53.9459Z"/><path fill="#020E21" d="M83.6757 53.9459H80.973V55.2973C80.973 56.0436 81.578 56.6487 82.3243 56.6487V56.6487C83.0707 56.6487 83.6757 56.0436 83.6757 55.2973V53.9459Z"/><path fill="#020E21" d="M89.0811 53.9459H86.3784V56.6487H89.0811V53.9459Z"/><path fill="#020E21" d="M99.8919 53.9459L97.1892 53.9459V56.6487H99.8919V53.9459Z"/><path fill="#020E21" d="M102.595 53.9459L99.8919 53.9459V56.6487H102.595V53.9459Z"/><path fill="#020E21" d="M105.297 53.9459H102.595V56.6487H105.297V53.9459Z"/><path fill="#020E21" d="M108 53.9459H105.297V56.6487H108V53.9459Z"/><path fill="#020E21" d="M10.7027 58C10.7027 57.2537 10.0977 56.6486 9.35135 56.6486V56.6486C8.60502 56.6486 8 57.2537 8 58V59.3514H10.7027V58Z"/><path fill="#020E21" d="M18.8108 56.6487H16.1081V59.3514H18.8108V56.6487Z"/><path fill="#020E21" d="M21.5135 56.6486L18.8108 56.6487V59.3514H21.5135V56.6486Z"/><path fill="#020E21" d="M24.2162 56.6486H21.5135V59.3514H24.2162V56.6486Z"/><path fill="#020E21" d="M26.9189 56.6487L24.2162 56.6486V59.3514H26.9189V56.6487Z"/><path fill="#020E21" d="M29.6216 56.6487H26.9189V59.3514H29.6216V56.6487Z"/><path fill="#020E21" d="M32.3243 56.6487H29.6216V59.3514H32.3243V56.6487Z"/><path fill="#020E21" d="M37.7297 56.6487H35.027V59.3514V59.3514C36.5197 59.3514 37.7297 58.1413 37.7297 56.6487V56.6487Z"/><path fill="#020E21" d="M45.8378 56.6487H43.1351V59.3514H45.8378V56.6487Z"/><path fill="#020E21" d="M48.5405 59.3514C48.5405 57.8587 47.3305 56.6487 45.8378 56.6487V56.6487V59.3514H48.5405V59.3514Z"/><path fill="#020E21" d="M56.6487 58C56.6487 57.2537 56.0436 56.6486 55.2973 56.6486V56.6486C54.551 56.6486 53.9459 57.2537 53.9459 58V59.3514H56.6487V58Z"/><path fill="#020E21" d="M67.4595 56.6487L66.1081 56.6487C65.3618 56.6487 64.7568 57.2537 64.7568 58V58C64.7568 58.7463 65.3618 59.3514 66.1081 59.3514V59.3514C66.8544 59.3514 67.4595 58.7463 67.4595 58V56.6487Z"/><path fill="#020E21" d="M72.8649 56.6487H70.1622V59.3514H72.8649V56.6487Z"/><path fill="#020E21" d="M75.5676 59.3514C75.5676 57.8587 74.3575 56.6487 72.8649 56.6487V56.6487V59.3514H75.5676V59.3514Z"/><path fill="#020E21" d="M89.0811 56.6487H86.3784V59.3514H89.0811V56.6487Z"/><path fill="#020E21" d="M91.7838 58C91.7838 57.2537 91.1788 56.6487 90.4324 56.6487L89.0811 56.6487V59.3514H90.4324C91.1788 59.3514 91.7838 58.7463 91.7838 58V58Z"/><path fill="#020E21" d="M99.8919 56.6487H97.1892V59.3514H99.8919V56.6487Z"/><path fill="#020E21" d="M102.595 56.6487H99.8919V59.3514H102.595V56.6487Z"/><path fill="#020E21" d="M108 56.6487H105.297V59.3514V59.3514C106.79 59.3514 108 58.1413 108 56.6487V56.6487Z"/><path fill="#020E21" d="M10.7027 59.3514H8V59.3514C8 60.844 9.21004 62.0541 10.7027 62.0541V62.0541V59.3514Z"/><path fill="#020E21" d="M16.1081 59.3514V59.3514C14.6154 59.3514 13.4054 60.5614 13.4054 62.0541V62.0541H16.1081V59.3514Z"/><path fill="#020E21" d="M18.8108 59.3514H16.1081V62.0541H18.8108V59.3514Z"/><path fill="#020E21" d="M21.5135 59.3514H18.8108V62.0541H21.5135V59.3514Z"/><path fill="#020E21" d="M24.2162 59.3514H21.5135V62.0541H24.2162V59.3514Z"/><path fill="#020E21" d="M29.6216 59.3514H26.9189V62.0541H29.6216V59.3514Z"/><path fill="#020E21" d="M35.027 59.3514H32.3243V62.0541H35.027V59.3514Z"/><path fill="#020E21" d="M43.1351 59.3514V59.3514C41.6425 59.3514 40.4324 60.5614 40.4324 62.0541V62.0541H43.1351L43.1351 59.3514Z"/><path fill="#020E21" d="M45.8378 59.3514H43.1351L43.1351 62.0541H45.8378V59.3514Z"/><path fill="#020E21" d="M51.2432 59.3514H48.5405L48.5405 62.0541H51.2432V59.3514Z"/><path fill="#020E21" d="M53.9459 59.3514H51.2432V62.0541H53.9459L53.9459 59.3514Z"/><path fill="#020E21" d="M56.6487 59.3514H53.9459L53.9459 62.0541H56.6487V59.3514Z"/><path fill="#020E21" d="M59.3514 59.3514H56.6487V62.0541H59.3514V59.3514Z"/><path fill="#020E21" d="M62.0541 62.0541C62.0541 60.5614 60.844 59.3514 59.3514 59.3514V59.3514V62.0541H62.0541V62.0541Z"/><path fill="#020E21" d="M72.8649 59.3514H70.1622V60.7027C70.1622 61.449 70.7672 62.0541 71.5135 62.0541V62.0541C72.2598 62.0541 72.8649 61.449 72.8649 60.7027V59.3514Z"/><path fill="#020E21" d="M78.2703 62.0541C78.2703 60.5614 77.0602 59.3514 75.5676 59.3514V59.3514V62.0541H78.2703V62.0541Z"/><path fill="#020E21" d="M86.3784 59.3514V59.3514C84.8857 59.3514 83.6757 60.5614 83.6757 62.0541V62.0541H86.3784V59.3514Z"/><path fill="#020E21" d="M99.8919 59.3514H97.1892V62.0541H99.8919V59.3514Z"/><path fill="#020E21" d="M102.595 59.3514H99.8919V62.0541H102.595V59.3514Z"/><path fill="#020E21" d="M105.297 59.3514H102.595V62.0541H105.297V59.3514Z"/><path fill="#020E21" d="M13.4054 62.0541H10.7027V62.0541C10.7027 63.5467 11.9127 64.7568 13.4054 64.7568V64.7568V62.0541Z"/><path fill="#020E21" d="M16.1081 62.0541H13.4054V64.7568H16.1081V62.0541Z"/><path fill="#020E21" d="M24.2162 62.0541H21.5135V64.7568H24.2162V62.0541Z"/><path fill="#020E21" d="M26.9189 62.0541H24.2162V64.7568H26.9189V62.0541Z"/><path fill="#020E21" d="M29.6216 62.0541H26.9189V64.7568V64.7568C28.4116 64.7568 29.6216 63.5467 29.6216 62.0541V62.0541Z"/><path fill="#020E21" d="M35.027 62.0541H32.3243V64.7568H35.027V62.0541Z"/><path fill="#020E21" d="M37.7297 64.7568C37.7297 63.2641 36.5197 62.0541 35.027 62.0541V62.0541V64.7568H37.7297V64.7568Z"/><path fill="#020E21" d="M43.1351 62.0541H40.4324V64.7568V64.7568C41.9251 64.7568 43.1351 63.5467 43.1351 62.0541V62.0541Z"/><path fill="#020E21" d="M48.5405 62.0541H45.8378V64.7568H48.5405L48.5405 62.0541Z"/><path fill="#020E21" d="M51.2432 62.0541H48.5405L48.5405 64.7568H51.2432V62.0541Z"/><path fill="#020E21" d="M53.9459 62.0541H51.2432V64.7568H53.9459V62.0541Z"/><path fill="#020E21" d="M62.0541 62.0541H59.3514V64.7568H62.0541V62.0541Z"/><path fill="#020E21" d="M78.2703 62.0541H75.5676V64.7568H78.2703V62.0541Z"/><path fill="#020E21" d="M80.973 64.7568C80.973 63.2641 79.7629 62.0541 78.2703 62.0541V62.0541V64.7568H80.973V64.7568Z"/><path fill="#020E21" d="M86.3784 62.0541H83.6757V64.7568H86.3784V62.0541Z"/><path fill="#020E21" d="M91.7838 63.4054C91.7838 62.6591 91.1788 62.0541 90.4324 62.0541V62.0541C89.6861 62.0541 89.0811 62.6591 89.0811 63.4054V64.7568H91.7838V63.4054Z"/><path fill="#020E21" d="M97.1892 62.0541V62.0541C95.6965 62.0541 94.4865 63.2641 94.4865 64.7568V64.7568V64.7568C95.9791 64.7568 97.1892 63.5467 97.1892 62.0541V62.0541Z"/><path fill="#020E21" d="M105.297 62.0541H102.595V64.7568H105.297V62.0541Z"/><path fill="#020E21" d="M16.1081 64.7568H13.4054V67.4595H16.1081V64.7568Z"/><path fill="#020E21" d="M21.5135 64.7568H20.1622C19.4158 64.7568 18.8108 65.3618 18.8108 66.1081V66.1081C18.8108 66.8544 19.4158 67.4595 20.1622 67.4595H21.5135V64.7568Z"/><path fill="#020E21" d="M24.2162 64.7568H21.5135V67.4595H24.2162V64.7568Z"/><path fill="#020E21" d="M35.027 64.7568H32.3243V67.4595V67.4595C33.817 67.4595 35.027 66.2494 35.027 64.7568V64.7568Z"/><path fill="#020E21" d="M40.4324 64.7568H37.7297V64.7568C37.7297 66.2494 38.9398 67.4595 40.4324 67.4595V67.4595L40.4324 64.7568Z"/><path fill="#020E21" d="M48.5405 64.7568H45.8378V67.4595H48.5405V64.7568Z"/><path fill="#020E21" d="M51.2432 64.7568H48.5405V67.4595V67.4595C50.0332 67.4595 51.2432 66.2494 51.2432 64.7568V64.7568Z"/><path fill="#020E21" d="M56.6487 64.7568H53.9459L53.9459 67.4595H56.6487V64.7568Z"/><path fill="#020E21" d="M59.3514 64.7568H56.6487V67.4595H59.3514V64.7568Z"/><path fill="#020E21" d="M62.0541 64.7568H59.3514V67.4595H62.0541V64.7568Z"/><path fill="#020E21" d="M67.4595 66.1081C67.4595 65.3618 66.8544 64.7568 66.1081 64.7568V64.7568C65.3618 64.7568 64.7568 65.3618 64.7568 66.1081V67.4595H67.4595V66.1081Z"/><path fill="#020E21" d="M78.2703 64.7568H75.5676V67.4595H78.2703V64.7568Z"/><path fill="#020E21" d="M80.973 64.7568H78.2703V67.4595H80.973V64.7568Z"/><path fill="#020E21" d="M83.6757 64.7568H80.973V67.4595H83.6757V64.7568Z"/><path fill="#020E21" d="M86.3784 64.7568H83.6757V67.4595H86.3784V64.7568Z"/><path fill="#020E21" d="M91.7838 64.7568H89.0811V67.4595H91.7838V64.7568Z"/><path fill="#020E21" d="M94.4865 64.7568H91.7838V67.4595V67.4595C93.2764 67.4595 94.4865 66.2494 94.4865 64.7568V64.7568Z"/><path fill="#020E21" d="M102.595 64.7568V64.7568C101.102 64.7568 99.8919 65.9668 99.8919 67.4595V67.4595H102.595V64.7568Z"/><path fill="#020E21" d="M105.297 64.7568H102.595V67.4595H105.297V64.7568Z"/><path fill="#020E21" d="M108 66.1081C108 65.3618 107.395 64.7568 106.649 64.7568H105.297V67.4595H106.649C107.395 67.4595 108 66.8544 108 66.1081V66.1081Z"/><path fill="#020E21" d="M10.7027 68.8108C10.7027 68.0645 10.0977 67.4595 9.35135 67.4595V67.4595C8.60502 67.4595 8 68.0645 8 68.8108V68.8108C8 69.5571 8.60502 70.1622 9.35135 70.1622V70.1622C10.0977 70.1622 10.7027 69.5571 10.7027 68.8108V68.8108Z"/><path fill="#020E21" d="M16.1081 67.4595H13.4054V70.1622H16.1081V67.4595Z"/><path fill="#020E21" d="M24.2162 67.4595H21.5135V70.1622H24.2162V67.4595Z"/><path fill="#020E21" d="M26.9189 67.4595H24.2162V70.1622H26.9189V67.4595Z"/><path fill="#020E21" d="M29.6216 67.4595H26.9189V70.1622H29.6216V67.4595Z"/><path fill="#020E21" d="M32.3243 67.4595H29.6216V70.1622V70.1622C31.1143 70.1622 32.3243 68.9521 32.3243 67.4595V67.4595Z"/><path fill="#020E21" d="M43.1351 67.4595H40.4324L40.4324 70.1622H43.1351V67.4595Z"/><path fill="#020E21" d="M45.8378 67.4595H43.1351V70.1622H45.8378V67.4595Z"/><path fill="#020E21" d="M48.5405 67.4595H45.8378V70.1622H48.5405V67.4595Z"/><path fill="#020E21" d="M56.6487 67.4595H53.9459V67.4595C53.9459 68.9521 55.156 70.1622 56.6487 70.1622V70.1622V67.4595Z"/><path fill="#020E21" d="M59.3514 67.4595H56.6487V70.1622H59.3514V67.4595Z"/><path fill="#020E21" d="M64.7568 67.4595H62.0541V70.1622H64.7568V67.4595Z"/><path fill="#020E21" d="M67.4595 67.4595H64.7568V70.1622H67.4595V67.4595Z"/><path fill="#020E21" d="M72.8649 67.4595V67.4595C71.3722 67.4595 70.1622 68.6695 70.1622 70.1622V70.1622H72.8649V67.4595Z"/><path fill="#020E21" d="M75.5676 67.4595H72.8649V70.1622V70.1622C74.3575 70.1622 75.5676 68.9521 75.5676 67.4595V67.4595Z"/><path fill="#020E21" d="M80.973 67.4595H78.2703V67.4595C78.2703 68.9521 79.4803 70.1622 80.973 70.1622V70.1622V67.4595Z"/><path fill="#020E21" d="M83.6757 67.4595H80.973V70.1622H83.6757V67.4595Z"/><path fill="#020E21" d="M89.0811 67.4595H86.3784V70.1622H89.0811V67.4595Z"/><path fill="#020E21" d="M91.7838 67.4595H89.0811V70.1622H91.7838V67.4595Z"/><path fill="#020E21" d="M99.8919 67.4595H98.5405C97.7942 67.4595 97.1892 68.0645 97.1892 68.8108V68.8108C97.1892 69.5571 97.7942 70.1622 98.5405 70.1622H99.8919V67.4595Z"/><path fill="#020E21" d="M102.595 67.4595H99.8919V70.1622H102.595V67.4595Z"/><path fill="#020E21" d="M16.1081 70.1622H13.4054V70.1622C13.4054 71.6548 14.6154 72.8649 16.1081 72.8649V72.8649V70.1622Z"/><path fill="#020E21" d="M18.8108 70.1622H16.1081V72.8649H18.8108V70.1622Z"/><path fill="#020E21" d="M21.5135 70.1622H18.8108V72.8649H21.5135V70.1622Z"/><path fill="#020E21" d="M43.1351 70.1622H40.4324V72.8649H43.1351V70.1622Z"/><path fill="#020E21" d="M48.5405 70.1622H45.8378V70.1622C45.8378 71.6548 47.0479 72.8649 48.5405 72.8649V72.8649V70.1622Z"/><path fill="#020E21" d="M59.3514 70.1622H56.6487L56.6486 72.8649H59.3514V70.1622Z"/><path fill="#020E21" d="M62.0541 70.1622H59.3514V72.8649H62.0541V70.1622Z"/><path fill="#020E21" d="M70.1622 70.1622H67.4595V72.8649H70.1622V70.1622Z"/><path fill="#020E21" d="M86.3784 70.1622H83.6757V72.8649V72.8649C85.1683 72.8649 86.3784 71.6548 86.3784 70.1622V70.1622Z"/><path fill="#020E21" d="M91.7838 70.1622H89.0811V70.1622C89.0811 71.6548 90.2911 72.8649 91.7838 72.8649V72.8649V70.1622Z"/><path fill="#020E21" d="M102.595 70.1622H99.8919V72.8649H102.595V70.1622Z"/><path fill="#020E21" d="M105.297 70.1622H102.595V72.8649H105.297V70.1622Z"/><path fill="#020E21" d="M108 72.8649C108 71.3722 106.79 70.1622 105.297 70.1622V70.1622V72.8649H108V72.8649Z"/><path fill="#020E21" d="M10.7027 74.2162C10.7027 73.4699 10.0977 72.8649 9.35135 72.8649V72.8649C8.60502 72.8649 8 73.4699 8 74.2162V75.5676H10.7027V74.2162Z"/><path fill="#020E21" d="M18.8108 72.8649H16.1081V72.8649C16.1081 74.3575 17.3181 75.5676 18.8108 75.5676V75.5676V72.8649Z"/><path fill="#020E21" d="M21.5135 72.8649H18.8108V75.5676H21.5135V72.8649Z"/><path fill="#020E21" d="M26.9189 72.8649V72.8649C25.4263 72.8649 24.2162 74.0749 24.2162 75.5676V75.5676H26.9189V72.8649Z"/><path fill="#020E21" d="M29.6216 72.8649H26.9189V75.5676H29.6216V72.8649Z"/><path fill="#020E21" d="M32.3243 75.5676C32.3243 74.0749 31.1143 72.8649 29.6216 72.8649V72.8649V75.5676H32.3243V75.5676Z"/><path fill="#020E21" d="M40.4324 72.8649H39.0811C38.3348 72.8649 37.7297 73.4699 37.7297 74.2162V74.2162C37.7297 74.9625 38.3347 75.5676 39.0811 75.5676H40.4324L40.4324 72.8649Z"/><path fill="#020E21" d="M43.1351 72.8649H40.4324L40.4324 75.5676H43.1351V72.8649Z"/><path fill="#020E21" d="M51.2432 74.2162C51.2432 73.4699 50.6382 72.8649 49.8919 72.8649H48.5405L48.5405 74.2162C48.5405 74.9626 49.1456 75.5676 49.8919 75.5676V75.5676C50.6382 75.5676 51.2432 74.9625 51.2432 74.2162V74.2162Z"/><path fill="#020E21" d="M56.6486 72.8649V72.8649C55.156 72.8649 53.9459 74.0749 53.9459 75.5676V75.5676H56.6487L56.6486 72.8649Z"/><path fill="#020E21" d="M59.3514 72.8649H56.6486L56.6487 75.5676V75.5676C58.1413 75.5676 59.3514 74.3575 59.3514 72.8649V72.8649Z"/><path fill="#020E21" d="M64.7568 74.2162C64.7568 73.4699 64.1517 72.8649 63.4054 72.8649H62.0541V74.2162C62.0541 74.9626 62.6591 75.5676 63.4054 75.5676V75.5676C64.1517 75.5676 64.7568 74.9625 64.7568 74.2162V74.2162Z"/><path fill="#020E21" d="M70.1622 72.8649H67.4595V72.8649C67.4595 74.3575 68.6695 75.5676 70.1622 75.5676V75.5676V72.8649Z"/><path fill="#020E21" d="M72.8649 72.8649H70.1622V75.5676H72.8649V72.8649Z"/><path fill="#020E21" d="M75.5676 75.5676C75.5676 74.0749 74.3575 72.8649 72.8649 72.8649V72.8649V75.5676H75.5676V75.5676Z"/><path fill="#020E21" d="M83.6757 72.8649V72.8649C82.183 72.8649 80.973 74.0749 80.973 75.5676V75.5676H83.6757V72.8649Z"/><path fill="#020E21" d="M94.4865 72.8649H91.7838V75.5676H94.4865V72.8649Z"/><path fill="#020E21" d="M97.1892 72.8649H94.4865V75.5676H97.1892V72.8649Z"/><path fill="#020E21" d="M99.8919 72.8649H97.1892V75.5676H99.8919V72.8649Z"/><path fill="#020E21" d="M102.595 72.8649H99.8919V75.5676V75.5676C101.385 75.5676 102.595 74.3575 102.595 72.8649V72.8649Z"/><path fill="#020E21" d="M108 72.8649H105.297V74.2162C105.297 74.9626 105.902 75.5676 106.649 75.5676V75.5676C107.395 75.5676 108 74.9626 108 74.2162V72.8649Z"/><path fill="#020E21" d="M10.7027 75.5676H8V78.2703H10.7027V75.5676Z"/><path fill="#020E21" d="M13.4054 78.2703C13.4054 76.7776 12.1954 75.5676 10.7027 75.5676V75.5676V78.2703H13.4054V78.2703Z"/><path fill="#020E21" d="M21.5135 75.5676H18.8108V78.2703H21.5135V75.5676Z"/><path fill="#020E21" d="M24.2162 75.5676H21.5135V78.2703H24.2162V75.5676Z"/><path fill="#020E21" d="M35.027 78.2703C35.027 76.7776 33.817 75.5676 32.3243 75.5676V75.5676V78.2703H35.027V78.2703Z"/><path fill="#020E21" d="M43.1351 75.5676H40.4324L40.4324 78.2703H43.1351V75.5676Z"/><path fill="#020E21" d="M56.6487 75.5676H53.9459V78.2703H56.6487V75.5676Z"/><path fill="#020E21" d="M78.2703 75.5676H75.5676V78.2703H78.2703V75.5676Z"/><path fill="#020E21" d="M80.973 75.5676H78.2703V78.2703H80.973V75.5676Z"/><path fill="#020E21" d="M86.3784 75.5676H83.6757V75.5676C83.6757 77.0602 84.8857 78.2703 86.3784 78.2703V78.2703V75.5676Z"/><path fill="#020E21" d="M89.0811 75.5676H86.3784V78.2703H89.0811V75.5676Z"/><path fill="#020E21" d="M91.7838 75.5676H89.0811V78.2703H91.7838V75.5676Z"/><path fill="#020E21" d="M99.8919 75.5676H97.1892V75.5676C97.1892 77.0602 98.3992 78.2703 99.8919 78.2703V78.2703V75.5676Z"/><path fill="#020E21" d="M10.7027 78.2703H8V79.6216C8 80.368 8.60502 80.973 9.35135 80.973V80.973C10.0977 80.973 10.7027 80.368 10.7027 79.6216V78.2703Z"/><path fill="#020E21" d="M16.1081 78.2703H13.4054V78.2703C13.4054 79.7629 14.6154 80.973 16.1081 80.973V80.973V78.2703Z"/><path fill="#020E21" d="M18.8108 78.2703H16.1081V80.973H18.8108V78.2703Z"/><path fill="#020E21" d="M26.9189 78.2703H24.2162V78.2703C24.2162 79.7629 25.4263 80.973 26.9189 80.973V80.973V78.2703Z"/><path fill="#020E21" d="M29.6216 80.973C29.6216 79.4803 28.4116 78.2703 26.9189 78.2703V78.2703V80.973H29.6216V80.973Z"/><path fill="#020E21" d="M35.027 78.2703H32.3243V80.973H35.027V78.2703Z"/><path fill="#020E21" d="M40.4324 78.2703V78.2703C38.9398 78.2703 37.7297 79.4803 37.7297 80.973V80.973V80.973C39.2224 80.973 40.4324 79.7629 40.4324 78.2703V78.2703Z"/><path fill="#020E21" d="M45.8378 78.2703H43.1351L43.1351 80.973H45.8378V78.2703Z"/><path fill="#020E21" d="M48.5405 78.2703H45.8378V80.973H48.5405V78.2703Z"/><path fill="#020E21" d="M51.2432 79.6216C51.2432 78.8753 50.6382 78.2703 49.8919 78.2703H48.5405V80.973H49.8919C50.6382 80.973 51.2432 80.368 51.2432 79.6216V79.6216Z"/><path fill="#020E21" d="M56.6487 78.2703H53.9459V80.973H56.6487V78.2703Z"/><path fill="#020E21" d="M62.0541 79.6216C62.0541 78.8753 61.449 78.2703 60.7027 78.2703V78.2703C59.9564 78.2703 59.3514 78.8753 59.3514 79.6216V80.973H62.0541V79.6216Z"/><path fill="#020E21" d="M70.1622 79.6216C70.1622 78.8753 69.5571 78.2703 68.8108 78.2703V78.2703C68.0645 78.2703 67.4595 78.8753 67.4595 79.6216V80.973H70.1622V79.6216Z"/><path fill="#020E21" d="M75.5676 78.2703V78.2703C74.0749 78.2703 72.8649 79.4803 72.8649 80.973V80.973H75.5676V78.2703Z"/><path fill="#020E21" d="M80.973 78.2703H78.2703V80.973H80.973V78.2703Z"/><path fill="#020E21" d="M89.0811 78.2703H86.3784V78.2703C86.3784 79.7629 87.5884 80.973 89.0811 80.973V80.973V78.2703Z"/><path fill="#020E21" d="M91.7838 78.2703H89.0811V80.973V80.973C90.5737 80.973 91.7838 79.7629 91.7838 78.2703V78.2703Z"/><path fill="#020E21" d="M102.595 79.6216C102.595 78.8753 101.99 78.2703 101.243 78.2703H99.8919V79.6216C99.8919 80.368 100.497 80.973 101.243 80.973V80.973C101.99 80.973 102.595 80.368 102.595 79.6216V79.6216Z"/><path fill="#020E21" d="M18.8108 80.973H16.1081V83.6757H18.8108V80.973Z"/><path fill="#020E21" d="M32.3243 80.973H29.6216V83.6757H32.3243V80.973Z"/><path fill="#020E21" d="M35.027 80.973H32.3243V83.6757H35.027V80.973Z"/><path fill="#020E21" d="M37.7297 80.973H35.027V83.6757H37.7297V80.973Z"/><path fill="#020E21" d="M45.8378 80.973H43.1351V80.973C43.1351 82.4656 44.3452 83.6757 45.8378 83.6757V83.6757V80.973Z"/><path fill="#020E21" d="M48.5405 80.973H45.8378V83.6757H48.5405V80.973Z"/><path fill="#020E21" d="M56.6487 80.973H53.9459V83.6757H56.6487V80.973Z"/><path fill="#020E21" d="M59.3514 80.973H56.6487V83.6757H59.3514V80.973Z"/><path fill="#020E21" d="M64.7568 80.973H62.0541V83.6757H64.7568V80.973Z"/><path fill="#020E21" d="M67.4595 80.973H64.7568V83.6757H67.4595V80.973Z"/><path fill="#020E21" d="M70.1622 80.973H67.4595V83.6757H70.1622V80.973Z"/><path fill="#020E21" d="M72.8649 80.973H70.1622V83.6757V83.6757C71.6548 83.6757 72.8649 82.4656 72.8649 80.973V80.973Z"/><path fill="#020E21" d="M78.2703 80.973H75.5676V83.6757H78.2703V80.973Z"/><path fill="#020E21" d="M80.973 80.973H78.2703V83.6757H80.973V80.973Z"/><path fill="#020E21" d="M83.6757 83.6757C83.6757 82.183 82.4656 80.973 80.973 80.973V80.973V83.6757H83.6757V83.6757Z"/><path fill="#020E21" d="M10.7027 85.027C10.7027 84.2807 10.0977 83.6757 9.35135 83.6757V83.6757C8.60502 83.6757 8 84.2807 8 85.027V85.027C8 85.7734 8.60502 86.3784 9.35135 86.3784V86.3784C10.0977 86.3784 10.7027 85.7734 10.7027 85.027V85.027Z"/><path fill="#020E21" d="M16.1081 83.6757H14.7568C14.0104 83.6757 13.4054 84.2807 13.4054 85.027V85.027C13.4054 85.7734 14.0104 86.3784 14.7568 86.3784H16.1081V83.6757Z"/><path fill="#020E21" d="M18.8108 83.6757H16.1081V86.3784H18.8108V83.6757Z"/><path fill="#020E21" d="M21.5135 83.6757H18.8108V86.3784H21.5135V83.6757Z"/><path fill="#020E21" d="M24.2162 83.6757H21.5135V86.3784H24.2162V83.6757Z"/><path fill="#020E21" d="M26.9189 85.027C26.9189 84.2807 26.3139 83.6757 25.5676 83.6757H24.2162V86.3784H25.5676C26.3139 86.3784 26.9189 85.7734 26.9189 85.027V85.027Z"/><path fill="#020E21" d="M32.3243 83.6757H29.6216V86.3784H32.3243V83.6757Z"/><path fill="#020E21" d="M37.7297 83.6757H35.027V86.3784H37.7297V83.6757Z"/><path fill="#020E21" d="M40.4324 86.3784C40.4324 84.8857 39.2224 83.6757 37.7297 83.6757V83.6757V86.3784H40.4324V86.3784Z"/><path fill="#020E21" d="M48.5405 83.6757H45.8378V86.3784H48.5405V83.6757Z"/><path fill="#020E21" d="M51.2432 86.3784C51.2432 84.8857 50.0332 83.6757 48.5405 83.6757V83.6757V86.3784H51.2432V86.3784Z"/><path fill="#020E21" d="M56.6487 83.6757H53.9459V86.3784H56.6487V83.6757Z"/><path fill="#020E21" d="M59.3514 83.6757H56.6487V86.3784H59.3514V83.6757Z"/><path fill="#020E21" d="M64.7568 83.6757H62.0541V86.3784H64.7568V83.6757Z"/><path fill="#020E21" d="M67.4595 83.6757H64.7568V86.3784H67.4595V83.6757Z"/><path fill="#020E21" d="M78.2703 83.6757H75.5676V86.3784H78.2703V83.6757Z"/><path fill="#020E21" d="M86.3784 83.6757H83.6757V86.3784H86.3784V83.6757Z"/><path fill="#020E21" d="M89.0811 83.6757H86.3784V86.3784H89.0811V83.6757Z"/><path fill="#020E21" d="M91.7838 83.6757H89.0811V86.3784H91.7838V83.6757Z"/><path fill="#020E21" d="M94.4865 83.6757H91.7838V86.3784H94.4865V83.6757Z"/><path fill="#020E21" d="M97.1892 83.6757H94.4865V86.3784H97.1892V83.6757Z"/><path fill="#020E21" d="M99.8919 83.6757H97.1892V86.3784H99.8919V83.6757Z"/><path fill="#020E21" d="M102.595 86.3784C102.595 84.8857 101.385 83.6757 99.8919 83.6757V83.6757V86.3784H102.595V86.3784Z"/><path fill="#020E21" d="M32.3243 86.3784H29.6216V89.0811H32.3243V86.3784Z"/><path fill="#020E21" d="M35.027 86.3784H32.3243V89.0811H35.027V86.3784Z"/><path fill="#020E21" d="M37.7297 86.3784H35.027V89.0811V89.0811C36.5197 89.0811 37.7297 87.871 37.7297 86.3784V86.3784Z"/><path fill="#020E21" d="M43.1351 89.0811C43.1351 87.5884 41.9251 86.3784 40.4324 86.3784V86.3784L40.4324 89.0811H43.1351V89.0811Z"/><path fill="#020E21" d="M48.5405 86.3784H45.8378V89.0811H48.5405V86.3784Z"/><path fill="#020E21" d="M53.9459 86.3784H51.2432L51.2432 89.0811H53.9459L53.9459 86.3784Z"/><path fill="#020E21" d="M56.6487 86.3784H53.9459L53.9459 89.0811H56.6487V86.3784Z"/><path fill="#020E21" d="M62.0541 86.3784H59.3514V89.0811H62.0541V86.3784Z"/><path fill="#020E21" d="M64.7568 86.3784H62.0541V89.0811H64.7568V86.3784Z"/><path fill="#020E21" d="M67.4595 86.3784H64.7568V89.0811V89.0811C66.2494 89.0811 67.4595 87.871 67.4595 86.3784V86.3784Z"/><path fill="#020E21" d="M72.8649 86.3784H71.5135C70.7672 86.3784 70.1622 86.9834 70.1622 87.7297V87.7297C70.1622 88.4761 70.7672 89.0811 71.5135 89.0811H72.8649V86.3784Z"/><path fill="#020E21" d="M75.5676 86.3784H72.8649V89.0811H75.5676V86.3784Z"/><path fill="#020E21" d="M80.973 89.0811C80.973 87.5884 79.7629 86.3784 78.2703 86.3784V86.3784V86.3784C78.2703 87.871 79.4803 89.0811 80.973 89.0811V89.0811V89.0811Z"/><path fill="#020E21" d="M86.3784 86.3784H83.6757V89.0811H86.3784V86.3784Z"/><path fill="#020E21" d="M97.1892 86.3784H94.4865V89.0811H97.1892V86.3784Z"/><path fill="#020E21" d="M99.8919 86.3784H97.1892V89.0811H99.8919V86.3784Z"/><path fill="#020E21" d="M102.595 86.3784H99.8919V89.0811H102.595V86.3784Z"/><path fill="#020E21" d="M105.297 87.7297C105.297 86.9834 104.692 86.3784 103.946 86.3784H102.595V89.0811H103.946C104.692 89.0811 105.297 88.4761 105.297 87.7297V87.7297Z"/><path fill="#020E21" d="M10.7027 89.0811V89.0811C9.21004 89.0811 8 90.2911 8 91.7838V91.7838H10.7027V89.0811Z"/><path fill="#020E21" d="M13.4054 89.0811H10.7027V91.7838H13.4054V89.0811Z"/><path fill="#020E21" d="M16.1081 89.0811H13.4054V91.7838H16.1081V89.0811Z"/><path fill="#020E21" d="M18.8108 89.0811H16.1081V91.7838H18.8108V89.0811Z"/><path fill="#020E21" d="M21.5135 89.0811H18.8108V91.7838H21.5135V89.0811Z"/><path fill="#020E21" d="M24.2162 89.0811H21.5135V91.7838H24.2162V89.0811Z"/><path fill="#020E21" d="M26.9189 91.7838C26.9189 90.2911 25.7089 89.0811 24.2162 89.0811V89.0811V91.7838H26.9189V91.7838Z"/><path fill="#020E21" d="M32.3243 89.0811H29.6216V91.7838H32.3243V89.0811Z"/><path fill="#020E21" d="M43.1351 89.0811H40.4324V91.7838H43.1351V89.0811Z"/><path fill="#020E21" d="M48.5405 89.0811H45.8378V90.4324C45.8378 91.1788 46.4429 91.7838 47.1892 91.7838V91.7838C47.9355 91.7838 48.5405 91.1788 48.5405 90.4324V89.0811Z"/><path fill="#020E21" d="M53.9459 89.0811H51.2432V91.7838H53.9459V89.0811Z"/><path fill="#020E21" d="M56.6487 89.0811H53.9459V91.7838H56.6487V89.0811Z"/><path fill="#020E21" d="M59.3514 89.0811H56.6487V91.7838H59.3514V89.0811Z"/><path fill="#020E21" d="M62.0541 89.0811H59.3514V91.7838H62.0541V89.0811Z"/><path fill="#020E21" d="M64.7568 89.0811H62.0541V91.7838V91.7838C63.5467 91.7838 64.7568 90.5737 64.7568 89.0811V89.0811Z"/><path fill="#020E21" d="M75.5676 89.0811H72.8649V91.7838H75.5676V89.0811Z"/><path fill="#020E21" d="M83.6757 89.0811H80.973V89.0811C80.973 90.5737 82.183 91.7838 83.6757 91.7838V91.7838V89.0811Z"/><path fill="#020E21" d="M86.3784 89.0811H83.6757V91.7838H86.3784V89.0811Z"/><path fill="#020E21" d="M91.7838 90.4324C91.7838 89.6861 91.1788 89.0811 90.4324 89.0811V89.0811C89.6861 89.0811 89.0811 89.6861 89.0811 90.4324V90.4324C89.0811 91.1788 89.6861 91.7838 90.4324 91.7838V91.7838C91.1788 91.7838 91.7838 91.1788 91.7838 90.4324V90.4324Z"/><path fill="#020E21" d="M97.1892 89.0811H94.4865V91.7838H97.1892V89.0811Z"/><path fill="#020E21" d="M99.8919 89.0811H97.1892V91.7838H99.8919V89.0811Z"/><path fill="#020E21" d="M102.595 89.0811H99.8919V91.7838H102.595V89.0811Z"/><path fill="#020E21" d="M10.7027 91.7838H8V94.4865H10.7027V91.7838Z"/><path fill="#020E21" d="M26.9189 91.7838H24.2162V94.4865H26.9189V91.7838Z"/><path fill="#020E21" d="M32.3243 91.7838H29.6216V94.4865H32.3243V91.7838Z"/><path fill="#020E21" d="M43.1351 91.7838H40.4324V94.4865H43.1351V91.7838Z"/><path fill="#020E21" d="M53.9459 91.7838H51.2432V94.4865H53.9459V91.7838Z"/><path fill="#020E21" d="M59.3514 91.7838H56.6487L56.6486 94.4865H59.3514V91.7838Z"/><path fill="#020E21" d="M72.8649 91.7838H71.5135C70.7672 91.7838 70.1622 92.3888 70.1622 93.1351V93.1351C70.1622 93.8815 70.7672 94.4865 71.5135 94.4865V94.4865C72.2598 94.4865 72.8649 93.8815 72.8649 93.1351V91.7838Z"/><path fill="#020E21" d="M78.2703 94.4865C78.2703 92.9938 77.0602 91.7838 75.5676 91.7838V91.7838V94.4865H78.2703V94.4865Z"/><path fill="#020E21" d="M86.3784 91.7838H83.6757V94.4865H86.3784V91.7838Z"/><path fill="#020E21" d="M97.1892 91.7838H94.4865V94.4865H97.1892V91.7838Z"/><path fill="#020E21" d="M102.595 91.7838H99.8919V91.7838C99.8919 93.2764 101.102 94.4865 102.595 94.4865V94.4865V91.7838Z"/><path fill="#020E21" d="M105.297 94.4865C105.297 92.9938 104.087 91.7838 102.595 91.7838V91.7838V94.4865H105.297V94.4865Z"/><path fill="#020E21" d="M10.7027 94.4865H8V97.1892H10.7027V94.4865Z"/><path fill="#020E21" d="M16.1081 94.4865V94.4865C14.6154 94.4865 13.4054 95.6965 13.4054 97.1892V97.1892H16.1081V94.4865Z"/><path fill="#020E21" d="M18.8108 94.4865H16.1081V97.1892H18.8108V94.4865Z"/><path fill="#020E21" d="M21.5135 97.1892C21.5135 95.6965 20.3035 94.4865 18.8108 94.4865V94.4865V97.1892H21.5135V97.1892Z"/><path fill="#020E21" d="M26.9189 94.4865H24.2162V97.1892H26.9189V94.4865Z"/><path fill="#020E21" d="M32.3243 94.4865H29.6216V97.1892H32.3243V94.4865Z"/><path fill="#020E21" d="M35.027 97.1892C35.027 95.6965 33.817 94.4865 32.3243 94.4865V94.4865V97.1892H35.027V97.1892Z"/><path fill="#020E21" d="M40.4324 94.4865V94.4865C38.9398 94.4865 37.7297 95.6965 37.7297 97.1892V97.1892V97.1892C39.2224 97.1892 40.4324 95.9791 40.4324 94.4865V94.4865Z"/><path fill="#020E21" d="M45.8378 94.4865H43.1351L43.1351 97.1892H45.8378V94.4865Z"/><path fill="#020E21" d="M48.5405 97.1892C48.5405 95.6965 47.3305 94.4865 45.8378 94.4865V94.4865V97.1892H48.5405V97.1892Z"/><path fill="#020E21" d="M53.9459 94.4865H51.2432V97.1892H53.9459V94.4865Z"/><path fill="#020E21" d="M56.6486 94.4865H53.9459V97.1892H56.6487L56.6486 94.4865Z"/><path fill="#020E21" d="M62.0541 95.8378C62.0541 95.0915 61.449 94.4865 60.7027 94.4865H59.3514V97.1892H60.7027C61.449 97.1892 62.0541 96.5842 62.0541 95.8378V95.8378Z"/><path fill="#020E21" d="M67.4595 95.8378C67.4595 95.0915 66.8544 94.4865 66.1081 94.4865V94.4865C65.3618 94.4865 64.7568 95.0915 64.7568 95.8378V95.8378C64.7568 96.5842 65.3618 97.1892 66.1081 97.1892H67.4595V95.8378Z"/><path fill="#020E21" d="M78.2703 94.4865H75.5676V95.8378C75.5676 96.5842 76.1726 97.1892 76.9189 97.1892V97.1892C77.6653 97.1892 78.2703 96.5842 78.2703 95.8378V94.4865Z"/><path fill="#020E21" d="M86.3784 94.4865H83.6757V94.4865C83.6757 95.9791 84.8857 97.1892 86.3784 97.1892V97.1892V94.4865Z"/><path fill="#020E21" d="M89.0811 94.4865H86.3784V97.1892H89.0811V94.4865Z"/><path fill="#020E21" d="M91.7838 94.4865H89.0811V97.1892H91.7838V94.4865Z"/><path fill="#020E21" d="M94.4865 94.4865H91.7838V97.1892H94.4865V94.4865Z"/><path fill="#020E21" d="M97.1892 94.4865H94.4865V97.1892H97.1892V94.4865Z"/><path fill="#020E21" d="M105.297 94.4865H102.595V94.4865C102.595 95.9791 103.805 97.1892 105.297 97.1892V97.1892V94.4865Z"/><path fill="#020E21" d="M10.7027 97.1892H8V99.8919H10.7027V97.1892Z"/><path fill="#020E21" d="M16.1081 97.1892H13.4054V99.8919H16.1081V97.1892Z"/><path fill="#020E21" d="M18.8108 97.1892H16.1081V99.8919H18.8108V97.1892Z"/><path fill="#020E21" d="M21.5135 97.1892H18.8108V99.8919H21.5135V97.1892Z"/><path fill="#020E21" d="M26.9189 97.1892H24.2162V99.8919H26.9189V97.1892Z"/><path fill="#020E21" d="M32.3243 97.1892H29.6216V97.1892C29.6216 98.6819 30.8317 99.8919 32.3243 99.8919V99.8919V97.1892Z"/><path fill="#020E21" d="M37.7297 97.1892H35.027V99.8919H37.7297V97.1892Z"/><path fill="#020E21" d="M45.8378 97.1892H43.1351V99.8919H45.8378V97.1892Z"/><path fill="#020E21" d="M48.5405 97.1892H45.8378V99.8919H48.5405V97.1892Z"/><path fill="#020E21" d="M51.2432 97.1892H48.5405V99.8919H51.2432L51.2432 97.1892Z"/><path fill="#020E21" d="M53.9459 97.1892H51.2432L51.2432 99.8919H53.9459V97.1892Z"/><path fill="#020E21" d="M56.6487 97.1892H53.9459V99.8919H56.6487V97.1892Z"/><path fill="#020E21" d="M59.3514 97.1892H56.6487V99.8919H59.3514V97.1892Z"/><path fill="#020E21" d="M70.1622 97.1892H67.4595V99.8919H70.1622V97.1892Z"/><path fill="#020E21" d="M72.8649 99.8919C72.8649 98.3992 71.6548 97.1892 70.1622 97.1892V97.1892V99.8919H72.8649V99.8919Z"/><path fill="#020E21" d="M89.0811 97.1892H86.3784V99.8919H89.0811V97.1892Z"/><path fill="#020E21" d="M94.4865 97.1892H91.7838V99.8919H94.4865V97.1892Z"/><path fill="#020E21" d="M99.8919 98.5405C99.8919 97.7942 99.2869 97.1892 98.5405 97.1892H97.1892V99.8919H98.5405C99.2869 99.8919 99.8919 99.2869 99.8919 98.5405V98.5405Z"/><path fill="#020E21" d="M108 98.5405C108 97.7942 107.395 97.1892 106.649 97.1892H105.297V99.8919H106.649C107.395 99.8919 108 99.2869 108 98.5405V98.5405Z"/><path fill="#020E21" d="M10.7027 99.8919H8V102.595H10.7027V99.8919Z"/><path fill="#020E21" d="M16.1081 99.8919H13.4054V99.8919C13.4054 101.385 14.6154 102.595 16.1081 102.595V102.595V99.8919Z"/><path fill="#020E21" d="M18.8108 99.8919H16.1081V102.595H18.8108V99.8919Z"/><path fill="#020E21" d="M21.5135 99.8919H18.8108V102.595V102.595C20.3035 102.595 21.5135 101.385 21.5135 99.8919V99.8919Z"/><path fill="#020E21" d="M26.9189 99.8919H24.2162V102.595H26.9189V99.8919Z"/><path fill="#020E21" d="M35.027 99.8919H32.3243V99.8919C32.3243 101.385 33.5344 102.595 35.027 102.595V102.595V99.8919Z"/><path fill="#020E21" d="M37.7297 99.8919H35.027V102.595H37.7297V99.8919Z"/><path fill="#020E21" d="M40.4324 99.8919H37.7297V102.595H40.4324V99.8919Z"/><path fill="#020E21" d="M43.1351 99.8919H40.4324V102.595H43.1351L43.1351 99.8919Z"/><path fill="#020E21" d="M45.8378 99.8919H43.1351L43.1351 102.595H45.8378V99.8919Z"/><path fill="#020E21" d="M51.2432 99.8919H48.5405V99.8919C48.5405 101.385 49.7506 102.595 51.2432 102.595V102.595V99.8919Z"/><path fill="#020E21" d="M53.9459 99.8919H51.2432V102.595V102.595C52.7359 102.595 53.9459 101.385 53.9459 99.8919V99.8919Z"/><path fill="#020E21" d="M62.0541 99.8919H59.3514V102.595H62.0541V99.8919Z"/><path fill="#020E21" d="M64.7568 99.8919H62.0541V102.595H64.7568V99.8919Z"/><path fill="#020E21" d="M67.4595 99.8919H64.7568V102.595H67.4595V99.8919Z"/><path fill="#020E21" d="M72.8649 99.8919H70.1622V102.595H72.8649V99.8919Z"/><path fill="#020E21" d="M75.5676 102.595C75.5676 101.102 74.3575 99.8919 72.8649 99.8919V99.8919V102.595H75.5676V102.595Z"/><path fill="#020E21" d="M80.973 99.8919V99.8919C79.4803 99.8919 78.2703 101.102 78.2703 102.595V102.595H80.973V99.8919Z"/><path fill="#020E21" d="M83.6757 102.595C83.6757 101.102 82.4656 99.8919 80.973 99.8919V99.8919V102.595H83.6757V102.595Z"/><path fill="#020E21" d="M89.0811 99.8919H86.3784V102.595H89.0811V99.8919Z"/><path fill="#020E21" d="M94.4865 99.8919H91.7838V102.595H94.4865V99.8919Z"/><path fill="#020E21" d="M97.1892 99.8919H94.4865V102.595H97.1892V99.8919Z"/><path fill="#020E21" d="M105.297 99.8919V99.8919C103.805 99.8919 102.595 101.102 102.595 102.595V102.595H105.297V99.8919Z"/><path fill="#020E21" d="M10.7027 102.595H8V105.297H10.7027V102.595Z"/><path fill="#020E21" d="M26.9189 102.595H24.2162V105.297H26.9189V102.595Z"/><path fill="#020E21" d="M43.1351 102.595H40.4324L40.4324 105.297H43.1351V102.595Z"/><path fill="#020E21" d="M45.8378 102.595H43.1351V105.297H45.8378V102.595Z"/><path fill="#020E21" d="M62.0541 102.595H59.3514V102.595C59.3514 104.087 60.5614 105.297 62.0541 105.297V105.297V102.595Z"/><path fill="#020E21" d="M64.7568 102.595H62.0541V105.297H64.7568V102.595Z"/><path fill="#020E21" d="M67.4595 102.595H64.7568V105.297H67.4595V102.595Z"/><path fill="#020E21" d="M70.1622 102.595H67.4595V105.297H70.1622V102.595Z"/><path fill="#020E21" d="M72.8649 102.595H70.1622V105.297H72.8649V102.595Z"/><path fill="#020E21" d="M75.5676 102.595H72.8649V105.297H75.5676V102.595Z"/><path fill="#020E21" d="M78.2703 102.595H75.5676V105.297V105.297C77.0602 105.297 78.2703 104.087 78.2703 102.595V102.595Z"/><path fill="#020E21" d="M86.3784 102.595H83.6757V105.297H86.3784V102.595Z"/><path fill="#020E21" d="M89.0811 102.595H86.3784V105.297H89.0811V102.595Z"/><path fill="#020E21" d="M94.4865 102.595H91.7838V105.297H94.4865V102.595Z"/><path fill="#020E21" d="M97.1892 102.595H94.4865V105.297H97.1892V102.595Z"/><path fill="#020E21" d="M99.8919 102.595H97.1892V105.297H99.8919V102.595Z"/><path fill="#020E21" d="M102.595 102.595H99.8919V105.297H102.595V102.595Z"/><path fill="#020E21" d="M105.297 102.595H102.595V105.297H105.297V102.595Z"/><path fill="#020E21" d="M108 105.297C108 103.805 106.79 102.595 105.297 102.595V102.595V105.297H108V105.297Z"/><path fill="#020E21" d="M10.7027 105.297H8V105.297C8 106.79 9.21004 108 10.7027 108V108V105.297Z"/><path fill="#020E21" d="M13.4054 105.297H10.7027V108H13.4054V105.297Z"/><path fill="#020E21" d="M16.1081 105.297H13.4054V108H16.1081V105.297Z"/><path fill="#020E21" d="M18.8108 105.297H16.1081V108H18.8108V105.297Z"/><path fill="#020E21" d="M21.5135 105.297H18.8108V108H21.5135V105.297Z"/><path fill="#020E21" d="M24.2162 105.297H21.5135V108H24.2162V105.297Z"/><path fill="#020E21" d="M26.9189 105.297H24.2162V108V108C25.7089 108 26.9189 106.79 26.9189 105.297V105.297Z"/><path fill="#020E21" d="M32.3243 106.649C32.3243 105.902 31.7193 105.297 30.973 105.297V105.297C30.2266 105.297 29.6216 105.902 29.6216 106.649V106.649C29.6216 107.395 30.2266 108 30.973 108V108C31.7193 108 32.3243 107.395 32.3243 106.649V106.649Z"/><path fill="#020E21" d="M40.4324 105.297H39.0811C38.3347 105.297 37.7297 105.902 37.7297 106.649V106.649C37.7297 107.395 38.3347 108 39.0811 108V108C39.8274 108 40.4324 107.395 40.4324 106.649L40.4324 105.297Z"/><path fill="#020E21" d="M45.8378 105.297H43.1351L43.1351 106.649C43.1351 107.395 43.7402 108 44.4865 108V108C45.2328 108 45.8378 107.395 45.8378 106.649V105.297Z"/><path fill="#020E21" d="M64.7568 105.297H62.0541V106.649C62.0541 107.395 62.6591 108 63.4054 108V108C64.1517 108 64.7568 107.395 64.7568 106.649V105.297Z"/><path fill="#020E21" d="M75.5676 105.297H72.8649V106.649C72.8649 107.395 73.4699 108 74.2162 108V108C74.9625 108 75.5676 107.395 75.5676 106.649V105.297Z"/><path fill="#020E21" d="M83.6757 105.297H82.3243C81.578 105.297 80.973 105.902 80.973 106.649V106.649C80.973 107.395 81.578 108 82.3243 108V108C83.0707 108 83.6757 107.395 83.6757 106.649V105.297Z"/><path fill="#020E21" d="M89.0811 105.297H86.3784V106.649C86.3784 107.395 86.9834 108 87.7297 108V108C88.4761 108 89.0811 107.395 89.0811 106.649V105.297Z"/><path fill="#020E21" d="M94.4865 105.297H91.7838V106.649C91.7838 107.395 92.3888 108 93.1351 108V108C93.8815 108 94.4865 107.395 94.4865 106.649V105.297Z"/><path fill="#020E21" d="M108 105.297H105.297V106.649C105.297 107.395 105.902 108 106.649 108V108C107.395 108 108 107.395 108 106.649V105.297Z"/></svg>