<svg width="110" height="24" viewBox="0 0 110 24" fill="none" xmlns="http://www.w3.org/2000/svg">
<path d="M7.28796 22.996H3.18583V11.9831H0.391388V8.39749H3.18573V5.84609C3.18573 2.82267 4.42167 0.654297 8.51269 0.654297C9.37795 0.654297 10.7364 0.842117 10.7364 0.842117V4.17153H9.30958C7.8558 4.17153 7.28818 4.64777 7.28818 5.96439V8.39749H10.6819L10.3797 11.9831H7.28807L7.28796 22.996ZM16.7004 8.11096C16.6406 8.11096 16.5791 8.1133 16.5183 8.11494C12.7145 8.11494 10.9742 11.1963 10.9742 15.5703C10.9742 21.0804 13.2316 23.2857 16.548 23.2857C18.4454 23.2857 19.692 22.4256 20.4497 20.8206V22.9975H24.3514V8.39902H20.4497V10.6441C19.831 9.19966 18.5496 8.12807 16.7004 8.11096ZM17.6925 11.5605C19.2901 11.5605 20.249 12.7606 20.249 14.8019L20.2527 16.8868C20.2527 18.2626 19.4607 19.8722 17.6925 19.8722C14.9741 19.8722 15.0467 16.7112 15.0467 15.6584C15.0467 12.1169 16.4951 11.5605 17.6925 11.5605ZM25.9271 15.699C25.9271 13.9251 25.8483 8.12045 32.8705 8.12045C35.6893 8.12045 36.8664 9.0857 36.8664 9.0857L35.9203 12.2457C35.9203 12.2457 34.7448 11.5486 33.2131 11.5486C31.2513 11.5486 29.9994 12.7734 29.9994 14.9284L30.0016 16.4737C30.0016 18.5444 31.2094 19.9266 33.2171 19.9266C34.6126 19.9266 35.8987 19.223 35.8987 19.223L36.8423 22.317C36.8423 22.317 35.7661 23.2883 32.8902 23.2883C26.204 23.2883 25.9272 18.0804 25.9272 15.699H25.9271ZM59.7435 8.11494C63.5474 8.11494 65.3151 11.1963 65.3151 15.5703C65.3151 21.0804 63.0576 23.2857 59.7412 23.2857C57.8438 23.2857 56.4412 22.4258 55.6835 20.8206V22.9975L51.8309 22.9959V1.09817L55.9214 0.713973V10.4463C56.5118 8.74359 58.452 8.11494 59.7436 8.11494H59.7435ZM58.5967 11.5605C56.9992 11.5605 55.9214 12.7606 55.9214 14.8019L55.9176 16.8868C55.9152 18.2626 56.664 19.8722 58.5967 19.8722C61.3151 19.8722 61.2425 16.7112 61.2425 15.6584C61.2425 12.1169 59.7943 11.5605 58.5967 11.5605ZM43.9637 8.12702C39.6494 8.12702 37.3717 10.6603 37.3717 15.1621V15.9985C37.3717 21.8414 40.5703 23.3458 44.3836 23.3458C48.0901 23.3458 49.7678 22.2293 49.7678 22.2293L49.0024 19.256C49.0024 19.256 47.0289 20.1603 44.874 20.1603C42.6401 20.1603 41.6794 19.5471 41.4331 17.2351H50.0949V14.8499C50.0949 9.96653 47.5386 8.1269 43.9636 8.1269L43.9637 8.12702ZM44.0677 11.1042C45.5611 11.1042 46.5288 12.0905 46.4756 14.3777H41.4407C41.528 11.9704 42.5715 11.1044 44.0677 11.1044V11.1042ZM73.4714 8.10697C69.0409 8.10697 66.7085 10.7958 66.7085 15.6143C66.7085 22.2255 70.7291 23.2897 73.4788 23.2897C77.5041 23.2897 80.1822 20.9558 80.1822 15.6743C80.1822 10.1772 77.171 8.10697 73.4714 8.10697ZM73.4156 11.5725C75.3638 11.5725 76.1357 13.1427 76.1357 14.9301V16.4667C76.1357 18.632 75.0556 19.8843 73.4082 19.8843C71.8676 19.8843 70.7848 18.7128 70.7848 16.4667V14.9301C70.7848 12.5346 72.0732 11.5725 73.4156 11.5725ZM88.3312 8.10697C83.9007 8.10697 81.5683 10.7958 81.5683 15.6143C81.5683 22.2255 85.5889 23.2897 88.3386 23.2897C92.3638 23.2897 95.042 20.9558 95.042 15.6743C95.042 10.1772 92.0307 8.10697 88.3312 8.10697ZM88.2754 11.5725C90.2236 11.5725 90.9954 13.1427 90.9954 14.9301V16.4667C90.9954 18.632 89.9153 19.8843 88.268 19.8843C86.7274 19.8843 85.6446 18.7128 85.6446 16.4667V14.9301C85.6446 12.5346 86.933 11.5725 88.2754 11.5725ZM96.5878 22.996V1.09817L100.69 0.713973V15.3913L104.76 8.39749H109.093L104.847 15.641L109.256 22.996H104.911L100.69 15.8544V22.996H96.5878Z" fill="#1877F2"/>
</svg>
