<svg width="115" height="40" viewBox="0 0 115 40" fill="none" xmlns="http://www.w3.org/2000/svg">
<path d="M48.8014 21.0503C48.8014 26.805 44.5765 31.0456 39.3914 31.0456C34.2064 31.0456 29.9814 26.805 29.9814 21.0503C29.9814 15.255 34.2064 11.0549 39.3914 11.0549C44.5765 11.0549 48.8014 15.255 48.8014 21.0503ZM44.6822 21.0503C44.6822 17.4541 42.2335 14.9936 39.3914 14.9936C36.5494 14.9936 34.1007 17.4541 34.1007 21.0503C34.1007 24.6104 36.5494 27.107 39.3914 27.107C42.2335 27.107 44.6822 24.6059 44.6822 21.0503Z" fill="#EA4335"/>
<path d="M69.1012 21.0503C69.1012 26.805 64.8762 31.0456 59.6912 31.0456C54.5062 31.0456 50.2812 26.805 50.2812 21.0503C50.2812 15.2595 54.5062 11.0549 59.6912 11.0549C64.8762 11.0549 69.1012 15.255 69.1012 21.0503ZM64.982 21.0503C64.982 17.4541 62.5332 14.9936 59.6912 14.9936C56.8492 14.9936 54.4005 17.4541 54.4005 21.0503C54.4005 24.6104 56.8492 27.107 59.6912 27.107C62.5332 27.107 64.982 24.6059 64.982 21.0503Z" fill="#FBBC05"/>
<path d="M88.556 11.6588V29.6035C88.556 36.9851 84.4706 40 79.6408 40C75.0944 40 72.3581 36.7598 71.3262 34.11L74.9126 32.5192C75.5512 34.1461 77.116 36.0658 79.6366 36.0658C82.7282 36.0658 84.644 34.0334 84.644 30.2074V28.7698H84.5002C83.5782 29.9821 81.8019 31.0411 79.5605 31.0411C74.8703 31.0411 70.5734 26.6879 70.5734 21.0863C70.5734 15.4442 74.8703 11.0549 79.5605 11.0549C81.7977 11.0549 83.574 12.114 84.5002 13.2901H84.644V11.6633H88.556V11.6588ZM84.9358 21.0863C84.9358 17.5668 82.7324 14.9936 79.9284 14.9936C77.0864 14.9936 74.7053 17.5668 74.7053 21.0863C74.7053 24.5698 77.0864 27.107 79.9284 27.107C82.7324 27.107 84.9358 24.5698 84.9358 21.0863Z" fill="#4285F4"/>
<path d="M95.0055 1.14062V30.4326H90.9877V1.14062H95.0055Z" fill="#34A853"/>
<path d="M110.662 24.3396L113.859 26.6109C112.827 28.2377 110.341 31.0407 106.044 31.0407C100.715 31.0407 96.7352 26.6514 96.7352 21.0454C96.7352 15.1014 100.749 11.05 105.583 11.05C110.451 11.05 112.832 15.178 113.61 17.4087L114.037 18.5443L101.497 24.0782C102.457 26.0836 103.95 27.1066 106.044 27.1066C108.141 27.1066 109.596 26.007 110.662 24.3396ZM100.821 20.7435L109.203 17.0346C108.742 15.7863 107.355 14.9166 105.722 14.9166C103.629 14.9166 100.715 16.8859 100.821 20.7435Z" fill="#EA4335"/>
<path d="M14.7726 18.4495V14.2089H28.1835C28.3146 14.9479 28.3822 15.8222 28.3822 16.7686C28.3822 19.9501 27.566 23.8843 24.9354 26.6873C22.3768 29.5264 19.1076 31.0405 14.7769 31.0405C6.74982 31.0405 0 24.0735 0 15.5203C0 6.96699 6.74982 0 14.7769 0C19.2175 0 22.381 1.85666 24.7578 4.27664L21.9496 7.26893C20.2452 5.56548 17.9361 4.24058 14.7726 4.24058C8.91095 4.24058 4.32648 9.27431 4.32648 15.5203C4.32648 21.7662 8.91095 26.7999 14.7726 26.7999C18.5747 26.7999 20.74 25.1731 22.1272 23.695C23.2522 22.4963 23.9923 20.7838 24.2841 18.445L14.7726 18.4495Z" fill="#4285F4"/>
</svg>
