<svg xmlns="http://www.w3.org/2000/svg" width="143" height="38" fill="none" viewBox="0 0 143 38"><path fill="#CC1F27" d="M56.3124 13.8485H60.7903V28.8359H56.3124V13.8485Z"/><path fill="#CC1F27" d="M61.7254 13.8485H66.0384V15.8976H66.1207C67.1647 14.2876 68.5107 13.4095 70.4613 13.4095C73.538 13.4095 75.3511 15.7513 75.3511 19.0883V28.8359H70.8733V20.0543C70.8733 18.4735 70.1316 17.3904 68.6757 17.3904C67.1923 17.3904 66.2032 18.7077 66.2032 20.5518V28.8359H61.7254V13.8485Z"/><path fill="#CC1F27" d="M61.2366 9.83919C61.2366 8.25839 60.034 6.97706 58.5506 6.97706C57.0672 6.97706 55.8646 8.25839 55.8646 9.83919C55.8646 11.4198 57.0672 12.7012 58.5506 12.7012C60.034 12.7012 61.2366 11.4198 61.2366 9.83919Z"/><path fill="#CC1F27" d="M106.845 13.6322C106.718 13.6199 106.571 13.6145 106.4 13.6145C104.697 13.6145 103.543 14.4048 102.554 16.1904H102.471V13.8487H98.1859V28.8359H102.664V22.1034C102.664 18.9839 104.285 17.5383 106.845 17.7906V13.6322Z"/><path fill="#CC1F27" d="M128.818 19.3818C127.032 19.0306 125.439 18.8843 125.439 17.8305C125.439 16.8937 126.29 16.4547 127.389 16.4547C128.625 16.4547 129.477 16.8645 129.642 18.2111H133.763C133.543 15.2546 131.4 13.4103 127.417 13.4103C124.093 13.4103 121.345 15.0496 121.345 18.2111C121.345 21.7235 123.955 22.4261 126.4 22.8653C128.268 23.2166 129.971 23.363 129.971 24.7094C129.971 25.6755 129.12 26.2023 127.774 26.2023C126.423 26.2023 125.53 25.5935 125.256 24.3583H120.989C121.303 27.4392 123.841 29.3052 127.801 29.3052C131.482 29.3052 134.202 27.6074 134.202 24.329C134.202 20.4942 131.29 19.821 128.818 19.3818Z"/><path fill="#CC1F27" d="M113.792 16.8055C115.248 16.8055 116.292 17.9472 116.457 19.7329H110.908C111.21 17.9472 112.089 16.8055 113.792 16.8055ZM114.039 25.8506C112.199 25.8506 111.155 24.592 110.88 22.5722H120.99C121.017 19.528 120.193 16.9227 118.517 15.2835C117.308 14.1126 115.715 13.41 113.709 13.41C109.424 13.41 106.485 16.8348 106.485 21.3136C106.485 25.8506 109.342 29.2756 113.984 29.2756C115.77 29.2756 117.198 28.778 118.38 27.8998C119.616 26.9924 120.44 25.7044 120.742 24.358H116.374C115.99 25.2946 115.221 25.8506 114.039 25.8506Z"/><path fill="#CC1F27" d="M142.086 25.3015C141.879 25.3102 141.6 25.323 141.344 25.323C140.383 25.323 139.779 25.0302 139.779 23.8593V16.834H142.086V13.8482H139.779V9.10614H135.411V13.8482H134.036V16.834H135.411V24.8839C135.411 28.1039 137.279 29.0112 139.889 29.0112C140.884 29.0112 141.637 28.9318 142.086 28.8383V25.3015Z"/><path fill="#CC1F27" d="M83.3455 25.3097C83.1669 25.3171 82.9607 25.3245 82.7681 25.3245C81.8067 25.3245 81.2022 25.0317 81.2022 23.8608V16.8354H83.3455V13.8497H81.2022V9.10761H76.8343V13.8497H75.3778V16.8354H76.8343V24.8853C76.8343 28.1054 78.7023 29.0127 81.3121 29.0127C82.1951 29.0127 82.8865 28.9501 83.3455 28.8708V25.3097Z"/><path fill="#CC1F27" d="M93.1026 19.7329C92.9379 17.9473 91.8938 16.8055 90.4378 16.8055C88.7346 16.8055 87.8556 17.9473 87.5533 19.7329H93.1026ZM83.1305 21.3136C83.1305 16.8349 86.0699 13.4102 90.3555 13.4102C92.3608 13.4102 93.9542 14.1126 95.163 15.2835C96.8387 16.9228 97.6627 19.528 97.6353 22.5723H87.526C87.8005 24.592 88.8445 25.8507 90.6852 25.8507C91.8663 25.8507 92.6356 25.2946 93.02 24.3579H97.3881C97.0858 25.7044 96.2618 26.9924 95.0255 27.8999C93.8443 28.778 92.4158 29.2756 90.6301 29.2756C85.9874 29.2756 83.1305 25.8507 83.1305 21.3136Z"/><path fill="#CC1F27" d="M48.5368 17.7418C50.295 17.7418 51.2839 16.6294 51.2839 14.9608C51.2839 13.2924 50.2674 12.2679 48.5368 12.2679H45.1027V17.7418H48.5368ZM40.5693 7.90632H48.3453C50.7351 7.90632 52.4934 8.60878 53.7021 9.83828C54.9658 11.0969 55.6801 12.8826 55.6801 14.9902C55.6801 19.0004 53.0703 21.84 49.0319 21.84H45.1027V28.8359H40.5693V7.90632Z"/><path fill="#fff" d="M34.4234 19.0004C34.4234 28.9495 26.8542 37.0149 17.5172 37.0149C8.18027 37.0149 0.611084 28.9495 0.611084 19.0004C0.611084 9.05119 8.18027 0.985935 17.5172 0.985935C26.8542 0.985935 34.4234 9.05119 34.4234 19.0004Z"/><path fill="#CC1F27" d="M17.5167 0.985447C8.17973 0.985447 0.610535 9.05085 0.610535 18.9999C0.610535 26.6318 5.06671 33.156 11.3557 35.7808C11.2079 34.3555 11.0743 32.1635 11.4143 30.6075C11.7215 29.2015 13.3967 21.6531 13.3967 21.6531C13.3967 21.6531 12.891 20.5739 12.891 18.9785C12.891 16.4736 14.2536 14.6035 15.9501 14.6035C17.3925 14.6035 18.0892 15.7574 18.0892 17.1411C18.0892 18.6867 17.1657 20.9976 16.6891 23.1391C16.2908 24.9321 17.5329 26.3943 19.1926 26.3943C22.1974 26.3943 24.5072 23.0183 24.5072 18.1451C24.5072 13.8318 21.5986 10.8161 17.4453 10.8161C12.6349 10.8161 9.81142 14.6607 9.81142 18.6339C9.81142 20.1822 10.3712 21.8424 11.0696 22.745C11.2078 22.9234 11.228 23.0796 11.1869 23.2617C11.0585 23.8306 10.7733 25.0542 10.7173 25.3047C10.6436 25.6344 10.4723 25.7044 10.1519 25.5455C8.04045 24.4982 6.7203 21.2088 6.7203 18.5667C6.7203 12.8841 10.5951 7.66527 17.8909 7.66527C23.7556 7.66527 28.3132 12.1184 28.3132 18.0696C28.3132 24.2781 24.6395 29.2746 19.5404 29.2746C17.8273 29.2746 16.2168 28.3263 15.6655 27.2061C15.6655 27.2061 14.8178 30.6456 14.6123 31.4885C14.2306 33.0532 13.2002 35.0145 12.511 36.2111C14.0928 36.7329 15.7739 37.0144 17.5167 37.0144C26.8538 37.0144 34.423 28.949 34.423 18.9999C34.423 9.05085 26.8538 0.985447 17.5167 0.985447Z"/></svg>