<svg width="91" height="34" viewBox="0 0 91 34" fill="none" xmlns="http://www.w3.org/2000/svg">
<path fill-rule="evenodd" clip-rule="evenodd" d="M91 11.243V27.158L82.8966 33.2535H77.9149V30.5442L74.1776 33.2535H69.8178V30.5442L67.0151 33.2535H58.9186L56.4278 30.5442L55.8046 33.2535L48.658 33.2327L45.8399 30.5442L45.5286 33.2535L37.4322 33.2327L37.1209 30.5442L34.9414 33.2327L22.4852 33.2535L19.9937 31.8989V33.2535H13.1424L5.66851 28.1741L0.997437 23.0948V0.746582H10.6509L15.3219 5.82592H36.4977V0.746582H53.9369V5.82592H58.2967V8.53517L60.7882 5.82592H66.0825L70.7536 0.746582H80.7183V5.82592H86.0126L91 11.243ZM13.1424 8.1953H8.78256V3.11597H3.17702V22.0794L6.60235 26.1426H13.1424V19.7086H8.78256V14.2915H13.1424V8.1953ZM36.4977 8.1953H30.8922V19.7093H28.7126V8.1953H23.4183V19.7093H21.2388V8.1953H15.3219V26.1426H32.7611L36.4977 22.0794V8.1953ZM43.9716 8.1953H38.6773V26.1426H43.9716V8.1953ZM43.9716 3.11597H38.6773V5.82522H43.9716V3.11597ZM56.1165 8.1953H51.7567V3.11597H46.1518V22.0794L49.5771 26.1426H56.1152V19.7086H51.7554V14.2915H56.1152L56.1165 8.1953ZM70.441 8.1953H61.7221L58.2967 11.92V22.0794L62.0333 26.1426H70.4404V19.7086H64.2123V14.2915H70.4404L70.441 8.1953ZM88.814 11.92L85.0774 8.1953H78.5381V3.11597H72.6212V26.1426H78.5381V14.2901H82.8979V26.1419H88.8147L88.814 11.92Z" fill="#9147FF"/>
</svg>
