<svg width="136" height="38" viewBox="0 0 136 38" fill="none" xmlns="http://www.w3.org/2000/svg">
<path d="M43.9611 15.065C43.9611 12.4611 41.6167 9.73034 37.5419 9.73034C32.9722 9.73034 27.9551 13.3155 27.1868 20.4713C26.4018 27.697 30.6034 30.9079 34.8386 30.9079C39.0737 30.9079 41.2914 29.1421 43.5594 26.7873C41.609 24.1671 39.0905 25.3779 38.6079 25.6448C37.809 26.1192 36.9043 26.3537 35.9901 26.3235C34.3559 26.3235 32.6881 25.539 32.6881 22.2745C43.1592 21.1678 43.9595 17.6526 43.9595 15.065H43.9611ZM38.7713 15.493C38.7041 16.2953 38.4048 17.6689 33.102 18.4386C34.2169 14.1911 36.3552 13.8721 37.3372 13.8721C37.5362 13.8624 37.7349 13.8985 37.9197 13.9779C38.1045 14.0573 38.271 14.1781 38.4081 14.3322C38.5452 14.4863 38.6495 14.67 38.714 14.8708C38.7785 15.0717 38.8017 15.285 38.782 15.4963L38.7713 15.493ZM21.0364 16.1895L18.6019 24.3787L16.8837 10.16C13.0502 10.16 10.9884 13.0861 9.91317 16.1716L6.94412 24.3966L6.52717 16.2595C6.30113 12.4774 3.06022 10.1762 0.440918 10.1762L3.60852 30.7468C7.62529 30.7305 9.79405 27.8207 10.9288 24.7351L13.4397 17.7421C13.4626 18.0269 15.1747 30.7484 15.1747 30.7484C19.2098 30.7484 21.3785 28.0192 22.5408 25.0394L28.1918 10.1779C24.2132 10.1779 22.1162 13.0861 21.0334 16.1895H21.0364ZM58.7697 9.67989C56.2848 9.67989 54.3863 11.125 52.7827 13.2472V13.2309L54.2153 0.867432C50.9133 0.867432 48.2283 3.93674 47.7121 8.50327L45.2287 30.5873C47.1302 30.5873 49.1477 29.9982 50.2321 28.4993C51.2004 29.837 52.6498 30.9079 54.8018 30.9079C60.3703 30.9079 64.19 23.9865 64.19 17.4915C64.1564 11.5677 61.4715 9.69616 58.7865 9.69616L58.7697 9.67989ZM58.2504 20.2955C57.67 23.9165 55.7823 26.3788 53.9663 26.3788C52.1504 26.3788 51.3486 25.5049 51.3486 25.5049C51.6998 22.3314 51.9167 20.385 52.5826 18.7072C53.2485 17.0293 54.8338 14.3538 56.4848 14.3538C58.1038 14.3538 58.8369 16.655 58.2519 20.2939L58.2504 20.2955ZM78.0777 10.1616H74.1923L74.2075 9.94678C74.4748 7.23551 75.075 5.80826 77.0544 5.57554C78.4061 5.43233 79.0063 4.68372 79.156 3.8635L79.6401 0.991116C71.8509 0.937411 69.3859 4.53888 68.7581 10.0363L68.7429 10.1616H68.6589C67.3912 10.1616 65.9922 11.6963 65.757 13.641L65.673 14.3538H68.2755L66.0915 33.655L65.4226 37.1165C65.5066 37.1165 65.6058 37.1328 65.6883 37.1328C69.3385 36.9895 71.6753 33.904 72.1915 29.4253L73.896 14.3506H75.1178C76.3182 14.3506 77.7203 13.0649 77.9647 10.9249L78.0777 10.1616ZM98.2868 9.80357C93.8011 9.80357 89.566 13.3351 88.2678 18.8845C86.9696 24.434 88.9367 30.9974 95.5377 30.9974C102.139 30.9974 105.919 24.1623 105.919 18.4728C105.925 12.8175 102.342 9.80194 98.2883 9.80194L98.2868 9.80357ZM100.104 20.1149C99.8721 22.6309 98.8366 26.4488 96.002 26.4488C93.1673 26.4488 93.5507 21.9897 93.8256 19.8659C94.1264 17.6005 95.3101 14.3717 97.8607 14.3717C100.155 14.3717 100.37 17.2799 100.106 20.1165L100.104 20.1149ZM128.084 16.1716L125.65 24.3608C125.584 23.718 123.933 10.1421 123.933 10.1421C120.1 10.1421 118.047 13.0682 116.972 16.1537L114.003 24.3787C113.987 23.7896 113.586 16.2416 113.586 16.2416C113.344 12.4595 110.106 10.1583 107.477 10.1583L110.627 30.7289C114.644 30.7126 116.813 27.8028 117.948 24.7172L120.449 17.7242C120.465 18.009 122.184 30.7305 122.184 30.7305C126.219 30.7305 128.379 28.0013 129.55 25.0215L135.206 10.16C131.238 10.16 129.137 13.0682 128.069 16.1716H128.084ZM81.7462 0.987862L78.4778 29.191L77.8089 32.6704C77.8913 32.6704 77.9922 32.6867 78.0746 32.6867C81.5905 32.633 84.0922 29.3342 84.561 25.1761L86.4442 8.99474C87.0154 4.05228 84.2647 0.984606 81.7462 0.984606V0.987862Z" fill="#4353FF"/>
</svg>
