<svg width="116" height="28" viewBox="0 0 116 28" fill="none" xmlns="http://www.w3.org/2000/svg">
<path d="M36.4744 4.60194C36.0516 2.9283 34.8131 1.6087 33.2425 1.15811C30.373 0.321289 18.895 0.321289 18.895 0.321289C18.895 0.321289 7.41706 0.321289 4.54757 1.12592C3.0071 1.57652 1.73849 2.9283 1.31561 4.60194C0.560486 7.65954 0.560486 14.0001 0.560486 14.0001C0.560486 14.0001 0.560486 20.3727 1.31561 23.3982C1.73849 25.0718 2.9769 26.3914 4.54757 26.842C7.44726 27.6788 18.895 27.6788 18.895 27.6788C18.895 27.6788 30.373 27.6788 33.2425 26.8742C34.8131 26.4236 36.0516 25.104 36.4744 23.4304C37.2296 20.3727 37.2296 14.0322 37.2296 14.0322C37.2296 14.0322 37.2598 7.65954 36.4744 4.60194Z" fill="#FF0000"/>
<path d="M15.2383 19.8575L24.7831 13.9998L15.2383 8.14209V19.8575Z" fill="white"/>
<path d="M53.813 25.2325C53.0881 24.7176 52.5746 23.9129 52.2725 22.7864C51.9705 21.6921 51.8195 20.2116 51.8195 18.4092V15.931C51.8195 14.0964 52.0007 12.6159 52.3329 11.4894C52.6954 10.3629 53.2391 9.55827 53.964 9.0433C54.7192 8.52834 55.6857 8.27085 56.8939 8.27085C58.0719 8.27085 59.0385 8.52834 59.7634 9.0433C60.4883 9.55827 61.0018 10.3951 61.3341 11.4894C61.6663 12.5837 61.8476 14.0642 61.8476 15.931V18.4092C61.8476 20.2438 61.6965 21.6921 61.3643 22.8186C61.032 23.9129 60.5185 24.7497 59.7936 25.2647C59.0687 25.7797 58.0719 26.0372 56.8335 26.0372C55.5649 26.005 54.5379 25.7475 53.813 25.2325ZM57.8907 22.529C58.1021 21.9818 58.1928 21.0484 58.1928 19.7932V14.4504C58.1928 13.2274 58.1021 12.3262 57.8907 11.7469C57.6793 11.1675 57.347 10.9101 56.8335 10.9101C56.3502 10.9101 55.9878 11.1997 55.8065 11.7469C55.5951 12.3262 55.5045 13.2274 55.5045 14.4504V19.7932C55.5045 21.0484 55.5951 21.9818 55.8065 22.529C55.9878 23.0761 56.3502 23.3658 56.8637 23.3658C57.347 23.3658 57.6793 23.1083 57.8907 22.529ZM109.572 18.4414V19.3104C109.572 20.4047 109.602 21.2415 109.662 21.7887C109.723 22.3358 109.844 22.7542 110.055 22.9795C110.236 23.237 110.538 23.3658 110.961 23.3658C111.505 23.3658 111.867 23.1405 112.079 22.6899C112.29 22.2393 112.381 21.499 112.411 20.4369L115.522 20.63C115.552 20.7909 115.552 20.9841 115.552 21.2415C115.552 22.8186 115.16 24.0095 114.344 24.7819C113.529 25.5544 112.381 25.9406 110.901 25.9406C109.119 25.9406 107.88 25.3291 107.155 24.1382C106.43 22.9474 106.068 21.1128 106.068 18.6023V15.6091C106.068 13.0343 106.43 11.1675 107.186 9.97668C107.941 8.78582 109.209 8.20648 110.991 8.20648C112.23 8.20648 113.196 8.46396 113.861 8.94674C114.525 9.42952 114.978 10.202 115.25 11.1997C115.522 12.2296 115.643 13.6458 115.643 15.4482V18.377H109.572V18.4414ZM110.025 11.2319C109.844 11.4894 109.723 11.8756 109.662 12.4228C109.602 12.9699 109.572 13.8067 109.572 14.9332V16.1563H112.23V14.9332C112.23 13.8389 112.2 13.0021 112.139 12.4228C112.079 11.8434 111.928 11.4572 111.746 11.2319C111.565 11.0066 111.263 10.8779 110.901 10.8779C110.478 10.8457 110.206 10.9744 110.025 11.2319ZM44.9931 18.1196L40.8852 2.2522H44.4796L45.9295 9.42952C46.2919 11.1997 46.5638 12.7124 46.745 13.9677H46.8356C46.9564 13.0665 47.2283 11.5859 47.6511 9.46171L49.1614 2.2522H52.7558L48.5875 18.1196V25.7153H45.0233V18.1196H44.9931ZM73.537 8.59271V25.7475H70.6977L70.3956 23.6554H70.305C69.5499 25.2325 68.3719 26.0372 66.8314 26.0372C65.7742 26.0372 64.9889 25.6509 64.4754 24.9107C63.9619 24.1704 63.7203 23.0117 63.7203 21.4025V8.59271H67.3449V21.1772C67.3449 21.9496 67.4355 22.4968 67.5866 22.8186C67.7376 23.1405 68.0094 23.3014 68.3719 23.3014C68.6739 23.3014 68.976 23.2048 69.278 22.9795C69.5801 22.7864 69.7915 22.529 69.9124 22.2071V8.59271H73.537ZM92.1131 8.59271V25.7475H89.2739L88.9718 23.6554H88.8812C88.1261 25.2325 86.9481 26.0372 85.4076 26.0372C84.3504 26.0372 83.5651 25.6509 83.0516 24.9107C82.5381 24.1704 82.2965 23.0117 82.2965 21.4025V8.59271H85.9211V21.1772C85.9211 21.9496 86.0117 22.4968 86.1627 22.8186C86.3138 23.1405 86.5856 23.3014 86.9481 23.3014C87.2501 23.3014 87.5522 23.2048 87.8542 22.9795C88.1563 22.7864 88.3677 22.529 88.4885 22.2071V8.59271H92.1131Z" fill="#170F49"/>
<path d="M83.3843 5.37428H79.7899V25.7154H76.2559V5.37428H72.6615V2.2523H83.3843V5.37428ZM104.105 11.3286C103.894 10.2343 103.531 9.46182 103.048 8.97904C102.565 8.49626 101.87 8.23878 101.024 8.23878C100.36 8.23878 99.7253 8.43189 99.1514 8.8503C98.5775 9.23652 98.1245 9.78367 97.8224 10.4274H97.7922V1.3833H94.2884V25.7154H97.2787L97.6412 24.1061H97.7318C98.0036 24.6855 98.4265 25.1361 99.0004 25.4901C99.5743 25.812 100.178 26.0051 100.873 26.0051C102.112 26.0051 102.987 25.3936 103.561 24.2027C104.135 23.0118 104.437 21.1129 104.437 18.5703V15.8667C104.407 13.9034 104.317 12.3907 104.105 11.3286ZM100.783 18.3128C100.783 19.568 100.722 20.5336 100.631 21.2416C100.541 21.9497 100.36 22.4647 100.148 22.7544C99.9066 23.044 99.6045 23.205 99.242 23.205C98.94 23.205 98.6681 23.1406 98.4265 22.9797C98.1849 22.8187 97.9734 22.5934 97.8224 22.3038V12.5838C97.9432 12.1332 98.1547 11.747 98.4567 11.4251C98.7588 11.1355 99.091 10.9745 99.4233 10.9745C99.7857 10.9745 100.088 11.1355 100.269 11.4251C100.48 11.747 100.601 12.2619 100.692 12.97C100.783 13.7103 100.813 14.7402 100.813 16.0598V18.3128H100.783Z" fill="#170F49"/>
</svg>
